<?xml version="1.0" encoding="UTF-8"?>
<svg width="1200pt" height="1200pt" version="1.1" viewBox="0 0 1200 1200" xmlns="http://www.w3.org/2000/svg">
 <g fill="none" stroke="#000" stroke-linecap="round" stroke-linejoin="round" stroke-miterlimit="10" stroke-width="2">
  <path transform="matrix(18.75,0,0,18.75,0,75)" d="m56.882 7.24s-7.551 32.449-50.545 33.697l-1.674 0.34c-2.4671 0.50104-4.0679 2.94-3.574 5.4471 0.23396 1.19 0.90896 2.235 1.8971 2.9171 4.554 3.1421 19.501 11.265 42.423-1.949 13.475-7.7679 20.59-23.421 16.386-38.571-0.057916-0.21-0.11792-0.42-0.17896-0.63208l0.80292-4.895c0.22188-1.3581-0.80812-2.5942-2.1631-2.5942h-1.1821c-1.211 0-2.1921 0.99708-2.1921 2.2271z"/>
  <path transform="matrix(18.75,0,0,18.75,0,75)" d="m17 45.219c6.6671-0.97292 12.286-2.7679 17-4.986"/>
  <path transform="matrix(18.75,0,0,18.75,0,75)" d="m59.281 15c1.1229 10.596-4.3531 21.22-14.281 26.884"/>
  <path transform="matrix(18.75,0,0,18.75,0,75)" d="m10.892 40.667c38.967-3.316 45.99-33.427 45.99-33.427v-3.651l-0.58708 3.314s-11.64 26.905-49.775 21.13l-1.53 0.027916c-2.255 0.041042-4.041 1.8979-3.99 4.1479 0.023958 1.0679 0.46 2.081 1.2271 2.829 1.445 1.4073 4.2908 3.8083 8.665 5.6294z"/>
  <path transform="matrix(18.75,0,0,18.75,0,75)" d="m22.715 28.548c25.334-2.6 33.58-21.645 33.58-21.645l0.315-1.78-1.4029 2.566s-16.487 18.255-45.327 3.2179l-1.2271-0.39604c-1.8079-0.58396-3.729 0.40708-4.291 2.214-0.26708 0.85792-0.19208 1.784 0.21896 2.59 1.5102 2.9581 6.2602 10.386 18.134 13.233z"/>
 </g>
</svg>
