<?xml version="1.0" encoding="UTF-8"?>
<svg width="1200pt" height="1200pt" version="1.1" viewBox="0 0 1200 1200" xmlns="http://www.w3.org/2000/svg">
 <path d="m886.25 688.05c-0.80078-0.85156-78.398-87.352-68.852-180.7 0.64844-5.3516 14.25-131.65-58.352-200.2-33.301-31.449-79.148-44.102-135.3-40.051 2.4492-37.199 14.551-111.2 71.75-130.25 10.449-3.5 16.102-14.801 12.648-25.301-3.5508-10.449-14.898-16.199-25.352-12.648-27.75 9.25-47.301 26.699-61.801 47.148-14.602-49.801-36.699-84.5-66.352-103.15-26.75-16.801-57.648-20-91.898-9.5508-1.043 0.25-4.2422 1.2969-5.1914 1.7969-36.652 17.953-72.199-19.199-73.699-20.797-5.6484-5.9492-14.301-7.9492-22-5-7.6016 3.0469-12.652 10.398-12.652 18.598 0 73.148 22.301 128.7 66.352 165.1 46.301 38.301 106.2 46.301 148.3 46.301 8.5508 0 16-0.35156 22.852-0.85156-1.5 10.398-2.6016 20.199-3.1016 28.148-59.852-6.0508-107.8 7.5-142.7 40.551-72.602 68.5-58.902 194.8-58.301 199.9 9.3984 92.449-66.75 178.65-66.352 178.65-102.4 79.699-92.648 218.55-92.102 225.4 13.949 109 53 188.15 116.1 235.25 52.5 39.148 108.2 45.699 139.55 45.699 14.699 0 24.102-1.4492 25.199-1.6484 0.44922-0.050781 0.75-0.35156 1.1992-0.44922 0.35156-0.10156 0.75 0 1.1016-0.10156 1-0.30078 102.45-29.551 184.15-0.35156 0.75 0.25 1.4492 0.19922 2.1992 0.39844 0.5 0.10156 0.85156 0.39844 1.3008 0.5 1.1016 0.19922 10.5 1.6484 25.25 1.6484 31.352 0 87.051-6.5508 139.55-45.75 63.102-47.051 102.15-126.2 116.1-236.2 0.5-5.8438 10.297-144.7-89.602-222.09zm-445.35-525.95c-26-21.551-42.25-52.648-48.648-92.801 21.801 10.898 51 17.551 82.199 2.25 9.3008-2.8984 34.148-10.5 58.852 5.1484 27.602 17.398 47.852 59.199 58.801 121.2-31.453 3.1016-102.7 4.4023-151.2-35.797zm495.25 743.95c-12.449 97.5-46 167.45-99.75 207.8-62.051 46.801-131.1 37.551-134.45 37.148-90.199-30.75-193.6-3-204.25 0.050781-5.1992 0.60156-71.949 9.1484-133.45-36.75-54.102-40.352-87.801-110.4-100.2-207.3-0.10156-1.1992-8.3516-123.5 79.398-192.05 3.6992-4.1016 90.398-100.8 79-212.2-0.10156-1.1016-11.949-111.95 46.102-166.65 28-26.352 69.398-35.301 122.4-27.801 2.75 0.89844 5.6992 1.25 8.75 0.85156h0.19922 0.14844 0.25c0.14844 0 0.25 0 0.39844-0.050782 3.1016 0.44922 6.1016 0.10156 8.9492-0.85156 52.648-7.3516 94 1.5508 121.95 27.801 58.051 54.699 46.301 165.55 46.148 166.9-11.398 111.15 75.301 207.85 81.5 214.25 85.059 66.352 76.906 188.6 76.906 188.85z"/>
</svg>
