<?xml version="1.0" encoding="UTF-8"?>
<svg width="1200pt" height="1200pt" version="1.1" viewBox="0 0 1200 1200" xmlns="http://www.w3.org/2000/svg">
 <g>
  <path d="m698.6 729.89c-9.332-24.398-36.773-39.559-71.586-39.559-7.2656 0-14.762 0.93359-22.293 2.1875-0.69141 0.13281-1.0938-0.027344-1.9062 0.16016-0.22656 0.054687-0.45312 0.054687-0.69141 0.078125h-0.054688c-29.547 6.3984-53.785-1.3984-53.785-1.3984l-0.027344 0.10547c-10.281-2.5078-20.535-3.9062-30.492-3.9062-32.055 0-57.172 13.387-67.188 35.785-16.293 36.586 12.16 83.613 64.773 107.08 18.293 8.1719 37.586 12.508 55.773 12.508 0.83984 0 1.5352-0.23828 2.3867-0.23828 1.5586 0.054688 3.0547 0.23828 4.6797 0.23828 16.266 0 33.535-3.3086 49.934-9.6133 53.82-20.641 84.797-66.082 70.477-103.43zm-124.56 11.414c-21.879 0-39.613-15.988-39.613-25.078 0-9.1211 17.734-7.8945 39.613-7.8945 21.879 0 39.641-1.2266 39.641 7.8945-0.011719 9.0781-17.773 25.078-39.641 25.078z"/>
  <path d="m573.76 528.89c-12.734-16.188-36.945-21.227-63.16-13.078-5.4258 1.7188-10.906 4.1602-16.254 6.8789-0.50781 0.25391-0.85156 0.22656-1.3867 0.53516-0.17188 0.078125-0.34766 0.1875-0.50781 0.28125l-0.054687-0.003907c-20.746 11.707-40.801 11.48-40.801 11.48l-0.039062 0.12109c-8.3203 0.46484-16.359 1.8398-23.895 4.1484-24.121 7.5078-39.922 23.453-42.215 42.652-3.7344 31.359 28.68 60.133 73.773 65.508 15.719 1.9062 31.238 0.625 44.934-3.6016 0.65234-0.21484 1.1055-0.54688 1.7344-0.73438 1.1992-0.38672 2.375-0.51953 3.5859-0.93359 12.254-3.7734 24.52-10.332 35.375-18.906 35.723-28.137 48.43-69.551 28.91-94.348zm-91.137 37.68c-16.48 5.1211-33.602-2.8125-35.707-9.6406-2.1211-6.8398 11.547-10.039 28.012-15.16 16.465-5.1328 29.535-10.227 31.68-3.3477 2.0977 6.8555-7.4883 23.055-23.984 28.148z"/>
  <path d="m798.01 604.15c-7.5078-12.293-17.078-23.105-27.652-31.254-1-0.80078-2.0781-1.4258-3.1328-2.2266-0.51953-0.41406-0.86719-0.87891-1.3867-1.3086-11.84-9.1484-26.547-15.973-42.508-19.852-45.945-11.148-87.973 5.1328-95.734 37.066-4.7188 19.535 4.8945 40.812 25.68 56.906 6.4531 5 13.867 9.2383 21.773 12.762l-0.011719 0.054687s19.625 7.0547 35.625 26.039c0.027344 0 0.027344 0.027343 0.027344 0.027343 0.14844 0.13281 0.26562 0.30859 0.39844 0.44141 0.44141 0.51953 0.76172 0.60156 1.1602 1.0664 4.2539 4.5586 8.6523 8.9062 13.359 12.574 22.586 17.453 48 21.332 66.293 10.215 28.031-17.074 30.711-62.102 6.1094-102.51zm-68.09 68.773c-4.5586 5.9336-15.465-3.8008-29.68-14.719-14.199-10.988-26.348-19.039-21.773-24.945 4.5352-5.9062 24.121-7.4258 38.266 3.5195 14.254 11.008 17.758 30.25 13.188 36.145z"/>
  <path d="m600 58.785c-154.09 0-412.56 16.348-412.56 125.77 0 1.6016 0.21484 3.1211 0.30859 4.668-0.09375-0.12109-0.21484-0.19922-0.30859-0.29297v826.54c0 109.43 258.48 125.79 412.56 125.79 154.07 0 412.56-16.359 412.56-125.79v-830.92c0-109.43-258.49-125.76-412.56-125.76zm343.15 838.61c-24.254 21.695-143.27 53.535-343.15 53.535-199.52 0-318.48-31.719-343.05-53.441v-546.09c72.641 38.105 242.36 49.441 343.05 49.441 100.69 0 270.44-11.332 343.05-49.453zm-0.09375-579.8c-24.508 21.707-143.48 53.453-343.05 53.453-199.52 0-318.48-31.734-343.05-53.426v-86.133c74.281 37.691 236.38 49.078 343.05 49.078s268.76-11.387 343.05-49.078zm-343.05-76.75c-212.65 0-334.21-36.426-343.05-55.188v-0.375c8.8398-20.574 130.4-57 343.05-57 213.25 0 334.96 36.68 343.17 55.348-8.2109 20.523-129.92 57.215-343.17 57.215zm-343.05 690.46c72.641 38.121 242.36 49.426 343.05 49.426 100.73 0 270.57-11.359 343.15-49.535l0.027343 83.281c-8.2148 20.547-129.92 57.238-343.17 57.238-213.31 0-334.99-36.691-343.05-56.281z"/>
  <path d="m600 144.05c-100.48 0-269 5.2656-269 40.535 0 35.266 168.52 40.535 269 40.535 100.46 0 269-5.2656 269-40.535 0-35.27-168.54-40.535-269-40.535zm0 58.277c-121.48 0-205.95-9.1875-236.45-17.746 30.508-8.5586 114.99-17.773 236.45-17.773s205.93 9.2148 236.44 17.773c-30.508 8.5625-114.98 17.746-236.44 17.746z"/>
 </g>
</svg>
