<?xml version="1.0" encoding="UTF-8"?>
<svg width="1200pt" height="1200pt" version="1.1" viewBox="0 0 1200 1200" xmlns="http://www.w3.org/2000/svg">
 <path d="m1048.1 798.53h-894.22c-68.363 0-91.668-52.57-76.906-112.04 6.1211-24.66 18.781-51.73 37.992-79.008 67.906-96.395 219.57-197.83 456.49-205.68 263.65-6.6133 435.84 91.766 514.39 205.37 29.555 42.73 53.137 101.68 35.16 146.77-10.969 27.516-35.449 44.605-72.91 44.605zm-669.82-341c20.387 36.156 40.5 66.84 57.301 88.559 15.66 20.242 25.453 32.449 25.906 32.195 0.14453-0.085938-4.7383-12.973-12.07-34.105-8.832-25.488-23.555-59.004-42.059-95.004-9.9375 2.6055-19.621 5.3984-29.074 8.3633zm-224.4 316.85h894.23c115.19 0 51.156-220.44-202.74-310.04-21.215 38.195-43.055 71.664-61.453 95.496-50.23 65.062-81.816 49.812-56.016-24.203 8.8086-25.285 23.062-57.926 40.871-92.953-39.625-8.6406-82.871-14.387-129.82-16.414-0.38281 37.188-4.6094 175.16-39.863 175.16-34.836 0-37.801-138.27-38.207-175.04-46.727 2.1719-89.879 8.1133-129.5 16.957 15.84 31.211 70.465 140.3 41.617 156.07-31.094 16.992-99.383-100.77-117.98-134.07-251.14 89.953-321.59 309.04-201.14 309.04zm639-325.99c-18.516 35.941-33.289 69.504-42.238 95.16-7.4414 21.324-12.348 34.465-12.301 34.668 0.875-0.3125 10.969-12.961 26.52-33.109 17.102-22.152 37.355-53.051 57.227-88.477-9.4922-2.9297-19.234-5.6875-29.23-8.2578zm-207.84-22.789c0.44531 42.457 3.2656 81.301 7.5586 110.15 7.9219 53.051 4.8359 57.156 14.137-0.80469 4.5859-28.535 7.668-66.961 8.0742-109.38l-29.785 0.035156zm-376.04 160.87-31.285 31.848c-10.367 12.047 7.9336 27.805 18.301 15.758l29.113-29.676c11.797-10.609-4.3203-28.547-16.129-17.93zm-57.59 67.789c-10.414 17.258-18.926 37.008-21.887 56.82-2.207 14.699 7.8711 28.547 22.656 30.758l92.305 0.60156c15.984-0.070313 15.73-24.121 0-24.059l-88.414-0.34766c-10.379-1.2461 12.227-45.086 15.996-51.324 8.1953-13.598-12.457-26.051-20.664-12.457z" fill-rule="evenodd"/>
</svg>
