<?xml version="1.0" encoding="UTF-8"?>
<svg width="1200pt" height="1200pt" version="1.1" viewBox="0 0 1200 1200" xmlns="http://www.w3.org/2000/svg">
 <g>
  <path d="m77.625 634.86 55.875 307.37c5.4961 30.242 21.434 57.594 45.031 77.289 23.602 19.695 53.363 30.484 84.102 30.484h131.12v-37.5h-131.12c-21.941 0.003906-43.188-7.6875-60.039-21.734s-28.246-33.559-32.195-55.141l-54.148-298.12h892.5l-19.855 109.14 36.898 6.7109 21.543-118.5c17.402-5.1484 31.234-18.398 37.129-35.562 5.8906-17.164 3.1172-36.117-7.4492-50.867-10.566-14.754-27.621-23.48-45.766-23.426v-18.75c0.070312-79.695-20.305-158.07-59.176-227.64l29.176-64.254c17.602-38.715 14.328-83.719-8.6914-119.48-23.02-35.758-62.633-57.371-105.16-57.375h-7.1641 0.003906c-40.488 0.14844-78.414 19.852-101.81 52.895-108.74-56.637-235.37-68.312-352.63-32.512-20.781-13.25-44.898-20.32-69.543-20.383-34.797 0.039062-68.16 13.879-92.766 38.484s-38.445 57.969-38.484 92.766v12.695c-84.234 87.137-131.3 203.61-131.25 324.8v18.75c-18.152-0.066406-35.211 8.6523-45.789 23.406-10.574 14.75-13.355 33.707-7.4648 50.875s19.723 30.426 37.129 35.574zm802.61-559.86h7.1641-0.003906c29.766-0.003906 57.492 15.113 73.613 40.133 16.125 25.02 18.434 56.516 6.1328 83.617l-18.883 41.625c-7.5-10.875-15.43-21.488-23.832-31.668l6.8438-2.1016-10.988-35.867-23.586 7.2383c-25.746-26.191-54.461-49.289-85.555-68.832 16.527-21.434 42.027-34.031 69.094-34.145zm-523.99 0c6.1328 0.0625 12.242 0.73047 18.242 1.9883-38.809 17.051-75.125 39.285-107.96 66.094 5.5352-19.551 17.281-36.77 33.469-49.055 16.188-12.281 35.93-18.961 56.25-19.027zm206.25 0c114.34 0.12891 223.95 45.605 304.8 126.45s126.32 190.46 126.45 304.8v18.75h-37.5v-18.75c0.019531-95.301-34.539-187.37-97.258-259.12-62.719-71.75-149.34-118.31-243.79-131.04-94.445-12.73-190.3 9.2383-269.78 61.828-79.477 52.586-137.18 132.22-162.39 224.13-32.598 24.738-51.754 63.289-51.789 104.21 0.12891-114.34 45.605-223.95 126.45-304.8s190.46-126.32 304.8-126.45zm297.58 450 47.68-105c4.1328 16.02 7.1328 32.309 8.9805 48.75h-16.742v37.5h18.75v18.75zm-297.58-337.5c-26.945 0.38281-53.121 9.0195-75 24.75v-43.5c0-3.4883-0.58203-6.918-0.86328-10.387 24.922-5.4727 50.352-8.2734 75.863-8.3633 58.105-0.027344 115.32 14.258 166.59 41.586l-36.055 78.148c-35.363-51.691-80.609-82.234-130.54-82.234zm-112.5-19.273v0.52344 77.305c-11.586 13.559-21.875 28.172-30.73 43.652l-18.488-23.102-93.75 75 23.438 29.289 79.555-63.656c-19.105 38.824-32.922 80.035-41.078 122.53-15.305-21.57-36.824-37.961-61.688-46.98-24.863-9.0195-51.883-10.238-77.457-3.4961 18.645-49.371 48.098-93.949 86.199-130.47 38.098-36.52 83.883-64.059 134-80.598zm-187.5 244.27c24.855 0.03125 48.684 9.918 66.258 27.492 17.574 17.574 27.461 41.402 27.492 66.258v18.75h-187.5v-18.75c0.03125-24.855 9.918-48.684 27.492-66.258 17.574-17.574 41.402-27.461 66.258-27.492zm300-187.5c84.957 0 158.32 132.88 167.95 300h-335.89c9.6211-167.12 82.988-300 167.95-300zm205.26 300c-0.82422-15.844-2.1172-31.367-3.9375-46.48l35.043-10.555-10.82-35.926-29.852 9h0.003906c-7.8242-45.641-22.008-89.961-42.133-131.66l45.414-98.418c36.492 24.758 68.121 56.023 93.297 92.23l-88.012 27 11.008 35.867 97.5-30c5.5508 10.164 10.613 20.605 15.188 31.332l-71.57 157.61zm-674.01 37.5h937.5c6.6992 0 12.887 3.5742 16.238 9.375 3.3477 5.8008 3.3477 12.949 0 18.75-3.3516 5.8008-9.5391 9.375-16.238 9.375h-937.5c-6.6992 0-12.887-3.5742-16.238-9.375-3.3477-5.8008-3.3477-12.949 0-18.75 3.3516-5.8008 9.5391-9.375 16.238-9.375z"/>
  <path d="m648.47 322.29c-4.8828-3.5195-11.16-4.4844-16.875-2.5859l-97.5 32.531c-24.484 8.1172-45.789 23.742-60.887 44.656-15.098 20.918-23.215 46.059-23.207 71.855 0 4.9727 1.9766 9.7422 5.4922 13.258 3.5156 3.5156 8.2852 5.4922 13.258 5.4922 2.0117 0 4.0117-0.32422 5.9258-0.95703l97.594-32.531c24.465-8.1328 45.742-23.77 60.82-44.684 15.074-20.914 23.176-46.047 23.16-71.828 0-6.0234-2.8945-11.684-7.7812-15.207zm-88.125 96.133-68.383 22.801c8.5898-25.238 28.496-44.996 53.797-53.402l68.383-22.801h-0.003906c-8.5742 25.219-28.449 44.977-53.719 53.402z"/>
  <path d="m787.5 693.75h112.5v37.5h-112.5z"/>
  <path d="m600 693.75h112.5v37.5h-112.5z"/>
  <path d="m412.5 693.75h112.5v37.5h-112.5z"/>
  <path d="m225 693.75h112.5v37.5h-112.5z"/>
  <path d="m225 806.25h112.5v37.5h-112.5z"/>
  <path d="m225 918.75h112.5v37.5h-112.5z"/>
  <path d="m206.25 450h37.5v37.5h-37.5z"/>
  <path d="m281.25 468.75h37.5v37.5h-37.5z"/>
  <path d="m1087.5 787.5h-637.5c-24.566-0.023438-47.59 11.984-61.629 32.148-14.035 20.164-17.309 45.922-8.7539 68.957 8.5508 23.031 27.84 40.414 51.633 46.531v171.11c0 14.918 5.9258 29.227 16.477 39.773 10.547 10.551 24.855 16.477 39.773 16.477h562.5c14.918 0 29.227-5.9258 39.773-16.477 10.551-10.547 16.477-24.855 16.477-39.773v-171.11c23.793-6.1172 43.082-23.5 51.633-46.531 8.5547-23.035 5.2812-48.793-8.7539-68.957-14.039-20.164-37.062-32.172-61.629-32.148zm-600 337.5c-4.9727 0-9.7422-1.9766-13.258-5.4922-3.5156-3.5156-5.4922-8.2852-5.4922-13.258v-187.5c0-4.9727-1.9766-9.7422-5.4922-13.258-3.5156-3.5156-8.2852-5.4922-13.258-5.4922-13.398 0-25.777-7.1484-32.477-18.75-6.6992-11.602-6.6992-25.898 0-37.5 6.6992-11.602 19.078-18.75 32.477-18.75h300c13.398 0 25.777 7.1484 32.477 18.75 6.6992 11.602 6.6992 25.898 0 37.5-6.6992 11.602-19.078 18.75-32.477 18.75-4.9727 0-9.7422 1.9766-13.258 5.4922-3.5156 3.5156-5.4922 8.2852-5.4922 13.258v187.5c0 4.9727-1.9766 9.7422-5.4922 13.258-3.5156 3.5156-8.2852 5.4922-13.258 5.4922zm600-225c-4.9727 0-9.7422 1.9766-13.258 5.4922-3.5156 3.5156-5.4922 8.2852-5.4922 13.258v187.5c0 4.9727-1.9766 9.7422-5.4922 13.258-3.5156 3.5156-8.2852 5.4922-13.258 5.4922h-284.7c2.2188-6.0039 3.3867-12.348 3.4492-18.75v-171.11c16.09-4.1836 30.336-13.582 40.512-26.723 10.18-13.145 15.715-29.289 15.738-45.914-0.078125-13.203-3.6758-26.148-10.426-37.5h272.93c13.398 0 25.777 7.1484 32.477 18.75 6.6992 11.602 6.6992 25.898 0 37.5-6.6992 11.602-19.078 18.75-32.477 18.75z"/>
  <path d="m975 862.5h37.5v37.5h-37.5z"/>
  <path d="m881.25 918.75h37.5v37.5h-37.5z"/>
  <path d="m993.75 1012.5h37.5v37.5h-37.5z"/>
  <path d="m806.25 1050h37.5v37.5h-37.5z"/>
 </g>
</svg>
