<?xml version="1.0" encoding="UTF-8"?>
<svg width="1200pt" height="1200pt" version="1.1" viewBox="0 0 1200 1200" xmlns="http://www.w3.org/2000/svg">
 <path d="m97.16 756.13h75.262v-351.2c0-19.617 8.0664-37.473 21.004-50.402 12.883-12.969 30.758-21.004 50.414-21.004h707.09c19.66 0 37.531 8.0352 50.457 20.961s20.961 30.797 20.961 50.441v351.2h80.477c15.195 0 29.012 6.207 38.992 16.188 9.9766 9.9766 16.188 23.781 16.188 38.977 0 15.207-6.207 29.012-16.188 38.992-9.9766 9.9766-23.797 16.188-38.992 16.188h-1005.7c-15.195 0-29-6.207-38.977-16.188-9.9766-9.9766-16.188-23.781-16.188-38.977 0-15.207 6.207-29.012 16.188-38.992 9.9766-9.9766 23.781-16.188 38.977-16.188zm804.39-319.82c0-9.9336 8.0664-18 18-18 9.9336 0 18 8.0664 18 18v188.29c0 9.9336-8.0664 18-18 18-9.9336 0-18-8.0664-18-18zm0 254.16c0-9.9336 8.0664-18 18-18 9.9336 0 18 8.0664 18 18v6.6914c0 9.9336-8.0664 18-18 18-9.9336 0-18-8.0664-18-18zm-693.13 65.664h777.93v-351.2c0-9.707-3.9961-18.566-10.418-24.988s-15.277-10.418-25-10.418h-707.09c-9.7227 0-18.582 3.9961-25 10.418-6.4492 6.3633-10.418 15.223-10.418 24.988v351.2zm894.41 36h-1005.7c-5.2578 0-10.051 2.168-13.52 5.6406-3.4727 3.4727-5.6406 8.2617-5.6406 13.52 0 5.2734 2.168 10.062 5.6406 13.535 3.4727 3.4727 8.2617 5.6406 13.52 5.6406h1005.7c5.2578 0 10.062-2.168 13.535-5.6406 3.4727-3.4727 5.6406-8.2617 5.6406-13.52 0-5.2734-2.168-10.062-5.6406-13.535-3.4727-3.4727-8.2773-5.6406-13.535-5.6406z"/>
</svg>
