<?xml version="1.0" encoding="UTF-8"?>
<svg width="1200pt" height="1200pt" version="1.1" viewBox="0 0 1200 1200" xmlns="http://www.w3.org/2000/svg">
 <g>
  <path d="m526.88 658.12c-11.25 0-18.75 7.5-18.75 18.75s7.5 18.75 18.75 18.75c35.625 0 69.375-13.125 93.75-37.5s39.375-58.125 39.375-91.875c0-35.625-13.125-67.5-39.375-93.75-35.625-33.75-86.25-43.125-131.25-22.5l-84.375-84.375c-37.5-35.625-97.5-35.625-135 0-18.75 16.875-28.125 41.25-28.125 65.625s9.375 48.75 28.125 67.5l161.25 159.38c3.75 3.75 15 9.375 26.25 0 7.5-7.5 7.5-18.75 0-26.25l-110.62-108.75c46.875 3.75 101.25-5.625 150-35.625 31.875-18.75 71.25-13.125 97.5 11.25 18.75 16.875 28.125 41.25 28.125 65.625s-9.375 48.75-28.125 65.625c-16.875 18.75-41.25 28.125-67.5 28.125zm-230.62-187.5c-30-31.875-9.375-67.5 1.875-76.875 22.5-22.5 60-22.5 82.5 0l75 75c-61.875 24.375-127.5 16.875-159.38 1.875z"/>
  <path d="m688.12 860.62c24.375 0 48.75-9.375 67.5-28.125l161.25-159.38c24.375-24.375 39.375-58.125 39.375-91.875 0-35.625-13.125-67.5-39.375-93.75-24.375-24.375-58.125-37.5-93.75-37.5-11.25 0-18.75 7.5-18.75 18.75s7.5 18.75 18.75 18.75c26.25 0 50.625 9.375 67.5 28.125 18.75 16.875 28.125 41.25 28.125 65.625s-9.375 48.75-28.125 65.625l-112.5 110.62c3.75-45-5.625-99.375-35.625-148.12-18.75-30-13.125-69.375 11.25-93.75 7.5-7.5 7.5-18.75 0-26.25s-18.75-7.5-26.25 0c-35.625 33.75-43.125 86.25-22.5 129.38l-84.375 82.5c-18.75 16.875-28.125 41.25-28.125 65.625s9.375 48.75 28.125 67.5 43.125 26.25 67.5 26.25zm-41.25-133.12 76.875-75c28.125 61.875 20.625 125.62 3.75 155.62-22.5 20.625-58.125 20.625-80.625-1.875-31.875-31.875-11.25-67.5 0-78.75z"/>
  <path d="m1117.5 20.625-67.5 33.75-61.875-30c-7.5-3.75-18.75-3.75-26.25 0l-61.875 30-61.875-30c-7.5-3.75-18.75-3.75-26.25 0l-61.875 30-61.875-30c-7.5-3.75-18.75-3.75-26.25 0l-61.875 30-61.875-30c-9.375-3.75-18.75-3.75-26.25 0l-61.875 30-61.875-30c-9.375-3.75-18.75-3.75-26.25 0l-61.875 30-61.875-30c-9.375-3.75-18.75-3.75-26.25 0l-61.875 30-67.5-33.75c-5.625-1.875-26.25-3.75-26.25 16.875v155.62l75 148.12v515.62l-75 148.12v157.5c0 20.625 20.625 18.75 26.25 16.875l67.5-33.75 60 30c9.375 3.75 20.625 3.75 28.125 0l60-30 67.5 33.75c1.875 1.875 16.875 5.625 24.375-7.5 5.625-9.375 0-20.625-7.5-24.375l-69.375-33.75c-9.375-3.75-20.625-3.75-28.125 0l-60 28.125-60-30c-9.375-3.75-20.625-3.75-28.125 0l-43.125 20.625v-101.25h843.75c11.25 0 18.75-7.5 18.75-18.75s-7.5-18.75-18.75-18.75h-832.5l60-120c1.875-3.75 3.75-9.375 3.75-15v-521.25c0-3.75 0-5.625-1.875-7.5l-61.875-123.75h82.5c11.25 0 18.75-7.5 18.75-18.75s-7.5-18.75-18.75-18.75h-93.75v-101.25l43.125 20.625c9.375 3.75 18.75 3.75 26.25 0l61.875-30 61.875 30c9.375 3.75 18.75 3.75 26.25 0l61.875-30 61.875 30c9.375 3.75 18.75 3.75 26.25 0l61.875-30 61.875 30c7.5 3.75 18.75 3.75 26.25 0l61.875-30 61.875 30c7.5 3.75 18.75 3.75 26.25 0l61.875-30 61.875 30c7.5 3.75 18.75 3.75 26.25 0l61.875-30 61.875 30c7.5 3.75 18.75 3.75 26.25 0l43.125-20.625v101.25h-725.62c-11.25 0-18.75 7.5-18.75 18.75s7.5 18.75 18.75 18.75h712.5l-61.875 123.75c-3.75 9.375 0 20.625 7.5 24.375 9.375 3.75 20.625 0 24.375-7.5l76.875-151.88v-157.5c3.75-18.75-16.875-18.75-22.5-16.875z"/>
  <path d="m1068.8 858.75v-442.5c0-11.25-7.5-18.75-18.75-18.75s-18.75 7.5-18.75 18.75v440.62c0 5.625 1.875 11.25 3.75 16.875l60 118.12h-82.5c-11.25 0-18.75 7.5-18.75 18.75s7.5 18.75 18.75 18.75h93.75v101.25l-43.125-20.625c-9.375-3.75-18.75-3.75-28.125 0l-60 31.875-61.875-30c-9.375-3.75-18.75-3.75-28.125 0l-60 30-63.75-31.875c-7.5-3.75-16.875-3.75-24.375 0l-61.875 31.875-63.75-31.875c-7.5-3.75-16.875-3.75-24.375 0l-61.875 31.875-67.5-33.75c-9.375-3.75-20.625 0-24.375 7.5-3.75 9.375 0 20.625 7.5 24.375l71.25 35.625c7.5 3.75 16.875 3.75 24.375 0l63.75-31.875 63.75 31.875c7.5 3.75 16.875 3.75 24.375 0l63.75-31.875 61.875 30c9.375 3.75 18.75 3.75 28.125 0l61.875-30 61.875 30c9.375 3.75 18.75 3.75 28.125 0l61.875-30 67.5 33.75c18.75 5.625 26.25-9.375 26.25-16.875v-153.75z"/>
  <path d="m301.88 206.25c11.25 0 18.75-7.5 18.75-18.75s-7.5-18.75-18.75-18.75h-39.375c-11.25 0-18.75 7.5-18.75 18.75s7.5 18.75 18.75 18.75z"/>
  <path d="m1012.5 281.25c11.25 0 18.75-7.5 18.75-18.75s-7.5-18.75-18.75-18.75h-150c-11.25 0-18.75 7.5-18.75 18.75s7.5 18.75 18.75 18.75z"/>
  <path d="m787.5 281.25c11.25 0 18.75-7.5 18.75-18.75s-7.5-18.75-18.75-18.75h-37.5c-11.25 0-18.75 7.5-18.75 18.75s7.5 18.75 18.75 18.75z"/>
  <path d="m187.5 918.75c-11.25 0-18.75 7.5-18.75 18.75s7.5 18.75 18.75 18.75h150c11.25 0 18.75-7.5 18.75-18.75s-7.5-18.75-18.75-18.75z"/>
  <path d="m450 918.75h-37.5c-11.25 0-18.75 7.5-18.75 18.75s7.5 18.75 18.75 18.75h37.5c11.25 0 18.75-7.5 18.75-18.75s-7.5-18.75-18.75-18.75z"/>
 </g>
</svg>
