<?xml version="1.0" encoding="UTF-8"?>
<svg width="1200pt" height="1200pt" version="1.1" viewBox="0 0 1200 1200" xmlns="http://www.w3.org/2000/svg">
 <path d="m77.477 822.6 24.844 149.06c3.5898 21.914 14.871 41.836 31.816 56.191 16.945 14.355 38.449 22.207 60.656 22.145h30.207v-37.5h-30.207c-13.324 0.035156-26.227-4.6758-36.395-13.289-10.168-8.6133-16.934-20.566-19.086-33.719l-27.074-162.34c-0.73438-4.375-2.9922-8.3477-6.375-11.215-3.3867-2.8672-7.6797-4.4414-12.113-4.4414-6.6992 0-12.887-3.5742-16.238-9.375-3.3477-5.8008-3.3477-12.949 0-18.75 3.3516-5.8008 9.5391-9.375 16.238-9.375h1012.5c6.6992 0 12.887 3.5742 16.238 9.375 3.3477 5.8008 3.3477 12.949 0 18.75-3.3516 5.8008-9.5391 9.375-16.238 9.375-4.4336 0-8.7266 1.5742-12.113 4.4414-3.3828 2.8672-5.6406 6.8398-6.375 11.215l-27.074 162.34c-2.1523 13.152-8.918 25.105-19.086 33.719-10.168 8.6133-23.07 13.324-36.395 13.289h-97.914c-13.473 0.007812-26.5-4.8242-36.715-13.613-10.211-8.7891-16.93-20.949-18.934-34.273l-27.055-124.84-0.003906-0.003906c-0.90625-4.1875-3.2227-7.9375-6.5586-10.625-3.3359-2.6875-7.4922-4.1523-11.777-4.1484h-56.25c-4.2852-0.003906-8.4414 1.4609-11.777 4.1484-3.3359 2.6875-5.6523 6.4375-6.5586 10.625l-27.227 125.72c-2.1523 13.152-8.918 25.105-19.086 33.719-10.168 8.6133-23.07 13.324-36.395 13.289h-97.914c-13.473 0.007812-26.5-4.8242-36.715-13.613-10.211-8.7891-16.93-20.949-18.934-34.273l-27.055-124.84-0.003906-0.003906c-0.90625-4.1875-3.2227-7.9375-6.5586-10.625-3.3359-2.6875-7.4922-4.1523-11.777-4.1484h-56.25c-4.2852-0.003906-8.4414 1.4609-11.777 4.1484-3.3359 2.6875-5.6523 6.4375-6.5586 10.625l-27.227 125.72c-2.1523 13.152-8.918 25.105-19.086 33.719-10.168 8.6133-23.07 13.324-36.395 13.289h-30.207v37.5h30.207c22.062 0.10938 43.449-7.6133 60.352-21.793 16.902-14.18 28.227-33.898 31.953-55.645l23.871-110.06h25.988l23.699 109.16c3.5898 21.914 14.871 41.836 31.816 56.191 16.945 14.355 38.449 22.207 60.656 22.145h97.914c22.062 0.10938 43.449-7.6133 60.352-21.793 16.902-14.18 28.227-33.898 31.953-55.645l23.871-110.06h25.988l23.699 109.16c3.5898 21.914 14.871 41.836 31.816 56.191 16.945 14.355 38.449 22.207 60.656 22.145h97.914c22.207 0.0625 43.711-7.7891 60.656-22.145 16.945-14.355 28.227-34.277 31.816-56.191l24.844-149.06c15.309-4.5742 27.941-15.457 34.727-29.922 6.7852-14.469 7.0742-31.141 0.80469-45.832-6.2734-14.695-18.516-26.016-33.656-31.121-1.4141-29.809-7.5391-59.203-18.148-87.094v-234.88h-37.5v170.27c-10.797-13.09-23.426-24.551-37.5-34.031v-273.92c0-4.9727-1.9766-9.7422-5.4922-13.258l-12.301-12.32c-3.5156-3.5156-8.2852-5.4922-13.258-5.4922h-800.4c-4.9727 0-9.7422 1.9766-13.258 5.4922l-12.301 12.32c-3.5156 3.5156-5.4922 8.2852-5.4922 13.258v273.92c-14.074 9.4805-26.703 20.941-37.5 34.031v-331.26l45.262-45.262h846.98l45.262 45.262v124.39h37.5v-132.15c0-4.9727-1.9766-9.7422-5.4922-13.258l-56.25-56.25c-3.5156-3.5156-8.2852-5.4922-13.258-5.4922h-862.5c-4.9727 0-9.7422 1.9766-13.258 5.4922l-56.25 56.25c-3.5156 3.5156-5.4922 8.2852-5.4922 13.258v403.63c-10.617 27.902-16.75 57.309-18.168 87.129-15.141 5.1055-27.383 16.43-33.652 31.121-6.2734 14.695-5.9805 31.367 0.80078 45.832 6.7852 14.465 19.418 25.352 34.727 29.922zm354.48-110.1h-20.172c-5.7383-91.969-53.023-168.39-116.77-195.56 22.066-63.094 67.758-104.44 117.48-104.44 52.293 0 99.375 44.645 120.23 112.5-55.559 32.363-95.531 103.43-100.77 187.5zm37.5 0c6.6016-94.613 62.664-168.75 130.59-168.75 67.93 0 123.99 74.137 130.59 168.75zm318.75 0h-20.172c-5.7383-91.969-53.023-168.38-116.77-195.56 22.066-63.094 67.758-104.44 117.48-104.44 52.293 0 99.375 44.645 120.23 112.5-55.559 32.363-95.531 103.43-100.77 187.5zm280.54-77.457v2.457h0.97656c9.625 23.941 15.402 49.254 17.117 75h-261.19c6.6016-94.613 62.664-168.75 130.59-168.75 47.738 0 89.531 36.695 112.5 91.293zm-862.5-371.25 1.3125-1.293h784.88l1.3125 1.332v248.21c-22.742-7.1758-47.059-7.6953-70.086-1.5-26.383-81.844-86.777-135.54-154.91-135.54-66.676 0-126.9 52.5-153.88 132.26-4.9297-0.62891-9.8945-0.96875-14.867-1.0117-11 0.03125-21.953 1.4766-32.586 4.293-26.402-81.844-86.777-135.54-154.91-135.54-66.676 0-126.92 52.5-153.88 132.26-4.9297-0.62891-9.8945-0.96875-14.867-1.0117-12.719 0.0625-25.355 2.0156-37.5 5.793zm-75.977 373.71h0.97656v-2.457c22.969-54.598 64.762-91.293 112.5-91.293 67.93 0 123.99 74.137 130.59 168.75h-261.19c1.7148-25.746 7.4922-51.059 17.117-75z"/>
</svg>
