<?xml version="1.0" encoding="UTF-8"?>
<svg width="1200pt" height="1200pt" version="1.1" viewBox="0 0 1200 1200" xmlns="http://www.w3.org/2000/svg">
 <g>
  <path d="m684.38 18.75c-3.75 0-397.5-26.25-558.75 300-26.25 50.625-46.875 106.88-61.875 165-1.875 9.375 3.75 20.625 15 22.5 9.375 1.875 20.625-3.75 22.5-15 13.125-56.25 33.75-106.88 58.125-155.62 150-305.62 521.25-279.38 525-279.38 249.38 0 453.75 166.88 459.38 376.88 3.75 178.12-131.25 298.12-361.88 322.5-61.875 7.5-120 33.75-165 76.875l-120 120c-50.625 50.625-118.12 76.875-191.25 76.875-78.75 0-151.88-31.875-200.62-86.25-31.875-35.625-48.75-80.625-48.75-127.5 0-9.375 33.75-258.75 33.75-258.75 1.875-9.375-5.625-20.625-16.875-20.625-11.25-1.875-20.625 5.625-20.625 16.875 0 0-33.75 253.12-33.75 262.5-11.25 125.62 9.375 219.38 63.75 281.25 48.75 56.25 125.62 84.375 225 84.375 84.375 0 161.25-31.875 217.5-88.125l120-120c7.5-7.5 7.5-18.75 0-26.25s-18.75-7.5-26.25 0l-120 120c-50.625 50.625-118.12 76.875-191.25 76.875-88.125 0-153.75-24.375-196.88-71.25-28.125-31.875-45-75-54.375-127.5 5.625 9.375 69.375 120 249.38 125.62 84.375 1.875 161.25-31.875 217.5-88.125l120-120c37.5-37.5 88.125-61.875 142.5-67.5 153.75-16.875 270-75 335.62-165-48.75 168.75-168.75 221.25-339.38 240-35.625 3.75-71.25 15-103.12 31.875-9.375 5.625-13.125 16.875-7.5 26.25 7.5 13.125 22.5 9.375 26.25 7.5 28.125-15 58.125-24.375 88.125-28.125 204.38-22.5 395.62-95.625 395.62-472.5 1.875-5.625 1.875-391.88-496.88-416.25z"/>
  <path d="m665.62 86.25c-198.75 7.5-343.12 80.625-442.5 225-48.75 71.25-80.625 151.88-95.625 241.88l-35.625 234.38c-7.5 50.625 7.5 99.375 41.25 138.75 41.25 46.875 101.25 75 168.75 75 60 0 118.12-22.5 159.38-63.75l114.38-114.38c52.5-52.5 127.5-88.125 208.12-103.12 221.25-35.625 339.38-153.75 316.88-318.75-20.625-155.62-163.12-283.12-346.88-309.38-9.375-1.875-20.625 5.625-20.625 15-1.875 9.375 5.625 20.625 15 20.625 166.88 24.375 296.25 138.75 316.88 279.38 28.125 208.12-211.88 264.38-285 275.62-90 15-170.62 54.375-228.75 112.5l-114.38 114.38c-33.75 33.75-80.625 52.5-133.12 52.5-56.25 0-106.88-22.5-140.62-61.875-26.25-31.875-39.375-69.375-31.875-108.75l35.625-236.25c13.125-82.5 43.125-159.38 88.125-225 93.75-135 225-202.5 412.5-208.12 11.25 0 18.75-9.375 18.75-18.75-1.875-9.375-11.25-16.875-20.625-16.875z"/>
  <path d="m675 206.25c-37.5 0-71.25 15-97.5 43.125-7.5 7.5-5.625 18.75 1.875 26.25s18.75 5.625 26.25-1.875c16.875-18.75 43.125-30 69.375-30 52.5 0 93.75 41.25 93.75 93.75s-41.25 93.75-93.75 93.75-93.75-41.25-93.75-93.75c0-11.25-7.5-18.75-18.75-18.75s-18.75 7.5-18.75 18.75c0 73.125 58.125 131.25 131.25 131.25s131.25-58.125 131.25-131.25-58.125-131.25-131.25-131.25z"/>
  <path d="m978.75 496.88c-30 63.75-82.5 84.375-195 114.38-9.375 1.875-15 13.125-13.125 22.5 3.75 18.75 20.625 13.125 22.5 13.125 106.88-28.125 180-50.625 219.38-135 3.75-9.375 0-20.625-9.375-24.375s-20.625 0-24.375 9.375z"/>
  <path d="m1012.5 444.38c11.25 0 18.75-7.5 18.75-18.75 0-20.625-3.75-41.25-9.375-61.875-3.75-9.375-13.125-15-24.375-13.125-9.375 3.75-15 13.125-13.125 24.375 5.625 16.875 7.5 33.75 7.5 50.625 1.875 11.25 9.375 18.75 20.625 18.75z"/>
 </g>
</svg>
