<?xml version="1.0" encoding="UTF-8"?>
<svg width="1200pt" height="1200pt" version="1.1" viewBox="0 0 1200 1200" xmlns="http://www.w3.org/2000/svg">
 <g fill-rule="evenodd">
  <path d="m247.36 675.96 103.08 70.523v70.523c-28.777-7.6797-100.93-115.16-103.08-141.05zm-70.523-157.34c99.816 0 245.14-94.547 302.09-207.88 20.113-40.043 34.188-81.492 45.121-128.48 27.047 7.2109 100.45 69.59 118.74 92.844 10.848 13.801 19.801 24.254 30.887 39.637 54.996 76.211 114.3 188.3 141.06 282.12 11.965 41.953 16.789 68.988 26.844 114.21 7.2344 32.676 23.723 36.336 105.6 35.449 49.379-0.53906 86.762 5.3867 141.1 5.3867-8.5547 32.09-60.191 62.629-90.324 77.844-133.75 67.523-104.11 24.035-139.78 109.79-17.387 41.82-63.805 137.39-106.26 148.73l-8.9648-202.62c-8.4492-64.754-2.0898-24.359-142.32-69.266-38.062-12.203-69.277-24.035-106.84-39.648-123.79-51.383-253.16-137.55-316.96-258.12zm499.13-271.26c39.527 9.2031 129.31 79.656 146.47 103.08h-75.949c-6.4062-9.5625-10.32-17.062-16.559-26.844zm-520.84 238.71c-14.316-61.441-59.676-109.5-59.676-265.85 0-44.293 10.848-75.602 10.848-113.93 81.73 0 109.82-29.496 258.31 7.5352 55.402 13.801 100.34 36.371 121.46 41.293-4.8828 58.691-33.383 131.21-66.539 177.6-96.719 135.36-223.71 133.82-264.41 153.35zm-97.656-287.54c0 95.891 4.043 167.59 41.82 256.57 13.57 31.992 23.184 53.352 39.238 80.113 70.969 118.37 31.414 26.473 54.324 119.3 4.5703 18.469 9.0703 28.5 16.43 43.234 14.148 28.332 25.645 51.312 43.465 75.898 16.68 23.062 158.94 200.72 138.24 73.895-3.9375-24.18-2.5664-48.48-2.5664-73.945 21.035 4.9062 51.422 22.934 70.5 32.578 53.23 26.867 188.12 74.688 244.16 75.938l10.859 206.14c-0.3125 26.293-4.6328 54.277 21.684 54.277 44.281 0 89.578-61.309 109.67-91.066l68.629-137.54c2.5664-2.543 228.61-86.449 228.61-178.3 0-24.527-23.629-22.246-48.672-21.852l-211.74-10.691c-10.715-128.61-102.46-288.71-108.52-314.66 95.258 0 171.41 27.863 74.605-69.18-22.246-22.297-41.027-38.449-66.793-57.996-37.5-28.441-69.996-49.391-115.55-63.48-103.37-31.98-1.6328 17.594-127.23-57.215-107.91-64.273-203.24-83.074-334.68-83.074-27.539 0-107.84 8.7344-122.43 18.625-18.215 12.348-24.059 90.156-24.059 122.44z"/>
  <path d="m296.18 225.65c0-34.621 59.676-35.16 59.676 5.4375 0 33.516-36.07 25.934-54.254 21.695-2.832-12.156-5.4258-12.469-5.4258-27.133zm27.121 75.961c38.93 0 71.676-32.484 74.711-66.121 8.6875-96.66-145.73-101.59-143.57-5.0898 0.91016 40.285 39.637 71.207 68.855 71.207z"/>
 </g>
</svg>
