<svg xmlns="http://www.w3.org/2000/svg" xmlns:xlink="http://www.w3.org/1999/xlink" version="1.1" x="0px" y="0px" viewBox="0 0 540 675" style="enable-background:new 0 0 540 540;" xml:space="preserve"><g><g><path d="M121.107,393.914l5.83-59.968c2.87-29.51,30.631-50.21,59.807-44.404l296.927,59.134    c25.418,5.063,42.693,28.331,40.185,54.125c-2.508,25.794-23.941,45.3-49.857,45.371l-302.756,0.835    C141.099,449.007,118.269,423.122,121.107,393.914z M473.957,433.172c18.177-0.05,33.21-13.73,34.969-31.822    c1.76-18.092-10.357-34.412-28.185-37.963l-296.927-59.134c-20.43-4.07-39.933,10.421-41.947,31.145l-5.83,59.968    c-1.988,20.454,13.992,38.642,35.164,38.642C180.344,433.982,479.503,433.172,473.957,433.172z"/><path d="M37.783,427.589c-8.052-9.768-6.682-24.241,3.143-32.326l17.754-14.608l-21.792-2.118    c-12.579-1.224-21.87-12.408-20.639-25.083c1.223-12.569,12.375-21.861,25.084-20.639l21.792,2.118l-14.608-17.754    c-8.065-9.805-6.664-24.272,3.149-32.331c9.762-8.046,24.236-6.679,32.321,3.147l25.269,30.71    c7.564,9.18,16.989,15.929,26.968,20.105c3.82,1.6,5.621,5.993,4.021,9.814c-1.599,3.821-5.994,5.623-9.814,4.021    c-12.265-5.134-23.652-13.359-32.754-24.406l-25.272-30.715c-2.817-3.425-7.84-3.871-11.208-1.095    c-3.412,2.801-3.895,7.815-1.096,11.218l26.112,31.735c1.927,2.343,2.254,5.615,0.827,8.293c-1.426,2.678-4.314,4.233-7.345,3.938    l-39.814-3.87c-4.472-0.425-8.284,2.865-8.702,7.16c-0.43,4.419,2.84,8.281,7.16,8.702l39.814,3.87    c3.02,0.294,5.564,2.377,6.448,5.278c0.885,2.902-0.066,6.051-2.408,7.979l-31.736,26.112c-3.42,2.813-3.877,7.84-1.089,11.219    c2.778,3.367,7.797,3.897,11.212,1.085l30.711-25.27c10.64-8.744,23.374-14.843,36.83-17.64c4.059-0.843,8.027,1.761,8.869,5.816    c0.843,4.056-1.761,8.026-5.816,8.869c-11.09,2.306-21.586,7.333-30.355,14.54l-30.707,25.267    C60.364,438.753,45.878,437.43,37.783,427.589z"/><path d="M185.46,448.93c-4.123-0.4-7.14-4.067-6.739-8.19l4.64-47.728c0.401-4.123,4.062-7.143,8.19-6.739    c4.123,0.4,7.14,4.067,6.739,8.19l-4.64,47.728C193.248,446.334,189.555,449.335,185.46,448.93z"/><path d="M247.644,448.759c-4.123-0.4-7.14-4.067-6.739-8.19l4.041-41.57c0.401-4.122,4.072-7.147,8.19-6.739    c4.123,0.4,7.14,4.067,6.739,8.19l-4.041,41.57C255.431,446.163,251.738,449.164,247.644,448.759z"/><path d="M309.827,448.587c-4.123-0.401-7.14-4.068-6.739-8.19l3.443-35.411c0.401-4.123,4.083-7.152,8.19-6.739    c4.123,0.401,7.14,4.068,6.739,8.19l-3.443,35.411C317.615,445.986,313.925,448.994,309.827,448.587z"/><path d="M372.745,448.452c-4.454,0-7.9-3.833-7.474-8.227l2.844-29.253c0.4-4.123,4.063-7.142,8.19-6.739    c4.123,0.4,7.14,4.067,6.739,8.19l-2.844,29.253C379.824,445.553,376.56,448.452,372.745,448.452z"/><path d="M225.383,358.007c-4.123-0.4-7.14-4.068-6.739-8.19l4.341-44.648c0.401-4.123,4.062-7.138,8.19-6.739    c4.123,0.4,7.14,4.068,6.739,8.19l-4.341,44.648C233.171,355.411,229.478,358.412,225.383,358.007z"/><path d="M286.967,363.994c-4.123-0.4-7.14-4.068-6.739-8.19l3.742-38.49c0.401-4.123,4.069-7.14,8.19-6.739    c4.123,0.4,7.14,4.068,6.739,8.19l-3.742,38.49C294.755,361.399,291.062,364.399,286.967,363.994z"/><path d="M348.552,369.982c-4.123-0.401-7.14-4.068-6.739-8.19l3.144-32.332c0.401-4.123,4.075-7.143,8.19-6.739    c4.123,0.401,7.14,4.068,6.739,8.19l-3.144,32.332C356.34,367.386,352.647,370.386,348.552,369.982z"/><path d="M410.137,375.968c-4.123-0.4-7.14-4.067-6.739-8.19l2.544-26.173c0.401-4.123,4.067-7.145,8.19-6.739    c4.123,0.4,7.14,4.067,6.739,8.19l-2.544,26.173C417.925,373.372,414.232,376.373,410.137,375.968z"/><path d="M200.209,118.7c-0.717-2.585-2.76-4.591-5.358-5.259c-21.929-5.64-45.513,0.458-61.548,15.912    c-0.705,0.678-1.385,1.377-2.055,2.084v-17.943c0-4.143-3.357-7.5-7.5-7.5s-7.5,3.357-7.5,7.5v62.962c0,4.143,3.357,7.5,7.5,7.5    s7.5-3.357,7.5-7.5v-15.695c2.215-7.75,6.497-14.863,12.461-20.605c11.26-10.852,27.407-15.688,43.023-13.11    c1.25,7.176,0.745,14.543-1.504,21.547c-1.267,3.943,0.903,8.167,4.848,9.434c3.934,1.267,8.166-0.903,9.434-4.848    C203.114,141.961,203.355,130.038,200.209,118.7z"/><path d="M52.648,322.168c-15.583-16.299-27.459-39.278-33.44-64.705c-8.143-34.604-4.316-69.049,10.235-92.141    c8.544-13.558,20.247-22.294,33.845-25.264c20.227-4.414,42.333,4.762,60.461,24.705c18.128-19.943,40.235-29.114,60.459-24.706    c4.014,0.878,7.907,2.274,11.576,4.15c21.227,10.836,34.891,37.387,36.546,71.02c0.203,4.137-2.985,7.655-7.122,7.859    c-4.161,0.208-7.656-2.986-7.86-7.122c-1.367-27.781-12.245-50.158-28.389-58.399c-2.526-1.292-5.2-2.251-7.952-2.853    c-16.671-3.641-35.854,6.2-51.312,26.313c-2.995,3.898-8.888,3.91-11.893,0c-15.458-20.113-34.636-29.954-51.315-26.312    c-9.58,2.092-18.002,8.525-24.354,18.605c-12.454,19.763-15.566,49.935-8.324,80.708c5.378,22.862,15.919,43.381,29.681,57.775    c2.862,2.994,2.756,7.741-0.238,10.604C60.266,325.261,55.519,325.171,52.648,322.168z"/><path d="M318.528,329.935c-3.026-2.829-3.187-7.575-0.358-10.601c15.119-16.173,21.779-39.652,15.581-62.516    c-3.696-13.668-2.414-28.771,3.607-42.529c8.308-19.031,1.259-41.583-17.025-52.612c-21.412-12.912-51.36-3.749-60.541,22.373    c-4.983,14.453-14.276,26.56-26.857,34.963c-25.825,17.248-35.842,49.777-25.04,78.341c1.465,3.874-0.488,8.203-4.363,9.668    c-3.87,1.464-8.202-0.488-9.668-4.363c-13.238-35.015-0.958-74.946,30.74-96.12c9.832-6.566,17.103-16.05,21.024-27.427    c12.353-34.937,52.387-48.169,82.483-30.273c23.592,14.025,34.713,44.611,22.991,71.459c-4.66,10.647-5.68,22.224-2.873,32.601    c7.556,27.871-0.427,56.702-19.101,76.679C326.295,332.607,321.55,332.759,318.528,329.935z"/><path d="M267.285,315.626c-0.503-4.111,2.423-7.852,6.534-8.354c35.299-4.317,39.832-52.989,7.34-64.715    c-16.986-6.13-36.005,2.328-42.599,19.481c-5.923,15.402,0.439,33.092,14.799,41.147c3.612,2.026,4.897,6.599,2.871,10.211    c-2.028,3.611-6.599,4.897-10.211,2.871c-20.813-11.677-30.038-37.305-21.46-59.612c9.612-25.002,37.625-37.466,62.631-27.849    c25.003,9.611,37.464,37.624,27.849,62.631c-6.447,16.769-21.545,28.541-39.399,30.724    C271.549,322.665,267.789,319.755,267.285,315.626z"/><path d="M379.404,121.635c-11.249-8.166-25.811-10.263-38.817-5.821l5.623-14.628c1.486-3.866-0.443-8.206-4.31-9.692    c-3.87-1.486-8.206,0.443-9.692,4.31l-15.833,41.184c-1.261,2.507-2.278,5.143-3.029,7.878l-1.845,4.799    c-1.619,4.211,0.82,9.029,5.439,10.019c12.064,7.83,27.373,9.056,40.484,3.229c13.831-6.15,23.423-19.337,25.031-34.413    C382.741,125.83,381.577,123.212,379.404,121.635z M351.332,149.206c-7.516,3.343-16.122,3.093-23.396-0.483l2.219-5.773    c2.859-5.274,7.398-9.576,13.024-12.077c7.552-3.358,16.204-3.093,23.499,0.531C364.482,139.248,358.882,145.849,351.332,149.206z    "/><path d="M427.934,349.549c-1.631-3.808,0.134-8.217,3.941-9.848c0.305-0.131,0.587-0.258,1.346-0.6    c15.068-6.836,28.841-16.029,40.904-27.313c40.936-38.325,47.546-102.329,15.373-148.878c-3.213-4.654-9.988-6-14.843-2.254    c-2.253,1.738-3.655,4.249-3.947,7.071c-3.361,32.274-14.714,61.241-33.745,86.098c-24.701,32.271-60.829,55.211-101.728,64.591    c-4.037,0.919-8.061-1.597-8.987-5.634c-0.926-4.037,1.597-8.062,5.634-8.987c37.499-8.6,70.588-29.584,93.17-59.088    c17.326-22.629,27.667-49.05,30.736-78.528c0.72-6.945,4.166-13.126,9.706-17.399c11.497-8.87,28.152-6.26,36.345,5.604    c17.596,25.459,25.592,56.451,22.512,87.266c-3.104,31.064-17.302,59.864-39.977,81.092    c-13.262,12.405-28.396,22.51-44.987,30.035c-0.84,0.379-1.217,0.548-1.605,0.715    C433.971,355.121,429.565,353.355,427.934,349.549z"/><path d="M436.047,234.68c-14.92-31.58-52.113-46.932-85.212-34.232c-3.868,1.483-8.205-0.448-9.688-4.315    c-1.484-3.867,0.448-8.205,4.315-9.688c9.421-3.615,19.358-5.448,29.536-5.448c31.757,0,61.043,18.558,74.611,47.276    c1.77,3.745,0.168,8.216-3.577,9.985C442.296,240.023,437.82,238.433,436.047,234.68z"/></g></g><text x="0" y="555" fill="#000000" font-size="5px" font-weight="bold" font-family="'Helvetica Neue', Helvetica, Arial-Unicode, Arial, Sans-serif">Created by Icon Market</text><text x="0" y="560" fill="#000000" font-size="5px" font-weight="bold" font-family="'Helvetica Neue', Helvetica, Arial-Unicode, Arial, Sans-serif">from the Noun Project</text></svg>