<?xml version="1.0" encoding="UTF-8"?>
<svg width="1200pt" height="1200pt" version="1.1" viewBox="0 0 1200 1200" xmlns="http://www.w3.org/2000/svg">
 <path d="m1106.2 675v-187.5c0-20.625-16.875-37.5-37.5-37.5h-27.562c43.5-44.438 67.688-89.438 27.188-165.56 6.5625-16.312 18.375-52.125 15.188-90.562-3.375-40.312-29.625-74.812-68.438-89.812-38.625-15-81-7.125-110.44 20.25-28.125 26.25-43.688 60.562-50.062 77.062-93 32.812-96 93.188-90 168.19 1.125 13.5 0.75 22.5-0.5625 28.875-3.5625-8.8125-7.875-17.438-13.125-25.5-15.75-24.75-23.812-52.5-23.25-80.812v-2.25c0-69.938-42.188-128.06-97.312-139.31 2.25-18.188 9.375-42.938 27.375-51.938 9.1875-4.6875 12.938-15.938 8.4375-25.125s-15.938-12.938-25.125-8.4375c-36.375 18.188-45.75 60.938-48.188 85.125-56.062 10.5-99 69-99 139.69v2.8125c0.375 25.5-5.625 49.125-17.25 69.75-15.75-71.438-66-123.94-125.62-123.94-8.4375 0-16.875 1.125-25.125 3.1875 3.375-7.6875 8.0625-15 15.188-19.688 8.625-5.8125 10.875-17.438 5.0625-26.062s-17.438-10.875-26.062-5.0625c-20.812 13.875-30.375 36.188-34.875 54.375-11.625-4.5-23.812-6.75-36-6.75-72.188 0-130.88 76.875-130.88 171.56 0 13.875 1.5 27.75 3.9375 41.25-16.312 4.125-28.5 18.75-28.5 36.375v187.5c0 20.625 16.875 37.5 37.5 37.5v112.5c-20.625 0-37.5 16.875-37.5 37.5v187.5c0 20.625 16.875 37.5 37.5 37.5h937.5c20.625 0 37.5-16.875 37.5-37.5v-187.5c0-20.625-16.875-37.5-37.5-37.5v-112.5c20.625 0 37.5-16.875 37.5-37.5zm-37.5 0h-937.5v-187.5h937.5zm-496.12-225c4.125-25.312 18.188-54.188 38.062-54.188s33.375 29.625 37.688 54.188zm229.5-83.25c-6.1875-75.938-1.125-109.12 72.75-132.56 5.8125-1.875 10.5-6.5625 12.375-12.562 0-0.375 12.938-42 42.938-69.938 19.125-17.812 45.938-22.688 71.438-12.75 25.312 9.75 42.375 32.062 44.625 57.75 3.1875 40.688-15.375 79.875-15.562 80.25-2.8125 5.625-2.4375 12.188 0.5625 17.625 39 67.312 20.062 95.25-35.812 147-3 2.8125-5.625 5.4375-8.0625 7.875h-74.438c12.562-8.625 28.5-17.438 41.625-18 10.312-0.375 18.375-9 18-19.312s-9-19.125-19.312-18c-11.438 0.375-22.688 3.9375-33.375 8.625l20.438-52.688c11.25-9.75 37.688-29.625 57.75-30.188 10.312-0.375 18.375-9 18-19.312s-9.1875-18.938-19.312-18c-11.438 0.375-22.688 3.9375-33.375 8.625l28.125-72.375c3.75-9.5625-0.9375-20.438-10.688-24.188-9.5625-3.75-20.438 0.9375-24.188 10.688l-28.125 72.188c-4.6875-10.5-10.875-20.812-18.938-28.688-7.3125-7.3125-19.312-7.125-26.438 0.1875-7.3125 7.3125-7.125 19.312 0.1875 26.438 14.25 13.875 20.438 46.5 22.125 61.312l-20.438 52.5c-4.6875-10.5-10.875-20.812-18.938-28.688-7.3125-7.3125-19.312-7.125-26.438 0.1875-7.3125 7.3125-7.125 19.312 0.1875 26.438 14.25 13.875 20.438 46.312 22.125 61.312l-0.5625 1.3125h-95.062s1.125-0.75 1.6875-0.9375c21.188-12.375 38.25-27 33.938-82.312zm-298.69 24.188c18.938-28.5 28.5-62.625 27.938-98.625v-2.4375c0-57.375 35.625-104.06 79.5-104.06s79.5 46.688 79.5 104.06v1.875c-0.5625 35.438 9.5625 70.312 29.25 101.25 6.75 10.5 11.625 21.75 15 33.375-6.375 5.25-12.562 12.562-17.625 23.438h-30.375c-4.875-42.188-30.938-91.688-75.75-91.688s-71.438 50.438-75.938 91.688h-51.938c1.875-21 8.8125-41.062 20.625-59.062zm-254.06-115.12c9.9375 0 19.875 2.4375 29.438 7.125 13.5 6.5625 29.062 6.5625 42.75 0 9.5625-4.6875 19.5-7.125 29.438-7.125 51.562 0 93.375 60.188 93.375 134.06 0 13.5-2.0625 27-4.875 40.125h-278.62c-2.8125-13.125-4.875-26.625-4.875-40.125 0-73.875 41.812-134.06 93.375-134.06zm819.56 774.19h-937.69v-187.5h937.5v187.5zm-37.5-225h-862.69v-112.5h862.5v112.5zm-843.75-187.5c0 10.312-8.4375 18.75-18.75 18.75s-18.75-8.4375-18.75-18.75 8.4375-18.75 18.75-18.75 18.75 8.4375 18.75 18.75zm0-112.5c0 10.312-8.4375 18.75-18.75 18.75s-18.75-8.4375-18.75-18.75 8.4375-18.75 18.75-18.75 18.75 8.4375 18.75 18.75zm825 0c0-10.312 8.4375-18.75 18.75-18.75s18.75 8.4375 18.75 18.75-8.4375 18.75-18.75 18.75-18.75-8.4375-18.75-18.75zm0 112.5c0-10.312 8.4375-18.75 18.75-18.75s18.75 8.4375 18.75 18.75-8.4375 18.75-18.75 18.75-18.75-8.4375-18.75-18.75zm-825 262.5c0 10.312-8.4375 18.75-18.75 18.75s-18.75-8.4375-18.75-18.75 8.4375-18.75 18.75-18.75 18.75 8.4375 18.75 18.75zm0 112.5c0 10.312-8.4375 18.75-18.75 18.75s-18.75-8.4375-18.75-18.75 8.4375-18.75 18.75-18.75 18.75 8.4375 18.75 18.75zm862.5-112.5c0 10.312-8.4375 18.75-18.75 18.75s-18.75-8.4375-18.75-18.75 8.4375-18.75 18.75-18.75 18.75 8.4375 18.75 18.75zm0 112.5c0 10.312-8.4375 18.75-18.75 18.75s-18.75-8.4375-18.75-18.75 8.4375-18.75 18.75-18.75 18.75 8.4375 18.75 18.75z"/>
</svg>
