<?xml version="1.0" encoding="UTF-8"?>
<svg width="1200pt" height="1200pt" version="1.1" viewBox="0 0 1200 1200" xmlns="http://www.w3.org/2000/svg">
 <path d="m339.77 257.48 1.2227 12.914 61.809 672.14h394.51l14.277-155.37h-0.003906c0.019531-0.16797 0.035156-0.33984 0.046875-0.50781v-0.046876l48.613-529.12zm25.992 23.641h468.58l-13.051 141.93c-31.645 13.492-95.078 23.676-214.27-10.656-71.438-20.574-124.95-25.953-164.64-23.641-28.34 1.6523-49.633 7.2266-65.453 13.953zm92.688 130.65c34.961-0.17578 81.242 5.7578 142.04 23.27 110.96 31.957 178.41 27.277 218.4 14.066l-30.789 334.82c-9.875 34.922-42.152 60.539-81.113 60.539h-213.88c-39.09 0-71.473-25.781-81.227-60.887-0.003906-0.007813 0.003907-0.015625 0-0.023437l-32.68-355.9c15.289-7.8789 40.188-15.695 79.242-15.891zm-41.676 425.04c19.547 19.309 46.566 31.18 76.336 31.18h213.88c29.727 0 56.707-11.836 76.246-31.09l-7.543 82.012h-351.38z" fill-rule="evenodd"/>
</svg>
