<?xml version="1.0" encoding="UTF-8"?>
<svg width="1200pt" height="1200pt" version="1.1" viewBox="0 0 1200 1200" xmlns="http://www.w3.org/2000/svg">
 <g>
  <path d="m603.32 1126.1h-0.71875c-9.0977 0-17.172-5.8438-20.004-14.496l-168-512.76c-2.1016-6.4062-0.99609-13.441 2.9648-18.898 3.9609-5.4609 10.297-8.6992 17.039-8.6992h336.72c6.7422 0 13.078 3.2266 17.039 8.6992 3.9609 5.4609 5.0508 12.492 2.9531 18.898l-168 512.76c-2.8203 8.6523-10.883 14.496-19.992 14.496zm-139.68-512.76 139.32 425.22 139.32-425.22z"/>
  <path d="m771.35 613.37c-5.4844 0-10.883-2.1484-14.902-6.168-8.2188-8.2188-8.2188-21.539 0-29.762 1.1875-1.1875 2.4727-2.1953 3.8398-3.0352 6.9492-4.8008 11.062-12.637 11.062-21.098v-16.441h-336.72v16.441c0 8.6641 4.3203 16.68 11.555 21.434 9.7188 6.3828 12.422 19.43 6.0352 29.148-6.3828 9.707-19.43 12.422-29.148 6.0352-19.117-12.551-30.539-33.719-30.539-56.605v-37.477c0-11.629 9.4219-21.047 21.047-21.047h378.82c11.629 0 21.047 9.4219 21.047 21.047v37.477c0 22.668-11.207 43.656-30.035 56.27-1.2344 0.86328-2.5781 1.6094-4.0078 2.1953-2.6016 1.0703-5.3398 1.5859-8.0508 1.5859z"/>
  <path d="m413.52 536.84c-5.3633 0-10.727-2.0391-14.832-6.1445-1.7031-1.7031-41.785-42.457-37.836-97.332 2.5938-36.121 23.09-68.773 60.887-97.02 9.3125-6.9609 22.5-5.0508 29.461 4.2617 6.9609 9.3125 5.0508 22.5-4.2617 29.461-27.469 20.52-42.289 42.742-44.074 66.023-2.7227 35.555 25.379 64.633 25.668 64.922 8.1133 8.2695 8.0508 21.574-0.16797 29.723-4.1289 4.0664-9.4922 6.1055-14.844 6.1055z"/>
  <path d="m458.62 422.06c-6.7578 0-13.379-3.2383-17.438-9.2539-5.1602-7.6328-49.992-76.223-35.062-132.5 5.9648-22.512 20.902-40.211 43.199-51.215 0.51562-0.25391 1.043-0.49219 1.5859-0.69531 40.332-15.973 98.449-51.168 101.34-79.379 1.1758-11.426-8.1133-23.711-27.602-36.516-7.7656-5.1133-11.27-14.711-8.5938-23.617 2.6641-8.9023 10.859-15.012 20.16-15.012 13.766 0 135.34 1.957 163.07 69.562 17.305 42.18-5.8203 93.793-70.703 157.79-8.2812 8.1602-21.602 8.0742-29.762-0.20312-8.1602-8.2812-8.0742-21.602 0.20312-29.762 49.199-48.527 70.98-88.246 61.332-111.83-8.543-20.891-40.727-32.258-71.305-38.062 4.5234 10.223 6.2148 20.902 5.0742 32.004-6.5391 63.289-110.93 107.45-126.86 113.83-11.102 5.6523-17.594 13.234-20.426 23.844-8.5664 32.137 18.215 81.805 29.258 98.219 6.4805 9.6367 3.9375 22.715-5.6992 29.207-3.6289 2.4258-7.7227 3.5898-11.766 3.5898z"/>
  <path d="m691.36 422.07c-5.4375 0-10.859-2.0898-14.988-6.2656-8.1602-8.2812-8.0742-21.602 0.20312-29.762 33.238-32.785 42.758-55.559 44.891-68.891 1.9336-12.047-0.98438-21.926-9.1562-31.055-9.707-10.859-24.266-17.09-39.926-17.09l-19.82 0.003906c-11.629 0-21.047-9.4219-21.047-21.047 0-11.629 9.4219-21.047 21.047-21.047h19.824c27.625 0 53.617 11.34 71.293 31.117 21.469 24 45.133 76.43-37.547 157.97-4.0938 4.0391-9.4336 6.0664-14.773 6.0664z"/>
  <path d="m792.37 536.87c-4.7773 0-9.5742-1.6211-13.523-4.9336-8.9023-7.4766-10.055-20.746-2.5781-29.652 16.777-19.969 23.41-39.266 20.316-58.969-6.6602-42.301-56.172-76.285-71.184-85.68-9.8516-6.168-12.828-19.164-6.6602-29.004 6.168-9.8516 19.152-12.828 29.004-6.6602 24.133 15.121 81.238 56.566 90.406 114.8 5.0391 32.004-4.9453 63.156-29.664 92.594-4.1523 4.9453-10.117 7.5-16.117 7.5z"/>
  <path d="m658.88 956.55c-3.168 0-6.3711-0.71875-9.3945-2.2305l-133.77-66.898c-10.391-5.1953-14.605-17.844-9.4062-28.234 5.1953-10.391 17.844-14.617 28.234-9.4062l133.77 66.898c10.391 5.1953 14.605 17.844 9.4062 28.234-3.6953 7.3789-11.121 11.637-18.84 11.637z"/>
  <path d="m715.64 783.31c-3.168 0-6.3711-0.71875-9.3945-2.2188l-269.54-134.81c-10.391-5.1953-14.605-17.844-9.4062-28.234 5.1953-10.391 17.844-14.605 28.234-9.4062l269.53 134.8c10.391 5.1953 14.605 17.844 9.4062 28.234-3.6914 7.3633-11.121 11.637-18.836 11.637z"/>
 </g>
</svg>
