<?xml version="1.0" encoding="UTF-8"?>
<svg width="1200pt" height="1200pt" version="1.1" viewBox="0 0 1200 1200" xmlns="http://www.w3.org/2000/svg">
 <path d="m600 1080c265.1 0 480-214.9 480-480s-214.9-480-480-480-480 214.9-480 480 214.9 480 480 480zm0-40c243 0 440-197 440-440s-197-440-440-440-440 197-440 440 197 440 440 440zm40-720c22.09 0 40-17.91 40-40s-17.91-40-40-40-40 17.91-40 40 17.91 40 40 40zm-40 320c22.09 0 40-17.91 40-40s-17.91-40-40-40-40 17.91-40 40 17.91 40 40 40zm120-160c22.09 0 40-17.91 40-40s-17.91-40-40-40-40 17.91-40 40 17.91 40 40 40zm160 120c22.09 0 40-17.91 40-40s-17.91-40-40-40-40 17.91-40 40 17.91 40 40 40zm-600 40c22.09 0 40-17.91 40-40s-17.91-40-40-40-40 17.91-40 40 17.91 40 40 40zm160 160c22.09 0 40-17.91 40-40s-17.91-40-40-40-40 17.91-40 40 17.91 40 40 40zm120 160c22.09 0 40-17.91 40-40s-17.91-40-40-40-40 17.91-40 40 17.91 40 40 40zm-120-440c44.184 0 80-35.816 80-80s-35.816-80-80-80-80 35.816-80 80 35.816 80 80 80zm0-40c22.09 0 40-17.91 40-40s-17.91-40-40-40-40 17.91-40 40 17.91 40 40 40zm360 400c44.184 0 80-35.816 80-80s-35.816-80-80-80-80 35.816-80 80 35.816 80 80 80zm0-40c22.09 0 40-17.91 40-40s-17.91-40-40-40-40 17.91-40 40 17.91 40 40 40z" fill-rule="evenodd"/>
</svg>
