<?xml version="1.0" encoding="UTF-8"?>
<svg width="1200pt" height="1200pt" version="1.1" viewBox="0 0 1200 1200" xmlns="http://www.w3.org/2000/svg">
 <g>
  <path d="m940.8 633.6v-4.8008c0-49.199-18-96-51.602-132l-33.602-36c-25.199-27.602-39.602-62.398-39.602-99.602 0-10.801 2.3984-21.602 7.1992-30l49.199-97.199c18-36 15.602-78-4.8008-111.6-21.602-33.602-57.602-54-98.398-54-36 0-69.602 7.1992-102 21.602l-43.195 16.801c-14.398 6-25.199 13.199-44.398 13.199-19.199 0-30-6-44.398-13.199l-43.199-19.199c-32.398-14.398-67.199-21.602-102-21.602-39.602 0-76.801 20.398-98.398 54-21.602 33.602-22.801 75.602-4.8008 111.6l49.199 97.199c4.8008 9.6016 7.1992 20.398 7.1992 30 0 37.199-14.398 72-39.602 99.602l-33.602 36c-33.602 36-51.602 82.801-51.602 132v4.8008c0 46.801 20.398 92.398 55.199 124.8 8.3984 7.1992 12 18 12 28.801 0 10.801-4.8008 21.602-13.199 27.602-33.602 27.602-54 68.398-54 112.8v22.793c0 103.2 84 186 186 186h6c42 0 82.801-10.801 118.8-31.199l16.801-9.6016c9.6016-4.8008 20.398-8.3984 31.199-8.3984s21.602 3.6016 31.199 8.3984l16.801 9.6016c36 20.398 78 31.199 118.8 31.199h6c103.2 0 186-84 186-186v-20.398c0-44.398-19.199-85.199-54-112.8-8.3984-7.1992-13.199-16.801-13.199-27.602s3.6016-21.602 12-28.801c39.598-31.199 60-76.797 60-124.8zm-48 294v20.398c0 66-46.801 121.2-108 134.4h-2.3984c-70.801 0-128.4-57.602-128.4-128.4 0-54 34.801-103.2 85.199-121.2 12-4.8008 19.199-18 14.398-31.199-4.8008-12-18-19.199-31.199-14.398-70.801 25.199-117.6 91.199-117.6 166.8 0 36 10.801 69.602 30 98.398-16.801-8.3984-34.801-14.398-52.801-14.398h-1.1992-1.1992-2.3984c-16.801 0-32.398 4.8008-48 12 18-27.602 27.602-60 27.602-94.801 0-74.398-46.801-141.6-117.6-166.8-12-4.8008-26.398 2.3984-31.199 14.398-4.8008 12 2.3984 26.398 14.398 31.199 51.602 18 85.199 67.199 85.199 121.2 0 70.801-57.602 128.4-128.4 128.4h-4.8008c-62.398-13.199-109.2-68.398-109.2-135.6v-20.398c0-30 13.199-56.398 36-75.602 19.199-15.602 31.199-39.602 31.199-63.602 0-9.6016-1.1992-20.398-4.8008-30 15.602 4.8008 32.398 8.3984 50.398 8.3984 90 0.007812 162-70.793 162-158.39 0-43.199-22.801-82.801-60-104.4-37.199-21.602-82.801-22.801-121.2-1.1992-12 6-15.602 21.602-9.6016 32.398 6 12 21.602 15.602 32.398 9.6016 22.801-13.199 50.398-13.199 73.199 1.1992 22.801 13.199 36 37.199 36 63.602 0 61.199-50.398 111.6-111.6 111.6-61.199 0-111.6-50.398-111.6-111.6v-2.3984c4.8008-28.801 16.801-55.199 37.199-76.801l33.602-36c32.398-36 51.602-82.801 51.602-132 0-18-3.6016-36-12-52.801l-49.199-97.199c-10.801-20.398-9.6016-45.602 2.3984-64.801 12-20.398 33.602-32.398 57.602-32.398 28.801 0 56.398 6 82.801 18l43.199 19.199c19.199 8.3984 44.398 16.801 63.602 16.801 20.398 0 44.398-8.3984 63.602-16.801l43.199-19.199c26.398-12 54-18 82.801-18 24 0 44.398 12 57.602 32.398 13.199 20.398 13.199 44.398 2.3984 64.801l-48 95.996c-8.3984 16.801-12 34.801-12 52.801 1.1992 49.199 19.199 96 51.602 132l33.602 36c20.398 21.602 32.398 49.199 37.199 78v1.1992c0 61.199-50.398 111.6-111.6 111.6-61.199 0-111.6-50.398-111.6-111.6 0-26.398 13.199-50.398 36-63.602 22.801-13.199 50.398-13.199 73.199-1.1992 12 6 26.398 2.3984 32.398-9.6016s2.3984-26.398-9.6016-32.398c-38.398-21.602-82.801-20.398-121.2 1.1992-37.199 21.602-60 61.199-60 104.4 0 87.602 70.801 159.6 159.6 159.6 18 0 34.801-2.3984 50.398-8.3984-3.6016 9.6016-4.8008 19.199-4.8008 28.801 1.1992 25.199 12 48 31.199 63.602 25.207 20.398 38.406 48 38.406 76.801z"/>
  <path d="m723.6 199.2c7.1992-7.1992 19.199-7.1992 25.199 0 3.6016 3.6016 4.8008 8.3984 4.8008 13.199 0 4.8008-2.3984 9.6016-4.8008 13.199-9.6016 9.6016-9.6016 24 0 33.602 4.8008 4.8008 10.801 7.1992 16.801 7.1992s12-2.3984 16.801-7.1992c12-12 19.199-28.801 19.199-46.801s-7.1992-34.801-19.199-46.801-28.801-19.199-46.801-19.199-34.801 7.1992-46.801 19.199c-9.6016 9.6016-9.6016 24 0 33.602 9.5977 9.6016 25.199 9.6016 34.801 0z"/>
  <path d="m380.4 165.6c-25.199 25.199-25.199 67.199 0 93.602 4.8008 4.8008 10.801 7.1992 16.801 7.1992s12-2.3984 16.801-7.1992c9.6016-9.6016 9.6016-24 0-33.602-7.1992-7.1992-7.1992-19.199 0-25.199 7.1992-7.1992 19.199-7.1992 25.199 0 9.6016 9.6016 24 9.6016 33.602 0 9.6016-9.6016 9.6016-24 0-33.602-25.199-27.602-67.199-27.602-92.402-1.1992z"/>
  <path d="m676.8 351.6c-6-12-19.199-16.801-32.398-12-13.199 6-27.602 10.801-40.801 12v-51.602-3.6016c16.801-4.8008 28.801-13.199 28.801-24 0-15.602-24-27.602-54-27.602s-54 12-54 27.602c0 10.801 13.199 20.398 31.199 25.199v2.3984 50.398c-12-2.3984-25.199-6-37.199-12s-26.398 0-32.398 12 0 26.398 12 32.398c27.602 12 55.199 19.199 82.801 19.199 27.602 0 55.199-6 82.801-19.199 13.195-4.793 17.996-19.191 13.195-31.191z"/>
 </g>
</svg>
