<?xml version="1.0" encoding="UTF-8"?>
<svg width="1200pt" height="1200pt" version="1.1" viewBox="0 0 1200 1200" xmlns="http://www.w3.org/2000/svg">
 <path d="m1027.2 156.8c-11.68-7.3906-26.16-8.8398-39.074-3.918-20.137 7.8359-36.148 30.898-50.082 71.812-54.469-0.86328-86.867 49.969-131.64 120.47-60.953 100.76-134.05 193.64-217.65 276.58-93.109 75.18-195.24 138.45-304.01 188.34-92.344 44.906-153.49 74.57-131.38 156.43 3.0234 16.391 10.438 31.648 21.449 44.156 11.012 12.508 25.211 21.793 41.082 26.871 24.133 8.8906 49.719 13.184 75.434 12.656 106.76 0 271.05-59.156 477.98-227.23l1.332-1.1992c240.14-236.57 297.79-422.87 271.64-518.31-2.332-8.6445-5.5938-17.012-9.7305-24.957l1.875-6c16.238-50.473 30.207-94.066-7.2188-115.71zm-25.555 31.051c0.84375-0.28125 2.5703-0.99219 6.7891 1.4453 9.2422 5.3242 4.9492 24.805-4.7266 56.023-8.1133-5.707-17.172-9.9414-26.758-12.504-0.63672-0.24219-1.2383-0.375-1.875-0.60156 13.371-37.219 24.301-43.5 26.57-44.363zm-256.69 606.56c-242.06 196.41-420.34 236.72-505.18 211.45 31.824-3.8203 63.082-11.41 93.113-22.613 155.2-49.324 296.28-135.2 411.38-250.41 4.7969-4.6875 6.7266-11.582 5.0664-18.078-1.6641-6.5-6.668-11.617-13.125-13.426-6.4609-1.8086-13.395-0.035156-18.191 4.6523-111 111.18-247.09 194.05-396.8 241.63-56.512 20.137-103.12 25.332-119.01 19.012 16.875-20.457 94.293-47.738 129.38-60.113 23.398-7.0742 46.09-16.301 67.781-27.562 5.6289-3.6406 8.8867-10.004 8.5469-16.699-0.33984-6.6914-4.2266-12.695-10.191-15.75-5.9688-3.0508-13.109-2.6914-18.734 0.94922-19.336 9.3711-39.344 17.293-59.852 23.703-58.125 20.457-105.23 38.398-132.43 59.664 3.1484-31.258 36.355-49.105 114.38-87v-0.003906c111.95-51.383 217-116.61 312.71-194.16 86.164-85.203 161.47-180.73 224.21-284.4 42.133-66.32 63.75-97.5 91.5-102.15v-0.003906c-21.391 29.23-39.121 60.965-52.797 94.5-5.9531 13.938-12.777 27.484-20.438 40.559-87.637 157.28-212.88 290.4-364.54 387.45-4.2266 2.6367-7.2344 6.8438-8.3594 11.695-1.125 4.8516-0.27734 9.9531 2.3594 14.18s6.8438 7.2344 11.695 8.3594c4.8516 1.125 9.9531 0.27734 14.18-2.3594 156.55-100.06 285.9-237.32 376.5-399.52 8.5742-14.344 16.148-29.262 22.668-44.645 11.363-24.656 39.73-86.062 58.969-97.5 2.207 5.082 3.3008 10.582 3.207 16.125 1.2734 81.805-122.12 281.12-154.07 302.57v-0.003906c-4.2188 2.7344-7.168 7.0469-8.1797 11.973-1.0117 4.9258 0 10.051 2.8047 14.227 2.8008 4.1719 7.1641 7.0469 12.105 7.9727 4.9453 0.92578 10.051-0.17187 14.176-3.0469 36.449-24.375 148.59-200.32 167.83-304.86 17.215 84.207-40.895 254.95-262.65 473.62z"/>
</svg>
