<?xml version="1.0" encoding="UTF-8"?>
<svg width="1200pt" height="1200pt" version="1.1" viewBox="0 0 1200 1200" xmlns="http://www.w3.org/2000/svg">
 <path d="m296.88 483.96c-30.961-18-57.84-35.762-75.121-50.762-13.078-11.398-21.359-22.199-24.961-30.602-3.2383-7.8008-3.7188-14.879-2.3984-21.121 0.96094-4.8008 3.2383-10.441 7.5586-16.441 5.5195-7.4414 15.359-16.801 29.039-26.879 65.398-48.48 228.24-125.76 311.64-146.76 28.922-7.1992 65.281-6.8398 94.559 1.1992 83.762 22.922 268.56 108.36 335.52 159.84 15.121 11.52 24.961 22.441 29.281 30.719 4.3203 8.5195 5.0391 16.32 3.7188 22.922-1.0781 5.0391-3.3594 10.68-7.6797 16.441-5.3984 7.4414-15.238 16.32-28.801 25.68-17.16 11.762-41.039 25.078-69 38.879 0 65.762-3.3594 126.6-8.2812 179.88v0.60156c-11.879 129.6-32.16 214.08-32.16 214.08l-1.0781 3.3594c-24.121 59.398-89.398 103.08-168.84 120.36-115.08 25.078-257.64-4.9219-332.52-111.24l-2.8789-5.2812c-21.602-56.762-35.16-124.92-43.559-189.6-0.48047-1.8008-0.71875-3.6016-0.71875-5.5195-11.762-92.52-13.199-177.24-13.32-209.76zm536.4 273.12c-7.4414 4.8008-15.602 8.6406-24.48 11.039-38.879 10.68-59.039-0.48047-75.359-15.719-5.5195-5.1602-10.441-11.039-15.602-16.801-6.8398-7.4414-14.52-14.641-30.48-13.078-13.559 1.3203-25.32 8.1602-36.719 16.32-14.762 10.441-28.801 23.039-43.441 33.719-22.078 15.961-45.48 27.238-72.238 26.281-18-0.60156-37.922-6.6016-60.121-21.719-14.52-10.078-24.719-24.719-33.719-40.801-8.3984-15.121-14.398-32.52-29.398-41.039-14.641-8.2812-28.922-4.5586-39.602 0.48047-4.9219 2.3984-9.2383 5.1602-12.602 7.6797 7.9219 56.762 20.16 115.56 38.762 165.36 64.078 88.441 184.56 110.76 281.4 89.641 61.559-13.32 114.36-44.16 133.8-89.879 2.0391-8.7617 10.922-49.078 19.801-111.48zm18.84-247.32c-67.32 30.359-144.96 59.879-201.48 76.801-55.441 16.68-89.039 17.281-146.52-2.8789-38.16-13.441-100.68-41.879-159-72.84 0.60156 33.238 2.5195 84.238 8.1602 140.76 22.441-10.32 51.961-15.238 82.078 1.9219 16.32 9.2383 27.602 23.762 37.078 40.078 9 15.602 15.121 33.961 29.52 43.922 15.238 10.32 28.078 14.281 39.961 13.199 20.16-1.9219 36.602-16.199 53.641-29.879 26.879-21.602 54.359-42.84 87-46.078 35.16-3.4805 53.52 10.199 68.762 26.398 4.4414 4.8008 8.5195 9.8398 13.078 14.281 3.4805 3.6016 7.1992 7.1992 12.961 8.2812 5.0391 0.96094 11.039 0.23828 18.84-1.9219 13.199-3.4805 22.68-13.801 30-24.121 10.68-15.238 16.441-31.68 18.121-36.961 4.0781-45.359 7.0781-96.121 7.8008-150.96zm101.88-110.28c-0.71875-0.83984-1.4414-1.5586-2.1602-2.1602-8.6406-7.6797-21-16.32-36-25.801-77.641-48.719-221.4-113.52-291.36-132.6-21.719-6-48.602-6.3594-70.199-0.96094-69.238 17.398-196.08 75.961-268.32 120.96-15.84 9.9609-28.922 19.078-37.922 26.879-0.96094 0.96094-2.0391 1.9219-3 3 1.4414 1.6797 3.2383 3.6016 4.9219 5.1602 6.6016 6.2383 15.48 12.961 25.801 20.16 15.84 11.039 35.039 22.922 55.922 34.801 0.71875 0.35938 1.4414 0.83984 2.1602 1.1992 63.84 36.238 142.2 72.719 186.24 88.199 45.84 16.199 72.602 15.602 116.76 2.2812 81.359-24.359 208.32-75.719 279.6-116.16 15.238-8.7617 27.84-16.801 36.359-24 0.48047-0.23828 0.83984-0.60156 1.1992-0.96094zm-150.36 55.078c33.238-18.238 48.961-42.84 46.199-67.199-2.1602-20.281-18.48-41.641-47.16-58.68-50.879-30.238-143.04-51.48-213.6-50.641-60 0.71875-155.04 16.922-207 47.16-29.762 17.398-46.32 40.32-46.559 64.801-0.23828 23.398 14.641 45.961 43.078 63.48 48.961 30.121 142.2 47.762 217.08 45.719 45.602-1.1992 94.559-7.6797 136.32-18.238h0.007812c6.1719-1.5508 11.469-5.5039 14.715-10.98 3.2461-5.4766 4.168-12.02 2.5664-18.18-1.5391-6.1641-5.4648-11.461-10.914-14.723-5.4453-3.2656-11.969-4.2266-18.129-2.6797-38.52 9.8398-83.762 15.719-125.88 16.801-56.879 1.5586-125.76-9-171.6-28.922-13.199-5.6406-24.359-12-31.922-19.441-4.0781-3.8398-7.4414-7.6797-7.3203-12.359 0-5.2812 3.8398-9.3594 8.5195-13.68 8.5195-7.6797 20.52-14.281 34.559-20.039 48.121-19.922 117.12-30.121 162.96-30.719 53.762-0.60156 121.68 12.719 168.36 33.602 14.16 6.2383 26.16 13.078 34.801 20.52 4.8008 4.1992 8.8789 7.9219 9.4805 12.48 0.23828 3.1211-2.2812 5.2812-4.9219 7.9219-4.1992 4.3203-9.9609 8.2812-16.801 12-11.641 6.3594-15.84 20.879-9.4805 32.52 6.3594 11.641 21 15.84 32.641 9.4805z" fill-rule="evenodd"/>
</svg>
