<?xml version="1.0" encoding="UTF-8"?>
<svg width="1200pt" height="1200pt" version="1.1" viewBox="0 0 1200 1200" xmlns="http://www.w3.org/2000/svg">
 <g>
  <path d="m444.61 248.79c-15.238-6.1211-31.199-9.4805-47.762-9.7188-0.83984-0.12109-1.6797-0.12109-2.5195-0.12109-101.04 0-183.24 114.48-183.24 255.36 0 116.4 56.281 214.92 132.84 245.52 15.238 6.1211 31.199 9.4805 47.762 9.7188 0.83984 0.12109 1.8008 0.12109 2.6406 0.12109 101.04 0 183.24-114.6 183.24-255.36-0.003907-116.52-56.281-215.04-132.96-245.52zm-185.52 245.52c0-98.039 44.52-180.24 104.16-201.72-15.238 23.52-29.039 52.32-29.039 99.48 0 58.68 21.48 89.16 40.441 116.04 17.039 24.121 31.68 44.879 31.68 88.32 0 43.559-14.641 64.32-31.68 88.441-2.7617 3.9609-5.6406 8.0391-8.5195 12.238-61.086-19.922-107.04-103.2-107.04-202.8zm166.08 201.84c15.238-23.398 29.16-52.441 29.16-99.719 0-58.68-21.48-89.16-40.441-116.04-16.922-24-31.68-44.879-31.68-88.32 0-43.559 14.762-64.32 31.68-88.441 2.7617-3.9609 5.6406-7.9219 8.3984-12.121 61.199 19.801 107.28 103.2 107.28 202.8 0 98.039-44.637 180.36-104.4 201.84z"/>
  <path d="m970.18 579.61c-7.5977-14.555-17.543-27.492-29.965-38.438-0.5625-0.63672-1.1992-1.1875-1.8359-1.7266-76.766-65.699-213.65-32.172-305.26 74.855-75.684 88.441-96.984 199.88-58.715 272.9 7.5977 14.555 17.543 27.492 29.965 38.438 0.5625 0.63672 1.2852 1.2617 1.9336 1.8125 76.766 65.699 213.73 32.074 305.26-74.867 75.754-88.527 97.055-199.97 58.617-272.98zm-300.59 65.891c63.742-74.484 151.02-107.99 210.3-85.523-26.867 7.957-56.09 20.867-86.746 56.699-38.16 44.578-41.652 81.707-44.723 114.46-2.7344 29.398-5.1133 54.695-33.359 87.695-28.32 33.098-52.945 39.348-81.574 46.598-4.668 1.2109-9.5156 2.4375-14.438 3.7578-33.461-54.855-14.227-148.01 50.539-223.68zm-5.0664 261.34c26.797-7.8711 56.258-20.879 87-56.797 38.16-44.578 41.652-81.707 44.723-114.46 2.7461-29.23 5.1133-54.695 33.359-87.695 28.32-33.098 53.039-39.277 81.574-46.598 4.668-1.2109 9.4336-2.3516 14.27-3.7422 33.625 54.84 14.398 148.16-50.363 223.84-63.754 74.484-151.2 108-210.56 85.453z"/>
 </g>
</svg>
