<?xml version="1.0" encoding="UTF-8"?>
<svg width="1200pt" height="1200pt" version="1.1" viewBox="0 0 1200 1200" xmlns="http://www.w3.org/2000/svg">
 <g>
  <path d="m1008 544.89c4.2578-11.457 8.0234-23.23 10.727-35.586 19.07-86.625-0.61719-180.43-52.688-250.89-43.668-59.117-105.52-94.781-174.17-100.41-191.05-15.695-233.64-25.07-414.15-91.145-76.406-27.977-148.69-25.273-209.02 7.8203-69.996 38.379-122.61 117.05-144.34 215.85-26.512 120.49 43.648 242.36 192.47 336.68-36.281 54.543-53.719 124.2-53.719 193.78 0 102.41 62.738 189.86 181.41 252.86 91.293 48.469 212.4 78.582 316.03 78.582 4.1055 0 8.1758-0.054688 12.133-0.14844 188.89-4.6367 508.57-79.637 508.57-331.3 0-122.03-74.25-232.16-173.25-276.09zm-947.02-246.3c19.406-88.238 65.23-157.86 125.72-191.02 51.242-28.125 111.21-29.961 178.12-5.4766 182.89 66.938 230.44 77.398 423.98 93.281 57.695 4.7266 109.93 35.043 147.07 85.312 45.711 61.914 63 144.36 46.238 220.57-2.3828 10.82-5.6992 21.094-9.4141 31.07-18.582-4.9688-37.727-7.8203-57.242-7.8203-10.352 0-20.867 0.71094-31.238 2.1172-94.125 12.73-152.66 19.199-211.48 19.199-59.062 0-120.3-6.75-212.59-19.199-15.414-2.082-30.602-3.1484-45.113-3.1484-76.574 0-134.51 28.969-175.41 73.988-73.711-46.5-210.45-154.33-178.65-298.88zm610.78 816.21c-3.6758 0.09375-7.4258 0.14844-11.23 0.14844-187.99 0-459.94-104.68-459.94-293.96 0-119.95 56.156-260.02 214.45-260.02 12.863 0 26.324 0.9375 40.105 2.8125 93.918 12.676 156.41 19.539 217.59 19.539 60.977 0 120.75-6.582 216.52-19.555 8.7188-1.1797 17.531-1.7812 26.195-1.7812 121.63 0.011719 228.3 121.04 228.3 259.01 0 223.22-308.74 289.8-471.99 293.81z"/>
  <path d="m635.96 777.36c-10.367 0-18.75 8.3828-18.75 18.75v39.449c0 10.367 8.3828 18.75 18.75 18.75 10.367 0 18.75-8.3828 18.75-18.75v-39.449c0-10.367-8.3789-18.75-18.75-18.75z"/>
  <path d="m447.19 908.38c-10.367 0-18.75 8.3828-18.75 18.75v39.449c0 10.367 8.3828 18.75 18.75 18.75s18.75-8.3828 18.75-18.75v-39.449c0-10.352-8.3984-18.75-18.75-18.75z"/>
  <path d="m405.34 646.46c-10.367 0-18.75 8.3828-18.75 18.75v39.449c0 10.367 8.3828 18.75 18.75 18.75 10.367 0 18.75-8.3828 18.75-18.75v-39.449c0-10.367-8.3789-18.75-18.75-18.75z"/>
  <path d="m802.78 646.46c-10.367 0-18.75 8.3828-18.75 18.75v39.449c0 10.367 8.3828 18.75 18.75 18.75s18.75-8.3828 18.75-18.75v-39.449c0-10.367-8.3828-18.75-18.75-18.75z"/>
  <path d="m844.12 932.62c-10.367 0-18.75 8.3828-18.75 18.75v39.469c0 10.367 8.3828 18.75 18.75 18.75s18.75-8.3828 18.75-18.75v-39.469c0-10.352-8.3984-18.75-18.75-18.75z"/>
  <path d="m978.49 753.52c-10.367 0-18.75 8.3828-18.75 18.75v39.469c0 10.367 8.3828 18.75 18.75 18.75 10.367 0 18.75-8.3828 18.75-18.75v-39.469c0-10.348-8.4023-18.75-18.75-18.75z"/>
  <path d="m479.04 424.71c1.3516 0.30078 2.6992 0.42969 4.0312 0.42969 8.6055 0 16.367-5.9609 18.301-14.738l8.457-38.57c2.2109-10.125-4.1797-20.117-14.305-22.332-10.145-2.2695-20.102 4.1641-22.312 14.289l-8.457 38.57c-2.2344 10.145 4.1602 20.137 14.285 22.352z"/>
  <path d="m266.49 512.06c1.3516 0.30078 2.7188 0.42969 4.0508 0.42969 8.6055 0 16.367-5.9609 18.301-14.719l8.4766-38.512c2.2305-10.105-4.1797-20.117-14.289-22.332-10.125-2.2891-20.117 4.1641-22.332 14.289l-8.4766 38.512c-2.2461 10.09 4.1641 20.102 14.27 22.332z"/>
  <path d="m281.89 247.24c1.3516 0.30078 2.7188 0.42969 4.0508 0.42969 8.6055 0 16.367-5.9609 18.301-14.719l8.4766-38.512c2.2305-10.105-4.1797-20.117-14.289-22.332-10.125-2.3047-20.117 4.1641-22.332 14.289l-8.4766 38.512c-2.25 10.086 4.1641 20.102 14.27 22.332z"/>
  <path d="m670.03 332.62c1.3516 0.30078 2.7188 0.42969 4.0508 0.42969 8.6055 0 16.367-5.9609 18.301-14.719l8.4766-38.492c2.2305-10.105-4.1641-20.117-14.289-22.332-10.105-2.3242-20.117 4.1445-22.332 14.289l-8.4766 38.492c-2.25 10.105 4.1445 20.121 14.27 22.332z"/>
  <path d="m818.64 475.01c1.3516 0.30078 2.7188 0.42969 4.0508 0.42969 8.6055 0 16.367-5.9609 18.301-14.719l8.4766-38.492c2.2305-10.105-4.1641-20.117-14.289-22.332-10.125-2.3047-20.117 4.1445-22.332 14.289l-8.4766 38.492c-2.25 10.109 4.1445 20.121 14.27 22.332z"/>
 </g>
</svg>
