<?xml version="1.0" encoding="UTF-8"?>
<svg width="1200pt" height="1200pt" version="1.1" viewBox="0 0 1200 1200" xmlns="http://www.w3.org/2000/svg">
 <path d="m1093.1 740.62c-19.688-39.375-45.938-75-77.812-106.88-6.5625-6.5625-16.875-6.5625-23.438 0s-6.5625 16.875 0 23.438c30 29.062 53.438 62.812 72.188 98.438 6.5625 12.188 4.6875 27.188-3.75 38.438-9.375 11.25-22.5 16.875-37.5 14.062l-126.56-26.25 88.125-226.88c2.8125-6.5625 0.9375-14.062-4.6875-17.812-60.938-54.375-156.56-77.812-194.06-84.375l2.8125-26.25c0.9375-7.5-3.75-15-11.25-16.875l-14.062-6.5625c-110.62-37.5-232.5-37.5-343.12 0l-15 4.6875c-7.5 2.8125-12.188 9.375-11.25 16.875l2.8125 26.25c-37.5 7.5-132.19 30-193.12 84.375-4.6875 4.6875-6.5625 12.188-4.6875 17.812l15.938 40.312c-25.312 17.812-84.375 65.625-124.69 146.25-12.188 23.438-9.375 51.562 7.5 73.125 13.125 17.812 33.75 27.188 55.312 27.188 4.6875 0 9.375-0.9375 14.062-1.875l132.19-27.188 7.5 18.75c2.8125 6.5625 8.4375 10.312 15 10.312 1.875 0 2.8125 0 4.6875-0.9375l54.375-15.938c8.4375-2.8125 14.062-11.25 11.25-20.625-2.8125-8.4375-11.25-14.062-20.625-11.25l-40.312 12.188-81.562-210-15-40.312c53.438-42.188 132.19-61.875 165.94-69.375l3.75 35.625c-22.5 4.6875-64.688 15.938-96.562 40.312-7.5 5.625-8.4375 15.938-2.8125 23.438 2.8125 3.75 8.4375 6.5625 13.125 6.5625 3.75 0 7.5-0.9375 10.312-3.75 24.375-18.75 59.062-29.062 79.688-33.75l27.188 273.75c0.9375 8.4375 7.5 15 15.938 15h281.25c8.4375 0 15.938-6.5625 15.938-15l1.875-16.875 106.88 30.938c1.875 0 2.8125 0.9375 4.6875 0.9375 6.5625 0 13.125-3.75 15-10.312l7.5-18.75 132.19 27.188c4.6875 0.9375 9.375 1.875 14.062 1.875 21.562 0 42.188-10.312 55.312-27.188 16.875-21.562 19.688-49.688 7.5-73.125zm-931.88 66.562c-14.062 2.8125-28.125-1.875-37.5-14.062-8.4375-11.25-10.312-25.312-3.75-38.438 33.75-67.5 82.5-110.62 106.88-129.38l60 155.62zm304.69 0.9375-37.5-374.06 1.875-0.9375c104.06-34.688 218.44-34.688 322.5 0l1.875 0.9375-37.5 374.06zm386.25-2.8125-98.438-28.125 4.6875-42.188 45.938 15c1.875 0.9375 3.75 0.9375 4.6875 0.9375 6.5625 0 13.125-4.6875 15.938-11.25 2.8125-8.4375-1.875-17.812-10.312-20.625l-52.5-16.875 21.562-216.56c33.75 6.5625 112.5 26.25 166.88 69.375zm-161.25-172.5-1.875 14.062c-0.9375 8.4375-8.4375 14.062-15.938 14.062h-1.875c-9.375-0.9375-15-9.375-14.062-18.75l1.875-14.062c0.9375-9.375 9.375-15 18.75-14.062 7.5 0.9375 14.062 9.375 13.125 18.75zm15-125.62-6.5625 54.375c-0.9375 8.4375-8.4375 14.062-15.938 14.062h-1.875c-9.375-0.9375-15-9.375-14.062-17.812l6.5625-54.375c1.875-11.25-6.5625-22.5-17.812-24.375-32.812-6.5625-61.875-3.75-61.875-3.75-9.375 0.9375-16.875-5.625-17.812-15s5.625-16.875 15-17.812c0.9375 0 33.75-2.8125 71.25 4.6875 27.188 4.6875 46.875 30.938 43.125 60z"/>
</svg>
