<?xml version="1.0" encoding="UTF-8"?>
<svg width="1200pt" height="1200pt" version="1.1" viewBox="0 0 1200 1200" xmlns="http://www.w3.org/2000/svg">
 <path d="m1094.8 747.76c-33.355-122.77-114.67-197.93-200.76-277.5-6.9492-6.4258-13.934-12.895-20.953-19.41h0.003906c-34.129-30.676-65.418-64.371-93.484-100.67-47.879-64.5-74.422-121.5-86.078-184.81 0 0-3.6172-19.418-4.3867-29.414v-80.953c0.054688-14.512-5.6484-28.453-15.859-38.766-10.211-10.312-24.098-16.152-38.609-16.238h-69.203c-14.516 0.085938-28.402 5.9258-38.613 16.238-10.215 10.309-15.918 24.254-15.863 38.766v92.148c-0.75 12.875-2.4844 25.676-5.1875 38.289-12.07 58.691-37.949 113.66-75.492 160.36-44.117 51.195-91.375 99.598-141.5 144.93-26.574 25.051-54.047 50.949-80.18 77.445-77.812 78.918-119.54 180.58-114.47 278.91h-0.003906c2.2305 48.031 15.367 94.922 38.422 137.11 23.051 42.195 55.41 78.586 94.625 106.41 41.934 29.578 89.742 49.781 140.18 59.234 55.184 8.6445 111.27 9.8672 166.78 3.6328l-16.258 13.238c-3.8594 3.1406-6.3086 7.6875-6.8164 12.633-0.50391 4.9492 0.97266 9.8945 4.1133 13.754 3.1719 3.8125 7.7109 6.2266 12.645 6.7305 4.9336 0.50391 9.8672-0.94531 13.742-4.0391l38.215-31.137v16.598c0 6.7031 3.5742 12.895 9.3789 16.242 5.8008 3.3516 12.953 3.3516 18.758 0 5.8008-3.3477 9.375-9.5391 9.375-16.242v-18.859l41.281 33.426c3.8633 3.1406 8.8164 4.6172 13.766 4.1016 4.9531-0.51562 9.4961-2.9805 12.629-6.8477 3.1328-3.8672 4.5977-8.8242 4.0703-13.773-0.52734-4.9531-3-9.4883-6.875-12.613l-19.766-16.012c3.1875 0.32031 6.375 0.60547 9.5664 0.93359 30.742 3.625 61.648 5.6914 92.598 6.1992 14.453 0.042968 28.895-0.71875 43.262-2.2812 80.68-8.0859 155.62-45.359 210.75-104.82 37.785-39.613 64.66-88.34 78.016-141.43 13.355-53.09 12.73-108.73-1.8125-161.51zm-580.14-431.99c20.371-52.988 35.242-107.93 44.383-163.96 6.8672 5.7773 14.023 11.203 21.438 16.258 7.8281 117.06-44.41 217.11-99.785 322.97-42.453 81.141-86.344 165.06-100.56 257.34-21.926 142.42 27.664 279.09 124.22 362.54-97.805-34.891-192.76-87.809-227.5-192.8-48.797-147.57 34.199-269.84 122.07-399.3 44.453-65.469 90.406-133.17 115.73-203.04zm66.648 795.7c-3.4414 0.32812-11.074 1.043-11.453 1.0703-113.6-68.582-175.52-209.98-152.65-358.46 13.266-86.133 55.691-167.24 96.723-245.67 24.875-45.66 47.367-92.578 67.383-140.57zm54.102-1.125c-5.4258-0.55859-10.969-0.98828-16.59-1.207l0.003906-763.34c21.469 55.457 47 109.25 76.383 160.96 41.203 76.832 83.797 156.27 97.105 242.64 23.148 150.31-40.605 293.34-156.9 360.95zm193.96-366.66c-14.281-92.715-58.426-175.03-101.12-254.64-54.473-101.58-105.84-197.66-99.371-312.56l0.13281-0.10156c4.9219-4.5508 14.039-11.711 22.473-18.281 10.891 51.695 25.383 102.57 43.379 152.24 25.277 69.25 71.109 136.6 115.43 201.73 88.043 129.36 171.2 251.53 122.37 398.16-33.633 100.98-123.88 153.39-218.44 188.07 90.621-84.027 136.4-216.69 115.15-354.61zm-263.91-706.18h69.203c4.5664 0.078125 8.918 1.9648 12.098 5.2461 3.1797 3.2812 4.9258 7.6914 4.8633 12.258v55.125c-0.80469 0.51953-35.352 27.867-41.141 32.676-23.324-14.691-44.238-32.902-61.996-53.988v-33.812c-0.0625-4.5703 1.6875-8.9766 4.8672-12.258 3.1797-3.2812 7.5352-5.168 12.105-5.2461zm-316.92 1022.3c-34.504-24.547-62.969-56.629-83.227-93.812-20.262-37.184-31.785-78.496-33.699-120.8-4.5273-87.855 33.281-179.21 103.71-250.65 25.645-26.02 52.867-51.672 79.203-76.492 38.438-36.238 77.863-73.48 114.37-113.53-18.613 30.707-39.48 61.57-60.996 93.266-89.117 131.27-181.26 267.01-126.66 432.13 31.262 94.473 102.73 150.79 183.8 189.03h0.003906c-17.109-0.96875-34.141-2.9609-51.012-5.9688-45.164-8.5117-87.969-26.645-125.5-53.172zm742.48-34.496c-49.031 52.789-115.65 85.855-187.35 92.988-14.16 1.5156-28.402 2.1797-42.641 1.9961 90.523-38.031 172.98-95.406 207.21-198.18 54.688-164.24-37.641-299.91-126.94-431.11-12.441-18.293-24.641-36.281-36.355-54.145 14.531 14.953 29.004 28.82 42.57 41.465 7.0469 6.5547 14.066 13.059 21.062 19.508 82.012 75.805 159.49 147.41 190.03 259.79 26.293 96.887 2.2852 191.95-67.582 267.69z"/>
</svg>
