<?xml version="1.0" encoding="UTF-8"?>
<svg width="1200pt" height="1200pt" version="1.1" viewBox="0 0 1200 1200" xmlns="http://www.w3.org/2000/svg">
 <g>
  <path d="m1106 557.76c20.52 0 40.32 8.3984 54.238 23.039 5.3984 5.6406 13.559 7.4414 20.762 4.5586 7.1992-2.8789 11.879-9.8398 11.879-17.641v-156c0-111.6-120.72-215.16-339.84-291.6-1.0781-0.35938-2.1602-0.23828-3.2383-0.48047-0.83984-0.12109-1.6797-0.35938-2.6406-0.35938-1.5586 0-3 0.23828-4.4414 0.60156-0.71875 0.12109-1.3203 0-2.0391 0.23828l-821.04 273.6c-0.23828 0.12109-0.35938 0.23828-0.60156 0.35938-0.96094 0.35938-1.6797 0.96094-2.6406 1.4414-1.3203 0.83984-2.7617 1.5586-3.8398 2.6406-0.23828 0.23828-0.35938 0.60156-0.59766 0.83984-1.4414 1.5586-2.6406 3.2383-3.4805 5.1602 0 0.12109 0 0.23828-0.12109 0.35938-0.95703 2.2812-1.4375 4.6797-1.4375 7.082v0.12109 75.359c0 6.1211 3 11.879 7.9219 15.48 5.0391 3.6016 11.398 4.5586 17.16 2.5195 11.398-3.9609 23.281-5.8789 35.398-5.8789 60.238 0 109.32 49.078 109.32 109.32 0 60.238-49.078 109.32-109.32 109.32-12.121 0-24-2.0391-35.398-5.8789-5.7617-2.0391-12.238-1.0781-17.16 2.5195-5.0391 3.6016-7.9219 9.3594-7.9219 15.48v331.92c0 10.441 8.5195 18.961 18.961 18.961h604.8c7.8008 0 14.762-4.8008 17.641-12 2.8789-7.1992 0.96094-15.48-4.6797-20.879-22.078-20.641-34.68-49.801-34.68-80.16 0-60.238 49.078-109.32 109.32-109.32 60.48 0 109.68 49.078 109.68 109.32 0 30.48-12.719 59.641-35.039 80.039-5.7617 5.2812-7.6797 13.559-4.8008 20.879 2.8789 7.3203 9.8398 12.121 17.641 12.121h368.16c10.441 0 18.961-8.5195 18.961-18.961l-0.003906-360.96c0-7.6797-4.6797-14.641-11.879-17.641-7.0781-2.8789-15.359-1.1992-20.762 4.3203-14.16 14.52-33.961 22.801-54.48 22.801-42.359 0-76.68-34.199-76.68-76.32 0.23828-42.121 34.68-76.32 76.918-76.32zm-259.32-399.6c182.4 64.68 292.32 149.04 306.6 234.6h-1010.4zm259.32 590.28c17.039 0 33.84-3.8398 49.078-11.039v305.4h-309.6c13.32-22.441 20.52-48.48 20.52-75.121 0-81.238-66.238-147.24-147.72-147.24-81.238 0-147.24 66.121-147.24 147.24 0 26.641 7.1992 52.559 20.398 75.121h-546.6v-288.84c7.4414 1.1992 15 1.6797 22.559 1.6797 81.238 0 147.24-66.121 147.24-147.24 0-81.238-66.121-147.24-147.24-147.24-7.5586 0-15.121 0.60156-22.559 1.6797v-32.16h1110.1v100.2c-15.121-7.1992-31.922-11.16-49.078-11.16-63.238 0-114.72 51.238-114.72 114.24 0.11719 63.117 51.598 114.48 114.84 114.48z"/>
  <path d="m648.96 497.52c-42.961 0-77.879 34.922-77.879 77.879 0 42.961 34.922 77.879 77.879 77.879 42.961 0 77.879-34.922 77.879-77.879 0-42.957-34.918-77.879-77.879-77.879zm0 117.72c-21.961 0-39.84-17.879-39.84-39.84 0-21.961 17.879-39.84 39.84-39.84 21.961 0 39.84 17.879 39.84 39.84 0 21.961-17.879 39.84-39.84 39.84z"/>
  <path d="m267.96 776.4c-53.039 0-96.121 43.078-96.121 96.121 0 53.039 43.078 96.121 96.121 96.121 53.039 0 96.121-43.078 96.121-96.121 0.11719-53.039-43.082-96.121-96.121-96.121zm0 154.2c-32.039 0-58.078-26.039-58.078-58.199 0-32.039 26.039-58.078 58.078-58.078 32.039 0 58.199 26.039 58.199 58.078 0 32.156-26.039 58.199-58.199 58.199z"/>
  <path d="m381 538.08c-53.039 0-96.121 43.078-96.121 96.121 0 53.039 43.078 96.121 96.121 96.121 53.039 0 96.121-43.078 96.121-96.121 0-53.039-43.082-96.121-96.121-96.121zm0 154.32c-32.039 0-58.199-26.039-58.199-58.199 0-32.039 26.039-58.078 58.199-58.078s58.199 26.039 58.199 58.078c0 32.16-26.16 58.199-58.199 58.199z"/>
  <path d="m870.24 633.48c-53.039 0-96.121 43.078-96.121 96.121 0 53.039 43.078 96.121 96.121 96.121 53.039 0 96.121-43.078 96.121-96.121 0-53.043-43.078-96.121-96.121-96.121zm0 154.2c-32.039 0-58.078-26.039-58.078-58.078 0-32.039 26.039-58.199 58.078-58.199 32.039 0 58.199 26.039 58.199 58.199-0.11719 32.039-26.156 58.078-58.199 58.078z"/>
 </g>
</svg>
