<?xml version="1.0" encoding="UTF-8"?>
<svg width="1200pt" height="1200pt" version="1.1" viewBox="0 0 1200 1200" xmlns="http://www.w3.org/2000/svg">
 <g>
  <path d="m600 73.383c-205.2 0-417.42 54.422-417.42 145.48v729.56c-0.007813 22.324 6.5195 44.164 18.777 62.82 12.258 18.66 29.707 33.32 50.199 42.18 77.203 33.398 200.79 73.195 350.79 73.195 105.05 0 223.12-19.5 347.39-74.367 20.188-8.9922 37.332-23.652 49.348-42.199s18.387-40.184 18.34-62.285v-728.91c0-91.055-212.25-145.48-417.42-145.48zm0 22.711c236.13 0 394.76 63.516 394.76 122.81s-158.62 122.74-394.76 122.74-394.76-63.492-394.76-122.79 158.62-122.77 394.76-122.77zm394.76 851.72c0.046876 17.703-5.0508 35.039-14.672 49.898-9.6172 14.863-23.348 26.613-39.516 33.82-293.88 129.82-552.19 56.438-680.02 1.125-16.43-7.1016-30.426-18.855-40.254-33.816-9.8281-14.961-15.062-32.473-15.059-50.371v-680.6c59.977 61.219 229.69 96.469 394.76 96.469s334.78-35.156 394.76-96.469z"/>
  <path d="m764.58 708c-6.6328-4.8281-15.797-6.8672-32.812 0.72656-9.7031-215.2-99.305-288.28-122.11-303.52-2.4336-2.8281-5.9844-4.4531-9.7148-4.4531-3.7305 0-7.2812 1.625-9.7148 4.4531-22.711 15.094-112.5 88.172-122.18 303.61-20.648-9.5625-27.891-4.2891-32.812-0.77344-35.156 25.523-120.68 136.92-124.22 141.66-2.9766 3.8516-3.1523 9.1758-0.44531 13.219 2.7109 4.0469 7.7031 5.9023 12.398 4.6172l111.52-30.164c3.1016-0.81641 6.3555 0.60938 7.8516 3.4453 10.055 20.18 32.414 57.82 69.094 83.344 0.39062 0.26953 0.79687 0.51172 1.2188 0.72656 0.58984 0.48438 1.2266 0.90625 1.8984 1.2656 14.809 7.8555 30.422 14.09 46.57 18.586v43.312c0.007812 6.0078 2.3945 11.77 6.6445 16.02s10.012 6.6367 16.02 6.6445h32.203c6.0078-0.007812 11.77-2.3945 16.02-6.6445s6.6367-10.012 6.6445-16.02v-41.18c3.4219-0.84375 6.8203-1.8047 10.172-2.8828 61.57-19.969 96.445-78.797 108.59-103.12 1.4883-2.8594 4.7656-4.293 7.875-3.4453l111.52 30.164c4.6953 1.2852 9.6875-0.57031 12.398-4.6172 2.707-4.043 2.5312-9.3672-0.44531-13.219-3.4922-4.8281-89.039-116.16-124.17-141.75zm-262.03-97.008c28.227 8.4102 57.402 13.211 86.836 14.297v73.969c-33.145-0.83594-65.863-7.6836-96.562-20.203 1.9609-22.852 5.207-45.574 9.7266-68.062zm28.125-90.258c19.02 5.8242 38.715 9.1562 58.594 9.9141v71.695c-27.715-1.1406-55.184-5.7148-81.773-13.617 5.7656-23.293 13.547-46.043 23.25-67.992zm161.72 68.156c-25.992 8.3945-53.062 12.988-80.367 13.641v-72c19.359-1.0117 38.523-4.3828 57.07-10.031 9.7539 22.074 17.566 44.957 23.344 68.391zm14.766 90.445c-30.457 11.605-62.574 18.285-95.133 19.781v-73.711c29-0.73047 57.754-5.5547 85.406-14.32 4.5469 22.547 7.8086 45.332 9.7734 68.25zm-95.133 42.797c33.051-1.5469 65.68-8.0469 96.797-19.289 0.32813 6.0781 0.58594 12.281 0.77344 18.609-21.094 14.203-50.344 38.367-91.406 77.625l-6.1641 5.9531zm46.875-222.33c-15.289 4.3398-31.008 6.9805-46.875 7.875v-71.344c12.703 11.883 30.164 31.992 47.016 63.469zm-69.516-64.805v72.773c-16.422-0.73047-32.707-3.332-48.539-7.7578 17.438-32.836 35.719-53.32 48.539-65.016zm-98.25 267.96c31.406 12.004 64.637 18.543 98.25 19.336v84.141c-45.422-43.992-76.898-69.914-99.023-84.773 0.1875-6.3516 0.42188-12.586 0.77344-18.703zm-28.383 127.71c-3.043-6.0859-8.1016-10.934-14.316-13.711-6.2109-2.7773-13.195-3.3164-19.762-1.5234l-78.609 21.281c27.82-35.156 76.031-93.938 98.156-110.16 2.3438-0.51562 25.219-2.3438 135.7 106.17-29.273 29.391-54.07 55.828-65.625 68.203-28.875-22.383-47.039-53.227-55.547-70.266zm153.35 157.34h-32.18v-38.672c6.9922 0.95312 14.039 1.4414 21.094 1.4531 3.7031 0 7.3828-0.14062 11.039-0.42187zm155.23-172.57c-6.5625-1.7891-13.543-1.25-19.754 1.5234-6.2109 2.7695-11.273 7.6094-14.324 13.688-10.875 21.82-41.93 74.391-95.297 91.711-31.289 10.148-66.047 6.8203-103.38-9.8672 22.43-24.281 45.844-48.516 68.648-71.086 0.28125-0.23438 0.5625-0.42188 0.82031-0.67969 0.25781-0.25781 0.375-0.46875 0.5625-0.67969 66.75-65.953 127.85-117.35 142.64-113.72 22.5 16.406 70.828 75.305 98.672 110.37z"/>
  <path d="m406.41 275.44c55.641 0 99.258-18.75 109.01-45.234h40.055c6.2656 0 11.344-5.0781 11.344-11.344s-5.0781-11.344-11.344-11.344h-40.055c-9.75-26.438-53.367-45.234-109.01-45.234-63.281 0-111.05 24.328-111.05 56.578s47.742 56.578 111.05 56.578zm0-90.469c54.75 0 88.383 19.734 88.383 33.891s-33.633 33.891-88.383 33.891-88.359-19.734-88.359-33.891 33.516-33.891 88.359-33.891z"/>
 </g>
</svg>
