<svg xmlns="http://www.w3.org/2000/svg" xmlns:xlink="http://www.w3.org/1999/xlink" version="1.1" x="0px" y="0px" viewBox="0 0 100 125" style="enable-background:new 0 0 100 100;" xml:space="preserve"><path d="M85.9,34.5c-0.2,0-5.2-0.5-9.4,5.8c-4.9-2.6-10.3-2-13.5,1.9l-0.7,0.4c-0.9-1.2-1.9-2.3-3.1-3.3c-0.7-0.6-1.4-1-2.1-1.5  c4.1-6,8.4-5.7,8.6-5.7l0,0l0.3-2.9c-0.3,0-6.5-0.6-11.7,7.6c-5.3-4.2-10.8-5.9-16.6-5.2c-13,1.6-22.2,15.2-22.6,15.7l-1.3,2  l2.4,0.2c0.1,0,1.9,0.2,17,1.9c0.3,0,0.6,0.1,0.9,0.1c0,0.3,0,0.7,0,1c-0.2,9.1,0.8,10.5-3.5,15.8c-1.9,2.4,2.9,13.3,15.3,6.7  c2.1-1.1,6-4.7,9.5-8.1l0.5,1c1.2,3,5.4,6.9,12.5,3.1C72,69.2,82,58.5,82,58.5c3.8-4.6,2.5-12-2.9-16.4c-0.1-0.1-0.2-0.1-0.2-0.2  c3.2-4.7,6.6-4.5,6.7-4.5l0,0L85.9,34.5z M45.4,71.9L42.7,74c-0.2,0.1-0.3,0.2-0.5,0.2c-0.2,0-0.5-0.1-0.6-0.3  c-0.3-0.3-0.2-0.9,0.1-1.1l2.7-2.2c0.3-0.3,0.9-0.2,1.1,0.1C45.8,71.1,45.7,71.6,45.4,71.9z M34.4,48.7c-0.3,0-0.6-0.1-0.9-0.1  C25.5,47.7,21.3,47.2,19,47c3-3.7,10.1-11.4,19-12.5c4.4-0.5,8.7,0.7,12.9,3.5c-0.4,0-0.8-0.1-1.3-0.1c-0.6,0-1.2,0-1.9-0.1  c-0.7,0-1.4,0-2.1,0c-0.7,0-1.5,0.1-2.2,0.1c-0.4,0-0.8,0.1-1.1,0.1c-0.4,0-0.8,0.1-1.1,0.1c-0.8,0.1-1.5,0.2-2.3,0.4  c-0.2,0-0.4,0.1-0.6,0.1c-0.2,0-0.4,0.1-0.5,0.1c-0.2,0-0.4,0.1-0.5,0.1c-0.2,0-0.4,0.1-0.5,0.1c-0.3,0.1-0.7,0.2-1,0.3  c-0.3,0.1-0.6,0.2-1,0.3c-0.2,0.1-0.3,0.1-0.5,0.2c-0.1,0.1-0.3,0.1-0.4,0.2c-0.1,0.1-0.3,0.1-0.4,0.2c-0.1,0.1-0.3,0.1-0.4,0.2  c-0.3,0.1-0.5,0.2-0.7,0.3c-0.2,0.1-0.5,0.2-0.7,0.3c-0.4,0.2-0.8,0.4-1,0.6c-0.5,0.3-0.8,0.5-0.9,0.6c0,0,0.4-0.2,0.9-0.4  c0.3-0.1,0.7-0.3,1.1-0.5c0.2-0.1,0.4-0.2,0.7-0.2c0.2-0.1,0.5-0.2,0.8-0.2c0.1,0,0.3-0.1,0.4-0.1c0.1,0,0.3-0.1,0.4-0.1  c0.1,0,0.3-0.1,0.4-0.1c0.2,0,0.3-0.1,0.5-0.1c0.3-0.1,0.6-0.1,1-0.2c0.3-0.1,0.7-0.1,1-0.2c0.2,0,0.3-0.1,0.5-0.1  c0.2,0,0.4,0,0.5-0.1c0.2,0,0.4,0,0.5-0.1c0.2,0,0.4,0,0.5,0c0.7-0.1,1.5-0.1,2.2-0.1c0.4,0,0.7,0,1.1,0c0.4,0,0.7,0,1.1,0  c0.7,0,1.4,0.1,2.1,0.1c0.7,0.1,1.4,0.1,2,0.2c0.3,0,0.7,0.1,1,0.1c0.3,0,0.5,0.1,0.8,0.1c1.1,0.2,2,0.4,2.6,0.5  c0.2,0,0.3,0.1,0.4,0.1c-0.8,1-1.9,2.2-3.4,3.4C44.8,47.7,39.9,49.2,34.4,48.7z M49,68.9c-0.2,0.1-0.3,0.2-0.5,0.2  c-0.2,0-0.4-0.1-0.6-0.3c-0.3-0.3-0.3-0.8,0.1-1.1C55.5,61,58,56,58.9,53c0.9-3.1,0.1-4.7,0.1-4.7c-0.2-0.4-0.1-0.9,0.3-1.1  c0.4-0.2,0.9-0.1,1.1,0.3C60.6,47.8,64.4,55,49,68.9z"/><text x="0" y="115" fill="#000000" font-size="5px" font-weight="bold" font-family="'Helvetica Neue', Helvetica, Arial-Unicode, Arial, Sans-serif">Created by CHARIE Tristan</text><text x="0" y="120" fill="#000000" font-size="5px" font-weight="bold" font-family="'Helvetica Neue', Helvetica, Arial-Unicode, Arial, Sans-serif">from the Noun Project</text></svg>