<?xml version="1.0" encoding="UTF-8"?>
<svg width="1200pt" height="1200pt" version="1.1" viewBox="0 0 1200 1200" xmlns="http://www.w3.org/2000/svg">
 <path d="m623.13 780.11c15.152-7.7227 26.207-16.426 33.195-26.137 1.3906-2.3828 2.8359-4.7891 4.3672-7.1992 3.0742-6.2344 4.5938-12.828 4.5938-19.801 0-22.637-14.059-50.5-42.152-83.594-28.09 33.094-42.152 60.961-42.152 83.594 0 21.105 14.059 38.82 42.152 53.137zm161.07-482.39c-9.9336 0-18-8.0664-18-18s8.0664-18 18-18h0.18359c9.9336 0 18 8.0664 18 18s-8.0664 18-18 18zm-96.039 0c-9.9336 0-18-8.0664-18-18s8.0664-18 18-18h0.18359c9.9336 0 18 8.0664 18 18s-8.0664 18-18 18zm-288.12 0c-9.9336 0-18-8.0664-18-18s8.0664-18 18-18h0.18359c9.9336 0 18 8.0664 18 18s-8.0664 18-18 18zm192.08 0c-9.9336 0-18-8.0664-18-18s8.0664-18 18-18h0.18359c9.9336 0 18 8.0664 18 18s-8.0664 18-18 18zm-96.039 0c-9.9336 0-18-8.0664-18-18s8.0664-18 18-18h0.18359c9.9336 0 18 8.0664 18 18s-8.0664 18-18 18zm144.04-132.05c-9.9336 0-18-8.0664-18-18 0-9.9336 8.0664-18 18-18h0.18359c9.9336 0 18 8.0664 18 18 0 9.9336-8.0664 18-18 18zm-96.039 0c-9.9336 0-18-8.0664-18-18 0-9.9336 8.0664-18 18-18h0.18359c9.9336 0 18 8.0664 18 18 0 9.9336-8.0664 18-18 18zm-48.02 60.023c-9.9336 0-18-8.0664-18-18s8.0664-18 18-18h0.18359c9.9336 0 18 8.0664 18 18s-8.0664 18-18 18zm192.08 0c-9.9336 0-18-8.0664-18-18s8.0664-18 18-18h0.18359c9.9336 0 18 8.0664 18 18s-8.0664 18-18 18zm-96.039 0c-9.9336 0-18-8.0664-18-18s8.0664-18 18-18h0.18359c9.9336 0 18 8.0664 18 18s-8.0664 18-18 18zm-316.77 91.742c-4.4648-16.383-5.2734-33.391-2.6211-49.777 3.8828-23.938 15.109-46.715 33.066-64.688 10.445-10.43 22.379-18.566 35.121-24.293 13.098-5.8828 27.227-9.3242 41.555-10.176 5.6562-0.32422 10.742-2.5234 14.625-5.9688 3.8711-3.4453 6.6055-8.2344 7.582-13.789 1.2773-7.1992 3.7148-14.344 7.2695-21.16 3.457-6.6484 7.8672-12.758 13.152-18.043 8.5742-8.5742 18.863-14.641 29.805-18.098 11.27-3.5586 23.246-4.3516 34.84-2.3086 4.5508 0.79297 8.9297 0.39844 12.785-1.0625 3.8125-1.4297 7.3125-4.0391 10.176-7.6406 9.4961-11.977 21.656-21.672 35.391-28.289 13.492-6.5195 28.531-10.133 44.121-10.133 15.59 0 30.613 3.6133 44.109 10.133 13.75 6.6172 25.879 16.312 35.406 28.289 2.8633 3.6016 6.3633 6.207 10.176 7.6523 3.8555 1.4453 8.2188 1.8438 12.797 1.0469 11.566-2.0273 23.586-1.2461 34.84 2.3086 10.844 3.4141 21.117 9.4961 29.734 18.098 5.4297 5.4297 9.8203 11.535 13.223 18.027 3.5586 6.6914 5.9531 13.875 7.2422 21.176 0.96484 5.5547 3.7266 10.359 7.582 13.789 3.8984 3.457 8.9844 5.6406 14.641 5.9688l0.46875 0.027344c14.172 0.89453 28.121 4.3242 41.074 10.148l0.99219 0.48047c12.543 5.7969 24.164 13.762 34.145 23.742l0.99219 1.0781c17.375 17.816 28.262 40.195 32.074 63.695 2.4648 15.25 1.9414 30.996-1.7305 46.32 16.938 2.1953 32.16 10.051 43.668 21.559 13.676 13.676 22.18 32.598 22.18 53.406 0 20.793-8.5039 39.727-22.18 53.406-5.7266 5.7266-12.375 10.547-19.688 14.215 49.934 60.434 83.367 134.38 104.5 213.39 28.02 104.75 34.484 218.65 29.465 321.58 24.422 16.129 42.52 35.277 54.27 57.402 13.254 24.93 18.285 53.262 15.094 84.926-0.45313 7.2148-5.2734 13.75-12.586 16.031-32.668 10.234-61.484 10.02-86.359-0.59375-21.148-9.043-38.793-25.344-52.879-48.828-135.81 38.34-260.66 57.516-385.46 57.516-124.8 0-249.65-19.176-385.46-57.516-14.09 23.484-31.734 39.785-52.879 48.828-24.875 10.617-53.688 10.828-86.359 0.59375-6.6484-2.0977-11.766-7.9648-12.516-15.32-3.332-31.945 1.6719-60.52 15.023-85.637 11.75-22.125 29.848-41.273 54.27-57.402-5.0156-102.93 1.4453-216.82 29.465-321.58 21.133-79.016 54.566-152.96 104.5-213.39-7.3125-3.6719-13.961-8.4883-19.688-14.215-13.676-13.676-22.18-32.613-22.18-53.391 0-20.82 8.5039-39.742 22.18-53.418 8.0664-8.0664 17.945-14.328 28.969-18.113zm597.5-4.0664c4.4922-13.039 5.5703-26.832 3.4297-40.082-2.6211-16.258-10.176-31.734-22.211-44.109l-0.87891-0.82031c-7.0586-7.0586-15.082-12.613-23.586-16.539l-0.86328-0.36719c-9.0977-4.082-18.82-6.4922-28.602-7.0742l-0.26953-0.015625c-13.988-0.82031-26.66-6.2656-36.441-14.953-9.7812-8.7031-16.711-20.68-19.121-34.484-0.65234-3.6836-1.8867-7.3555-3.6562-10.773-1.6445-3.2617-3.9102-6.3906-6.6914-9.1562-4.3945-4.4062-9.668-7.4961-15.25-9.2539-5.7539-1.8125-11.918-2.2109-17.828-1.1758-10.984 1.9141-21.785 0.85156-31.621-2.8633-9.8789-3.7578-18.695-10.164-25.652-18.906-6.1523-7.7539-14.016-14.031-22.902-18.312-8.6328-4.168-18.324-6.4766-28.488-6.4766s-19.871 2.3086-28.504 6.4766c-8.8594 4.2656-16.738 10.559-22.891 18.312-6.9297 8.7305-15.773 15.164-25.652 18.895-9.8359 3.7422-20.637 4.7891-31.605 2.8789-5.9258-1.0352-12.074-0.63672-17.828 1.1758-5.5273 1.7422-10.773 4.8477-15.18 9.2539-2.8906 2.8906-5.1875 6.0078-6.832 9.1719-1.7305 3.2891-2.9492 6.9609-3.6133 10.758-2.4375 13.805-9.3242 25.766-19.121 34.484-9.75 8.6758-22.406 14.129-36.426 14.953-9.9219 0.56641-19.73 2.9766-28.887 7.0859-8.957 4.0234-17.293 9.6797-24.434 16.84-12.57 12.57-20.41 28.391-23.09 44.984-2.1406 13.254-1.0625 27.059 3.4453 40.098h561.25zm-566.14 151.17c-53.59 58.562-88.727 133.61-110.43 214.7-27.906 104.33-33.59 218.57-27.781 320.94 0.38281 6.918-3.2188 13.125-8.7891 16.441-23.316 13.82-40.055 30.246-50.117 49.195-8.293 15.59-12.23 33.266-11.848 52.965 19.234 4.293 35.871 3.4453 49.863-2.5234 16.738-7.1562 30.727-22.152 41.938-44.914 4.0547-8.2188 13.578-11.949 22.023-9 137.27 39.758 262.86 59.656 388.43 59.656 125.86 0 251.73-19.984 389.37-59.926 8.4766-2.4531 17.305 1.6289 21.062 9.2852 11.238 22.75 25.23 37.742 41.969 44.902 13.988 5.9688 30.629 6.8164 49.863 2.5234 0.38281-19.699-3.5586-37.375-11.848-52.965-10.062-18.949-26.801-35.375-50.117-49.195-6.1367-3.6289-9.3242-10.348-8.7578-17.008 5.7539-102.23 0.042969-216.24-27.809-320.38-21.699-81.086-56.836-156.13-110.43-214.7h-586.61zm593.55-115.17h-600.5c-10.871 0-20.766 4.4648-27.938 11.637s-11.637 17.078-11.637 27.949 4.4648 20.777 11.637 27.949 17.066 11.637 27.938 11.637h600.5c10.871 0 20.766-4.4648 27.938-11.637s11.637-17.078 11.637-27.938c0-10.887-4.4648-20.793-11.637-27.965s-17.066-11.637-27.938-11.637zm-166.38 552.31 63.254 63.254c7.0156 7.0156 7.0156 18.441 0 25.457s-18.441 7.0156-25.457 0l-63.254-63.254c-20.777 39.062-48.613 58.605-83.508 58.605-35.277 0-76.254-21.672-122.82-65-7.2578-6.7461-7.668-18.129-0.92188-25.383l1.0352-1.0195 4.1523-3.8125c-28.629-8.0938-60.465-28.418-95.457-60.973-7.2578-6.7461-7.668-18.129-0.92188-25.383l1.0352-1.0195c19.234-17.871 37.488-32.059 54.809-42.547-10.062-4.0391-19.133-10.121-27.27-18.254-24.93-24.93-38.566-69.238-40.863-132.83-0.33984-9.8945 7.3984-18.227 17.293-18.566h1.2773c63.539 2.3086 107.82 15.93 132.76 40.863 8.1484 8.1484 14.246 17.262 18.297 27.328 10.488-17.336 24.691-35.617 42.578-54.863l1.0195-1.0352c7.2578-6.7461 18.637-6.3359 25.383 0.92187 32.555 34.992 52.879 66.828 60.973 95.457l3.8125-4.1523 1.0195-1.0352c7.2578-6.7461 18.637-6.3359 25.383 0.92188 43.328 46.586 65 87.562 65 122.82 0 34.895-19.547 62.73-58.605 83.508zm-19.547-30.359c28.09-14.316 42.152-32.047 42.152-53.148 0-22.637-14.059-50.5-42.152-83.594-7.8672 9.2539-14.625 18.113-20.281 26.562-2.5352 5.543-5.7266 10.828-9.6094 15.875-8.1797 15.238-12.262 28.969-12.262 41.16 0 21.105 14.059 38.836 42.152 53.148zm-160.85-17.336c2.4531-1.543 4.8906-3.0312 7.3125-4.4375 9.6797-6.9883 18.367-18.027 26.066-33.152-14.316-28.09-32.031-42.152-53.137-42.152-22.637 0-50.516 14.059-83.594 42.152 33.082 28.09 60.961 42.152 83.594 42.152 6.9453 0 13.551-1.5156 19.758-4.5625zm71.434 95.754c21.105 0 38.836-14.059 53.148-42.152-14.316-28.09-32.047-42.152-53.148-42.152-12.188 0-25.895 4.0977-41.117 12.23-5.0742 3.8984-10.391 7.1133-15.961 9.668-8.4336 5.6562-17.277 12.402-26.52 20.254 33.082 28.09 60.961 42.152 83.594 42.152zm-160.91-232.86c14.91 14.91 37.418 17.504 67.395 7.7812 9.7383-30.004 7.1562-52.5-7.7383-67.449-16.016-15.973-45.695-25.754-88.98-29.281 3.5156 43.258 13.309 72.938 29.324 88.953z"/>
</svg>
