<?xml version="1.0" encoding="UTF-8"?>
<svg width="1200pt" height="1200pt" version="1.1" viewBox="0 0 1200 1200" xmlns="http://www.w3.org/2000/svg">
 <path d="m931.52 296.69c-0.011719-0.40625-0.070313-0.79297-0.12109-1.1875-0.12109-1.0547-0.33594-2.0742-0.64844-3.0703-0.097656-0.32422-0.17969-0.64844-0.30078-0.96094-0.49219-1.2969-1.1172-2.5195-1.8945-3.6367-0.035156-0.046875-0.046875-0.10938-0.085938-0.15625l-101.82-142.84v-68.062c0-9.2656-7.5117-16.777-16.777-16.777h-419.76c-9.2656 0-16.777 7.5117-16.777 16.777v68.062l-101.82 142.82c-0.035157 0.046876-0.046876 0.10938-0.085938 0.15625-0.78125 1.1172-1.4023 2.3398-1.8945 3.6367-0.12109 0.32422-0.20312 0.63672-0.30078 0.96094-0.3125 0.99609-0.52734 2.0156-0.64844 3.0703-0.046875 0.39453-0.10938 0.79297-0.12109 1.1875-0.011718 0.25391-0.070312 0.48047-0.070312 0.73047v825.8c0 9.2656 7.5117 16.777 16.777 16.777h629.62c9.2656 0 16.777-7.5117 16.777-16.777l0.003907-825.8c0.011718-0.23828-0.050782-0.47656-0.0625-0.71875zm-173.24-45.191 51.602-72.371 72.359 101.51h-144.73zm-351.38-157.93h386.2v39.875l-386.2 0.003906zm-8.1328 73.43h378.54l-81.012 113.64h-378.54zm-96.805 147.2h386.18v792.25h-386.18zm596.06 792.24h-176.32v-792.24h176.32z"/>
</svg>
