<?xml version="1.0" encoding="UTF-8"?>
<svg width="1200pt" height="1200pt" version="1.1" viewBox="0 0 1200 1200" xmlns="http://www.w3.org/2000/svg">
 <g>
  <path d="m312.92 293.3c-5.0586 1.6562-8.3828 6.4922-8.1172 11.809v47.23c0 6.5234 5.2852 11.809 11.809 11.809h165.31c6.5195 0 11.809-5.2852 11.809-11.809v-47.23c0-6.5234-5.2891-11.809-11.809-11.809h-165.31c-1.2227-0.19531-2.4688-0.19531-3.6914 0zm15.496 23.617h141.7v23.617h-141.7z"/>
  <path d="m395.57 576.69c-2.3906 0.80859-4.457 2.3594-5.9023 4.4297 0 0-6.3672 9.2734-12.547 19.926-3.0898 5.3281-6.3594 11.289-8.8555 16.977-2.4961 5.6836-4.4297 10.887-4.4297 17.711 0 19.426 16 35.426 35.426 35.426s35.426-16 35.426-35.426c0-6.8242-1.9297-12.027-4.4297-17.711-2.4961-5.6836-5.7656-11.648-8.8555-16.977-6.1797-10.652-12.547-19.926-12.547-19.926-2.9805-4.2266-8.3633-6.0195-13.285-4.4297zm3.6914 33.949c0.70703 1.1797 0.75781 0.96875 1.4766 2.2188 2.8164 4.8516 5.4492 10.363 7.3789 14.762 1.9297 4.3984 2.9531 8.4219 2.9531 8.1211 0 6.6562-5.1484 11.809-11.809 11.809s-11.809-5.1523-11.809-11.809c0 0.30859 1.0195-3.7227 2.9531-8.1211 1.9297-4.3945 4.5664-9.9062 7.3789-14.762 0.71875-1.2266 0.76953-1.0391 1.4766-2.2188z"/>
  <path d="m491.52 742c-6.25 1.1289-10.488 6.9961-9.5938 13.285 0 0 2.3477 22.668 7.3789 50.184s12.008 59.348 24.355 81.18c1.5312 2.7109 3.9492 6.9141 7.3789 11.07 3.4297 4.1523 9.418 9.6719 17.711 9.5938 21.41-0.23438 50.164-0.23438 71.586 0 8.3633 0 14.426-5.5039 17.711-9.5938 3.2852-4.0898 5.2578-8.2188 6.6406-10.336 8.2578-12.625 14.793-30.418 19.926-45.754 3.5273-10.547 4.5625-14.422 5.9023-19.191h33.211c1.5742 4.6602 2.4727 8.4648 6.6406 19.191 5.9453 15.285 13.625 33.336 22.141 45.754 1.3047 1.9141 3.3984 5.5078 6.6406 9.5938 3.2422 4.0859 9.25 9.6719 17.711 9.5938 21.422-0.23437 50.176-0.23437 71.586 0 8.2109 0 14.254-4.707 17.711-8.8555 3.457-4.1523 5.8164-8.2148 7.3789-11.07 12.062-22.012 17.938-54.383 22.141-81.918 4.2031-27.535 5.9023-50.184 5.9023-50.184l0.011719 0.003906c0.21875-3.1445-0.82813-6.2461-2.9062-8.6172-2.0781-2.3711-5.0195-3.8125-8.1641-4.0078s-6.2383 0.875-8.5938 2.9688-3.7773 5.043-3.9531 8.1914c0 0-1.125 21.492-5.1641 47.969-4.0391 26.477-11.867 57.746-20.664 73.801-1.6523 3.0156-3.207 5.9141-4.4297 7.3789-1.2227 1.4648-0.70313 0.73047 0.73828 0.73047-21.641-0.23438-49.934-0.23438-71.586 0 1.6953-0.015626 2.0312 0.89844 0.73828-0.73047-1.2969-1.6289-2.6797-4.4883-5.1641-8.1172-5.9727-8.7148-14.242-25.977-19.926-40.59-5.6836-14.617-9.5938-26.566-9.5938-26.566l-0.003907-0.003906c-1.5742-4.793-6.0234-8.0547-11.066-8.1172h-50.188c-5.2461 0.16016-9.7578 3.7695-11.066 8.8555 0 0-3.2383 11.988-8.1172 26.566-4.8789 14.582-12.191 32.152-17.711 40.59-2.2852 3.4961-3.8867 6.5234-5.1641 8.1211-1.2812 1.582-0.85547 0.73047 0.73828 0.73047-21.652-0.23438-49.945-0.23438-71.586 0 1.5273-0.015625 1.9688 0.75391 0.73828-0.73047-1.2305-1.4883-3.4023-4.2617-5.1641-7.3828-9.1523-16.184-16.555-48.031-21.402-74.535-4.8555-26.516-7.3867-47.98-7.3867-47.98-0.15625-3.4258-1.7891-6.6172-4.4805-8.7422s-6.1758-2.9727-9.543-2.3281z"/>
  <path d="m664.21 485.91c-34.457 14.719-53.066 47.113-63.469 74.539-1.2852 2.9805-1.2891 6.3594-0.007812 9.3438s3.7383 5.3086 6.7852 6.4258c3.0508 1.1172 6.4258 0.92969 9.332-0.51562 2.9062-1.4492 5.0859-4.0312 6.0312-7.1367 9.3203-24.566 24.633-50.336 50.184-61.254 4.6523-1.9844 14.535-1.9844 19.188 0 25.551 10.914 40.863 36.684 50.184 61.254h0.003906c0.94141 3.1055 3.125 5.6875 6.0312 7.1367 2.9062 1.4453 6.2812 1.6328 9.332 0.51562 3.0469-1.1172 5.5-3.4414 6.7852-6.4258 1.2812-2.9844 1.2773-6.3633-0.011719-9.3438-10.402-27.426-29.012-59.82-63.469-74.539-11.992-5.1289-24.906-5.1289-36.898 0z"/>
  <path d="m757.93 545.69c-33.926 18.32-50.621 57.062-60.516 90.035-3.6172 12.062-2.9062 26.242-2.2148 38.375 0.69141 12.133 1.4766 22.141 1.4766 22.141v0.003906c1.0195 6.5195 7.1328 10.98 13.652 9.9609 3.1328-0.48828 5.9414-2.2031 7.8086-4.7617 1.8711-2.5625 2.6445-5.7578 2.1562-8.8906 0 0-0.84375-8.8555-1.4766-19.926-0.62891-11.07-0.19141-24.703 1.4766-30.258 9.1641-30.543 24.645-63.023 48.707-76.012 3.9805-2.1484 12.258-2.1484 16.234 0 24.062 12.992 39.543 45.469 48.707 76.012 1.668 5.5586 2.1055 19.188 1.4766 30.258-0.62891 11.07-1.4766 19.926-1.4766 19.926h0.003907c-1.0195 6.5195 3.4414 12.633 9.9609 13.652 6.5234 1.0195 12.637-3.4414 13.652-9.9609 0 0 0.78516-10.008 1.4766-22.141 0.69141-12.133 1.4062-26.316-2.2148-38.375-9.8945-32.973-26.59-71.719-60.516-90.035-12.105-6.543-26.273-6.543-38.375 0z"/>
  <path d="m467.9 682.96c-18.152 0-33.211 14.316-33.211 32.473v16.977c0 18.152 15.055 33.207 33.211 33.207h429.52c18.156 0 33.211-15.059 33.211-33.207v-16.977c0-18.152-15.055-32.473-33.211-32.473zm0 23.617h429.52c5.4805 0 9.5938 3.375 9.5938 8.8555v16.977c0 5.4766-4.1133 9.5938-9.5938 9.5938h-429.52c-5.4766-0.003906-9.5938-4.1211-9.5938-9.5977v-16.977c0-5.4805 4.1133-8.8555 9.5938-8.8555z"/>
  <path d="m281.18 529.46v23.617h236.16v-23.617z"/>
  <path d="m269.38 718.39v23.617h188.93v-23.617z"/>
  <path d="m333.58 340.53c-5.0586 1.6562-8.3828 6.4922-8.1172 11.809v14.023c-0.58203 24.773-14.953 53.449-29.52 84.867-14.465 31.203-28.949 65.043-25.828 101.11 0.023437 0.26172-0.023438 0.47266 0 0.73047v270.85c0 17.664 4.9141 35.16 15.496 49.445 5.8711 7.9219 14.277 15.902 22.879 22.141 8.6016 6.2383 17.746 11.809 28.781 11.809h124.72c23.727 0 39.984-19.191 50.922-33.949 2.9141-3.9336 5.3359-7.6133 7.3789-11.809v0.003907c1.3906-2.7461 1.6562-5.9219 0.73828-8.8555-13.129-40.383-19.828-99.402-19.926-100.37v-0.003906c-0.75-5.9375-5.8242-10.379-11.809-10.332h-21.402c-5.4961 0.003906-9.5938-4.1016-9.5938-9.5898v-16.977c0-5.4922 4.0977-8.8555 9.5938-8.8555h37.637l0.003906 0.003906c3.5547 0.0625 6.9492-1.4805 9.2383-4.2031 2.293-2.7188 3.2344-6.3281 2.5664-9.8203-0.039062-0.28516-0.88672-8.9219-1.4766-19.926-0.58984-11.004-0.17969-24.586 1.4766-30.258 2.8945-9.9258 6.6953-19.699 11.07-29.52v-0.003906c0.62891-1.6445 0.88281-3.4102 0.73828-5.1641v-55.348c-0.58984-36.316-15.023-70.062-28.781-101.11-13.758-31.043-26.566-59.797-26.566-84.867v-14.023c-0.003907-6.5234-5.2891-11.809-11.809-11.809h-124.72c-1.2227-0.19531-2.4688-0.19531-3.6914 0zm15.496 23.617h101.11v2.2188c0 32.504 14.348 63.555 28.043 94.465 13.699 30.906 26.816 61.531 27.305 91.512v53.137c-4.4258 10.215-8.1133 20.125-11.07 30.258-3.4766 11.918-2.8594 26.328-2.2148 38.375 0.25781 4.8125 0.38672 5.2227 0.73828 8.8555h-25.094c-18.133-0.003906-33.203 14.328-33.203 32.469v16.977c0 18.141 15.066 33.207 33.211 33.207h12.547c1.168 10.73 4.8984 50.027 16.234 88.559-1.0273 1.8203-1.8086 3.6211-2.9531 5.168-9.2969 12.543-22.125 24.352-31.734 24.352h-124.72c-2.0391 0-9.0938-2.7344-15.496-7.3789-6.4062-4.6445-12.73-11.246-16.973-16.973-7.1602-9.668-11.07-22.949-11.07-35.426v-271.59 0.003907c0.03125-0.49609 0.03125-0.99219 0-1.4883-2.6523-28.426 9.2852-58.383 23.617-89.297 14.332-30.914 30.965-62.414 31.734-95.199v-2.2188z"/>
  <path d="m557.2 545.69c-33.926 18.32-50.621 57.062-60.516 90.035-3.6172 12.062-2.9062 26.242-2.2148 38.375 0.69141 12.133 1.4766 22.141 1.4766 22.141v0.003906c1.0156 6.5195 7.1289 10.98 13.652 9.9609 3.1328-0.48828 5.9414-2.2031 7.8086-4.7617 1.8672-2.5625 2.6445-5.7578 2.1523-8.8906 0 0-0.84375-8.8555-1.4766-19.926-0.62891-11.07-0.19141-24.703 1.4766-30.258 9.1641-30.543 24.645-63.023 48.707-76.012 3.9805-2.1484 12.258-2.1484 16.234 0 24.062 12.992 39.543 45.469 48.707 76.012 1.668 5.5586 2.1055 19.188 1.4766 30.258-0.62891 11.07-1.4766 19.926-1.4766 19.926h0.003907c-1.0195 6.5195 3.4414 12.633 9.9648 13.652 6.5195 1.0195 12.633-3.4414 13.652-9.9609 0 0 0.78516-10.008 1.4766-22.141 0.69141-12.133 1.4062-26.316-2.2148-38.375-9.8945-32.973-26.59-71.719-60.516-90.035-12.105-6.543-26.273-6.543-38.375 0z"/>
  <path d="m370.48 383.33c-5.668 0.70703-10.02 5.3672-10.332 11.07 0 0-4.0898 26.566-7.3789 36.164-2.7812 8.1172-14.762 29.52-14.762 29.52-1.5664 2.7383-1.9805 5.9883-1.1484 9.0352 0.82812 3.043 2.8359 5.6328 5.5742 7.1992 2.7422 1.5664 5.9922 1.9805 9.0352 1.1484 3.0469-0.82812 5.6367-2.8359 7.2031-5.5742 0 0 11.418-19.148 16.234-33.211 5.3242-15.535 8.1172-41.328 8.1172-41.328v-0.003907c0.70703-3.625-0.32812-7.3711-2.7891-10.121-2.4648-2.7539-6.0742-4.1953-9.7539-3.8984z"/>
  <path d="m348.04 501.7c0 3.1328-1.2422 6.1367-3.457 8.3516-2.2148 2.2109-5.2188 3.457-8.3516 3.457-3.1289 0-6.1328-1.2461-8.3477-3.457-2.2148-2.2148-3.4609-5.2188-3.4609-8.3516 0.003906-6.5195 5.2891-11.805 11.809-11.805 6.5234 0 11.809 5.2852 11.809 11.805z"/>
 </g>
</svg>
