<?xml version="1.0" encoding="UTF-8"?>
<svg width="1200pt" height="1200pt" version="1.1" viewBox="0 0 1200 1200" xmlns="http://www.w3.org/2000/svg">
 <path d="m507.72 778.81c83.5 2.8125 201.59-77.812 163.29-171.07-12.176-29.59-38.531-50.988-69.992-56.828l-69.066-12.766c-17.664-3.25-32.93-14.273-41.562-30.023l-35.332-62.246c-6.7852-12.043-16.105-22.473-27.309-30.566-20.242-14.562-45.484-20.375-70.055-16.133-23.621 4.1641-44.523 17.773-57.891 37.688-48.133 70.812-43.57 167.91 11.07 236.1 29.922 40.297 70.297 72.391 117.3 89.297 25.297 9.9414 52.57 16.945 79.551 16.547zm-52.734-264.71c14.512 29.562 38.27 51.59 70.914 57.242l12.75 2.3633c-41.41 43.48-107.56-7.6562-83.656-59.605zm-108.38 149.51c-52.543-57.008-62.395-144.66-18.895-207.79 10.227-15.254 27.41-24.375 45.777-24.297 10.672 0.078124 21.133 2.9922 30.309 8.4375 9.1797 5.4492 16.746 13.242 21.922 22.574l10.75 18.93c-47.109 53.648-5.8281 142.81 65.73 142.19 29.836 0.16406 58.828-16.527 72.477-43.297l20.242 3.75 0.003906-0.003906c20.246 3.8047 37.176 17.617 44.969 36.688 22.969 53.328-40.438 102.55-85.473 117.01-32.934 10.598-68.473 9.8008-100.89-2.2695-41.609-13.207-79.336-37.293-106.92-71.926zm-181.21-259.02c79.367 27.949 178.4-24.066 201.19-104.02 28.648-94.715-37.082-195.55-130.72-236.34-105.62-46.973-165.01-15.988-187.71 97.07-20.895 99.941 23.43 211.95 117.25 243.3zm-84.105-237.08c2.6055-14.094 6.6367-27.887 12.035-41.164-1.5039 33.477 1.6406 74.766 19.312 110.12 2.793 5.2148 8.1133 8.5898 14.023 8.8906s11.543-2.5156 14.852-7.4258c3.3047-4.9062 3.7969-11.188 1.3008-16.551-15.652-31.312-17.383-69.82-15.355-100.02l29.59 57.234c2.7695 5.3555 8.1875 8.8281 14.211 9.1055 6.0234 0.28125 11.738-2.6758 14.992-7.7539 3.2539-5.0742 3.5508-11.504 0.78125-16.859l-31.105-60.141c26.844 14.875 59.598 38.008 77.797 69.504 1.4844 2.5625 3.6172 4.6953 6.1836 6.1719 2.5703 1.4805 5.4805 2.2578 8.4453 2.2539 12.555 0.30859 21.254-14.484 14.594-25.312-18.355-31.762-47.844-55.848-74.984-72.891 54.32 14.035 110.39 55.93 132.66 100.7 26.195 51.172 26.539 103.11-6.5 145.27 4.5664-22.191 6.125-47.797-1.7188-71.324-7.6758-20.938-38.387-10.707-31.988 10.672 7.4492 22.367 2.9062 48.957-3.2148 69.488l-25.996-50.273c-2.8281-5.2383-8.2109-8.5977-14.16-8.8398-5.9492-0.24219-11.586 2.6719-14.832 7.6602-3.2461 4.9922-3.6211 11.324-0.98828 16.664l25.984 50.258c-20.277-6.8945-44.57-18.578-58.496-37.598-13.707-17.578-39.832 1.5273-27.215 19.922 14.672 20.035 36.5 33.594 57.266 42.719-104.1 4.6133-158.81-113.19-137.47-210.48zm1008.8 542.5c102.35-109.48 84.086-291.52-49.168-352.61-83.543-33.195-199.51 21.941-244.17 116.47-26.504 56.211-31.281 93.047-35.117 122.65-6.4727 49.73-9.918 52.266-45.066 79.594-173.38 125.3-207.71 376.49 30.805 465.88 57.812 21.754 120.56 19.453 174.82-9.6367 101.2-50.547 163.31-207.64 137.51-306.66-10.102-48.98-1.8789-80.688 30.398-115.69zm-63.691 121.08c28.141 115.35-62.164 293.92-199.44 291.63 13.844-17.266-10.312-38.16-25.453-22.059-5.1875 5.875-10.668 11.629-16.133 17.387-26.719-5.9336-51.895-17.414-75.738-31.789-0.14453-8.0078-0.3125-16.016-0.14453-23.93-0.23438-22.555-32.812-22.539-33.734-0.63672-129.36-105.87-43.766-287.39 61.527-358.95 41.25-32.074 49.973-41.484 57.812-101.9 3.5156-27.254 7.9258-61.172 32.172-112.6 31.859-66.27 104.96-111.16 170.21-106.6l0.003906 0.003906c-3.3828 2.9453-5.4531 7.1133-5.7539 11.586-0.30469 4.4727 1.1836 8.8828 4.1367 12.258 9.6328 10.918 19.453 5.2109 29.352-3.2422 1.5625 10.668 6.0938 20.086 18.047 20.277l0.003907-0.003906c4.1016-0.015625 8.0547-1.5352 11.109-4.2734 3.0586-2.7344 5-6.5 5.4688-10.574 86.68 71.25 78.391 201.91 4.5547 280.46-44.535 52.336-47.281 85.531-37.996 142.95zm13.707-214.95c-8.7695 22.23-19.062 43.828-30.805 64.645-11.445 19.156-39.805 3.1055-29.418-16.508 10.98-19.449 20.598-39.633 28.793-60.41 8.7227-20.465 38.906-8.7734 31.43 12.277zm-59.449 117.36c-0.62891 23.727-2.5742 47.402-5.832 70.914-3.7773 22.031-35.812 17.48-33.406-4.6484h0.003906c3.0781-22.27 4.918-44.691 5.5039-67.164 1.293-22.273 33.645-21.391 33.73 0.90234zm87.039-258.72v-0.003906c0.035157 24.234-2.3477 48.406-7.1133 72.164-5.0977 21.777-36.797 15.309-33.078-6.6211 4.2539-21.121 6.418-42.613 6.457-64.16 0.42578-22.18 32.625-23.797 33.734-1.375zm-159.12 531.87c-11.348 20.887-23.902 41.09-37.605 60.512-13.332 17.871-39.922-0.96875-27.574-19.438 12.945-18.344 24.805-37.426 35.531-57.148 11.207-19.27 39.684-3.8594 29.648 16.074zm52.367-132.36c-6.0312 23.016-13.438 45.648-22.172 67.777-8.9219 20.535-38.934 8.4844-31.363-12.422 8.2461-20.863 15.219-42.203 20.887-63.906 6.3281-21.395 37.617-13.191 32.648 8.5508zm-55.66-384.92c12.691-20.02 26.789-39.113 42.188-57.137 14.98-16.516 39.609 4.543 25.629 21.926-14.355 16.805-27.496 34.609-39.32 53.277-3.0977 4.8867-8.4805 7.8438-14.266 7.8359-12.832 0.32812-21.52-15.121-14.23-25.902zm-126.61 318.66c-11.195 19.105-21.102 38.938-29.652 59.363-9.1836 20.363-39.188 7.6562-31.133-13.012 9.1367-21.824 19.723-43.012 31.691-63.418 11.824-18.895 39.793-2.5273 29.094 17.066zm67.156-190.55c7.2305-22.43 15.785-44.41 25.625-65.828 9.9688-19.922 39.344-6.4297 30.637 14.133-9.2852 20.207-17.359 40.945-24.18 62.109-1.2578 4.4023-4.25 8.1016-8.2891 10.254-4.043 2.1484-8.7812 2.5703-13.137 1.1602-4.3516-1.4102-7.9453-4.5312-9.957-8.6406-2.0117-4.1133-2.2656-8.8633-0.70703-13.168zm-118.22 312.73c-5.7148 21.445-10.07 43.227-13.051 65.219-3.75 22.031-35.766 17.578-33.438-4.5625 3.1836-23.395 7.8242-46.57 13.902-69.387 1.7305-5.625 6.2617-9.9414 11.961-11.395 5.7031-1.4531 11.75 0.16797 15.957 4.2734 4.2109 4.1094 5.9766 10.117 4.6602 15.852zm127.23-222.36c-13.734 14.352-26.707 29.41-38.875 45.109-3.1914 4.1484-8.1289 6.5742-13.359 6.5625-13.484 0.41406-22.059-16.625-13.328-27.188 11.598-15.02 24.312-29.898 37.836-44.277 3.1016-23.988 37.305-19.219 33.516 4.5156-1.0547 4.9727-1.8164 11.637-5.7891 15.277zm-201.54-271.64c32.258 0.46875 64.906-9.2969 94.004-24.723v-0.003907c39.883-19.496 73.43-49.887 96.758-87.656 26.633-39.344 40.625-85.562 35.727-133.38-6.4414-68.5-53.672-158.86-133.66-145.8-30.902 5.1797-56.84 26.152-68.375 55.285-6.5234 16.023-26.648 65.609-26.539 65.328-12.121 31.129-39.199 33.637-71.191 43.109-5.2617 4.4805-41.059 4.9414-67.473 28.844-92.043 96.52 42.379 202.77 140.74 199.01zm-118.09-174.01c18.02-16.316 69.508-23.84 62.539-23.84 24.094-6.8594 66.578-13.773 84.824-60.605 3.4648-8.5781 22.582-55.637 26.453-65.18 15.387-40.027 68.844-47.465 96.23-14.98 46.91 52.551 55.844 136.08 17.738 196.04-20.934 37.473-51.871 69.113-90.398 87.484 0.23437 0.21484-113.83 65.562-201.16-34.613-21.719-24.922-20.02-62.742 3.7656-84.305zm231.05-105.12c-12.441-18.461 13.805-37.422 27.41-19.688 24.844 34.586 32.27 76.273 22.055 123.92-0.90625 4.4062-3.5312 8.2695-7.2969 10.73-3.7656 2.4609-8.3594 3.3164-12.758 2.3711-4.3984-0.94141-8.2383-3.6016-10.668-7.3906-2.4258-3.7891-3.2383-8.3867-2.2539-12.777 8.2344-38.473 2.8477-70.27-16.488-97.164zm-459.92 999.55c2.9961-0.003906 5.9414-0.80078 8.5312-2.3125 141.11-82.387 162.11-194.38 63.047-323.38 5.4141-9.4805 10.012-19.402 13.754-29.66 1.7227-4.8047 1.1914-10.133-1.4492-14.504-2.6367-4.3711-7.1055-7.3242-12.16-8.0391-3.5586-0.46875-82.531-10.602-160.8 8.3516-18.453-60.387-78.449-81.129-123.88-91.434v0.003906c-4.4297-1.1758-9.1484-0.5-13.07 1.8711-3.9219 2.375-6.7109 6.2422-7.7227 10.715-1.0117 4.4688-0.16016 9.1602 2.3555 12.992 2.5156 3.8281 6.4844 6.4727 10.992 7.3164 58.168 13.195 88.672 34.051 99.109 68.32-77.406 29.383-135.11 97.281-137.66 100.33-3.2891 3.9688-4.5898 9.2188-3.543 14.266 1.0508 5.0469 4.3359 9.3438 8.9336 11.676 6.4062 3.1914 12.613 5.8438 18.715 8.2031 1.1289 145.04 80.25 221.03 234.85 225.29zm-96.645-332.58c52.695-15.91 110.35-15.582 141.23-13.797-15.766 29.656-37.473 42.188-70.996 42.188h0.003906c-3.1289-0.16016-6.2383 0.54688-8.9922 2.0391-2.75 1.4961-5.0391 3.7188-6.6055 6.4297-12.344 22.324 40.352 41.41-7.082 124.22-41.41-16.191-60.734-42.531-63.984-86.117h-0.003907c-0.33203-4.3086-2.3086-8.3281-5.5195-11.227-3.2109-2.8984-7.4102-4.457-11.734-4.3477-4.3242 0.10547-8.4414 1.8672-11.508 4.918-20.031 20.078-43.828 24.559-75.375 13.672 22.953-22.75 68.332-62.199 120.57-77.977zm-104.42 116.32c21.781 3.0352 41.441-0.078124 59.062-9.7891 11.562 45.234 46.777 78.973 100.18 91.824 5.7148 0 11.043-2.8984 14.152-7.6953 31.066-47.934 39.609-90.918 25.762-130.61v0.003907c19.496-3.2305 37.594-12.191 51.98-25.738 79.988 109.52 62.578 193.66-54.438 264.38-129.85-5.1445-192.79-63.402-196.7-182.37z"/>
</svg>
