<?xml version="1.0" encoding="UTF-8"?>
<svg width="1200pt" height="1200pt" version="1.1" viewBox="0 0 1200 1200" xmlns="http://www.w3.org/2000/svg">
 <g>
  <path d="m757.03 981.8c-12.422 0-22.5-10.078-22.5-22.5v-269.53c0-12.422 10.078-22.5 22.5-22.5s22.5 10.078 22.5 22.5v269.53c0 12.422-10.078 22.5-22.5 22.5z"/>
  <path d="m442.5 1071.6c-210.47 0-381.8-171.09-381.8-381.8s171.33-381.8 381.8-381.8 381.8 171.33 381.8 381.8c0 12.422-10.078 22.5-22.5 22.5s-22.5-10.078-22.5-22.5c0-185.86-151.17-336.8-336.8-336.8s-336.8 151.17-336.8 336.8c0 185.86 151.17 336.8 336.8 336.8 51.562 0 101.25-11.484 147.42-33.984 11.25-5.3906 24.609-0.70312 30 10.312 5.3906 11.25 0.70312 24.609-10.312 30-52.266 25.781-108.52 38.672-167.11 38.672z"/>
  <path d="m195.47 712.27c-12.422 0-22.5-10.078-22.5-22.5 0-148.59 120.94-269.53 269.53-269.53 12.422 0 22.5 10.078 22.5 22.5s-10.078 22.5-22.5 22.5c-123.75 0-224.53 100.78-224.53 224.53 0 12.422-10.078 22.5-22.5 22.5z"/>
  <path d="m757.03 1071.6c-210.47 0-381.8-171.33-381.8-381.8 0-12.422 10.078-22.5 22.5-22.5h718.83c12.422 0 22.5 10.078 22.5 22.5-0.23438 210.7-171.56 381.8-382.03 381.8zm-336.09-359.3c11.719 175.31 157.97 314.53 336.09 314.53s324.61-139.22 336.09-314.53z"/>
  <path d="m566.48 902.81c-5.8594 0-11.484-2.1094-15.938-6.5625-8.6719-8.6719-8.6719-22.969 0-31.875l190.55-190.55c8.6719-8.6719 22.969-8.6719 31.875 0 8.6719 8.6719 8.6719 22.969 0 31.875l-190.55 190.55c-4.4531 4.4531-10.312 6.5625-15.938 6.5625z"/>
  <path d="m947.58 902.81c-5.8594 0-11.484-2.1094-15.938-6.5625l-190.55-190.55c-8.6719-8.6719-8.6719-22.969 0-31.875s22.969-8.6719 31.875 0l190.55 190.55c8.6719 8.6719 8.6719 22.969 0 31.875-4.4531 4.4531-10.078 6.5625-15.938 6.5625z"/>
  <path d="m757.03 981.8c-161.02 0-292.03-131.02-292.03-292.03 0-12.422 10.078-22.5 22.5-22.5s22.5 10.078 22.5 22.5c0 136.17 110.86 247.03 247.03 247.03s247.03-110.86 247.03-247.03c0-12.422 10.078-22.5 22.5-22.5s22.5 10.078 22.5 22.5c0 161.02-131.02 292.03-292.03 292.03z"/>
  <path d="m442.5 352.97c-12.422 0-22.5-10.078-22.5-22.5v-42.656c0-77.109 54.844-143.91 130.31-158.91 12.188-2.3438 23.906 5.3906 26.484 17.578 2.3438 12.188-5.3906 23.906-17.578 26.484-54.609 11.016-94.219 59.297-94.219 115.08v42.422c0 12.422-10.078 22.5-22.5 22.5z"/>
  <path d="m403.36 354.38c-41.25 0-81.562-16.172-111.33-45.938-39.609-39.609-55.078-97.734-40.781-151.88 2.1094-7.7344 8.2031-13.828 15.938-15.938 54.141-14.531 112.27 1.1719 151.88 40.781s55.078 97.734 40.781 151.88c-2.1094 7.7344-8.2031 13.828-15.938 15.938-13.359 3.5156-26.953 5.1562-40.547 5.1562zm-111.33-172.97c-4.9219 34.688 6.7969 70.312 31.641 95.156 25.078 25.078 60.469 36.562 95.156 31.641 4.9219-34.688-6.7969-70.312-31.641-95.156-24.844-25.078-60.469-36.562-95.156-31.641z"/>
 </g>
</svg>
