<?xml version="1.0" encoding="UTF-8"?>
<svg width="1200pt" height="1200pt" version="1.1" viewBox="0 0 1200 1200" xmlns="http://www.w3.org/2000/svg">
 <g>
  <path d="m616.8 224.4c9.6016 0 18-8.3984 18-18v-128.4c0-9.6016-8.3984-18-18-18-9.6016 0-18 8.3984-18 18v128.4c0 9.6016 7.1992 18 18 18z"/>
  <path d="m675.6 244.8c9.6016 0 18-8.3984 18-18v-148.8c0-9.6016-8.3984-18-18-18-9.6016 0-18 8.3984-18 18v148.8c0 9.5977 8.3984 18 18 18z"/>
  <path d="m735.6 224.4c9.6016 0 18-8.3984 18-18v-128.4c0-9.6016-8.3984-18-18-18-9.6016 0-18 8.3984-18 18v128.4c0 9.6016 7.1992 18 18 18z"/>
  <path d="m519.6 100.8h54c9.6016 0 18-8.3984 18-18 0-9.6016-8.3984-18-18-18h-54c-9.6016 0-18 8.3984-18 18 0 9.5977 7.1992 18 18 18z"/>
  <path d="m519.6 153.6h54c9.6016 0 18-8.3984 18-18 0-9.6016-8.3984-18-18-18h-54c-9.6016 0-18 8.3984-18 18 0 9.5977 7.1992 18 18 18z"/>
  <path d="m519.6 201.6h54c9.6016 0 18-8.3984 18-18 0-9.6016-8.3984-18-18-18h-54c-9.6016 0-18 8.3984-18 18 0 9.5977 7.1992 18 18 18z"/>
  <path d="m1113.6 120h-260.4c-8.3984-33.602-38.398-57.602-73.199-57.602-9.6016 0-18 8.3984-18 18 0 9.6016 8.3984 18 18 18 21.602 0 39.602 18 39.602 39.602s-18 39.602-39.602 39.602c-9.6016 0-18 8.3984-18 18 0 9.6016 8.3984 18 18 18 36 0 66-25.199 73.199-57.602h260.4c9.6016 0 18-8.3984 18-18 0.003906-9.6016-7.1992-18-17.996-18z"/>
  <path d="m644.4 636c8.3984-4.8008 10.801-16.801 6-25.199-4.8008-8.3984-16.801-10.801-25.199-6-13.199 8.3984-24 19.199-33.602 32.398-18 25.199-25.199 57.602-19.199 87.602 6 31.199 22.801 57.602 48 75.602 3.6016 2.3984 7.1992 3.6016 10.801 3.6016 6 0 10.801-2.3984 14.398-7.1992 6-8.3984 3.6016-19.199-4.8008-25.199-18-12-30-31.199-33.602-52.801-3.6016-21.602 1.1992-43.199 13.199-61.199 7.207-8.4062 14.406-16.805 24.004-21.605z"/>
  <path d="m896.4 819.6h-6c1.1992-9.6016 2.3984-18 2.3984-27.602 0-100.8-70.801-186-164.4-208.8v-331.2c0-9.6016-8.3984-18-18-18-9.6016 0-18 8.3984-18 18v325.2c-4.8008 0-9.6016-1.1992-14.398-1.1992-9.6016 0-18 8.3984-18 18s8.3984 18 18 18c98.398 0 178.8 80.398 178.8 178.8 0 9.6016-1.1992 18-2.3984 27.602h-27.602c0-4.8008 1.1992-9.6016 1.1992-14.398 0-86.398-69.602-156-156-156-9.6016 0-18 8.3984-18 18 0 9.6016 8.3984 18 18 18 66 0 120 54 120 120 0 4.8008 0 9.6016-1.1992 14.398h-31.199c1.1992-4.8008 1.1992-9.6016 1.1992-14.398 0-49.199-39.602-88.801-88.801-88.801-9.6016 0-18 8.3984-18 18s8.3984 18 18 18c28.801 0 52.801 24 52.801 52.801 0 4.8008-1.1992 9.6016-2.3984 14.398l-159.6-0.003906c-24-38.398-32.398-82.801-24-127.2 8.3984-45.602 34.801-86.398 74.398-112.8 9.6016-7.1992 20.398-12 31.199-16.801 1.1992 0 2.3984-1.1992 3.6016-2.3984 6-3.6016 9.6016-8.3984 9.6016-15.602v-291.6c0-9.6016-8.3984-18-18-18-9.6016 0-18 8.3984-18 18v280.8c-9.6016 4.8008-19.199 9.6016-28.801 15.602-46.801 31.199-79.199 79.199-90 135.6-8.3984 45.602-2.3984 92.398 18 134.4h-26.398c-57.602-94.801-30-216 61.199-278.4 12-8.3984 24-14.398 37.199-20.398 1.1992 0 1.1992-1.1992 2.3984-1.1992 3.6016-1.1992 6-3.6016 8.3984-6 6-8.3984 3.6016-19.199-4.8008-25.199-10.797-7.207-22.797-13.207-34.797-18.008-100.8-40.801-218.4 12-261.6 117.6 0 1.1992-1.1992 2.3984-1.1992 2.3984-90 38.398-159.6 126-174 235.2-8.3984 4.8008-15.602 12-19.199 21.602-26.398 72-16.801 147.6 26.398 208.8 36 51.602 88.801 81.602 142.8 81.602h487.2c54 0 106.8-31.199 142.8-81.602 43.199-61.199 52.801-136.8 26.398-208.8-3.5977-15.602-20.398-26.398-37.199-26.398zm-465.6-82.801c-52.801-1.1992-100.8 31.199-118.8 81.602h-64.801c16.801-80.398 92.398-136.8 175.2-127.2 3.6016 0 6 1.1992 8.3984 1.1992-2.3984 15.598-2.3984 29.996 0.003906 44.398zm6 37.199c3.6016 15.602 9.6016 31.199 16.801 45.602h-103.2c16.797-31.203 50.398-50.402 86.398-45.602zm32.398-195.6c-12-3.6016-25.199-6-38.398-7.1992h-2.3984c15.602-20.398 42-32.398 69.602-27.602-10.805 10.801-20.402 22.801-28.805 34.801zm81.602-75.598c-4.8008 2.3984-9.6016 6-13.199 8.3984-2.3984 1.1992-3.6016 3.6016-6 4.8008-8.3984-3.6016-16.801-6-25.199-7.1992-49.199-8.3984-97.199 18-117.6 62.398-13.199 1.1992-26.398 2.3984-38.398 4.8008 40.797-72 126-104.4 200.4-73.199zm-123.6 104.4c8.3984 1.1992 16.801 2.3984 24 4.8008-7.1992 15.602-12 31.199-15.602 46.801-3.6016 0-6-1.1992-9.6016-1.1992-104.4-12-199.2 60-216 162h-44.398c21.602-133.2 136.8-228 261.6-212.4zm452.4 428.4c-28.801 42-72 66-114 66h-487.2c-42 0-84-25.199-114-66-36-51.602-44.398-115.2-22.801-176.4 1.1992-2.3984 3.6016-3.6016 6-3.6016h747.6c2.3984 0 4.8008 1.1992 6 3.6016 22.801 59.996 14.402 124.8-21.598 176.4z"/>
 </g>
</svg>
