<?xml version="1.0" encoding="UTF-8"?>
<svg width="1200pt" height="1200pt" version="1.1" viewBox="0 0 1200 1200" xmlns="http://www.w3.org/2000/svg">
 <g fill="none" stroke="#000" stroke-linecap="round" stroke-linejoin="round" stroke-width="3">
  <path transform="scale(12)" d="m76.58 72.09-39.51-56.9c-1.1735-1.9827-2.8822-3.5944-4.93-4.6501-1.5293-0.77767-3.2064-1.2207-4.9199-1.3001-1.3604 3.1589-2.0648 6.5609-2.07 10 0 10 6.0898 16.74 7.82 18.55 17.77 26.35 30.9 45.45 33 48.16v-3.25e-4c0.88607 1.1855 2.0277 2.1562 3.3398 2.8402 1.2858 0.64453 2.7018 0.98665 4.14 1 2.0615-2.3984 3.4395-5.307 3.9902-8.4212 0.55078-3.1139 0.25358-6.319-0.86003-9.279z"/>
  <path transform="scale(12)" d="m30.78 35.15c0.79525 1.2627 1.9987 2.2155 3.4102 2.6999 0.96615 0.31934 1.9951 0.40169 3 0.23991 1.8652-3.3685 2.8796-7.1416 2.9544-10.992s-0.79167-7.6598-2.5244-11.098"/>
  <path transform="scale(12)" d="m40.72 28.53 36.12 52.03"/>
  <path transform="scale(12)" d="m38.84 35.99 35.31 51.27"/>
 </g>
</svg>
