<?xml version="1.0" encoding="UTF-8"?>
<svg width="1200pt" height="1200pt" version="1.1" viewBox="0 0 1200 1200" xmlns="http://www.w3.org/2000/svg">
 <path d="m1006.5 332.18c-29.641-26.953-68.16-39.047-114.55-36.023-25.727-49.512-100.56-112.49-241.33-71.664 5.8789-33.203 45.781-75.625 62.195-90.191 7.0781-6.2773 8.0898-16.969 2.3047-24.457-51.625-66.938-114.89-63.098-141.12-51.73-2.6406 1.1406-4.9688 2.8906-6.7812 5.125-1.3086 1.6094-31.945 39.996-24.984 109.62 1.5352 15.371 2.0898 32.461 1.7148 50.062-137.27-37.691-210.46 24.602-235.78 73.246-46.414-3.0234-84.938 9.0703-114.56 36.023-53.062 48.266-76.922 143.21-72.926 290.24 6.4922 238.3 76.344 359.1 117.42 409.89 40.992 50.688 100.61 47.23 138.96 34.355 8.9141 26.281 24.996 46.598 48 60.551 61.094 37.055 151.82 15.539 175 9.1328 13.078 3.625 47.664 12.047 86.281 12.047 29.832 0 62.102-5.0273 88.715-21.18 23.004-13.957 39.086-34.262 48-60.551 38.352 12.875 97.957 16.344 138.96-34.355 41.062-50.797 110.91-171.6 117.39-409.89 4.0078-147.05-19.859-241.98-72.91-290.25zm-413.94-242.41c11.977-3.2031 47.426-8.2422 83.555 29.773-25.477 25.668-76.043 84.758-58.766 134.87 12.66 36.695 26.398 86.09 33.336 111.76-21.984 7.1055-40.008 16.621-50.641 22.98-9.8984-5.9023-26.184-14.566-46.117-21.469 24.648-55.547 29.438-145.26 24.121-198.42-4.3281-43.332 8.7773-70.105 14.512-79.488zm-326.46 919.91c-38.207-47.258-103.23-160.54-109.43-388.25-3.6484-134.04 16.934-222.39 61.164-262.63 24.66-22.414 57.109-30.875 99.289-25.656 0.035156 0 0.070312-0.011719 0.097656 0 0.023437 0 0.046875 0.011719 0.085937 0.011719 59.641 6.6953 71.207 24.012 72.324 25.957 2.3516 7.5977 9.3945 12.672 17.172 12.672 1.2461 0 2.5195-0.13281 3.793-0.39453 9.7188-2.0898 15.91-11.652 13.824-21.371-1.3438-6.2539-11.23-35.184-76.859-48.492 21.156-29.543 75.59-77.258 194.27-41.785-3.5898 38.387-11.496 75.312-23.555 99.023-24.035-3.6953-50.438-2.8555-76.309 7.7891-90.457 37.246-127.75 151.64-114.01 349.74 13.668 197.21 26.148 256.3 40.309 315.19-22.41 8.1016-69.645 18.418-102.16-21.805zm490.34 86.734c-55.008 33.445-150.05 4.332-151 4.0195-3.4922-1.0781-7.2734-1.0781-10.766 0-0.96094 0.3125-96 29.438-151-4.0195-19.934-12.121-31.906-30.938-36.625-57.551-0.023438-0.16797-0.10938-0.3125-0.14453-0.48047-0.046876-0.20312-0.035157-0.40625-0.085938-0.61328l-1.1406-4.7031c-14.797-61.105-27.574-113.88-41.809-319.26-12.348-178.16 18.539-283.79 91.812-313.97 61.188-25.211 133.25 24.852 133.95 25.332 6.2266 4.4141 14.578 4.4141 20.82 0.023437 0.71875-0.51562 72.816-50.531 133.97-25.355 73.273 30.18 104.17 135.8 91.824 313.97-14.242 205.36-27.012 258.14-41.809 319.25l-1.1406 4.7266c-0.046875 0.21484-0.046875 0.43359-0.085937 0.64844-0.035157 0.15625-0.10938 0.28906-0.13281 0.44531-4.7305 26.598-16.707 45.426-36.641 57.543zm286.99-474.97c-6.2031 227.71-71.219 340.99-109.41 388.25-32.555 40.246-79.801 29.891-102.17 21.793 14.16-58.906 26.629-117.97 40.309-315.19 13.727-198.1-23.578-312.49-114.02-349.74-24.434-10.066-49.367-11.438-72.312-8.4375-5.9141-21.973-17.137-62.496-28.656-98.09 119.54-36.145 174.2 11.879 195.41 41.496-65.641 13.297-75.527 42.227-76.883 48.492-2.0898 9.7188 4.1172 19.285 13.824 21.371 1.2617 0.26562 2.543 0.39453 3.793 0.39453 7.7773 0 14.82-5.0742 17.172-12.66 1.1289-1.957 12.695-19.273 72.324-25.969 0.023438 0 0.046876-0.011719 0.085938-0.011719 0.035156 0 0.070312 0.011719 0.10938 0 42.121-5.207 74.629 3.2539 99.277 25.656 44.227 40.238 64.793 128.61 61.156 262.65z"/>
</svg>
