<?xml version="1.0" encoding="UTF-8"?>
<svg width="1200pt" height="1200pt" version="1.1" viewBox="0 0 1200 1200" xmlns="http://www.w3.org/2000/svg">
 <g>
  <path d="m720 840c-18.75-112.5-41.25-253.12-31.875-296.25 11.25-52.5 37.5-180 37.5-243.75 0-52.5 0-78.75-46.875-101.25-22.5-11.25-56.25-15-82.5-16.875 9.375-9.375 15-22.5 15-35.625 0-28.125-22.5-50.625-50.625-50.625s-50.625 22.5-50.625 50.625c0 15 5.625 28.125 15 37.5-24.375 1.875-54.375 7.5-75 16.875-43.125 22.5-43.125 48.75-43.125 101.25 0 63.75 24.375 191.25 33.75 243.75 9.375 43.125-13.125 183.75-30 296.25-22.5 146.25-30 204.38-20.625 223.12 20.625 41.25 135 43.125 168.75 43.125 46.875 0 161.25-3.75 181.88-43.125 11.25-20.625 3.75-78.75-20.625-225zm-159.38-712.5c9.375 0 16.875 7.5 16.875 16.875s-7.5 16.875-16.875 16.875-16.875-7.5-16.875-16.875 7.5-16.875 16.875-16.875zm-95.625 101.25c24.375-13.125 76.875-15 95.625-15s76.875 3.75 105 15c26.25 13.125 28.125 18.75 28.125 71.25 0 22.5-3.75 58.125-11.25 103.12h-3.75c-63.75 16.875-174.38 16.875-226.88 1.875-7.5-46.875-11.25-82.5-11.25-105-1.875-52.5 0-60 24.375-71.25zm247.5 819.38c-7.5 13.125-80.625 26.25-151.88 26.25-65.625 0-133.12-11.25-138.75-24.375-5.625-16.875 11.25-120 22.5-204.38 18.75-127.5 39.375-258.75 30-307.5-7.5-33.75-13.125-65.625-16.875-95.625 26.25 5.625 61.875 7.5 97.5 7.5 43.125 0 86.25-3.75 120-11.25-5.625 30-11.25 63.75-18.75 97.5-11.25 48.75 11.25 181.88 31.875 309.38 13.125 82.5 30 185.62 24.375 202.5z"/>
  <path d="m496.88 868.12c-9.375-1.875-16.875 3.75-18.75 13.125-1.875 15-5.625 31.875-7.5 46.875-1.875 9.375 3.75 16.875 13.125 18.75h1.875c7.5 0 15-5.625 16.875-13.125 1.875-15 5.625-31.875 7.5-46.875 1.875-9.375-5.625-16.875-13.125-18.75z"/>
  <path d="m534.38 615c-9.375-1.875-16.875 5.625-18.75 15-7.5 61.875-16.875 125.62-30 196.88-1.875 9.375 3.75 16.875 13.125 18.75h3.75c7.5 0 15-5.625 16.875-13.125 13.125-71.25 22.5-136.88 30-198.75 0-9.375-5.625-16.875-15-18.75z"/>
 </g>
</svg>
