<?xml version="1.0" encoding="UTF-8"?>
<svg width="1200pt" height="1200pt" version="1.1" viewBox="0 0 1200 1200" xmlns="http://www.w3.org/2000/svg">
 <g>
  <path d="m1197.7 807.69c-53.078-413.08-392.31-752.31-803.08-805.38-66.922-13.848-117.69 30-124.62 87.691-2.3086 25.383 4.6172 50.77 18.461 69.23l-288.46 1008.5c-2.3086 9.2305 0 18.461 6.9219 25.383 6.9258 6.9258 16.156 9.2344 25.387 6.9258l1008.5-286.15c20.77 13.848 43.848 20.77 69.23 18.461 55.383-6.9258 99.23-57.691 87.691-124.62zm-925.38-413.07c27.691 13.848 43.848 41.539 43.848 71.539 0 43.848-36.922 80.77-80.77 80.77h-6.9219zm-57.691 200.77c6.9219 0 13.848 2.3086 20.77 2.3086 71.539 0 131.54-60 131.54-131.54 0-53.078-32.309-101.54-80.77-120l43.848-152.31c9.2305 4.6172 13.848 6.9219 27.691 6.9219 332.31 39.23 604.62 309.23 641.54 641.54 0 9.2305 4.6172 18.461 6.9219 27.691l-76.152 20.77c-20.77-69.23-87.691-120-161.54-120-94.617 0-170.77 76.152-170.77 170.77 0 13.848 2.3086 27.691 4.6172 41.539l-540 154.62zm438.46 376.16c-2.3086-9.2305-4.6172-18.461-4.6172-27.691 0-66.922 53.078-120 120-120 53.078 0 96.922 34.617 113.08 83.078zm452.3-90c-30 2.3086-53.078-18.461-55.383-43.848-41.539-355.38-330-646.15-685.38-685.38-27.691-2.3086-48.461-27.691-43.848-55.383 2.3086-25.383 25.383-50.77 66.922-41.539 392.31 50.77 710.77 371.54 761.54 763.85 6.9219 36.918-18.461 59.996-43.848 62.305z"/>
  <path d="m249.23 821.54c-57.691 0-101.54 46.152-101.54 101.54 0 57.691 46.152 101.54 101.54 101.54 55.383 0 101.54-46.152 101.54-101.54 2.3086-55.387-43.848-101.54-101.54-101.54zm0 154.61c-30 0-53.078-23.078-53.078-53.078s23.078-53.078 53.078-53.078 53.078 23.078 53.078 53.078c0 30.004-23.078 53.078-53.078 53.078z"/>
  <path d="m768.46 653.08c43.848 0 80.77-36.922 80.77-80.77s-36.922-80.77-80.77-80.77c-43.848 0-80.77 36.922-80.77 80.77 0 43.844 36.926 80.77 80.77 80.77zm0-110.77c16.152 0 30 13.848 30 30s-13.848 30-30 30c-16.152 0-30-13.848-30-30 0-16.156 13.848-30 30-30z"/>
  <path d="m505.38 493.85c-62.309 0-113.08 50.77-113.08 113.08 0 62.309 50.77 113.08 113.08 113.08 62.309 0 113.08-50.77 113.08-113.08 0-62.309-50.77-113.08-113.08-113.08zm0 177.69c-34.617 0-64.617-27.691-64.617-64.617 0-34.617 27.691-64.617 64.617-64.617 36.922 0 64.617 27.691 64.617 64.617 0 34.617-30 64.617-64.617 64.617z"/>
  <path d="m505.38 350.77c30 0 55.383 25.383 55.383 55.383 0 13.848 11.539 25.383 25.383 25.383 13.848 0 25.383-11.539 25.383-25.383 0-57.691-46.152-106.15-106.15-106.15-13.848 0-25.383 11.539-25.383 25.383 0.003906 13.848 11.543 25.387 25.387 25.387z"/>
  <path d="m445.38 780-48.461 53.078c-9.2305 9.2305-9.2305 25.383 2.3086 34.617 9.2305 9.2305 25.383 9.2305 34.617-2.3086l48.461-53.078c9.2305-9.2305 9.2305-25.383-2.3086-34.617-9.2305-6.9219-25.383-6.9219-34.617 2.3086z"/>
 </g>
</svg>
