<?xml version="1.0" encoding="UTF-8"?>
<svg width="1200pt" height="1200pt" version="1.1" viewBox="0 0 1200 1200" xmlns="http://www.w3.org/2000/svg">
 <path d="m205.31 359.81h48.188c-22.125-24.375-23.812-61.125-4.5-87.75 5.25-7.125 11.812-13.312 19.312-18-1.5-1.5-3.375-3-5.25-4.125-16.875-11.062-39.938-5.25-49.688 12.375-2.4375 5.25-7.875 8.625-13.875 8.0625-34.688-1.6875-40.5 43.5-11.062 52.312 6.9375 1.875 11.438 9 10.125 16.125-0.5625 8.625-0.75 12.75 1.6875 21zm496.5 116.06c0.1875-7.875 6.75-13.875 14.438-13.5 7.875 0.1875 13.875 6.75 13.5 14.625l-4.6875 114.38c-0.1875 7.6875-6.75 13.688-14.438 13.5-7.6875-0.375-13.688-6.9375-13.5-14.625zm-215.62 121.69c0.5625 18.562-27.375 19.312-28.125 0.9375l-3.75-121.69c-0.5625-18.375 27.375-19.312 27.938-0.9375zm90.375 41.625c-18.375 0.375-19.125-27.562-0.75-27.938l8.625-0.1875c18.375-0.5625 18.938 27.562 0.5625 27.938zm58.688 2.0625c-18.375-1.875-15.375-29.812 3-27.938 55.5 6 104.44 22.5 139.5 45.375 95.25 62.812 65.25 150.38-22.5 194.44-16.5 8.25-29.062-16.875-12.562-25.125 67.875-34.125 96.375-95.438 19.688-145.88-31.312-20.625-75.938-35.438-127.12-40.875zm58.875 205.31c17.812-5.0625 25.312 22.125 7.5 27-86.25 24.188-199.88 19.125-279.19-23.812-65.062-35.062-103.88-101.25-48.562-163.5 16.5-18.562 40.125-34.688 68.812-47.062 17.062-7.3125 28.125 18.562 11.062 25.875-24.938 10.688-45.188 24.375-58.875 39.75-42.75 48.188-7.125 94.312 40.875 120.38 72.562 39.188 179.06 43.5 258.38 21.375zm-196.5-196.31c-17.812 4.5-24.75-22.688-6.75-27.188l32.812-6.75c18.375-3 22.875 24.75 4.6875 27.562zm-264.19-433.12 1.6875-5.625c5.625-15.75 15.938-28.312 28.688-36.938 9-6.1875 19.312-10.125 30-12l0.1875-1.6875c2.25-24.375 17.25-45.75 39.375-56.438l1.3125-0.5625c15.75-7.125 34.312-8.4375 51.938-2.25 4.125 1.5 7.875 3.1875 11.438 5.25 8.0625-11.438 19.125-20.062 32.25-25.125 12.562-13.312 30.188-20.812 48.562-20.812 16.125 0 30.938 5.8125 42.562 15.562 8.625 7.125 15.562 16.5 19.688 27.188 10.875 0.1875 21.375 2.8125 30.75 7.5 4.125 1.875 7.875 4.125 11.438 6.5625 1.3125-1.875 3-3.5625 4.6875-5.25 15-15.188 37.5-20.438 57.75-13.5 3.1875 1.125 6.1875 2.4375 9 3.9375l6.75-1.875c41.062-9.9375 80.062 21 80.062 62.812 0 10.312-2.4375 20.25-6.9375 28.875 10.5-4.125 20.812-5.25 30.375-2.625 4.3125-12.188 11.438-23.062 20.625-31.688 14.25-13.312 33.375-21.562 54.562-21.562 21.938 0 41.812 9 56.25 23.25 10.875 11.062 18.75 25.312 21.938 41.062 15-3.9375 31.688-3 46.875 3.9375l0.75 0.375c6.375-4.875 13.688-8.25 21.375-9.9375l1.5-0.1875c10.688-2.0625 22.312-0.9375 33 3.9375l0.5625 0.375c26.062 12.188 38.25 42.375 27.938 69.188 19.125 33.75 3.5625 76.688-32.625 90.188-8.0625 3-16.5 4.5-25.125 3.9375 3 2.625 4.875 6.5625 4.875 10.875l-59.062 752.25c-0.5625 7.3125-6.75 12.938-14.062 12.938h-664.69c-7.6875 0-13.875-6.1875-14.062-13.688l-58.125-738c-3.375-1.125-6.375-3.375-8.25-6.5625-6-10.5-9.1875-22.5-9.1875-34.688 0-1.5-28.688-17.25-28.688-49.125 0-15 6.1875-28.875 16.125-38.812 9.1875-9.1875 21.562-15.188 35.438-15.938 9.75-13.5 24.188-22.312 40.5-25.125zm185.81-91.312 1.6875 2.25c7.5 10.875 11.812 24 12.188 37.5 1.5 3.1875 2.8125 6.375 3.9375 9.375 6.1875 0.1875 12.188 1.125 17.812 3.1875 3.1875 0.9375 6.1875 2.25 9 3.9375 18.938-5.625 35.438-5.625 53.25 4.125 5.625 3.1875 10.875 7.125 15.375 11.812 32.438-14.812 71.625-5.625 94.312 21.75 9.375-0.1875 19.688 0.375 30.375 2.0625 10.312 1.5 21.375 4.125 32.812 7.3125 3-3.5625 6-7.125 9.1875-10.312-2.25-1.125-4.3125-2.625-5.8125-4.875-4.3125-6.375-2.625-15.188 3.75-19.5 5.0625-3.375 9.1875-7.875 12.188-13.312 2.625-5.0625 4.125-10.875 4.125-17.25 0-27.188-28.688-45.375-53.625-32.625-4.6875 2.4375-10.5 2.0625-15-1.3125-11.062-8.625-27-7.6875-36.938 2.4375-7.125 6.9375-8.625 14.438-8.0625 23.812 0.5625 7.6875-5.0625 14.625-12.75 15.188-7.6875 0.75-14.438-4.875-15.188-12.562-0.375-4.875-0.5625-9 0-13.875-11.812-11.625-23.812-13.688-39.75-12.75-7.3125 0.75-13.875-4.125-15.188-11.438-1.6875-9-6.5625-17.062-13.312-22.688s-15.375-9-24.75-9c-11.25 0-21.938 4.6875-29.25 13.312-1.6875 2.25-4.125 3.9375-7.125 4.875-9.5625 3-18 9.75-23.25 18.562zm-9.5625 56.25c-0.75-2.0625-1.5-3.75-2.625-5.4375-1.3125-2.25-2.0625-5.0625-2.0625-7.875 0.5625-18.188-10.688-34.688-27.75-40.688-10.5-3.5625-21.375-2.8125-30.75 1.3125l-1.125 0.5625c-16.688 7.875-25.875 25.688-23.25 43.688l0.1875 2.625c-0.375 7.875-6.9375 13.875-14.625 13.5-10.125-0.375-20.062 2.4375-28.125 8.0625-7.5 4.875-13.688 12.188-17.25 21.188 5.8125 1.6875 11.25 4.3125 16.125 7.5 5.0625 3.1875 9.5625 7.3125 13.5 11.812 10.875-7.125 24-11.062 36.938-11.062 12.188 0 24 3.375 34.312 9.5625 5.0625-4.5 11.062-8.25 17.625-10.875 1.3125-13.312 7.125-25.5 16.312-34.5 3.5625-3.75 7.875-6.9375 12.562-9.375zm461.06 63.188c4.6875-12.375 10.5-21.562 20.812-30.188-0.375-13.688-6-26.062-15-35.062-9.1875-9.1875-22.125-15-36.375-15-13.688 0-26.062 5.25-35.25 13.875-8.25 7.6875-13.875 18.188-15.75 29.812 4.3125 6.5625 7.3125 14.812 8.8125 24.188 2.8125 15 2.0625 33.75-1.875 53.812 9.5625 8.625 17.438 17.812 23.062 26.625-0.9375-3.75-1.3125-7.6875-1.3125-11.625 0-15 6.1875-28.875 16.125-38.812 9.1875-9.1875 21.562-15.188 35.438-15.938zm113.44 87.938c7.875 2.8125 16.312 2.4375 23.625-0.375 21.938-8.0625 29.812-35.25 15.562-54-3.375-4.3125-4.125-10.5-1.3125-15.562 7.5-14.25 3.75-31.125-11.438-38.25l-0.375-0.1875c-10.688-4.875-23.25-2.25-31.125 6.5625-4.5 5.8125-12.938 7.125-19.125 2.8125l-3.9375-2.25c3.375 2.0625 6.375 4.6875 9 7.3125 11.625 11.625 18.562 27.375 18.562 44.812 0 10.125-2.625 21-7.6875 30 3.75 6 6.5625 12.375 8.25 19.125zm-137.06 26.625c-0.375-3.375-0.5625-6.5625-0.5625-9.9375-7.3125-3.9375-13.312-9.375-18.188-15.938 2.25 9 2.0625 17.812-1.125 25.875zm110.25-0.1875c2.625-12.375-0.375-25.688-8.625-35.625-4.6875-4.875-5.0625-12.75-0.75-18.188 5.0625-6.375 7.5-13.688 7.5-21.75 0-9.75-3.75-18.562-10.125-24.938-6.375-6.1875-15.188-10.125-24.75-10.125-6.75 0-12.938 1.875-18.188 4.875-5.25 3.1875-9.5625 7.6875-12.562 12.938-2.4375 5.25-7.875 8.8125-13.875 8.25l-3.1875-0.1875c-7.3125 0-14.062 3-18.938 7.875s-7.875 11.625-7.875 18.938c0 6.1875 2.0625 11.812 5.25 16.125 3.5625 4.5 8.25 8.0625 13.875 9.75 6.9375 1.875 11.438 8.8125 10.125 15.938-0.5625 6-0.9375 10.125 0.375 16.125zm-550.69-47.438c7.6875-0.75 14.625 4.875 15.375 12.562s-5.0625 14.625-12.75 15.375c-35.812 1.875-66.188-21.562-66.188-58.875 0-7.5 1.5-14.812 3.9375-21.375-6.1875-3-10.875-4.5-18.188-4.5-17.812 0-50.438 24-57.188 33.375-12 16.312-10.312 39.562 4.125 54 12.938 12.938 33 15.75 49.125 7.3125 6.75-3.75 15.188-1.125 18.938 5.8125 0.5625 1.125 1.125 2.625 1.3125 3.9375h117.75c-6.9375-18.75-4.125-39.562 7.6875-55.688 4.6875-6.375 10.5-11.625 17.25-15.75-6-27 1.5-54.188 21-74.062-1.5-1.3125-3.375-2.4375-5.25-3.5625-10.688-5.8125-23.812-6-34.688-0.375-4.6875 2.4375-10.5 2.0625-15-1.3125-2.25-1.875-5.0625-3.375-8.0625-4.5-10.125-3.375-21.562-0.75-28.875 6.75-6.9375 6.9375-8.625 14.438-8.0625 23.625 0.9375 7.3125-4.3125 14.25-11.625 15.375-15.188 2.625-26.062 15.75-26.062 30.938 0 20.25 16.312 31.875 35.438 30.938zm233.81 47.625 0.375-6.9375c-9.75-5.625-19.125-11.812-27.938-18.562 3.5625 8.4375 5.625 15.562 5.625 24.938v0.5625zm-8.4375-46.125c9.375 6.9375 18.938 13.125 29.062 18.562 5.625 2.4375 9.1875 8.25 8.4375 14.438-0.5625 4.875-0.9375 9.375-0.9375 13.125h131.81c-0.9375-3-0.75-6.375 0.5625-9.5625 1.875-4.3125 0.75-10.5-3-17.438-4.875-9.375-13.688-19.688-25.875-29.812-4.3125-3.375-6.5625-9-5.25-14.625 4.875-19.5 6-37.125 3.5625-50.625-1.125-6.75-3.1875-12.188-6-15.75l-0.9375-1.125c-1.125-1.3125-2.625-2.4375-4.125-3-5.0625-2.25-12.188-0.75-20.25 3.9375-10.688 6.1875-21.938 17.25-32.438 31.688-3.375 5.0625-9.75 7.3125-15.75 5.25-13.125-4.3125-25.875-7.3125-37.875-9.1875-3.75-0.5625-7.6875-0.9375-11.25-1.3125 2.0625 7.125 3.1875 14.438 3.1875 22.125 0 15.562-4.5 30.188-12.375 42.562zm-41.812 46.125 0.1875-0.5625c0-3.9375-0.75-7.5-2.0625-10.875-2.0625-6-5.4375-8.0625-7.6875-12.75-3.375-6.9375-0.375-15.375 6.75-18.562 17.812-8.4375 29.438-26.438 29.438-46.688 0-14.25-5.8125-27.188-15-36.375-9.375-9.375-22.312-15-36.562-15-14.062 0-27 5.625-36.375 15-15.75 15.75-18.562 37.5-10.5 57.75 2.25 7.3125-1.875 15.375-9.1875 17.625-6.5625 1.875-12 6-15.938 11.25-8.625 11.812-7.875 28.312 1.875 39.188zm94.125 548.25c0.5625-18.375 28.5-17.438 27.938 1.125l-3 72.938c-0.75 18.375-28.688 17.25-27.938-1.125zm-186 72.938c0.5625 18.562-27.375 19.312-27.938 0.9375l-2.25-71.812c-0.5625-18.375 27.375-19.312 27.938-0.9375zm-225.94-496.31c-1.3125-18.375 26.625-20.438 28.125-2.0625l2.0625 25.5c1.3125 18.375-26.625 20.438-28.125 2.0625zm6.75 84.938c-1.5-18.562 26.625-20.625 27.938-2.25l36.375 460.12h387c18.562 0 18.562 28.125 0 28.125h-400.12c-7.125 0-13.312-5.625-13.875-12.938zm505.69 486c-18.562 0-18.562-28.125 0-28.125h20.25c18.375 0 18.375 28.125 0 28.125zm82.688-12.938c-1.3125 18.375-29.438 16.312-27.938-2.25l43.875-558c0.5625-7.6875 7.5-13.5 15.188-12.75 7.6875 0.5625 13.5 7.3125 12.75 15zm-651.75-654.75 56.812 723h638.81l56.812-723z"/>
</svg>
