<?xml version="1.0" encoding="UTF-8"?>
<svg width="1200pt" height="1200pt" version="1.1" viewBox="0 0 1200 1200" xmlns="http://www.w3.org/2000/svg">
 <g>
  <path d="m985.2 304.8c-2.3984-12-8.3984-37.199-28.801-60 10.801-10.801 18-25.199 18-40.801 0-30-25.199-55.199-55.199-55.199-6 0-12 1.1992-18 3.6016-8.3984-20.398-27.602-34.801-50.398-34.801-21.602 0-40.801 13.199-50.398 32.398-3.6016-1.1992-7.1992-1.1992-10.801-1.1992-30 0-55.199 25.199-55.199 55.199 0 16.801 8.3984 33.602 21.602 44.398-18 21.602-33.602 52.801-40.801 99.602 0 1.1992-6 102-68.398 156-30 26.398-69.602 37.199-117.6 32.398-2.3984 0-278.4-9.6016-340.8-166.8-2.3984-4.8008-7.1992-8.3984-13.199-7.1992-6 1.1992-9.6016 6-9.6016 12 0 2.3984-1.1992 50.398 12 100.8 12 46.801 33.602 79.199 62.398 96l-64.801 13.199c-6 1.1992-10.801 7.1992-9.6016 14.398 6 31.199 38.398 48 66 56.398l-28.801 14.398c-4.8008 2.3984-8.3984 8.3984-6 14.398 37.199 128.4 169.2 231.6 326.4 256.8 25.199 3.6016 51.602 6 76.801 6h12v67.199c-56.398 2.3984-98.398 26.398-98.398 56.398 0 7.1992 4.8008 12 12 12 7.1992 0 12-4.8008 12-12 0-13.199 32.398-32.398 84-32.398h2.3984 2.3984c51.602 1.1992 84 19.199 84 32.398 0 7.1992 4.8008 12 12 12s12-4.8008 12-12c0-30-42-54-98.398-56.398v-68.398c100.8-7.1992 195.6-43.199 256.8-100.8 48-45.602 69.602-99.602 62.398-157.2-7.1992-67.199-18-103.2-28.801-134.4-8.3984-27.602-15.602-51.602-19.199-91.199-1.1992-22.801 0-50.398 15.602-60 22.801-13.199 67.199 9.6016 82.801 19.199 3.6016 2.3984 7.1992 2.3984 10.801 1.1992 3.6016-1.1992 6-3.6016 7.1992-7.1992 12.004-25.195 13.203-76.797-38.398-110.39zm-194.4-130.8c4.8008 0 8.3984 1.1992 13.199 3.6016 3.6016 1.1992 7.1992 1.1992 10.801 0 3.6016-1.1992 6-4.8008 6-8.3984 2.3984-14.398 15.602-25.199 30-25.199 16.801 0 30 13.199 31.199 28.801 0 4.8008 2.3984 8.3984 7.1992 9.6016 3.6016 2.3984 8.3984 1.1992 12-1.1992 6-4.8008 12-6 19.199-6 16.801 0 31.199 14.398 31.199 31.199 0 9.6016-4.8008 19.199-12 24-19.199-13.199-45.602-24-82.801-25.199-1.1992 0-43.199-3.6016-80.398 27.602l-1.1992-1.1992c-8.3984-6-13.199-15.602-13.199-25.199-2.3984-19.211 12-32.41 28.801-32.41zm216 216c-22.801-12-63.602-28.801-92.398-10.801-21.602 13.199-31.199 40.801-27.602 82.801 3.6016 42 12 68.398 20.398 96 9.6016 31.199 20.398 66 27.602 130.8 6 50.398-13.199 98.398-55.199 138-78 73.199-220.8 109.2-350.4 88.801-144-22.801-265.2-114-303.6-229.2l51.602-24c4.8008-2.3984 7.1992-7.1992 7.1992-13.199-1.1992-4.8008-4.8008-9.6016-10.801-9.6016-18-2.3984-61.199-12-75.602-33.602l97.199-19.199c6-1.1992 9.6016-6 9.6016-13.199 0-6-4.8008-10.801-12-10.801-68.398-3.6016-90-82.801-97.199-136.8 37.199 49.199 98.398 86.398 181.2 110.4 80.398 22.801 151.2 25.199 153.6 25.199 54 4.8008 99.602-7.1992 134.4-38.398 69.602-61.199 75.602-169.2 76.801-172.8 19.199-129.6 108-122.4 112.8-122.4 33.602 1.1992 56.398 9.6016 72 21.602 1.1992 2.3984 3.6016 4.8008 7.1992 6 26.398 24 28.801 55.199 28.801 57.602 0 3.6016 2.3984 7.1992 6 9.6016 34.797 20.398 39.598 49.199 38.398 67.199z"/>
  <path d="m895.2 301.2c-10.801 0-20.398 9.6016-20.398 20.398 0 10.801 9.6016 20.398 20.398 20.398 10.801 0 20.398-9.6016 20.398-20.398 1.2031-11.996-8.3984-20.398-20.398-20.398z"/>
  <path d="m462 798c-3.6016 0-7.1992-1.1992-10.801-1.1992-6-1.1992-13.199 3.6016-14.398 9.6016s3.6016 13.199 9.6016 14.398c4.8008 1.1992 8.3984 1.1992 13.199 1.1992h1.1992c6 0 12-4.8008 12-10.801 1.1992-7.1992-4.8008-13.199-10.801-13.199z"/>
  <path d="m524.4 808.8c3.6016-2.3984 7.1992-3.6016 12-6 6-3.6016 7.1992-10.801 3.6016-16.801-3.6016-6-10.801-7.1992-16.801-3.6016-3.6016 2.3984-6 3.6016-9.6016 4.8008-6 2.3984-8.3984 9.6016-6 15.602 2.3984 4.8008 6 7.1992 10.801 7.1992 2.4023 0 4.8008 0 6-1.1992z"/>
  <path d="m392.4 768c-4.8008-3.6016-13.199-3.6016-16.801 2.3984-3.6016 6-3.6016 13.199 2.3984 16.801 3.6016 2.3984 7.1992 4.8008 9.6016 7.1992 2.3984 1.1992 4.8008 2.3984 7.1992 2.3984 3.6016 0 7.1992-1.1992 9.6016-4.8008 3.6016-6 2.3984-13.199-2.3984-16.801-3.6016-3.5938-6-4.7969-9.6016-7.1953z"/>
  <path d="m346.8 717.6c-3.6016-6-10.801-7.1992-16.801-3.6016-6 3.6016-7.1992 10.801-3.6016 16.801 0 0 2.3984 3.6016 7.1992 10.801 2.3984 3.6016 6 4.8008 9.6016 4.8008 2.3984 0 4.8008-1.1992 7.1992-2.3984 4.8008-3.6016 6-12 2.3984-16.801-3.5977-6.0039-5.9961-9.6016-5.9961-9.6016z"/>
  <path d="m591.6 735.6c-4.8008-4.8008-13.199-3.6016-16.801 1.1992-2.3984 2.3984-4.8008 6-7.1992 8.3984-4.8008 4.8008-3.6016 12 1.1992 16.801 2.3984 2.3984 4.8008 3.6016 8.3984 3.6016 3.6016 0 6-1.1992 8.3984-3.6016 2.3984-2.3984 6-6 8.3984-9.6016 2.4023-4.7969 2.4023-12-2.3945-16.797z"/>
  <path d="m627.6 680.4c-6-3.6016-13.199-1.1992-16.801 3.6016l-3.6016 4.8008c-3.6016 6-2.3984 13.199 3.6016 16.801 2.3984 1.1992 3.6016 2.3984 6 2.3984 3.6016 0 8.3984-2.3984 9.6016-6l3.6016-4.8008c4.7969-6 3.5977-13.199-2.4023-16.801z"/>
  <path d="m704.4 751.2c-6-2.3984-13.199 1.1992-15.602 7.1992-1.1992 3.6016-2.3984 7.1992-3.6016 10.801-2.3984 6 1.1992 13.199 7.1992 15.602 1.1992 0 2.3984 1.1992 4.8008 1.1992 4.8008 0 9.6016-2.3984 10.801-7.1992 1.1992-3.6016 2.3984-8.3984 4.8008-12 1.2031-7.1992-2.3984-14.402-8.3984-15.602z"/>
  <path d="m541.2 876c-3.6016 0-7.1992 0-12 1.1992-7.1992 0-12 6-12 12s6 12 12 12c4.8008 0 8.3984 0 12-1.1992 7.1992 0 12-6 10.801-13.199 1.1992-6-3.6016-10.801-10.801-10.801z"/>
  <path d="m712.8 679.2c-7.1992 0-12 4.8008-12 12v10.801c0 6 4.8008 12 10.801 13.199h1.1992c6 0 12-4.8008 12-10.801 1.1992-8.3984 1.1992-13.199 1.1992-13.199-1.1992-7.1992-7.1992-12-13.199-12z"/>
  <path d="m657.6 818.4c-2.3984 2.3984-4.8008 6-7.1992 8.3984-4.8008 4.8008-3.6016 12 1.1992 16.801 2.3984 2.3984 4.8008 3.6016 8.3984 3.6016 3.6016 0 6-1.1992 8.3984-3.6016 2.3984-3.6016 6-6 8.3984-9.6016 3.6016-4.8008 3.6016-13.199-2.3984-16.801-4.7969-4.7969-13.199-4.7969-16.797 1.2031z"/>
  <path d="m606 859.2c-3.6016 1.1992-7.1992 3.6016-9.6016 4.8008-6 2.3984-9.6016 9.6016-7.1992 15.602 2.3984 4.8008 6 7.1992 10.801 7.1992 1.1992 0 2.3984 0 4.8008-1.1992 3.6016-1.1992 8.3984-3.6016 12-4.8008 6-2.3984 8.3984-9.6016 6-15.602-3.6016-6-10.801-8.3984-16.801-6z"/>
 </g>
</svg>
