<?xml version="1.0" encoding="UTF-8"?>
<svg width="1200pt" height="1200pt" version="1.1" viewBox="0 0 1200 1200" xmlns="http://www.w3.org/2000/svg">
 <path d="m1043.7 378.17h-62.34c-9.2031-52.98-53.902-94.414-109.5-100.14-11.172-21.289-39.742-61.188-96.816-61.188h-245.05c-69.422 0-87.301-28.715-87.781-29.438-2.543-4.9062-6.9727-8.5664-12.289-10.105-5.3398-1.5586-11.027-0.82812-15.793 1.9805-45.793 26.797-62.23 66.695-69.422 99.203-53.902 7.1289-96.852 47.879-105.85 99.707h-82.488c-22.234 0-40.332 18.109-40.332 40.344v60.492c0 11.148 9.0234 20.172 20.172 20.172h6.6953l33.301 80.148c13.547 32.617 21.781 69.996 23.855 108.48l15.539 217.56c1.1055 15.719 11.27 28.883 25.141 34.535l17.074 68.34c2.2578 8.9766 10.309 15.277 19.559 15.277h645.32c9.2656 0 17.316-6.3008 19.559-15.277l17.09-68.34c13.871-5.6406 24.035-18.805 25.141-34.512l15.574-217.93c2.0273-38.125 10.262-75.504 23.809-108.12l33.301-80.148h6.6953c11.148 0 20.172-9.0234 20.172-20.172v-60.492c-0.003906-22.262-18.102-40.371-40.336-40.371zm-136.75 605h-613.82l-10.078-40.332h633.98zm52.863-298.25-15.539 217.59-1.3945-0.003907h-687.07l-15.492-217.22c-2.2812-42.637-11.566-84.625-26.844-121.43l-26.879-64.668h826.91l-26.879 64.668c-15.289 36.805-24.566 78.793-26.809 121.07zm-598.16-367.25h41.773c11.148 0 20.16-9.0234 20.16-20.172 0-11.148-9.0117-20.16-20.16-20.16h-16.754c6.7188-23.41 17.594-40.621 34.078-53.855 16.379 14.914 48.984 33.684 109.25 33.684h245.07c21.758 0 36.973 9.6367 47.172 20.172h-5.3984c-11.148 0-20.172 9.0117-20.172 20.16 0 11.148 9.0234 20.172 20.172 20.172h41.773c39.168 0 72.098 25.766 81.492 60.492h-659.96c9.3945-34.727 42.324-60.492 81.504-60.492zm601.39 100.84h80.676v40.332h-887.34v-40.332zm-363 322.66c44.496 0 80.676-36.168 80.676-80.664s-36.18-80.664-80.676-80.664c-44.484 0-80.664 36.18-80.664 80.664 0 44.496 36.18 80.664 80.664 80.664zm0-121c22.234 0 40.344 18.098 40.344 40.332s-18.109 40.332-40.344 40.332c-22.223 0-40.332-18.098-40.332-40.332s18.098-40.332 40.332-40.332zm121 181.5c0 11.148-9.0234 20.172-20.172 20.172h-201.66c-11.148 0-20.172-9.0234-20.172-20.172s9.0234-20.16 20.172-20.16h201.66c11.16 0 20.172 9.0117 20.172 20.16z"/>
</svg>
