<?xml version="1.0" encoding="UTF-8"?>
<svg width="1200pt" height="1200pt" version="1.1" viewBox="0 0 1200 1200" xmlns="http://www.w3.org/2000/svg">
 <path d="m1086 481.2-146.4-264v-183.6c0-12-9.6016-21.602-21.602-21.602h-624c-12 0-21.602 9.6016-21.602 21.602v183.6l-156 264v1.1992c-1.1992 1.1992-1.1992 2.3984-1.1992 3.6016 0 1.1992-1.1992 2.3984-1.1992 4.8008v1.1992 673.2c0 12 9.6016 21.602 21.602 21.602h933.6c12 0 21.602-9.6016 21.602-21.602l-0.003907-673.2c-2.4023-3.6016-3.6016-7.1992-4.8008-10.801zm-331.2-10.801h-583.2l133.2-225.6h574.8zm-440.4-414h580.8v145.2l-580.8 0.003906zm-158.4 457.2h589.2v630h-589.2zm888 630h-253.2v-649.2l126-225.6 127.2 229.2z"/>
</svg>
