<?xml version="1.0" encoding="UTF-8"?>
<svg width="1200pt" height="1200pt" version="1.1" viewBox="0 0 1200 1200" xmlns="http://www.w3.org/2000/svg">
 <path d="m953.52 656.95h-761.84v189.45c0.17578 25.156 5.543 50 15.766 72.984 10.223 22.98 25.082 43.605 43.648 60.578 27.156 25.23 60.566 42.742 96.766 50.723 0.35938 0 0.70703 0.14453 1.0547 0.22656v0.003906c15.168 3.3008 30.645 4.9609 46.164 4.9531h355.04c15.523 0.011719 31.004-1.6523 46.176-4.9531 0.33594-0.085937 0.68359-0.16797 1.043-0.22656v-0.003906c36.199-7.9805 69.609-25.492 96.77-50.723 18.562-16.973 33.426-37.598 43.652-60.578 10.223-22.984 15.594-47.828 15.77-72.984zm-523.69-216.23c6.6797 0.21094 11.988 5.6836 11.988 12.367s-5.3086 12.156-11.988 12.367h-40.801c-6.6797-0.21094-11.984-5.6836-11.984-12.367s5.3047-12.156 11.984-12.367zm-31.523 127.12c3.3477-0.10547 6.5898 1.1523 8.9961 3.4844 2.4023 2.3281 3.7617 5.5352 3.7617 8.8828 0 3.3477-1.3594 6.5508-3.7617 8.8828-2.4062 2.3281-5.6484 3.5859-8.9961 3.4805h-40.801c-3.3477 0.10547-6.5938-1.1523-8.9961-3.4805-2.4023-2.332-3.7617-5.5352-3.7617-8.8828 0-3.3477 1.3594-6.5547 3.7617-8.8828 2.4023-2.332 5.6484-3.5898 8.9961-3.4844zm267.97 12.336c3.3438-0.10547 6.5898 1.1523 8.9961 3.4844 2.4023 2.3281 3.7617 5.5352 3.7617 8.8828 0 3.3477-1.3594 6.5508-3.7617 8.8828-2.4062 2.3281-5.6523 3.5859-8.9961 3.4805h-40.801c-6.6797-0.20703-11.988-5.6797-11.988-12.363 0-6.6836 5.3086-12.16 11.988-12.367zm-140.4-67.645h-0.003906c3.3477-0.10156 6.5938 1.1523 8.9961 3.4844 2.4062 2.3281 3.7617 5.5352 3.7617 8.8828 0 3.3477-1.3555 6.5547-3.7617 8.8828-2.4023 2.332-5.6484 3.5859-8.9961 3.4844h-40.801c-3.3438 0.10156-6.5898-1.1523-8.9961-3.4844-2.4023-2.3281-3.7578-5.5352-3.7578-8.8828 0-3.3477 1.3555-6.5547 3.7578-8.8828 2.4062-2.332 5.6523-3.5859 8.9961-3.4844zm55.199-79.789h-0.003906c6.6797 0.21094 11.988 5.6836 11.988 12.367s-5.3086 12.16-11.988 12.367h-40.801 0.003906c-6.6797-0.20703-11.988-5.6836-11.988-12.367s5.3086-12.156 11.988-12.367zm182.91 120.97c-1.8125 6.5625-8.6016 10.41-15.164 8.5977-6.5586-1.8125-10.41-8.5977-8.5977-15.16l30.695-111.18c0.070313-0.30078 0.14453-0.58984 0.23828-0.875l99.828-361.56 0.003906-0.003906c1.2148-3.6094-0.11719-7.5859-3.2656-9.7305-1.6797-1.1641-3.5664-2-5.5547-2.4727-2.1719-0.54297-4.4219-0.70312-6.6484-0.48047-4.7695 0.22266-8.8516 3.5078-10.078 8.125l-118.54 472.93c-1.6562 6.6289-8.3711 10.66-15 9-6.625-1.6562-10.656-8.3711-9-15l26.398-105.5-0.80469-0.26562 0.003906 0.003906c-2.7539-0.87109-5.6211-1.3281-8.5078-1.3555-4.1641 0.22656-8.1641-1.6602-10.633-5.0234-2.4688-3.3594-3.0742-7.7422-1.6055-11.645 1.6641-4.332 1.875-9.0859 0.59766-13.551-1.1094-3.6719-3.0781-7.0312-5.7461-9.7891-2.8398-2.9766-6.3125-5.2695-10.164-6.7109-5.6328-2.0859-11.785-2.3164-17.559-0.66016-1.6172 0.52344-3.3242 0.70703-5.0156 0.54297-6.7734-0.67188-11.727-6.7031-11.062-13.477 0-0.37109 0.070312-0.74219 0.085938-1.1289v-1.1992h-0.003907c0.16406-6.8828-2.9219-13.438-8.3281-17.699-3.7578-2.8945-8.1719-4.8242-12.852-5.6172-4.8398-0.89453-9.8242-0.63281-14.543 0.76953-7.0664 2.0234-12.816 7.1758-15.602 13.977-1.4297 4.1836-4.9844 7.2812-9.3203 8.1328-4.3359 0.85156-8.7969-0.67578-11.703-4.0039-5.1094-6-12.652-9.3789-20.531-9.2031-4.8789 0.10547-9.6602 1.3672-13.957 3.6836-4.0352 2.1016-7.4648 5.2109-9.9453 9.0234-3.3203 5.4062-4.0195 12.023-1.8984 18 2.0547 6.4844-1.5352 13.41-8.0195 15.465-6.4844 2.0508-13.41-1.5391-15.465-8.0234-4.4062-12.887-2.75-27.074 4.5117-38.594 1.6367-2.5977 3.5156-5.0312 5.6172-7.2695-0.57031-3.1523-2-6.0859-4.125-8.4844-2.1289-2.3945-4.8711-4.1602-7.9336-5.1016-4.0508-1.2773-8.3242-1.6836-12.539-1.1992-4.2656 0.41016-8.4023 1.6719-12.168 3.707-2.9609 1.3359-5.4219 3.5742-7.0312 6.3945-1.6094 2.8203-2.2891 6.0742-1.9336 9.3008 1.3008 5.7773-1.6758 11.664-7.1016 14.035-5.4258 2.3711-11.773 0.55469-15.125-4.3242-4.1641-6.7422-10.387-11.961-17.746-14.895-7.1055-2.5-14.98-1.4297-21.156 2.8828-4.9414 3.4609-8.6797 8.375-10.691 14.062-1.2266 4.2656-4.6484 7.543-8.9609 8.5859-4.3125 1.0469-8.8516-0.30469-11.895-3.5352-6.082-6.6367-15.137-9.7031-24-8.1211-4.4297 0.75781-8.6367 2.4688-12.336 5.0156-3.4609 2.332-6.3164 5.4531-8.3281 9.1055-3.25 6.2852-3.0469 13.797 0.53906 19.898 0.64844 1.1602 1.1094 2.4141 1.3672 3.7188v0.16797c0.12891 0.67578 0.19531 1.3633 0.20313 2.0508v0.56641c-0.066407 2.2773-0.76953 4.4922-2.0273 6.3945-0.58594 0.88672-1.2891 1.6953-2.0859 2.3984l-0.14453 0.13281-0.12109 0.097656-0.085937 0.070313-0.16797 0.13281h0.003906c-1.5508 1.2148-3.3711 2.0352-5.3047 2.3984h-0.097656c-0.50391 0.078124-1.0078 0.14062-1.5117 0.17969v0.003906c-6.4883 0.25-12.691 2.7188-17.578 6.9961-2.5234 2.2891-4.5078 5.1133-5.8086 8.2656-1.2422 3.0391-1.7734 6.3242-1.5469 9.6016 0.39062 5.1289 2.4648 9.9844 5.9023 13.812 1.3984 1.332 2.457 2.9766 3.0977 4.7969 1.0898 3.0898 0.90625 6.4805-0.50781 9.4336-1.4141 2.9531-3.9414 5.2266-7.0312 6.3125l-0.51562 0.19141c-1.2422 0.46484-2.4453 1.0312-3.5977 1.6914-5.1719 2.9141-9.1914 7.5078-11.391 13.02-2.1328 5.1055-2.3164 10.816-0.51562 16.047 0.35938 0.96484 0.79297 1.9062 1.2969 2.8047 0.35547 0.60937 0.66016 1.25 0.91016 1.9102l0.097657 0.26562 0.085937 0.26562v-0.003906c0.39062 1.2266 0.58594 2.5039 0.58594 3.793v0.73047c-0.11719 1.9766-0.71094 3.8945-1.7266 5.5938-0.52734 0.87891-1.1719 1.6875-1.9102 2.3984l-0.15625 0.15625-0.10938 0.097657-0.070312 0.070312c-1.3086 1.1875-2.8594 2.082-4.5469 2.6172l-0.50781 0.14062 0.003906 0.003906c-0.85156 0.22266-1.7266 0.35938-2.6055 0.40625h-0.74219c-2.2891-0.023438-4.5234-0.68359-6.457-1.9062l-0.25391-0.15625-0.35937 0.17969-0.17969-0.12109-0.57422-0.43359c-5.4453-4.2734-12.301-6.3359-19.199-5.7812-3.9492 0.29297-7.7969 1.3789-11.316 3.1914-3.3438 1.707-6.2852 4.1016-8.6289 7.0312-3.4531 4.375-5.1172 9.9023-4.6562 15.457 0.21094 3.4258-1 6.7852-3.3555 9.2852-2.3516 2.5-5.6328 3.918-9.0625 3.9141-5.7266-0.10547-11.34 1.5742-16.07 4.8008-3.2344 2.2461-5.8945 5.2305-7.7617 8.6992-1.7539 3.2734-2.6719 6.9297-2.6797 10.645 0.023438 4.5352 1.4531 8.9492 4.0938 12.637 2.6953 3.8203 2.9961 8.832 0.78516 12.949-2.2148 4.1172-6.5664 6.6289-11.238 6.4883-4.8945-0.20703-9.5664 2.0469-12.453 6-1.0781 1.7109-1.7422 3.6523-1.9336 5.6641-0.20703 2.0039 0.046875 4.0273 0.73047 5.918 0.92969 2.7188 3.0586 4.8555 5.7734 5.7969h781.13c3.6719-2.8906 6.4844-6.7305 8.1367-11.102 0.98047-2.6445 1.1016-5.5273 0.34766-8.2422-0.94141-2.8008-2.7539-5.2305-5.1719-6.9258-6.3398-4.0977-13.793-6.1367-21.336-5.832-6.3711-0.15234-11.574-5.1367-12-11.496-0.55859-4.957-2.7266-9.5938-6.168-13.199-3.8672-4.0703-8.8945-6.8477-14.402-7.9453-4.6328-0.9375-8.3203-4.4531-9.4844-9.0352-1.1641-4.5859 0.39844-9.4297 4.0234-12.469 4.3086-3.7617 7.0234-9.0234 7.5977-14.711 0.29688-4.2969-0.67969-8.582-2.8086-12.324-2.4336-4.2773-5.957-7.8281-10.211-10.297-6.5625-3.6953-14.117-5.2383-21.602-4.4141l-36.684 80.289c-2.8555 6.1445-10.137 8.832-16.297 6.0117-6.1641-2.8164-8.8945-10.078-6.1172-16.258l39.023-85.645c0.17969-0.47656 0.39062-0.94141 0.63672-1.3906l165.35-362.96c1.7539-3.2383 1.1523-7.25-1.4766-9.8281-1.4297-1.3594-3.1094-2.4297-4.9453-3.1562-2.0195-0.86719-4.1758-1.3711-6.3711-1.4883-4.9844-0.51563-9.7344 2.2305-11.773 6.8047l-192.8 451.02c-1.1797 3.1484-3.5898 5.6797-6.6797 7.0078-3.0859 1.332-6.582 1.3398-9.6797 0.03125-3.0977-1.3086-5.5234-3.8242-6.7227-6.9648-1.1992-3.1406-1.0625-6.6367 0.375-9.6758l42.07-98.398h0.003906c-2.4062-5.6289-6.957-10.059-12.648-12.312-6.5938-2.1094-13.707-1.9141-20.172 0.55078l-0.60156 0.20312-29.219 105.83zm-28.57-147.31 86.074-343.41c1.6953-7.2227 5.6641-13.715 11.32-18.516 5.6562-4.8008 12.703-7.6602 20.109-8.1602 5.0742-0.52734 10.203-0.17188 15.152 1.0547 5.0039 1.2266 9.7305 3.375 13.945 6.3359 5.7969 3.8516 10.18 9.4922 12.477 16.062 2.3008 6.5664 2.3945 13.707 0.26953 20.336l-94.191 341.1c7.4141-0.74219 14.898 0.19141 21.902 2.7266 5.6797 2.0781 10.883 5.2773 15.301 9.4062l139.58-326.53c2.8516-6.9297 7.832-12.773 14.219-16.684 6.3906-3.9141 13.859-5.6953 21.324-5.0859 5.1133 0.23438 10.145 1.3594 14.871 3.3242 4.7539 1.9844 9.0859 4.8555 12.766 8.4609 5.0156 4.707 8.3594 10.918 9.5352 17.691 1.1719 6.7773 0.10938 13.75-3.0312 19.867l-157.28 345.28c8.1055 0.89062 15.93 3.4844 22.965 7.6094 8.0625 4.6914 14.727 11.445 19.309 19.57 4.5078 7.9727 6.5586 17.098 5.8945 26.23-0.46484 5.8867-2.0977 11.625-4.8008 16.875 3.8125 2.3242 7.3008 5.1484 10.367 8.3984 4.7891 5.0898 8.4102 11.164 10.609 17.797 9.332 1.1172 18.234 4.5742 25.871 10.055 6.543 4.7422 11.375 11.473 13.777 19.188 2.4023 7.7148 2.2461 16-0.44531 23.617-2.9961 8.4219-8.2031 15.883-15.074 21.602v195.81c-0.18359 28.535-6.2617 56.723-17.852 82.793-11.586 26.074-28.438 49.477-49.492 68.734-28.016 26.074-62.031 44.84-99.035 54.633v63.359l-478.54 0.003907v-63.363c-37.004-9.7891-71.02-28.555-99.035-54.633-21.055-19.258-37.906-42.66-49.492-68.734-11.59-26.07-17.668-54.258-17.852-82.793v-193.38c-7.0703-4.0156-12.449-10.445-15.156-18.105-1.9492-5.375-2.6602-11.117-2.0898-16.801 0.55078-5.8594 2.4688-11.508 5.6055-16.488 3.9062-6.1758 9.5859-11.023 16.297-13.922-0.89844-3.5859-1.3477-7.2695-1.3438-10.969 0.039063-7.7617 1.9844-15.398 5.6641-22.234 3.668-6.8906 8.9102-12.816 15.297-17.305 5.6133-3.9375 11.961-6.7109 18.66-8.1602 1.3711-7.457 4.5586-14.465 9.2773-20.398 4.5547-5.7148 10.285-10.391 16.801-13.703 6.4883-3.3477 13.586-5.3516 20.867-5.8945 4.0898-0.31641 8.2031-0.14844 12.25 0.50391 0.42969-4.8086 1.5586-9.5312 3.3516-14.016 3.457-8.6406 9.2188-16.168 16.652-21.766-5.5469-11.711-5.8906-25.223-0.94531-37.203 2.6836-6.5312 6.7812-12.387 12-17.145 5.0117-4.5742 10.891-8.0977 17.293-10.359-1.6992-9.707-0.058593-19.707 4.6523-28.367 3.8672-7.1211 9.3711-13.223 16.059-17.797 6.6836-4.6133 14.289-7.7148 22.297-9.082 11.289-2 22.922-0.10156 32.988 5.3867 3.4883-4.8398 7.7852-9.043 12.707-12.418 6.125-4.2188 13.137-6.9727 20.496-8.0547 7.6055-1.0781 15.359-0.30859 22.605 2.2461 4.4414 1.5508 8.6602 3.6797 12.543 6.3359 4.0664-6.4375 9.7305-11.711 16.438-15.312 6.6875-3.6211 14.031-5.8672 21.602-6.6133 7.6406-0.82812 15.371-0.042969 22.691 2.3047 11.664 3.5039 21.164 12.012 25.934 23.219 5.5312-1.9219 11.336-2.9531 17.195-3.0586 9.5273-0.20312 18.922 2.2617 27.121 7.1172 6.1523-7.1719 14.258-12.402 23.324-15.062 8.4258-2.4766 17.312-2.9336 25.945-1.3438 8.668 1.5234 16.828 5.1445 23.773 10.551 8.5156 6.5898 14.434 15.98 16.703 26.508 14.332-0.085938 28.062 5.7422 37.957 16.113 5.3906 5.6406 9.3516 12.492 11.543 19.98 1.3555 4.6172 1.9609 9.4219 1.8008 14.234l1.5977 0.45703zm151.47 371.74c0.48438-6.6836 6.2148-11.758 12.906-11.434 6.6914 0.32812 11.898 5.9336 11.73 12.633-2.7109 57.176-16.891 103.18-42.539 138-27.328 36.152-66.621 61.406-110.86 71.246-6.5898 1.6797-13.297-2.3047-14.977-8.8945-1.6797-6.5898 2.3008-13.297 8.8906-14.977 38.676-8.4922 73.07-30.457 97.047-61.969 22.656-30.895 35.258-72.406 37.801-124.54zm-528.84 279.6v33.445l429.14-0.003906v-33.43c-12.25 1.8984-24.633 2.8555-37.031 2.8555h-355.09c-12.395 0-24.77-0.95703-37.02-2.8555z" fill-rule="evenodd"/>
</svg>
