<?xml version="1.0" encoding="UTF-8"?>
<svg width="1200pt" height="1200pt" version="1.1" viewBox="0 0 1200 1200" xmlns="http://www.w3.org/2000/svg">
 <g>
  <path d="m242.54 359.07c-43.734 13.332-65.734 75.734-71.602 201.33h-0.66797c-9.7344 4.668-21.465 17.602-21.332 53.332v0.003906c0.54297 24.027 8.7695 47.25 23.465 66.266l1.1992 1.1992h0.003906c2.3555 2.1406 5.4961 3.2031 8.6641 2.9336 3.2461-0.15625 6.2617-1.7109 8.2695-4.2656 14.902-18.469 23.5-41.223 24.531-64.934 0-26.668-6.9336-45.066-20.133-52.266v-0.80078c4.1328-86.133 16.801-142 37.602-165.87l2.3984-2.8008v3.7344c-2.7188 30.574-1.0117 61.379 5.0664 91.465 7.2891 42.258 8.0547 85.383 2.2656 127.87v-18.398c-1.4648 12.535-2.8008 25.465-3.7344 40-4.9336 73.066 26.668 280 27.332 283.07h0.003907c0.85156 5.918 5.8906 10.328 11.867 10.398h55.598c6.6445-0.76562 11.48-6.668 10.934-13.332l-15.066-186.67h0.66797c3.6133-1.8594 7.1289-3.9062 10.531-6.1328l1.7344-1.0664v2c7.6016 75.867 24.133 195.07 24.266 196 0.85547 5.918 5.8906 10.332 11.867 10.402h55.199c6.6094-0.83594 11.414-6.6914 10.934-13.336l-15.465-189.2c21.184-14.719 39.301-33.422 53.332-55.066v-0.66797l24.934 1.6016 21.199 0.80078h51.863 29.066 21.598l-1.332 2h0.007812c-2.7422 4.0664-5.8672 7.8594-9.3359 11.332-2.6641 2.6758-4.0703 6.3594-3.8672 10.133 5.4648 74 25.602 215.6 26.668 220.8 0.85547 5.9883 5.9492 10.461 12 10.531h54c3.4023-0.058594 6.6211-1.5273 8.8984-4.0586 2.2734-2.5273 3.3984-5.8867 3.1016-9.2734 0-2.1328 0-71.465 3.1992-143.46v-10.266l1.8672 10.133c9.8672 51.332 24.535 145.46 24.801 146.67v-0.003906c1.0781 5.7305 6.0352 9.9102 11.867 10h45.066c6.4492-1.0234 11.031-6.8242 10.531-13.332-8.8008-73.602 0-207.07 8.668-266.67 3.332-5.332 7.1992-10.801 10.801-16.133 6-9.0664 11.867-17.602 15.602-24.398 8.5352-15.465 14.266-54.668 20.266-76.266 1.7344-6.3984 3.6016-13.332 5.4648-19.465v-1.4648l1.332 0.80078 0.003906-0.007813c24.777 13.336 48.453 28.629 70.797 45.734 10.582 9.4688 24.336 14.609 38.535 14.398 14.434 0.070312 28.492-4.6172 40-13.332 9.3281-7.2734 16.195-17.234 19.68-28.535 3.4805-11.305 3.4062-23.406-0.21484-34.664-2.2656-7.8672-4.3984-18.535-6.9336-30.668-8.5352-41.867-21.602-105.2-58.535-152.27h0.003907c-24.66-30.516-62.414-47.41-101.6-45.469-12.555 0.79297-24.73 4.6406-35.465 11.203h-2c-40.801-5.4648-81.867 5.1992-118.27 14.668v-0.003907c-40.738 11.691-82.957 17.395-125.34 16.934-1.2812-0.1875-2.582-0.1875-3.8672 0h-0.66797 0.003907c-3.4727-0.67188-7-0.98438-10.535-0.93359h-41.332c-38.242-0.41797-76.43-2.9102-114.4-7.4648-25.602-2.668-47.602-5.0664-66.668-5.0664h-7.7344 0.003906c-26.117-2.5156-52.426 2.0898-76.133 13.332l-1.0664-0.93359 0.66797 1.0664h-0.003906c-17.473 10.727-30.562 27.312-36.93 46.801zm-60 288.27-1.0664 2.1328-1.0664-2.1328h-0.003906c-5.207-9.875-8.0391-20.836-8.2656-32 0-21.199 4.8008-30.801 9.332-30.801 4.5352 0 9.332 9.6016 9.332 30.801h0.003906c-0.35938 11.148-3.1797 22.078-8.2656 32zm270.8 25.602c-10.785 15.688-25.074 28.648-41.73 37.867-5.2773 2.1914-8.4023 7.6758-7.6016 13.332l14.801 182.54h-30.668v-1.332c-5.4648-34.535-18.934-140.54-23.734-200.8 12-12.789 21.336-27.84 27.469-44.27v-1.0664h1.0664c19.031 6.8203 38.82 11.301 58.934 13.336h2.2656zm162.67-26.668-8.8008 5.8672h-78.668v-1.6016c4.1328-9.332 8.3984-19.332 12.398-29.465 30.934-78.535 44.934-98.398 75.465-101.07h0.003907c24.473-1.3086 48.23 8.4883 64.668 26.668 4.8477 11.762 6.3242 24.645 4.2656 37.199-6.6641 20.801-32 37.199-69.199 62zm184.8 35.199c-7.6406 74.277-9.7344 149.02-6.2656 223.6v1.6016h-20v-0.93359c-7.6016-38.801-25.602-150.27-29.867-173.33v-0.003906c-0.53125-2.9375-2.0352-5.6133-4.2695-7.5977l-3.4648-4.8008-1.0664-1.1992 1.4648-0.80078c21.848-10.402 42.504-23.141 61.602-38l2.2656-1.8672zm224.93-182.53h1.332v1.332c0 1.8672 0.93359 3.7344 1.4648 5.4648l0.003906 0.003906c2.1367 6.2383 2.2188 13 0.22656 19.289-1.9922 6.2891-5.9531 11.773-11.297 15.645-8.168 6.0898-18.074 9.4102-28.266 9.4648-9.0898 0.22656-17.938-2.9609-24.801-8.9336l-2.3984-2.1328-2-2 1.332-0.93359c0.8125-0.5 1.5703-1.082 2.2695-1.7344 16.746-16.234 37.203-28.137 59.598-34.664zm-711.07-171.87c13.684-2.3711 27.594-3.2188 41.465-2.5312h8.1328c17.199 0 38.535 2.1328 63.332 4.8008l0.003906-0.003907c38.859 4.6367 77.934 7.2148 117.07 7.7344h20.27v1.7344h-0.003906c-6.8477 19.781-11.191 40.34-12.934 61.199-0.23047 13.34-4.457 26.301-12.137 37.211-7.6758 10.914-18.453 19.27-30.93 23.988-9.5586 3.5312-19.68 5.293-29.867 5.1992-16.797 0.76172-33.336-4.3281-46.801-14.398-4.668-4.3984-13.332-13.332-21.066-24.133-28.844-36.328-61.375-69.57-97.066-99.199l-2.1328-1.7344zm-29.734 13.332h1.4688c40 26.668 81.734 75.734 106.67 105.07 9.332 11.066 17.199 20.535 22.801 25.867h-0.003906c17.781 14.543 40.242 22.125 63.199 21.336 13.102 0.003906 26.098-2.2969 38.398-6.8008 16.609-6.5859 30.98-17.801 41.402-32.312 10.426-14.512 16.461-31.711 17.398-49.555 4.3984-40 9.7344-55.602 16.133-66.668v-0.66797h0.66797v0.003907c2.8516-0.011719 5.6836-0.46094 8.3984-1.3359 40.352 0.59375 80.578-4.5703 119.47-15.332l11.332-2.9336c31.211-9.375 63.555-14.445 96.133-15.066l2.1328 1.7344-1.8672 0.80078-9.332 4.3984c-2.625 1.3516-5.1641 2.8633-7.5977 4.5312-10.801 6.8008-20.266 12-26.668 6-2.7227-2.9062-6.8945-3.9492-10.668-2.6641-3.9141 1.4102-6.8359 4.7344-7.7305 8.8008-2.8828 11.445-2.3594 23.484 1.5 34.641 3.8633 11.152 10.895 20.938 20.23 28.156 11.992 9.8711 27.004 15.332 42.535 15.469 11.996 0.14844 23.691-3.75 33.199-11.066 3.4844-2.7969 5.3359-7.1523 4.9336-11.602-0.12109-4.6367-2.6484-8.8789-6.668-11.199-3.2539-1.7344-7.2461-1.2578-10 1.1992-5.9492 4.6094-13.145 7.332-20.656 7.8047-7.5117 0.47656-14.992-1.3125-21.477-5.1367-10.113-5.2461-17.77-14.246-21.332-25.066v-1.6016h1.6016c10.754-1.0859 21.066-4.8438 30-10.934 4.2656-2.2656 8-4.3984 11.734-6h-0.003906c10.211-6.6562 22.969-8.0898 34.402-3.8672 9.1055 6.207 16.34 14.785 20.934 24.801 1.3672 2.8008 3.9062 4.8516 6.9336 5.6016 2.9375 0.63672 6.0078-0.046875 8.3984-1.8672 5.3906-3.9805 6.9883-11.344 3.7344-17.199-7.7227-17.504-22.129-31.188-40-38l-3.7344-1.0664 3.6016-1.1992v-0.003906c5.5664-2.1445 11.395-3.5352 17.332-4.1328 32.277-1.4336 63.367 12.336 84 37.203 33.199 42.797 45.465 99.863 53.465 141.46v1.332h-1.4648c-1.0625-0.12891-2.1367-0.12891-3.1992 0-26.711 7.9102-51.098 22.184-71.066 41.602-1.6523 1.457-2.8555 3.3516-3.4688 5.4648v1.6016l-1.4648-0.93359c-22.668-16.133-50.133-32.535-69.199-43.465-23.867-13.332-33.199-30.668-34-40v-1.0664h-0.003906c0-5.9648-4.832-10.801-10.797-10.801-5.9648 0-10.801 4.8359-10.801 10.801v1.6016c0.93359 21.867 18.266 45.199 45.602 61.066h0.80078v0.80078c-2.668 9.6016-5.0664 18.934-7.4648 28-4.5352 17.867-8.5352 52-13.332 62.668l-0.007812-0.003906c-5.0312 9.7305-11.402 18.707-18.93 26.664-5.1914 6.1328-10.043 12.539-14.535 19.203-27.113 26.703-59.121 47.934-94.266 62.531-0.75391 0.32031-1.4688 0.72266-2.1328 1.1992l-0.80078 0.80078c-0.58594 0.43359-1.0859 0.97656-1.4688 1.6016-0.57422 0.81641-1.0234 1.7148-1.332 2.6641-0.0625 0.80078-0.0625 1.6016 0 2.4023-5.8672 81.465-6.8008 167.07-6.9336 192v6.9336h-34.398v-0.93359c-4.2656-26.668-18.668-138.8-23.734-200.93 8.7031-10.434 16.09-21.898 22-34.133 2.0859-3.918 2.0859-8.6172 0-12.535-1.7188-2.8047-4.5156-4.7812-7.7344-5.4648h-2.8008l2.2656-1.7344c26.668-18.133 44.934-35.066 53.332-57.867 4.5352-14.398 1.4648-49.332-8-60.801h0.003906c-21.254-25.914-53.449-40.332-86.934-38.934-44.535 3.8672-64.668 37.332-96 116.67-5.6016 14.133-11.199 26.668-16.668 38.668v0.80078h-0.93359c-78.668-4.2656-102.67-15.066-110-21.066v-0.003906c-2.9453-2.0664-6.6641-2.7031-10.133-1.7305-6.4727 1.8086-10.586 8.1523-9.5977 14.797-7.7461 31.566-30.16 57.5-60.27 69.734-5.2734 2.1914-8.3984 7.6758-7.5977 13.336l14.668 182.13h-30.535v-0.93359c-6.668-42.133-28.266-201.73-25.199-246.8 0.93359-13.332 2.2656-26.668 3.6016-38.801h-0.003906c6.1523-45.152 5.2539-90.988-2.6641-135.87-13.867-74.133-6.668-122.4 21.199-144.27z"/>
  <path d="m938.13 395.6c-0.51172-1.4414-1.3828-2.7266-2.5312-3.7344l-2.2695-1.8672c-1.3438-0.80078-2.8438-1.3008-4.3984-1.4648-1.1484-0.44141-2.3711-0.66797-3.6016-0.66797-14.668 0-14.668 25.602 0 25.602v-0.003906c2.3438 0.089844 4.6367-0.72266 6.4023-2.2656 1.3086-0.54688 2.4922-1.3633 3.4648-2.3984 3.6289-3.4375 4.6484-8.8086 2.5352-13.336z"/>
 </g>
</svg>
