<?xml version="1.0" encoding="UTF-8"?>
<svg width="1200pt" height="1200pt" version="1.1" viewBox="0 0 1200 1200" xmlns="http://www.w3.org/2000/svg">
 <path d="m92.691 1134.8c16.051 14.914 40.258 5.8867 60.09-3.4805 106.15 18.52 443.64 8.375 551.82 4.0352 47.895-3.207 95.094-32.027 120.1-79.543 12.148 22.094 28.977 43.883 52.5 59.707 48.25 32.473 121.39 33.305 170.54 19.258 10.68-3.0078 17.621-13.301 16.383-24.332-0.32422-2.7305-7.0703-58.766-39.199-106.6 47.906-31.547 75.656-80.285 76.988-82.684 5.3945-9.6641 3.0273-21.812-5.6172-28.723-2.1523-1.7148-46.363-36.543-102.43-47.656 11.734-56.395-3.0898-110.81-3.832-113.45-3.0078-10.691-13.156-17.766-24.32-16.383-4.2227 0.46484-103.86 12.371-150.77 82.043-15.828 23.527-23.215 50.062-26.148 75.113-6.2109-5.2539-12.738-10.176-19.816-14.398-36.062-21.523-79.645-26.875-119.75-14.836-8.0039 1.5352-53.414 10.406-114.41 24.715 20.875-15.906 209.76-160.25 228.13-179.99 0.023438-0.03125 0.042969-0.054688 0.066406-0.078125 41.926-45.625 59.219-108.5 45.238-170.78 34.609 18.094 72.969 29.551 111.66 27.824h0.023437c107.3-4.4648 187.43-105.63 190.77-109.93 6.832-8.7578 6.3242-21.16-1.2148-29.297-2.4805-2.6953-55.582-59.25-129-83.137 28.902-71.215 19.965-147.8 19.512-151.42-1.3711-10.988-10.48-19.367-21.535-19.824-3.6055-0.15625-80.898-2.7539-149.32 31.949-29.887-71.188-90.633-119.38-93.523-121.63-8.6914-6.8086-21.094-6.3008-29.297 1.2031-4.0039 3.7031-98.172 91.938-93.727 199.25 1.7188 41.395 17.762 78.629 37.059 109.06-72.059-10.332-139.7 20.676-180.16 75.797-429.05 639.7-392.41 673.71-376.8 688.22zm809.81-56.844c-24.898-16.75-40.219-44.133-49.461-68.344 23.57 11.004 43.453 16.184 59.699 18.812 24.363 3.9336 47.891 3.0312 71.109-4.4297 17.578 23.836 26.797 52.402 31.352 71.23-27.371 4.1445-76.723 6.9609-112.7-17.27zm23.707-93.219c-26.738-2.9609-54.504-14.707-77.348-28.652-0.16797-0.10156-0.29688-0.19141-0.46484-0.29297 0.085938-0.11328 0.14844-0.20703 0.23047-0.32031 22.188-30.078 54.91-59.957 91.703-67.141 37.023-7.2148 78.492 8.1992 110.6 27.883-31.285 42.41-72.77 74.258-124.72 68.523zm-73.699-162.46c24.277-36.039 71.109-51.992 97.996-58.438 2.8984 19.094 5.1094 48.977-2.2773 77.809-45.148 3.4297-84.395 28.871-115.38 62.129-0.125 0.13281-0.26953 0.26953-0.39062 0.40234-0.55078-25.895 3.3398-57.027 20.055-81.902zm-236.95 73.664 6.1719 31.582c2.1211 10.801 11.586 18.297 22.199 18.297 1.4375 0 2.8984-0.13281 4.3555-0.42188 12.273-2.3984 20.277-14.293 17.887-26.566l-6.2461-31.965c0.47656-0.11719 0.96094-0.21484 1.4258-0.35938 28.215-8.7656 58.992-5.0977 84.418 10.082 25.449 15.191 43.316 40.574 49.02 69.605 12.258 62.906-35.086 119.96-92.578 123.94-1.2812 0.046875-38.891 1.5234-94.094 3.0703l-6.8828-35.254c-2.3867-12.273-14.352-20.309-26.555-17.875-12.273 2.3984-20.277 14.285-17.887 26.566l5.4219 27.75c-34.449 0.81641-72.672 1.543-111.82 1.9766l-1.6758-8.6016c-2.3867-12.281-14.305-20.363-26.555-17.887-12.273 2.3867-20.277 14.273-17.887 26.555l0.054687 0.28516c-67.41 0.27734-133.74-0.59375-184.07-3.707 68.98-43.438 155.47-106.23 221.16-155.09 68.895-18.832 133.52-33.379 174.14-41.98zm302.48-396.62c-48.809 1.957-93.949-22.82-124.71-45.172 47.727-7.1523 97-24.324 133.87-55.871 12.074-10.34 20.816-19.699 30.707-33.895 0.35547-0.50781 0.81641-0.95703 1.168-1.4688 44.621 12.492 82.52 41.59 102.35 59.09-24.516 25.613-79.527 74.664-143.39 77.316zm-8.6211-146.54c-36.523 39.711-98.086 56.262-151.61 59.543-0.003906-0.10938 0-0.24219-0.003906-0.35156-1.1289-53.801 10.582-116.39 46.742-155.7 36.461-39.559 97.742-56.316 151.68-59.59 1.1836 53.898-10.57 116.83-46.809 156.1zm-186.44-242.23c19.082 18.309 51.207 53.652 67.371 97.102-0.47266 0.38281-0.875 0.875-1.3438 1.2617-6.2031 5.1406-12.184 10.648-17.762 16.703-37.242 40.457-54.188 98.605-57.969 154.03-0.019531 0.25391-0.054688 0.53906-0.070312 0.79297-24.832-28.809-53.375-72.102-55.387-120.58-2.6562-63.859 41.676-122.76 65.16-149.3zm-502.2 812.87 7.1836 6.6133c9.1758 8.4336 23.492 7.9102 31.996-1.3281 8.4688-9.1992 7.8945-23.527-1.3047-31.996l-14.281-13.145c30.234-50.555 64.84-106.55 101.8-164.96l16.445 15.133c9.1641 8.4648 23.547 7.875 31.973-1.3281 8.4688-9.1992 7.8945-23.527-1.3281-31.996l-22.395-20.609c34.047-53.266 69.578-107.86 105.38-161.81l30.688 28.242c9.1641 8.4648 23.547 7.875 31.973-1.3281 8.4688-9.1992 7.8945-23.527-1.3281-31.996l-35.91-33.047c53.273-79.59 157.01-85.062 219.32-27.473 59.449 54.402 62.129 146.24 8.6914 204.45-9.0234 9.7109-15.309 14.449-113.19 90.645l-39.223-36.105c-9.1992-8.4453-23.527-7.8828-31.996 1.3281-8.4688 9.1992-7.8945 23.527 1.3047 31.996l33.621 30.949c-39.047 30.195-83.324 64.09-128.82 98.293l-12.832-11.812c-9.1992-8.4453-23.547-7.8828-31.996 1.3281-8.4688 9.1992-7.8945 23.527 1.3047 31.996l6.6094 6.0859c-59.273 44.086-214.18 158.16-281.43 189.08 11.547-31.719 43.457-91.535 87.742-167.21z"/>
</svg>
