<?xml version="1.0" encoding="UTF-8"?>
<svg width="1200pt" height="1200pt" version="1.1" viewBox="0 0 1200 1200" xmlns="http://www.w3.org/2000/svg">
 <path d="m1116.2 645.43c-4.1602-153.31-88.344-284.93-209.04-351.55-81.461-96.578-207.38-158.13-326.09-150.39-92.367 5.4727-179.16 46.023-242.63 113.36-17.98-1.375-35.582-0.42969-50.836 8.6133-21.59 12.793-31.23 37.48-40.547 61.355-6.6016 16.91-12.836 32.883-22.441 42.305-68.43 67.172-116.55 151.28-135.51 236.84-21.395 92.207-6.2344 189.12 42.297 270.39 67.301 113.56 210.02 186.23 349.66 186.23 9.957 0 19.887-0.38281 29.793-1.1484 17.035 2.2891 34.203 3.4531 51.391 3.4961 3.4414 0 6.8867-0.046875 10.328-0.14062l167.27-0.37891c103.61-2.8125 199.83-48.02 270.93-127.3h-0.003906c71.297-80.078 109.05-184.52 105.43-291.67zm-533.6-478.55c149.29-9.8203 310.95 97.531 368.21 244.37l14.535 52.207c5.5742 17.625 19.23 32.914 32.434 47.699 15.094 16.902 29.348 32.863 30.461 49.852 1.1133 16.988-10.938 34.672-23.699 53.395-11.164 16.383-22.711 33.324-25.938 51.527-3.3906 19.121 1.6484 39.598 6.5195 59.398 5.2812 21.445 10.266 41.707 3.75 56.164-6.8438 15.191-25.766 25-45.797 35.379-8.6914 4.5039-17.504 9.1055-25.629 14.324v0.003907c0.21094-13.199-0.67188-26.391-2.6484-39.445-2.2266-18.145-4.332-35.285-0.375-48.438 4.0547-13.457 15.316-26.762 27.242-40.848 16.469-19.453 33.5-39.57 34.16-64.07 0.66797-24.621-15.402-45.629-30.949-65.945-11.141-14.562-21.66-28.312-25.16-41.918-3.3242-12.926-0.78516-29.609 1.9062-47.27 3.918-25.746 7.9727-52.363-5.043-74.328-13.016-21.965-38.316-31.191-62.785-40.113-16.781-6.1211-32.633-11.898-42.375-21.02-10.25-9.5977-17.266-25.434-24.691-42.195-10.359-23.387-21.07-47.566-42.988-58.805-21.816-11.18-47.633-5.8945-72.605-0.79297-18.082 3.6992-35.156 7.1914-48.914 4.2852-13.438-2.8398-27.461-12.914-42.305-23.574-20.77-14.922-42.262-30.344-67.031-29.199-23.926 1.1016-43.59 18.035-62.605 34.414-13.605 11.715-27.676 23.832-41.516 28.023-11.117 3.3633-25.32 2.1836-40.578 0.30078v0.003906c58.098-55.625 134.11-88.734 214.41-93.387zm-21.375 863.27c-104.06 24.207-220.18-1.4648-307.99-60.578 1.3789-15.055 3.875-35.391 8.4258-59.457 22.512 16.234 70.648 42.008 149.55 42.008 40.578 0 89.293-6.8203 146.81-25.27 6.1602-1.9766 9.5547-8.5742 7.5781-14.738-1.9766-6.1641-8.5742-9.5586-14.738-7.582-178.73 57.324-266.13-5.0273-283.82-20.09 9.3945-41.246 22.723-81.492 39.805-120.19 9.8633-22.242 21.043-43.875 33.48-64.789 20.504 16.402 73.543 49.652 166.59 49.652 58.219 0 132.11-13.027 223.46-51.344 5.9688-2.5039 8.7773-9.3711 6.2734-15.34-2.5078-5.9727-9.375-8.7812-15.344-6.2734-231.01 96.906-343.79 23.168-368.45 3.125 76.547-117.3 190.34-196.48 339.44-235.86l0.003906-0.003906c3.0195-0.77734 5.6055-2.7305 7.1836-5.4219s2.0195-5.9023 1.2227-8.9219c-0.80078-3.0156-2.7656-5.5898-5.4688-7.1523-2.7031-1.5586-5.9141-1.9805-8.9258-1.1641-106.66 28.176-187.93 74.91-249.9 128.52-62.43-94.004 31.59-172.5 35.746-175.89 5.0234-4.082 5.7852-11.461 1.7031-16.484s-11.461-5.7891-16.484-1.707c-1.2031 0.97656-116.88 96.953-38.543 209.91h-0.003906c-56.641 53.711-102 118.18-133.41 189.64-6.5352 14.719-12.293 29.199-17.426 43.34-23.254-23.527-98.367-112.04-62.477-242.89 1.7109-6.2422-1.9609-12.688-8.2031-14.398-6.2422-1.7148-12.691 1.9609-14.402 8.2031-45.883 167.31 75.32 272.25 76.551 273.29 0.066406 0.054688 0.14062 0.089844 0.20703 0.14453l-0.003907-0.003906c-13.73 42.684-23.266 86.602-28.465 131.14-31.84-24.535-58.848-54.77-79.648-89.164-108.06-182.33-19.34-371.75 89.469-478.55 13.188-12.945 20.645-32.043 27.852-50.508 8.2383-21.102 16.02-41.039 30.66-49.719 8.1836-4.3008 17.375-6.3242 26.605-5.8594 10.625 0.28516 21.223 1.2305 31.73 2.8281 19.664 2.5469 40 5.1719 57.691-0.1875 18.586-5.6289 34.562-19.391 50.016-32.699 16.738-14.414 32.547-28.027 48.391-28.762 16.676-0.74219 33.949 11.664 52.273 24.824 16.16 11.609 32.871 23.617 51.133 27.477 18.52 3.9102 38.824-0.23828 58.457-4.2578 21.977-4.4961 42.73-8.7344 57.215-1.3125 14.543 7.4531 23.145 26.879 32.254 47.441 8.0469 18.168 16.371 36.957 30.102 49.812 13.234 12.391 32.109 19.273 50.363 25.93 21.551 7.8594 41.902 15.281 50.648 30.043s5.4922 36.184 2.0391 58.855c-2.9258 19.207-5.9492 39.07-1.4336 56.633 4.6875 18.215 17.172 34.539 29.246 50.316 13.668 17.867 26.574 34.734 26.133 51.074-0.4375 16.27-14.129 32.438-28.621 49.559-12.949 15.293-26.336 31.105-31.793 49.23-5.3828 17.871-2.875 38.297-0.44922 58.051 2.75 22.391 5.3477 43.543-3.3203 57.773-8.25 13.547-27.785 20.875-48.465 28.637-19.09 7.1641-38.832 14.574-52.695 28.176-13.195 12.945-20.648 32.043-27.859 50.52-8.2383 21.102-16.023 41.039-30.664 49.719-14.645 8.6719-35.863 5.9336-58.332 3.0312-19.664-2.5391-39.996-5.168-57.695 0.1875l-0.38672 0.125zm432.1-108.71c-66.762 74.441-157.01 116.89-253.82 119.52l-138.31 0.3125 18.297-6.2461c12.867-3.8203 29.797-1.6328 47.711 0.67578 25.418 3.2812 51.695 6.6836 73.289-6.1094s31.227-37.48 40.543-61.359c6.6016-16.91 12.84-32.887 22.445-42.312 10.324-10.125 27.707-16.648 44.516-22.961 21.703-8.1445 44.07-16.57 57.18-33.93l-0.003906 0.003906c3.3242-0.15234 6.4258-1.7188 8.5234-4.2969 8.6133-10.699 23.941-18.645 40.172-27.055 22.707-11.77 46.184-23.938 56.379-46.559 9.8398-21.836 3.6406-47.031-2.3555-71.391-4.293-17.438-8.7305-35.469-6.2031-49.707 2.3516-13.254 12.008-27.422 22.23-42.422 14.434-21.176 29.359-43.074 27.719-68.121-1.6406-25.043-19.293-44.816-36.363-63.93-12.094-13.539-23.512-26.332-27.453-38.766l-14.574-52.379c-0.10547-0.37109-0.22656-0.73828-0.36719-1.0977l-0.003906-0.003906c-7.5195-19.289-16.648-37.918-27.281-55.684 55.746 45.367 98.227 104.93 122.95 172.42 24.73 67.484 30.797 140.39 17.559 211.04-13.238 70.645-45.289 136.41-92.773 190.36z"/>
</svg>
