<?xml version="1.0" encoding="UTF-8"?>
<svg width="1200pt" height="1200pt" version="1.1" viewBox="0 0 1200 1200" xmlns="http://www.w3.org/2000/svg">
 <g>
  <path d="m521.81 197.16c-14.641 0-26.496 11.867-26.496 26.496 0 14.641 11.867 26.496 26.496 26.496 14.641 0 26.496-11.867 26.496-26.496 0.011718-14.629-11.855-26.496-26.496-26.496z"/>
  <path d="m678.19 197.16c-14.641 0-26.496 11.867-26.496 26.496 0 14.641 11.867 26.496 26.496 26.496 14.641 0 26.496-11.867 26.496-26.496 0.011719-14.629-11.855-26.496-26.496-26.496z"/>
  <path d="m866.05 283.16h-3.1797c-25.98-115.64-129.43-202.33-252.8-202.33h-20.125c-123.5 0-227.05 86.879-252.89 202.33h-3.0977c-24.805 0-45 20.195-45 45 0 23.172 17.676 42.098 40.223 44.52l-33.277 685.04c0 33.875 27.562 61.441 61.43 61.441h485.33c33.863 0 61.43-27.562 61.414-62.027l-33.277-684.46c22.547-2.4258 40.234-21.336 40.234-44.52 0.019531-24.805-20.176-45-44.98-45zm-87.348 90 31.789 653.98h-420.97l31.777-653.98zm87.348-24h-532.09c-1.2344 0-2.4375-0.15625-3.625-0.37109-9.8516-1.7266-17.375-10.297-17.375-20.629 0-11.207 8.8438-20.316 19.906-20.891 0.37109-0.023438 0.71875-0.10938 1.0938-0.10938h532.09c0.35937 0 0.68359 0.085938 1.0312 0.10938 11.09 0.55078 19.969 9.6719 19.969 20.891 0 10.344-7.5352 18.91-17.398 20.641-1.1797 0.20312-2.3672 0.35937-3.6055 0.35937zm-288.54-243.71c-2.4961 4.043-4.0078 8.7617-4.0078 13.871 0 14.641 11.867 26.496 26.496 26.496s26.496-11.867 26.496-26.496c0-5.1016-1.5117-9.8281-4.0078-13.871 104.38 5.4961 190.75 79.188 215.43 177.71h-475.89c24.547-98.352 110.98-172.2 215.49-177.71zm302.59 952.27c0 20.652-16.789 37.441-37.43 37.441h-485.33c-20.641 0-37.43-16.789-37.441-36.852l33.277-685.15h44.09l-32.941 677.98h471.36l-32.953-677.98h44.09z"/>
 </g>
</svg>
