<?xml version="1.0" encoding="UTF-8"?>
<svg width="1200pt" height="1200pt" version="1.1" viewBox="0 0 1200 1200" xmlns="http://www.w3.org/2000/svg">
 <g>
  <path d="m543.75 337.5h112.5c10.352 0 18.75-8.3984 18.75-18.75v-187.5c0-10.352-8.3984-18.75-18.75-18.75h-112.5c-10.352 0-18.75 8.3984-18.75 18.75v187.5c0 10.352 8.3984 18.75 18.75 18.75zm18.75-187.5h75v150h-75z"/>
  <path d="m731.25 337.5h112.5c10.352 0 18.75-8.3984 18.75-18.75v-187.5c0-10.352-8.3984-18.75-18.75-18.75h-112.5c-10.352 0-18.75 8.3984-18.75 18.75v187.5c0 10.352 8.3984 18.75 18.75 18.75zm18.75-187.5h75v150h-75z"/>
  <path d="m356.25 337.5h112.5c10.352 0 18.75-8.3984 18.75-18.75v-187.5c0-10.352-8.3984-18.75-18.75-18.75h-112.5c-10.352 0-18.75 8.3984-18.75 18.75v187.5c0 10.352 8.3984 18.75 18.75 18.75zm18.75-187.5h75v150h-75z"/>
  <path d="m543.75 600h112.5c10.352 0 18.75-8.3984 18.75-18.75v-187.5c0-10.352-8.3984-18.75-18.75-18.75h-112.5c-10.352 0-18.75 8.3984-18.75 18.75v187.5c0 10.352 8.3984 18.75 18.75 18.75zm18.75-187.5h75v150h-75z"/>
  <path d="m731.25 600h112.5c10.352 0 18.75-8.3984 18.75-18.75v-187.5c0-10.352-8.3984-18.75-18.75-18.75h-112.5c-10.352 0-18.75 8.3984-18.75 18.75v187.5c0 10.352 8.3984 18.75 18.75 18.75zm18.75-187.5h75v150h-75z"/>
  <path d="m356.25 600h112.5c10.352 0 18.75-8.3984 18.75-18.75v-187.5c0-10.352-8.3984-18.75-18.75-18.75h-112.5c-10.352 0-18.75 8.3984-18.75 18.75v187.5c0 10.352 8.3984 18.75 18.75 18.75zm18.75-187.5h75v150h-75z"/>
  <path d="m262.5 815.14v309.86c0 20.68 16.82 37.5 37.5 37.5h600c20.68 0 37.5-16.82 37.5-37.5v-267.68l34.836 4.9688c9.9922 1.4609 19.293-5.2891 21.094-15.207l37.5-206.23c1.2383-6.7695-1.332-13.707-6.7305-18.02l-86.699-69.336v-478.5c0-20.68-16.82-37.5-37.5-37.5h-600c-20.68 0-37.5 16.82-37.5 37.5v478.12l-67.5 50.625c-5.0625 3.8047-7.875 9.8984-7.4609 16.219 0.13281 1.9688 0.5625 3.8828 1.2734 5.6641zm213-23.418-130.95 130.95-44.551-114.56v-1.8555h-0.71094l-56.57-145.48zm-25.5-57.375-75-42.188v-17.156h75zm-150 390.66v-56.25h600v56.25zm600-93.75h-600v-119.7l20.023 51.488c2.3047 5.9062 7.4258 10.258 13.633 11.551 1.2734 0.27734 2.5703 0.41016 3.8438 0.41016 4.9141 0 9.7109-1.9492 13.258-5.4922l157.88-157.88 212.21 141.47c3.1875 2.1172 6.8047 3.1484 10.406 3.1484 4.8359 0 9.6367-1.875 13.273-5.4922l105.86-105.86 49.613 7.0859zm-262.5-302.2-75 22.219v-76.273h75zm322.27 93.582-113.38-16.199c-5.8672-0.84375-11.738 1.125-15.918 5.3047l-101.62 101.62-178.91-119.27 438.64-129.96zm-209.77-126.92v-20.719h69.918zm222.75-66-35.25 10.445v-38.664zm-72.75-554.72v576.28l-37.5 11.117v-6.1484c0-10.352-8.3984-18.75-18.75-18.75h-112.5c-10.352 0-18.75 8.3984-18.75 18.75v50.586l-37.5 11.117v-61.703c0-10.352-8.3984-18.75-18.75-18.75h-112.5c-10.352 0-18.75 8.3984-18.75 18.75v106.14l-16.48 4.875-21.02-11.832v-99.188c0-10.352-8.3984-18.75-18.75-18.75h-112.5c-10.352 0-18.75 8.3984-18.75 18.75v14.812l-37.5-21.094v-574.97zm-637.5 525v28.875l-21.992-12.375z"/>
 </g>
</svg>
