<?xml version="1.0" encoding="UTF-8"?>
<svg width="1200pt" height="1200pt" version="1.1" viewBox="0 0 1200 1200" xmlns="http://www.w3.org/2000/svg">
 <g>
  <path d="m228 522.84c-5.6953 0.23828-11.066 2.7305-14.926 6.9297-3.8594 4.1953-5.8945 9.7539-5.6523 15.449 0.23828 5.6992 2.7305 11.066 6.9258 14.926 4.1953 3.8594 9.7539 5.8945 15.453 5.6562h2.0391c5.8125-0.33594 11.242-3.0156 15.043-7.4258 3.8008-4.4102 5.6484-10.176 5.1172-15.977-0.51172-5.8086-3.3516-11.16-7.8711-14.844-4.5195-3.6836-10.336-5.3867-16.129-4.7148z"/>
  <path d="m1082.9 367.56c-9 4.4414-17.039 8.0391-24 10.922 0.96875-6.4688 0.26562-13.078-2.0391-19.199-3.5859-8.1328-9.7812-14.836-17.605-19.055-7.8242-4.2148-16.832-5.7031-25.594-4.2266-9.4922 0.28516-18.625 3.6836-25.996 9.668-7.3711 5.9844-12.574 14.223-14.805 23.453-5.0391 26.879 4.8008 40.801 13.801 48l1.1992 0.83984c-3.1211 2.7617-6.4805 5.7617-10.199 8.7617v-0.003906c-3.5586-6.7422-7.5664-13.238-12-19.438-60-78.121-153.72-104.28-293.16-82.32-38.16 6-65.762 10.801-87.121 14.398-59.281 10.32-68.398 12-125.88 8.3984-69-4.1992-152.4 26.879-182.76 39.359-31.199-27.84-80.281-39.84-120.84-47.281v0.003906c-5.5352-1.0586-11.242 0.58984-15.359 4.4414-4.2148 3.7344-6.3594 9.2773-5.7578 14.879 4.9219 53.039 22.559 90.238 52.441 111.12-10.199 57.84-36 88.559-80.398 96h-0.003907c-4.0742 0.71484-7.7773 2.8086-10.488 5.9336-2.7109 3.1289-4.2617 7.0898-4.3906 11.227-2.2344 35.559 5.0977 71.07 21.238 102.84 8.8789 16.32 26.879 9.9609 46.078 3.3594l8.5195-2.8789 5.0391 9.4805 0.003906-0.003907c1.5781 3.0586 4 5.5977 6.9766 7.3203 2.9766 1.7227 6.3867 2.5547 9.8242 2.4023 27.727-2.3398 55.645-1.0469 83.039 3.8398 35.07 9.9883 71.656 13.562 108 10.559 7.0781 21.48 13.32 49.199 9.8398 60-10.227 25.969-22.258 51.191-36 75.48-2.0977 3.6602-2.8281 7.9453-2.0703 12.098 0.75781 4.1484 2.9609 7.8984 6.2148 10.582 3.2578 2.6836 7.3555 4.1289 11.574 4.082h75.602c3.293-0.003906 6.5234-0.91406 9.3398-2.6289 2.8125-1.7148 5.1055-4.168 6.6211-7.0938 2.3984-4.6797 12.84-24.961 24-48l9.3594 43.922c0.85156 4.043 3.0742 7.668 6.2852 10.27 3.2109 2.6016 7.2227 4.0156 11.355 4.0078h60c4.918-0.035156 9.6211-2.0195 13.078-5.5195 3.3906-3.5312 5.168-8.3086 4.9219-13.199l-5.2812-132c67.445 6.4883 135.48-2.7969 198.72-27.121 5.5195 4.0781 13.559 9.8398 22.801 16.32l-48 138.12c-1.9531 5.5195-1.0977 11.645 2.293 16.422 3.3906 4.7734 8.8906 7.6016 14.746 7.5781h73.922c3.6758-0.042969 7.25-1.2188 10.234-3.3633 2.9844-2.1484 5.2344-5.1641 6.4453-8.6367l32.281-82.441c5.0781 24.578 6.5312 49.766 4.3164 74.762-0.32422 4.9883 1.4102 9.8867 4.8008 13.559 3.3984 3.6016 8.1328 5.6406 13.082 5.6406h75.602-0.003906c4.7227 0.03125 9.2656-1.8047 12.637-5.1094 3.375-3.3047 5.3008-7.8086 5.3633-12.531 0-3.7188 1.6797-91.441 0-127.68-1.5625-16.82-5.6055-33.32-12-48.957-6.3594-17.641-12-34.199-6.9609-42.602 15.719-25.199 22.559-113.76-2.7617-185.88h0.003906c14.391-10.891 27.875-22.93 40.32-36 22.863-5.0039 44.941-13.078 65.641-24 5.7656-2.8516 9.5742-8.5625 9.9883-14.98 0.41406-6.4219-2.6289-12.574-7.9805-16.141-5.3516-3.5703-12.203-4.0117-17.969-1.1602zm-529.32 480h-27l-16.078-75.48c4.0664-8.6094 7.5898-17.469 10.559-26.52 2.1758-7.4414 3.6211-15.078 4.3203-22.797 7.8008 1.8008 15.602 3.1211 23.398 4.4414zm282.96 0h-36l37.199-105.48c11.16 7.0781 22.559 13.922 32.879 19.32zm142.56 0h-39.238c0-36-4.3203-97.441-39.359-111.84h-0.71875c-25.922-9.8398-81-48.961-101.4-64.199l-66.363-68.879c-3.2188-3.8438-7.8945-6.168-12.898-6.418-5.0078-0.25391-9.8906 1.5977-13.477 5.0977-3.5859 3.5039-5.5508 8.3398-5.418 13.352 0.13281 5.0117 2.3477 9.7383 6.1133 13.047l48 49.199v0.003906c-73.926 25.031-153.56 27.867-229.08 8.1562v-73.078c0-6.4297-3.4297-12.375-9-15.59-5.5664-3.2148-12.43-3.2148-18 0-5.5664 3.2148-9 9.1602-9 15.59v87.121c-0.058593 0.83594-0.058593 1.6797 0 2.5195v0.71875c1.1992 11.043 0.22266 22.215-2.8789 32.879-4.0781 14.281-32.762 72-52.922 111.84h-34.316c9.6016-17.73 17.906-36.141 24.84-55.078 9.3594-29.762-9.7188-82.801-14.762-96l-14.52-61.32c-1.4805-6.2578-6.1836-11.254-12.344-13.102-6.1602-1.8516-12.84-0.26953-17.52 4.1406-4.6836 4.4102-6.6562 10.98-5.1758 17.242l10.078 42.602v-0.003906c-29.617 1.5156-59.289-1.8086-87.84-9.8398-27.266-5.8359-55.227-7.7773-83.039-5.7578l-5.5195-10.441c-0.44922-0.84375-0.97266-1.6445-1.5586-2.3984-9.7188-13.199-25.32-7.9219-44.879-1.0781l-7.9219 2.7617v-0.003907c-7.7852-19.055-11.855-39.418-12-60 54.359-15.48 87-60.84 96.961-135.24v-0.003906c0.48047-3.707-0.19141-7.4727-1.9336-10.781-1.7383-3.3047-4.4609-5.9961-7.7891-7.6992-20.762-10.559-34.32-31.801-40.922-64.68 31.68 7.3203 66.84 19.078 84.84 39.961h0.003906c2.5508 2.9453 5.9922 4.9805 9.7969 5.8008 3.8086 0.82422 7.7812 0.38672 11.32-1.2383 0.96094 0 102-45.602 177.12-41.16 61.68 3.8398 72.84 1.9219 134.4-8.7617 21.121-3.7188 48-8.3984 86.398-14.398 126.84-20.402 207 0.83984 258.84 68.398 48 61.199 39.84 180 28.559 198-14.52 23.16-4.9219 50.039 3.6016 73.801 5.1016 12.285 8.5312 25.199 10.199 38.398 1.5625 25.562 1.082 79.68 0.71875 107.76zm36-457.44v0.003906c-2.1719 0.09375-4.3281-0.40625-6.2383-1.4414 0 0-1.8008-3.4805 0-12 0 0 1.4414-1.8008 4.1992-2.8789 2.207-0.73438 4.5156-1.0977 6.8398-1.082 1.1992-0.0625 2.4023-0.0625 3.6016 0 0 0-0.24219 4.9219-8.8789 16.801z"/>
 </g>
</svg>
