<?xml version="1.0" encoding="UTF-8"?>
<svg width="1200pt" height="1200pt" version="1.1" viewBox="0 0 1200 1200" xmlns="http://www.w3.org/2000/svg">
 <g>
  <path d="m1125 1031.2h-12.656c48.695-81.301 41.043-181.86-22.836-245.74-6.4883-6.4883-13.5-12.227-20.738-17.605v-602.61c21.75-7.7617 37.48-28.387 37.48-52.801v-37.5c0-31.012-25.238-56.25-56.25-56.25h-525c-31.012 0-56.25 25.238-56.25 56.25v37.5c0 24.414 15.73 45.039 37.5 52.801v141.6c-37.367-13.258-80.57-5.4375-110.61 20.551-12.844-5.9609-26.344-9.0938-41.27-8.6797-8.6992-42.754-46.594-75.023-91.875-75.023s-83.176 32.27-91.855 75.02c-0.65625-0.019531-1.2773-0.019531-1.8945-0.019531-48 0-87.676 36.242-93.113 82.801-34.105 14.531-56.887 48.094-56.887 85.949 0 32.305 16.93 61.762 43.387 78.75-3.6172 9.8242-5.8867 20.289-5.8867 31.332 0 2.0234 0.074219 4.0703 0.20703 6.0742l32.664 490.07c3.2969 49.086 44.379 87.523 93.543 87.523h904.84c51.695 0 93.75-42.055 93.75-93.75 0-31.012-25.238-56.25-56.25-56.25zm-731.25 0v-433.67c0-29.684 24.148-53.832 53.832-53.832h4.8359c29.684 0 53.832 24.148 53.832 53.832v242.38c-0.63672 0.63672-1.3516 1.1641-1.9883 1.8008-48.262 48.262-65.363 120.38-46.727 189.49l-7.5352-0.003906zm-37.5 0h-112.5v-433.67c0-29.684 24.148-53.832 53.832-53.832h4.8359c29.684 0 53.832 24.148 53.832 53.832zm331.61-465c26.457-16.988 43.387-46.445 43.387-78.75 0-39.449-24.508-73.52-59.887-87.094 1.8203-6.3203 2.7578-12.789 3.207-19.293 31.047-28.07 70.742-43.613 112.93-43.613 93.055 0 168.75 75.695 168.75 168.75 0 67.762-41.68 129.54-103.97 155.55-20.438-3.5625-42.168-5.5508-64.781-5.5508-35.852 0-69.262 4.7617-98.344 13.199l4.3867-65.738c0.13281-2.0625 0.20703-4.1055 0.20703-6.1289 0-11.043-2.2695-21.508-5.8867-31.332zm82.105 265.95c-43.707-32.664-95.438-47.438-144.77-44.211-4.2539-6.3945-6.4492-12.844-6.4492-19.238 0-35.477 69.301-75 168.75-75 66.844 0 118.2 17.512 145.86 38.906-50.25 5.2891-97.895 28.105-135.24 65.477-10.539 10.535-19.914 21.953-28.145 34.066zm-113.85-231.02-5.5312 82.93c-42.656 20.461-69.336 50.516-69.336 84.641 0 8.6797 1.7422 17.289 5.1016 25.613-14.852 4.0508-29.102 10.066-42.602 17.68v-214.46c0-29.684 24.148-53.832 53.832-53.832h4.8359c29.684 0 53.832 24.148 53.832 53.832 0 1.1992-0.039062 2.3789-0.13281 3.5977zm-159.11 430.07c-19.574-59.211-7.1445-122.04 33.77-162.98 56.305-56.27 149.25-57.449 218.14-5.043-70.875 30.355-121.74 93.43-129.13 168.02zm346.74-150c96.336 0 175.86 65.758 186.26 150h-372.52c10.406-84.242 89.926-150 186.26-150zm223.91 149.08c-10.84-104.53-107.08-186.58-223.91-186.58-13.012 0-25.688 1.2383-38.102 3.1875 5.7734-7.8008 12-15.32 18.977-22.312 33.75-33.75 77.305-53.531 122.68-55.707 44.438-2.1562 85.742 13.164 115.67 43.086 56.348 56.348 57.77 148.88 4.6914 218.33zm-83.832-297.07c-13.988-24-42.188-43.949-78.977-57.543 54.527-38.066 88.895-101.36 88.895-169.46 0-113.72-92.531-206.25-206.25-206.25-43.648 0-85.105 13.648-119.85 38.605-14.25-33.656-47.605-57.355-86.398-57.355-13.125 0-25.836 2.8125-37.5 7.9141v-120.41h487.5v577.67c-14.961-6.3359-30.805-10.855-47.418-13.16zm-477.58-658.26c0-10.352 8.3984-18.75 18.75-18.75h525c10.352 0 18.75 8.3984 18.75 18.75v37.5c0 10.352-8.3984 18.75-18.75 18.75h-525c-10.352 0-18.75-8.3984-18.75-18.75zm-450 412.5c0-25.574 17.438-47.906 42.395-54.281l14.738-3.75-0.63672-15.227c-0.039063-0.89844-0.13281-1.8008-0.22656-1.8008 0 0.019532-0.019531 0.039063-0.019531 0.058594 0-31.012 25.238-56.25 56.25-56.25 4.2188 0 8.7383 0.67578 14.25 2.1172l24.508 6.4688-0.99219-25.332c-0.039063-1.0117-0.15234-2.0039-0.24609-2.0039h-0.019531c0-31.012 25.238-56.25 56.25-56.25s56.25 25.238 56.305 55.086l-1.293 28.5 24.508-6.4688c5.4922-1.4414 10.012-2.1172 14.23-2.1172 11.363 0 22.387 3.4492 31.836 9.9375l13.668 9.4141 11.008-12.449c14.605-16.559 34.48-25.652 55.988-25.652 13.988 0 27.844 4.0859 40.051 11.832l15.469 9.8047 10.164-15.242c10.496-15.75 27.992-25.145 46.816-25.145 31.012 0 56.25 25.238 56.25 56.25 0 9.9766-2.7383 19.613-8.1758 28.668l-15.113 25.18 29.211 3.0938c28.711 3.0391 50.328 26.945 50.328 55.559 0 19.199-9.9766 36.73-25.594 46.969-16.633-17.324-39.898-28.219-65.738-28.219h-4.8359c-29.699 0-55.895 14.477-72.582 36.523-16.688-22.047-42.883-36.523-72.582-36.523h-4.8359c-29.699 0-55.895 14.477-72.582 36.523-16.688-22.047-42.883-36.523-72.582-36.523h-4.8359c-29.699 0-55.895 14.477-72.582 36.523-16.688-22.047-42.883-36.523-72.582-36.523h-4.8359c-25.855 0-49.105 10.895-65.738 28.219-15.617-10.238-25.594-27.77-25.594-46.969zm37.5 110.08c0-29.684 24.148-53.832 53.832-53.832h4.8359c29.684 0 53.832 24.148 53.832 53.832v433.67h-83.699l-28.668-430.11c-0.09375-1.1836-0.13281-2.3633-0.13281-3.5625zm32.793 493.65-1.5-22.48h272.16c-2.0977 5.8867-3.4492 12.148-3.4492 18.75 0 21.188 7.332 40.539 19.238 56.25h-230.32c-29.496 0-54.152-23.062-56.121-52.52zm960.96 52.52h-600c-31.012 0-56.25-25.238-56.25-56.25 0-10.352 8.3984-18.75 18.75-18.75h675c10.352 0 18.75 8.3984 18.75 18.75 0 31.012-25.238 56.25-56.25 56.25z"/>
  <path d="m995.69 833.38 33.539-16.77 18.75 37.496-33.539 16.77z"/>
  <path d="m1041.6 901.97 37.496-18.75 16.77 33.539-37.496 18.75z"/>
  <path d="m564.45 889.62 33.539-16.77 18.75 37.496-33.539 16.77z"/>
  <path d="m516.59 958.21 37.496-18.75 16.77 33.539-37.496 18.75z"/>
  <path d="m825 900c-42.055 0-75 24.695-75 56.25s32.945 56.25 75 56.25v-37.5c-22.895 0-37.5-11.102-37.5-18.75s14.605-18.75 37.5-18.75 37.5 11.102 37.5 18.75h37.5c0-31.555-32.945-56.25-75-56.25z"/>
  <path d="m685.33 1010.5 16.77-33.539 37.496 18.75-16.77 33.539z"/>
  <path d="m872.83 995.71 37.496-18.75 16.77 33.539-37.496 18.75z"/>
  <path d="m929.08 973.04 16.77-33.539 37.496 18.75-16.77 33.539z"/>
  <path d="m647.84 766.78 16.77-33.539 37.496 18.75-16.77 33.539z"/>
  <path d="m733.2 760.38 18.75-37.496 33.539 16.77-18.75 37.496z"/>
  <path d="m910.33 823.04 16.77-33.539 37.496 18.75-16.77 33.539z"/>
  <path d="m412.5 450c6.75 0 12.824 3.6172 16.238 9.6953l6.2266 11.102 12.617-1.707 2.418-0.33984c10.352 0 18.75 8.3984 18.75 18.75h37.5c0-29.551-22.914-53.852-51.883-56.082-10.555-11.887-25.762-18.918-41.867-18.918-31.012 0-56.25 25.238-56.25 56.25h37.5c0-10.352 8.3984-18.75 18.75-18.75z"/>
  <path d="m187.5 431.25c6.75 0 12.824 3.6172 16.238 9.6953l6.2266 11.102 12.617-1.707 2.418-0.33984c10.352 0 18.75 8.3984 18.75 18.75h37.5c0-29.551-22.914-53.852-51.883-56.082-10.555-11.887-25.762-18.918-41.867-18.918-31.012 0-56.25 25.238-56.25 56.25h37.5c0-10.352 8.3984-18.75 18.75-18.75z"/>
  <path d="m881.25 506.25h37.5c0-72.355-58.895-131.25-131.25-131.25v37.5c51.695 0 93.75 42.055 93.75 93.75z"/>
 </g>
</svg>
