<?xml version="1.0" encoding="UTF-8"?>
<svg width="1200pt" height="1200pt" version="1.1" viewBox="0 0 1200 1200" xmlns="http://www.w3.org/2000/svg">
 <g>
  <path d="m609.38 106.46c49.219 1.707 225.68 7.125 234.88 83.383h0.71094c0 21.301 5.1562 35.363 16.93 53.23 0.88281 1.332 1.8008 2.7188 3 4.4805 1.5586 2.2695 1.5586 2.2695 3.1133 4.5781 2.6641 3.918 4.5195 6.7656 6.2617 9.7109 7.0508 11.793 10.727 22.52 10.727 34.949 0 9.2617 0.82422 266.76 0.84375 272.76 0.054688 22.293 0.13281 43.574 0.1875 64.105 0.60156 209.51 0.82422 328.99 0.46875 338.48-0.5625 15.355-7.5195 24.953-22.594 39.035-7.9141 7.4062-7.6328 7.125-9.3945 9.1328-1.2539 1.4414-1.3125 1.5547-1.3125-0.019531 0 56.512-109.07 92.008-243.82 92.008s-243.82-35.496-243.82-92.008c0 1.5742-0.058593 1.4609-1.3125 0.019531-1.7617-2.0078-1.4805-1.7266-9.3945-9.1328-15.074-14.082-22.031-23.68-22.594-39.035-0.35547-9.4883-0.13281-128.96 0.46875-338.48 0.054688-20.531 0.13281-41.832 0.1875-64.105 0.019531-6 0.84375-263.5 0.84375-272.76 0-12.75 3.8438-23.457 11.27-35.23 2.5312-3.9922 11.66-16.93 11.98-17.398 11.586-17.062 16.781-31.484 16.781-54.32h0.71094c14.27-77.344 180.84-81.582 234.88-83.383zm208.8 132.94c-58.84 42.172-139.45 43.406-208.8 45.715-53.23-1.1992-167.48-7.668-208.48-45.414-4.6875 14.777-1.1641 5.9258-12.863 25.539-0.80469 1.1797-9.3945 13.332-11.289 16.348-3.9727 6.2812-5.4922 10.52-5.4922 15.207 0 9.3398-0.82422 267.15-0.84375 272.87-0.054688 22.273-0.13281 43.574-0.1875 64.105-0.60156 205.57-0.80469 328.35-0.48828 336.99 0.058593 1.8555 2.7578 5.5898 10.707 13.012 9.4883 8.8711 8.9609 8.3633 11.98 11.797 6.6953 7.6289 10.633 15.297 10.633 24.711 0 8.6992 18.094 22.613 52.969 33.977 39.938 12.992 94.707 20.531 153.36 20.531s113.42-7.5391 153.36-20.531c34.875-11.363 52.969-25.277 52.969-33.977 0-9.4141 3.9375-17.082 10.633-24.711 3.0195-3.4336 2.4922-2.9258 11.98-11.797 7.9492-7.4219 10.648-11.156 10.707-13.012 0.31641-8.6445 0.11328-131.42-0.48828-336.99-0.054688-20.531-0.13281-41.812-0.1875-64.105-0.019531-5.7188-0.84375-263.53-0.84375-272.87 0-4.7227-1.5547-9.2422-5.418-15.73-2.0625-3.4492-12.301-18.562-11.496-17.344-11.398-19.426-8.0977-10.949-12.41-24.32zm-208.8-95.438c-56.438 0-109.14 7.2578-147.52 19.746-33.359 10.855-50.57 24.113-50.57 32.082 0 7.9844 17.211 21.223 50.57 32.078 38.379 12.488 91.086 19.746 147.52 19.746s109.14-7.2578 147.52-19.746c33.359-10.855 50.57-24.094 50.57-32.078 0-7.9688-17.211-21.227-50.57-32.082-38.379-12.488-91.086-19.746-147.52-19.746z"/>
  <path d="m611.08 151.27c73.555 0 139.09 11.906 168.69 30.656l-10.031 15.844c-25.891-16.387-88.348-27.75-158.66-27.75-66.621 0-126.39 10.184-154.67 25.426l-8.9062-16.5c31.574-17.023 94.125-27.676 163.57-27.676z"/>
  <path d="m785.61 997.48 8.2305 16.855c-43.273 21.133-113.08 33.789-189 33.789-70.387 0-135.67-10.875-179.4-29.438l7.3125-17.27c41.195 17.477 104.04 27.957 172.09 27.957 73.297 0 140.38-12.168 180.77-31.895z"/>
  <path d="m503.21 204.32c17.363 8.2109 59.891 13.984 107.7 13.984 45.355 0 86.043-5.1719 105.13-12.859l6.9961 17.398c-21.77 8.7734-64.578 14.211-112.12 14.211-50.363 0-95.195-6.0938-115.71-15.785z"/>
 </g>
</svg>
