<?xml version="1.0" encoding="UTF-8"?>
<svg width="1200pt" height="1200pt" version="1.1" viewBox="0 0 1200 1200" xmlns="http://www.w3.org/2000/svg">
 <g>
  <path d="m10 564c-0.066406 100.22 32.102 197.81 91.758 278.34 59.652 80.535 143.62 139.75 239.52 168.89 95.891 29.148 198.61 26.68 293-7.0352 94.379-33.719 175.41-96.895 231.13-180.2h78.602c64.801-0.82422 126.67-27.148 172.2-73.262 45.531-46.117 71.062-108.31 71.062-173.12 0-64.809-25.531-127-71.062-173.12-45.531-46.117-107.4-72.438-172.2-73.266h-181.2c-0.39844 0-0.76172 0.19922-1.1602 0.19922l-721.64 0.003906c-7.957 0-15.586 3.1602-21.215 8.7852-5.625 5.625-8.7852 13.258-8.7852 21.215zm1120 13.52c0.24219 32.75-8.2109 64.977-24.492 93.391-16.277 28.418-39.809 52.004-68.18 68.359-28.375 16.352-60.578 24.887-93.328 24.73h-44.961c29.918-62.434 45.484-130.77 45.562-200v-172.88c49.254 0.26172 96.402 20.012 131.14 54.934 34.738 34.918 54.242 82.168 54.254 131.43zm-798-65.52 54.48 25.801v108.56h-108v-108.72zm-262-120.72h232v68.48l-53.16 25.52c-9.0898 4.3984-16.762 11.27-22.137 19.82-5.375 8.5508-8.2383 18.438-8.2617 28.539v118.96c0.007813 14.211 5.6523 27.84 15.691 37.902 10.039 10.062 23.656 15.734 37.867 15.777h120.8c14.234-0.011719 27.879-5.6719 37.945-15.734 10.062-10.066 15.723-23.715 15.734-37.945v-118.92c-0.027344-10.145-2.9219-20.078-8.3477-28.648-5.4297-8.5703-13.172-15.43-22.332-19.793l-53.879-25.559v-68.398h522.68v172.72c-1.0664 107.32-44.445 209.89-120.71 285.41-76.266 75.516-179.26 117.88-286.59 117.88s-210.32-42.363-286.59-117.88c-76.266-75.516-119.65-178.08-120.71-285.41z"/>
  <path d="m943.44 1160c0-7.957-3.1641-15.586-8.7891-21.215-5.625-5.625-13.254-8.7852-21.211-8.7852h-792.28c-10.719 0-20.621 5.7188-25.98 15-5.3594 9.2812-5.3594 20.719 0 30 5.3594 9.2812 15.262 15 25.98 15h792.28c7.957 0 15.586-3.1602 21.211-8.7852 5.625-5.6289 8.7891-13.258 8.7891-21.215z"/>
  <path d="m352.96 214.2c4.957 6.2109 12.176 10.199 20.074 11.094 7.8984 0.89062 15.824-1.3867 22.043-6.332 18.82-13.129 31.184-33.621 34.02-56.391 2.8359-22.766-4.1172-45.668-19.137-63.012-9.8008-12.801-12-22.801 4.5195-36 8.4023-6.6875 12.598-17.348 11.008-27.969-1.5898-10.621-8.7266-19.59-18.719-23.523-9.9922-3.9297-21.328-2.2344-29.73 4.4531-18.836 13.133-31.211 33.648-34.039 56.434-2.832 22.789 4.1484 45.707 19.199 63.047 9.7617 12.801 12 22.801-4.5195 36-6.2383 4.9609-10.242 12.199-11.125 20.121-0.88672 7.918 1.418 15.863 6.4062 22.078z"/>
  <path d="m535.4 214.2c4.9688 6.2148 12.195 10.203 20.098 11.098 7.9023 0.89062 15.84-1.3867 22.062-6.3359 18.812-13.133 31.168-33.633 33.996-56.398 2.832-22.766-4.1328-45.664-19.156-63.004-9.7617-12.801-12-22.801 4.5195-36h0.003906c8.4023-6.6797 12.602-17.336 11.016-27.953-1.582-10.617-8.7109-19.582-18.699-23.52s-21.316-2.2461-29.719 4.4336c-18.848 13.125-31.23 33.641-34.059 56.43-2.832 22.793 4.1562 45.715 19.219 63.051 9.7617 12.801 12 22.801-4.5586 36-6.2383 4.9609-10.242 12.199-11.129 20.121-0.88672 7.918 1.4219 15.863 6.4062 22.078z"/>
 </g>
</svg>
