<?xml version="1.0" encoding="UTF-8"?>
<svg width="1200pt" height="1200pt" version="1.1" viewBox="0 0 1200 1200" xmlns="http://www.w3.org/2000/svg">
 <path d="m1125.6 769.2c-3.6016-12-15.602-19.199-27.602-15.602l-97.199 26.402-96-52.801 117.6-68.398c10.801-6 14.398-19.199 8.3984-30s-19.199-14.398-30-8.3984l-140.4 81.602-217.2-120 204-138 138 80.398c3.6016 2.3984 7.1992 3.6016 10.801 3.6016 7.1992 0 14.398-3.6016 19.199-10.801 6-10.801 2.3984-24-8.3984-30l-120-69.602 94.801-63.602 105.6 30c2.3984 0 3.6016 1.1992 6 1.1992 9.6016 0 18-6 21.602-15.602 3.6016-12-3.6016-24-15.602-27.602l-69.602-19.199 57.602-38.398c9.6016-7.1992 13.199-20.398 6-31.199-7.1992-9.6016-20.398-13.199-31.199-6l-50.398 33.602 14.398-61.199c2.3984-12-4.8008-24-16.801-26.398-12-2.3984-24 4.8008-26.398 16.801l-25.199 108-91.199 61.199-8.3984-134.4c-1.1992-12-10.801-21.602-22.801-20.398-12 1.1992-21.602 10.801-20.398 22.801l9.6016 160.8-201.61 134.39v-267.6l139.2-87.602c10.801-6 13.199-20.398 7.1992-30-6-10.801-20.398-13.199-30-7.1992l-116.4 72v-94.801l82.801-74.398c9.6016-8.3984 9.6016-21.602 1.1992-31.199-8.3984-9.6016-21.602-9.6016-31.199-1.1992l-52.801 48v-31.203c0-12-9.6016-21.602-21.602-21.602s-21.602 9.6016-21.602 21.602v31.199l-51.602-46.801c-9.5977-9.5977-23.996-8.3984-32.395 0.003906-8.3984 8.3984-7.1992 22.801 1.1992 31.199l81.602 74.398v94.801l-123.6-73.199c-10.801-6-24-2.3984-30 7.1992-6 10.801-2.3984 24 7.1992 30l146.4 86.398v273.6l-190.8-105.6 12-157.2c1.1992-12-8.3984-22.801-20.398-24s-22.801 8.3984-24 20.398l-9.6016 136.8-109.2-60-33.602-103.2c-3.6016-12-16.801-18-27.602-14.398-12 3.6016-18 16.801-14.398 27.602l19.199 58.801-46.801-25.199c-10.801-6-24-2.3984-30 8.3984-6 10.801-2.3984 24 8.3984 30l45.602 25.199-73.195 18c-12 2.3984-19.199 14.398-15.602 26.398 2.3984 9.6016 12 16.801 21.602 16.801h4.8008l120-27.602 106.8 58.801-115.2 70.801c-10.801 6-13.199 20.398-7.1992 30 3.6016 7.1992 12 10.801 19.199 10.801 3.6016 0 8.3984-1.1992 12-3.6016l136.8-84 190.8 105.6-168 112.8-150-75.602c-10.801-6-24-1.1992-30 9.6016-6 10.801-1.1992 24 9.6016 30l127.2 63.602-116.4 77.996-120-21.602c-12-2.3984-24 6-25.199 18-2.3984 12 6 24 18 25.199l74.398 13.199-51.602 34.801c-9.6016 7.1992-13.199 20.398-6 31.199 4.8008 6 10.801 9.6016 18 9.6016 4.8008 0 8.3984-1.1992 12-3.6016l46.801-31.199-21.602 74.398c-3.6016 12 3.6016 24 15.602 27.602 2.3984 0 3.6016 1.1992 6 1.1992 9.6016 0 18-6 21.602-15.602l36-124.8 111.6-74.398-10.801 142.8c-1.1992 12 8.3984 22.801 20.398 24h1.1992c12 0 21.602-8.3984 21.602-20.398l13.199-177.6 166.8-112.8v252l-145.2 74.398c-10.801 6-15.602 19.199-9.6016 30 6 10.801 19.199 15.602 30 9.6016l124.8-63.602v108l-92.398 104.4c-8.3984 9.6016-7.1992 22.801 2.3984 31.199 9.6016 8.3984 22.801 7.1992 31.199-2.3984l58.801-67.199v63.602c0 12 9.6016 21.602 21.602 21.602s21.602-9.6016 21.602-21.602v-61.199l55.199 64.801c4.8008 4.8008 10.801 7.1992 16.801 7.1992 4.8008 0 9.6016-1.1992 14.398-4.8008 9.6016-8.3984 10.801-21.602 2.3984-31.199l-88.801-104.4v-104.4l117.6 60c3.6016 1.1992 7.1992 2.3984 9.6016 2.3984 8.3984 0 15.602-4.8008 19.199-12 6-10.801 1.1992-24-9.6016-30l-138-69.602v-259.2l214.8 118.8-7.1992 160.8c0 12 8.3984 22.801 21.602 22.801h1.1992c12 0 21.602-9.6016 21.602-21.602l6-139.2 98.398 54 30 116.4c2.3984 9.6016 12 16.801 21.602 16.801 1.1992 0 3.6016 0 6-1.1992 12-3.6016 19.199-15.602 15.602-26.398l-18.004-75.605 45.602 25.199c3.6016 2.3984 7.1992 2.3984 10.801 2.3984 7.1992 0 15.602-3.6016 19.199-10.801 6-10.801 2.3984-24-8.3984-30l-43.199-24 54-14.398c11.996-2.3984 19.195-14.398 15.598-26.398z"/>
</svg>
