<?xml version="1.0" encoding="UTF-8"?>
<svg width="1200pt" height="1200pt" version="1.1" viewBox="0 0 1200 1200" xmlns="http://www.w3.org/2000/svg">
 <g>
  <path d="m733.06 946.88h-697.38c-9.4609-0.007812-18.535-3.7695-25.227-10.461-6.6914-6.6914-10.453-15.766-10.461-25.227v-622.38c0.0078125-9.4609 3.7695-18.535 10.461-25.227 6.6914-6.6914 15.766-10.453 25.227-10.461h697.38c9.4609 0.007812 18.535 3.7695 25.227 10.461 6.6914 6.6914 10.453 15.766 10.461 25.227v622.38c-0.007812 9.4609-3.7695 18.535-10.461 25.227-6.6914 6.6914-15.766 10.453-25.227 10.461zm-695.56-37.5h693.75v-618.75h-693.75z"/>
  <path d="m1181.2 890.62h-431.25c-6.6992 0-12.887-3.5742-16.238-9.375-3.3477-5.8008-3.3477-12.949 0-18.75 3.3516-5.8008 9.5391-9.375 16.238-9.375h412.5v-506.25h-412.5c-6.6992 0-12.887-3.5742-16.238-9.375-3.3477-5.8008-3.3477-12.949 0-18.75 3.3516-5.8008 9.5391-9.375 16.238-9.375h431.25c4.9727-0.003906 9.7461 1.9727 13.262 5.4883s5.4922 8.2891 5.4883 13.262v543.75c0.003906 4.9727-1.9727 9.7461-5.4883 13.262s-8.2891 5.4922-13.262 5.4883z"/>
  <path d="m1107.4 834.38h-58.633c-9.625-0.015625-18.852-3.8438-25.66-10.648-6.8047-6.8086-10.637-16.035-10.648-25.66v-396.13c0.015625-9.625 3.8438-18.852 10.648-25.66 6.8086-6.8047 16.035-10.637 25.66-10.648h58.633c9.625 0.015625 18.852 3.8438 25.66 10.648 6.8047 6.8086 10.637 16.035 10.648 25.66v396.13c-0.015625 9.625-3.8438 18.852-10.648 25.66-6.8086 6.8047-16.035 10.637-25.66 10.648zm-1.1914-432.44-57.441 1.1914 1.1914 394.94 56.25-1.1719z"/>
  <path d="m957.44 834.36h-58.633c-9.6289-0.015625-18.859-3.8477-25.664-10.656-6.8086-6.8125-10.633-16.043-10.645-25.672v-396.11c0.011719-9.625 3.8438-18.852 10.648-25.656 6.8086-6.8086 16.035-10.637 25.66-10.652h58.633c9.625 0.015625 18.852 3.8438 25.66 10.652 6.8047 6.8047 10.637 16.031 10.648 25.66v396.11-0.003906c-0.011719 9.6289-3.8398 18.863-10.645 25.672-6.8086 6.8086-16.035 10.641-25.664 10.656zm-1.1914-432.44-57.441 1.1914 1.1914 394.92 56.25-1.1523z"/>
  <path d="m807.37 834.38h-57.367c-6.6992 0-12.887-3.5742-16.238-9.375-3.3477-5.8008-3.3477-12.949 0-18.75 3.3516-5.8008 9.5391-9.375 16.238-9.375h57.367l-1.1172-394.87-56.25 1.1172c-6.6992 0-12.887-3.5742-16.238-9.375-3.3477-5.8008-3.3477-12.949 0-18.75 3.3516-5.8008 9.5391-9.375 16.238-9.375h57.367c9.6484 0.007812 18.895 3.8438 25.719 10.664 6.8203 6.8242 10.656 16.07 10.664 25.719v395.98c-0.007812 9.6484-3.8438 18.895-10.664 25.719-6.8242 6.8203-16.07 10.656-25.719 10.664z"/>
  <path d="m416.05 421.69h-100.84c-13.262 0.17578-26.262-3.7383-37.223-11.207l-15.418-10.949c-11.711-7.3398-18.82-20.188-18.824-34.008-0.003906-13.816 7.1016-26.668 18.805-34.016l15.418-10.949c10.969-7.4531 23.961-11.363 37.227-11.207h100.86-0.003907c13.262-0.16406 26.25 3.7578 37.207 11.227l15.418 10.93c11.715 7.3438 18.828 20.199 18.824 34.027-0.003906 13.824-7.125 26.676-18.844 34.016l-15.383 10.93h0.003906c-10.965 7.4648-23.961 11.379-37.227 11.207zm-131.78-59.602c-2.4883 1.7578-3.0195 3.168-3.0195 3.4258s0.53125 1.668 3.0391 3.4414l15.398 10.949c4.6445 2.9258 10.043 4.418 15.527 4.2852h100.84c5.4844 0.125 10.887-1.3633 15.527-4.2852l15.379-10.949c2.5117-1.7773 3.043-3.168 3.043-3.4219 0-0.25781-0.53125-1.668-3.0391-3.4414l-15.398-10.93v-0.003906c-4.6328-2.9336-10.031-4.4297-15.512-4.3047h-100.86 0.003907c-5.4922-0.12109-10.898 1.375-15.547 4.3047z"/>
  <path d="m465.55 373.88c-4.75 0-9.3242-1.8047-12.793-5.0469-3.4727-3.2461-5.582-7.6836-5.9062-12.422-0.32422-4.7383 1.1641-9.4258 4.1602-13.109l21.938-26.988h-0.003906c3.1328-3.875 7.6797-6.3438 12.637-6.8633 4.9531-0.51562 9.9102 0.95703 13.777 4.0977 3.8672 3.1445 6.3242 7.6953 6.832 12.652s-0.98047 9.9102-4.1289 13.77l-21.938 26.988c-3.5664 4.3867-8.9219 6.9297-14.574 6.9219z"/>
  <path d="m487.34 421.89c-5.6523 0.007813-11.008-2.5352-14.574-6.9219l-8.3672-10.18c-4.6328-5.6016-9.2461-11.188-13.715-16.848h-0.003907c-4.1523-5.2539-5.1875-12.324-2.7148-18.547 2.4727-6.2227 8.0742-10.656 14.703-11.629 6.625-0.96875 13.266 1.668 17.422 6.9219 4.3047 5.4375 8.7539 10.82 13.219 16.203l8.5703 10.418v0.003906c2.9961 3.6836 4.4805 8.3672 4.1562 13.105-0.32422 4.7422-2.4336 9.1797-5.9023 12.422-3.4727 3.2422-8.043 5.0469-12.793 5.0508z"/>
  <path d="m484.31 496.88h-218.62c-25.703-0.03125-50.34-10.254-68.512-28.426s-28.395-42.809-28.426-68.512v-128.06c0-6.6992 3.5742-12.887 9.375-16.238 5.8008-3.3477 12.949-3.3477 18.75 0 5.8008 3.3516 9.375 9.5391 9.375 16.238v128.06c0.015625 15.758 6.2852 30.867 17.426 42.012 11.145 11.141 26.254 17.41 42.012 17.426h218.62c15.758-0.015625 30.867-6.2852 42.012-17.426 11.141-11.145 17.41-26.254 17.426-42.012v-128.06c0-6.6992 3.5742-12.887 9.375-16.238 5.8008-3.3477 12.949-3.3477 18.75 0 5.8008 3.3516 9.375 9.5391 9.375 16.238v128.06c-0.03125 25.703-10.254 50.34-28.426 68.512s-42.809 28.395-68.512 28.426z"/>
  <path d="m398.49 853.11h-309.48c-8.6836-0.011719-17.008-3.4688-23.148-9.6055-6.1406-6.1406-9.5977-14.465-9.6094-23.148v-65.738c0.011719-8.6836 3.4688-17.008 9.6094-23.148s14.465-9.5977 23.148-9.6094h309.48c8.6836 0.011719 17.008 3.4688 23.148 9.6094s9.5977 14.465 9.6094 23.148v65.738c-0.011719 8.6836-3.4688 17.008-9.6094 23.148-6.1406 6.1367-14.465 9.5938-23.148 9.6055zm-304.74-37.5h300v-56.25h-300z"/>
  <path d="m435.99 759.36h-42.242c-6.6992 0-12.887-3.5742-16.238-9.375-3.3477-5.8008-3.3477-12.949 0-18.75 3.3516-5.8008 9.5391-9.375 16.238-9.375h37.5v-56.25h-300v56.855c5.9336 1.5508 10.73 5.9062 12.852 11.656 2.1211 5.7539 1.293 12.18-2.2109 17.211-3.5078 5.0273-9.25 8.0273-15.383 8.0273-8.6836-0.011719-17.008-3.4688-23.148-9.6055-6.1406-6.1406-9.5977-14.465-9.6094-23.148v-65.738c0.011719-8.6836 3.4688-17.008 9.6094-23.148s14.465-9.5977 23.148-9.6094h309.48c8.6836 0.011719 17.008 3.4688 23.148 9.6094s9.5977 14.465 9.6094 23.148v65.738c-0.011719 8.6836-3.4688 17.008-9.6094 23.148-6.1406 6.1367-14.465 9.5938-23.148 9.6055z"/>
  <path d="m525 571.88h-300c-6.6992 0-12.887-3.5742-16.238-9.375-3.3477-5.8008-3.3477-12.949 0-18.75 3.3516-5.8008 9.5391-9.375 16.238-9.375h300c6.6992 0 12.887 3.5742 16.238 9.375 3.3477 5.8008 3.3477 12.949 0 18.75-3.3516 5.8008-9.5391 9.375-16.238 9.375z"/>
  <path d="m693.75 853.11h-168.75c-6.6992 0-12.887-3.5742-16.238-9.375-3.3477-5.8008-3.3477-12.949 0-18.75 3.3516-5.8008 9.5391-9.375 16.238-9.375h168.75c6.6992 0 12.887 3.5742 16.238 9.375 3.3477 5.8008 3.3477 12.949 0 18.75-3.3516 5.8008-9.5391 9.375-16.238 9.375z"/>
  <path d="m693.75 778.12h-168.75c-6.6992 0-12.887-3.5742-16.238-9.375-3.3477-5.8008-3.3477-12.949 0-18.75 3.3516-5.8008 9.5391-9.375 16.238-9.375h168.75c6.6992 0 12.887 3.5742 16.238 9.375 3.3477 5.8008 3.3477 12.949 0 18.75-3.3516 5.8008-9.5391 9.375-16.238 9.375z"/>
  <path d="m693.75 703.12h-168.75c-6.6992 0-12.887-3.5742-16.238-9.375-3.3477-5.8008-3.3477-12.949 0-18.75 3.3516-5.8008 9.5391-9.375 16.238-9.375h168.75c6.6992 0 12.887 3.5742 16.238 9.375 3.3477 5.8008 3.3477 12.949 0 18.75-3.3516 5.8008-9.5391 9.375-16.238 9.375z"/>
  <path d="m150 496.88h-75c-6.6992 0-12.887-3.5742-16.238-9.375-3.3477-5.8008-3.3477-12.949 0-18.75 3.3516-5.8008 9.5391-9.375 16.238-9.375h75c6.6992 0 12.887 3.5742 16.238 9.375 3.3477 5.8008 3.3477 12.949 0 18.75-3.3516 5.8008-9.5391 9.375-16.238 9.375z"/>
  <path d="m693.75 496.88h-93.75c-6.6992 0-12.887-3.5742-16.238-9.375-3.3477-5.8008-3.3477-12.949 0-18.75 3.3516-5.8008 9.5391-9.375 16.238-9.375h93.75c6.6992 0 12.887 3.5742 16.238 9.375 3.3477 5.8008 3.3477 12.949 0 18.75-3.3516 5.8008-9.5391 9.375-16.238 9.375z"/>
 </g>
</svg>
