<?xml version="1.0" encoding="UTF-8"?>
<svg width="1200pt" height="1200pt" version="1.1" viewBox="0 0 1200 1200" xmlns="http://www.w3.org/2000/svg">
 <g>
  <path d="m136.76 1157 37.48 37.48c3.6562 3.6602 8.457 5.4961 13.258 5.4961s9.6016-1.8359 13.258-5.4922l24.242-24.246 24.242 24.242c3.6562 3.6602 8.457 5.4961 13.258 5.4961s9.6016-1.8359 13.258-5.4922l24.242-24.246 24.242 24.242c3.6562 3.6602 8.457 5.4961 13.258 5.4961s9.6016-1.8359 13.258-5.4922l24.242-24.246 24.242 24.242c3.6562 3.6602 8.457 5.4961 13.258 5.4961s9.6016-1.8359 13.258-5.4922l24.242-24.246 24.242 24.242c3.6562 3.6602 8.457 5.4961 13.258 5.4961s9.6016-1.8359 13.258-5.4922l24.242-24.246 24.242 24.242c3.6562 3.6602 8.457 5.4961 13.258 5.4961s9.6016-1.8359 13.258-5.4922l24.242-24.246 24.242 24.242c3.6562 3.6602 8.457 5.4961 13.258 5.4961s9.6016-1.8359 13.258-5.4922l24.242-24.246 24.242 24.242c3.6562 3.6602 8.457 5.4961 13.258 5.4961s9.6016-1.8359 13.258-5.4922l24.242-24.246 24.242 24.242c3.6562 3.6602 8.457 5.4961 13.258 5.4961s9.6016-1.8359 13.258-5.4922l24.242-24.246 24.242 24.242c3.6562 3.6602 8.457 5.4961 13.258 5.4961s9.6016-1.8359 13.258-5.4922l24.242-24.246 24.242 24.242c3.6562 3.6602 8.457 5.4961 13.258 5.4961s9.6016-1.8359 13.258-5.4922l24.242-24.246 24.242 24.242c3.6562 3.6602 8.457 5.4961 13.258 5.4961s9.6016-1.8359 13.258-5.4922l37.48-37.48c1.7422-1.7266 3.1133-3.8047 4.0703-6.1133 0.95312-2.2891 1.4414-4.7266 1.4414-7.1641v-1087.5c0-2.4375-0.48828-4.875-1.4453-7.1641-0.95703-2.3047-2.3242-4.3672-4.0703-6.1133l-37.48-37.5c-7.332-7.332-19.18-7.332-26.512 0l-24.242 24.266-24.242-24.242c-7.332-7.332-19.18-7.332-26.512 0l-24.246 24.242-24.242-24.242c-7.332-7.332-19.18-7.332-26.512 0l-24.246 24.242-24.242-24.242c-7.332-7.332-19.18-7.332-26.512 0l-24.246 24.242-24.242-24.242c-7.332-7.332-19.18-7.332-26.512 0l-24.246 24.242-24.242-24.242c-7.332-7.332-19.18-7.332-26.512 0l-24.246 24.242-24.242-24.242c-7.332-7.332-19.18-7.332-26.512 0l-24.246 24.242-24.242-24.242c-7.332-7.332-19.18-7.332-26.512 0l-24.246 24.242-24.242-24.242c-7.332-7.332-19.18-7.332-26.512 0l-24.246 24.242-24.242-24.242c-7.332-7.332-19.18-7.332-26.512 0l-24.246 24.242-24.242-24.242c-7.332-7.332-19.18-7.332-26.512 0l-24.246 24.242-24.242-24.242c-7.332-7.332-19.18-7.332-26.512 0l-37.48 37.5c-1.7461 1.7227-3.1172 3.7852-4.0703 6.0898-0.95703 2.2891-1.4453 4.7266-1.4453 7.1641v1087.5c0 2.4375 0.48828 4.875 1.4453 7.1641 0.95313 2.3047 2.3242 4.3867 4.0664 6.1094zm50.738-1111.8 24.242 24.242c3.6562 3.6602 8.457 5.4961 13.258 5.4961s9.6016-1.8359 13.258-5.4922l24.242-24.246 24.242 24.242c3.6562 3.6602 8.457 5.4961 13.258 5.4961s9.6016-1.8359 13.258-5.4922l24.242-24.246 24.242 24.242c3.6562 3.6602 8.457 5.4961 13.258 5.4961s9.6016-1.8359 13.258-5.4922l24.242-24.246 24.242 24.242c3.6562 3.6602 8.457 5.4961 13.258 5.4961s9.6016-1.8359 13.258-5.4922l24.242-24.246 24.242 24.242c3.6562 3.6602 8.457 5.4961 13.258 5.4961s9.6016-1.8359 13.258-5.4922l24.242-24.246 24.242 24.242c3.6562 3.6602 8.457 5.4961 13.258 5.4961s9.6016-1.8359 13.258-5.4922l24.242-24.246 24.242 24.242c3.6562 3.6602 8.457 5.4961 13.258 5.4961s9.6016-1.8359 13.258-5.4922l24.242-24.246 24.242 24.242c3.6562 3.6602 8.457 5.4961 13.258 5.4961s9.6016-1.8359 13.258-5.4922l24.242-24.246 24.242 24.242c3.6562 3.6602 8.457 5.4961 13.258 5.4961s9.6016-1.8359 13.258-5.4922l24.242-24.246 24.242 24.242c3.6562 3.6602 8.457 5.4961 13.258 5.4961s9.6016-1.8359 13.258-5.4922l24.242-24.246 24.242 24.242c3.6562 3.6602 8.457 5.4961 13.258 5.4961s9.6016-1.8359 13.258-5.4922l24.242-24.246 18.75 18.75v10.988h-862.5v-10.988zm825 1109.5-24.242-24.242c-3.6367-3.6367-8.3984-5.457-13.164-5.4766h56.156v10.969zm-75 0-24.242-24.242c-3.6367-3.6367-8.3984-5.457-13.164-5.4766h74.812c-4.7617 0.019531-9.5234 1.8359-13.164 5.4766zm-75 0-24.242-24.242c-3.6367-3.6367-8.3984-5.457-13.164-5.4766h74.812c-4.7617 0.019531-9.5234 1.8359-13.164 5.4766zm-75 0-24.242-24.242c-3.6367-3.6367-8.3984-5.457-13.164-5.4766h74.812c-4.7617 0.019531-9.5234 1.8359-13.164 5.4766zm-75 0-24.242-24.242c-3.6367-3.6367-8.3984-5.457-13.164-5.4766h74.812c-4.7617 0.019531-9.5234 1.8359-13.164 5.4766zm-75 0-24.242-24.242c-3.6367-3.6367-8.3984-5.457-13.164-5.4766h74.812c-4.7617 0.019531-9.5234 1.8359-13.164 5.4766zm-75 0-24.242-24.242c-3.6367-3.6367-8.3984-5.457-13.164-5.4766h74.812c-4.7617 0.019531-9.5234 1.8359-13.164 5.4766zm-75 0-24.242-24.242c-3.6367-3.6367-8.3984-5.457-13.164-5.4766h74.812c-4.7617 0.019531-9.5234 1.8359-13.164 5.4766zm-75 0-24.242-24.242c-3.6367-3.6367-8.3984-5.457-13.164-5.4766h74.812c-4.7617 0.019531-9.5234 1.8359-13.164 5.4766zm-75 0-24.242-24.242c-3.6367-3.6367-8.3984-5.457-13.164-5.4766h74.812c-4.7617 0.019531-9.5234 1.8359-13.164 5.4766zm-75 0-24.242-24.242c-3.6367-3.6367-8.3984-5.457-13.164-5.4766h74.812c-4.7617 0.019531-9.5234 1.8359-13.164 5.4766zm-75 0-18.75-18.75v-10.969h56.156c-4.7617 0.019531-9.5234 1.8359-13.164 5.4766zm-18.75-67.219v-975.02h862.5v975.02z"/>
  <path d="m224.89 750.07c0 62.043 50.457 112.5 112.5 112.5s112.5-50.457 112.5-112.5c0-0.039063-0.019531-0.054688-0.019531-0.09375v-149.85c0-0.039062 0.019531-0.054687 0.019531-0.09375 0-62.043-50.457-112.5-112.5-112.5s-112.5 50.457-112.5 112.5c0 0.039063 0.019531 0.054688 0.019531 0.09375v149.85c0 0.039062-0.019531 0.058593-0.019531 0.09375zm112.5-225.04c41.344 0 74.961 33.602 75 74.945 0 0.019531-0.019531 0.039063-0.019531 0.054687v131.36c-10.367 0-18.75 8.3828-18.75 18.75 0 9.4688 7.125 16.969 16.238 18.242-8.2305 32.477-37.461 56.68-72.469 56.68-41.363 0-75-33.637-75-74.98 0-0.039062 0.019531-0.054688 0.019531-0.09375v-131.21c10.367 0 18.75-8.3984 18.75-18.75 0-9.4688-7.125-16.988-16.258-18.242 8.1953-32.535 37.465-56.758 72.488-56.758z"/>
  <path d="m375.39 618.75c10.352 0 18.75-8.3984 18.75-18.75s-8.3984-18.75-18.75-18.75h-0.20703c-10.352 0-18.637 8.3984-18.637 18.75s8.4727 18.75 18.844 18.75z"/>
  <path d="m337.86 693.82c10.352 0 18.75-8.3828 18.75-18.75 0-10.367-8.3984-18.75-18.75-18.75h-0.20703c-10.352 0-18.637 8.3828-18.637 18.75 0 10.371 8.4766 18.75 18.844 18.75z"/>
  <path d="m300.32 768.9c10.352 0 18.75-8.3828 18.75-18.75 0-10.367-8.3984-18.75-18.75-18.75h-0.20703c-10.352 0-18.637 8.3828-18.637 18.75 0 10.371 8.4727 18.75 18.844 18.75z"/>
  <path d="m956.48 543.79c-0.019531 0-0.019531 0 0 0-7.0508 0-14.023 0.67578-20.98 1.3672-7.8945-32.961-37.406-57.617-72.77-57.617-35.25 0-64.668 24.523-72.676 57.32-6.9375-0.71094-13.969-1.0703-21.094-1.0703-10.367 0-18.75 8.3984-18.75 18.75v187.55c0 0.039062 0.019531 0.074219 0.019531 0.13281 0.074219 61.969 50.492 112.37 112.5 112.37 62.043 0 112.5-50.457 112.5-112.5v-187.55c0-10.352-8.4023-18.75-18.75-18.75zm-56.121 47.418c12.094-4.2578 24.582-7.2734 37.367-8.6992v49.352c-10.648-15.133-23.152-28.859-37.367-40.652zm-37.629-66.168c17.102 0 31.406 11.57 35.887 27.242-12.336 3.6016-24.242 8.5117-35.738 14.363-11.418-5.8867-23.457-10.762-36.02-14.438 4.5195-15.637 18.809-27.168 35.871-27.168zm0 300.05c-41.363 0-75-33.637-75-75 0-0.039062-0.019531-0.054688-0.019531-0.09375v-167.61c84.242 9.375 150 80.98 150 167.7 0 0.019531 0.019531 0.039062 0.019531 0.054688-0.039062 41.344-33.656 74.945-75 74.945z"/>
  <path d="m487.41 600c0 31.688 34.594 262.71 112.52 262.71s112.52-231.02 112.52-262.71c0-54.676-39.227-100.31-90.977-110.4 7.1445-22.875 28.258-39.617 53.457-39.617 10.367 0 18.75-8.3984 18.75-18.75s-8.3828-18.75-18.75-18.75c-30.789 0-57.898 15.113-75 38.082-17.102-22.969-44.211-38.082-75-38.082-10.367 0-18.75 8.3984-18.75 18.75s8.3828 18.75 18.75 18.75c25.199 0 46.312 16.762 53.457 39.617-51.75 10.086-90.977 55.723-90.977 110.4zm112.52-75.02c41.363 0 75.02 33.656 75.02 75.02 0 24.281-5.8672 58.969-14.57 93.824h-22.969c-10.367 0-18.75 8.3828-18.75 18.75 0 10.367 8.3828 18.75 18.75 18.75h12.508c-15.77 50.867-35.699 93.883-49.988 93.883-24.938 0-67.273-131.01-74.008-206.46h17.758c10.367 0 18.75-8.3984 18.75-18.75s-8.3828-18.75-18.75-18.75h-16.105c8.3789-32.27 37.516-56.27 72.355-56.27z"/>
  <path d="m956.48 938.04h-712.84c-10.367 0-18.75 8.3828-18.75 18.75 0 10.367 8.3828 18.75 18.75 18.75h712.84c10.367 0 18.75-8.3828 18.75-18.75 0.003906-10.367-8.3984-18.75-18.746-18.75z"/>
  <path d="m824.93 994.31h-449.74c-10.367 0-18.75 8.3828-18.75 18.75s8.3828 18.75 18.75 18.75h449.74c10.367 0 18.75-8.3828 18.75-18.75s-8.3828-18.75-18.75-18.75z"/>
  <path d="m468.73 318.77h262.37c0.039063 0 0.054688 0.019531 0.09375 0.019531 41.363 0 75-33.637 75-75 0-41.363-33.637-75-75-75h-262.37c-0.039063 0-0.054688-0.019531-0.09375-0.019531-41.363 0-75 33.637-75 75s33.637 75 75 75zm-0.054688-112.5h0.054688 262.46c20.68 0 37.5 16.82 37.5 37.5 0 20.664-16.801 37.461-37.445 37.5h-0.054688-262.46c-20.68 0-37.5-16.82-37.5-37.5 0-20.664 16.801-37.465 37.445-37.5z"/>
  <path d="m468.73 262.5h262.46c10.367 0 18.75-8.3984 18.75-18.75s-8.3828-18.75-18.75-18.75h-262.46c-10.367 0-18.75 8.3984-18.75 18.75s8.3828 18.75 18.75 18.75z"/>
  <path d="m263.02 262.46c10.352 0 18.75-8.3984 18.75-18.75 0-10.352-8.3984-18.75-18.75-18.75h-0.20703c-10.352 0-18.637 8.3984-18.637 18.75 0 10.352 8.4961 18.75 18.844 18.75z"/>
  <path d="m337.86 262.46c10.352 0 18.75-8.3984 18.75-18.75 0-10.352-8.3984-18.75-18.75-18.75h-0.20703c-10.352 0-18.637 8.3984-18.637 18.75 0 10.352 8.4766 18.75 18.844 18.75z"/>
  <path d="m882.39 262.46c10.352 0 18.75-8.3984 18.75-18.75 0-10.352-8.3984-18.75-18.75-18.75h-0.20703c-10.352 0-18.637 8.3984-18.637 18.75 0 10.352 8.4727 18.75 18.844 18.75z"/>
  <path d="m957.21 262.46c10.352 0 18.75-8.3984 18.75-18.75 0-10.352-8.3984-18.75-18.75-18.75h-0.20703c-10.352 0-18.637 8.3984-18.637 18.75 0 10.352 8.4727 18.75 18.844 18.75z"/>
 </g>
</svg>
