<?xml version="1.0" encoding="UTF-8"?>
<svg width="1200pt" height="1200pt" version="1.1" viewBox="0 0 1200 1200" xmlns="http://www.w3.org/2000/svg">
 <g>
  <path d="m1073.5 615.71c11.688-20.719 16.258-44.703 13.008-68.27-3.2461-23.57-14.133-45.422-30.992-62.211l-96.977-96.977 0.003906 0.003906c-20.492-20.496-48.289-32.008-77.27-32.008s-56.777 11.512-77.27 32.008l-63.355 63.355-63.355-63.355c-20.492-20.496-48.289-32.008-77.27-32.008s-56.777 11.512-77.27 32.008l-63.355 63.355-63.355-63.355c-20.492-20.496-48.289-32.008-77.27-32.008s-56.777 11.512-77.27 32.008l-96.973 96.973c-16.859 16.789-27.746 38.641-30.992 62.211-3.25 23.566 1.3203 47.551 13.008 68.27l-57.016 57.02c-20.496 20.492-32.008 48.289-32.008 77.27s11.512 56.777 32.008 77.27l35.23 35.23h-48.488c-5.8828 0.003906-11.422 2.7656-14.965 7.4648-3.543 4.6992-4.6719 10.785-3.0547 16.441l75 262.5c1.1211 3.9141 3.4844 7.3594 6.7344 9.8125 3.2539 2.4531 7.2148 3.7812 11.285 3.7812h937.5c4.0703 0 8.0312-1.3281 11.285-3.7812 3.25-2.4531 5.6133-5.8984 6.7344-9.8125l75-262.5c1.6172-5.6562 0.48828-11.742-3.0547-16.441-3.543-4.6992-9.082-7.4609-14.965-7.4648h-48.488l35.23-35.23c20.496-20.492 32.008-48.289 32.008-77.27s-11.512-56.777-32.008-77.27zm-242.98-200.94c13.676-13.051 31.855-20.332 50.758-20.332s37.082 7.2812 50.758 20.332l96.977 96.977-0.003906-0.003906c9.7773 9.6953 16.527 22.02 19.43 35.477 2.8984 13.461 1.8242 27.473-3.0977 40.332l-11.793-11.793c-20.492-20.496-48.289-32.008-77.27-32.008s-56.777 11.512-77.27 32.008l-100.86 100.86-100.86-100.86c-1.293-1.3125-2.7188-2.457-4.0703-3.75zm-267.99 447.73c0.085938-29-11.441-56.824-32.008-77.27l-81.75-81.75c1.1992-1.4062 2.2109-2.9258 3.5234-4.2383l96.977-96.977v0.003906c13.676-13.051 31.855-20.332 50.758-20.332s37.082 7.2812 50.758 20.332l209.47 209.47c13.512 13.43 21.078 31.711 21.02 50.758zm-13.258-447.73c13.676-13.051 31.855-20.332 50.758-20.332s37.082 7.2812 50.758 20.332l63.355 63.355-73.461 73.461h-0.003906c-19.863-7.957-41.625-9.9062-62.586-5.6094-20.961 4.2969-40.199 14.652-55.332 29.781l-96.977 96.977c-1.3125 1.3125-2.3047 2.8672-3.543 4.2188l-67.5-67.5zm-399.24 147.73c-0.058594-19.047 7.5078-37.328 21.02-50.758l96.977-96.977-0.003906 0.003906c13.676-13.051 31.855-20.332 50.758-20.332s37.082 7.2812 50.758 20.332l63.355 63.355-104.74 104.74-7.1055-7.1055c-20.492-20.496-48.289-32.008-77.27-32.008s-56.777 11.512-77.27 32.008l-11.793 11.793c-3.043-8.0039-4.6289-16.488-4.6875-25.051zm-53.98 238.26c-13.457-13.465-21.02-31.723-21.02-50.758s7.5625-37.293 21.02-50.758l96.977-96.977-0.003906 0.003906c13.676-13.051 31.855-20.332 50.758-20.332s37.082 7.2812 50.758 20.332l209.47 209.47c13.512 13.43 21.078 31.711 21.02 50.758h-367.24zm958.59 324.24h-909.23l-64.273-225h1037.8zm49.367-324.24-61.742 61.742h-123.49c0.085938-29-11.441-56.824-32.008-77.27l-82.105-82.105 100.86-100.86c13.676-13.051 31.855-20.332 50.758-20.332s37.082 7.2812 50.758 20.332l96.977 96.977-0.003906-0.003906c13.457 13.465 21.02 31.723 21.02 50.758s-7.5625 37.293-21.02 50.758z"/>
  <path d="m225 637.5h37.5v37.5h-37.5z"/>
  <path d="m300 450h37.5v37.5h-37.5z"/>
  <path d="m150 750h37.5v37.5h-37.5z"/>
  <path d="m318.75 768.75h37.5v37.5h-37.5z"/>
  <path d="m543.75 656.25h37.5v37.5h-37.5z"/>
  <path d="m675 768.75h37.5v37.5h-37.5z"/>
  <path d="m918.75 693.75h37.5v37.5h-37.5z"/>
  <path d="m1031.2 768.75h37.5v37.5h-37.5z"/>
  <path d="m600 468.75h37.5v37.5h-37.5z"/>
  <path d="m768.75 562.5h37.5v37.5h-37.5z"/>
  <path d="m862.5 468.75h37.5v37.5h-37.5z"/>
  <path d="m169.3 1017 36.379-9.0977 18.758 74.996-36.379 9.0977z"/>
  <path d="m150.56 942.04 36.379-9.0938 9.375 37.508-36.379 9.0938z"/>
 </g>
</svg>
