<?xml version="1.0" encoding="UTF-8"?>
<svg width="1200pt" height="1200pt" version="1.1" viewBox="0 0 1200 1200" xmlns="http://www.w3.org/2000/svg">
 <g>
  <path d="m1050.2 170.18c-86.934-13.375-174.75-20.117-262.71-20.176h-112.5v0.09375c-87.953 0.003906-175.77 6.7188-262.71 20.082-25.289 3.8828-48.902 15.031-67.973 32.086-19.074 17.059-32.777 39.289-39.445 63.988-51.824 3.2266-103.57 8.5117-155.08 16.426-31.219 4.5312-59.758 20.168-80.383 44.035-20.625 23.871-31.953 54.375-31.91 85.922v9.5234c-0.089844 34.828 13.75 68.246 38.438 92.812l36.562 36.543v479.74c0 4.9727 1.9766 9.7422 5.4922 13.258 3.5156 3.5156 8.2852 5.4922 13.258 5.4922h637.5c14.918 0 29.227-5.9258 39.773-16.477 10.551-10.547 16.477-24.855 16.477-39.773v-56.25h206.25c14.918 0 29.227-5.9258 39.773-16.477 10.551-10.547 16.477-24.855 16.477-39.773v-442.24l36.562-36.543c24.688-24.566 38.527-57.984 38.438-92.812v-9.5234c0.042969-31.547-11.285-62.051-31.91-85.922-20.625-23.867-49.164-39.504-80.383-44.035zm-637.71 842.32h-262.5v-468.75c0-4.9727-1.9766-9.7422-5.4922-13.258l-42.039-42.035c-17.641-17.547-27.531-41.422-27.469-66.301v-9.5234c-0.019531-22.578 8.1094-44.406 22.895-61.473 14.785-17.062 35.23-28.219 57.582-31.418 170.35-26.191 343.7-26.191 514.05 0 22.352 3.1992 42.797 14.355 57.582 31.418 14.785 17.066 22.914 38.895 22.895 61.473v9.5234c0.0625 24.875-9.8203 48.746-27.449 66.301l-42.055 42.039-0.003906-0.003906c-3.5156 3.5156-5.4922 8.2852-5.4922 13.258v468.75zm375-468.75v450c0 4.9727-1.9766 9.7422-5.4922 13.258-3.5156 3.5156-8.2852 5.4922-13.258 5.4922h-56.25v-460.99l36.562-36.543c24.688-24.566 38.527-57.984 38.438-92.812v-9.5234c0.085938-37.52-15.988-73.258-44.117-98.082 12.883 1.6875 25.801 3.2266 38.645 5.1953l-0.003906-0.003906c22.352 3.1992 42.797 14.355 57.582 31.418 14.785 17.066 22.914 38.895 22.895 61.473v9.5234c0.0625 24.875-9.8203 48.746-27.449 66.301l-42.055 42.039-0.003906-0.003906c-3.5156 3.5156-5.4922 8.2852-5.4922 13.258zm37.5 356.25v-348.49l36.562-36.543c24.688-24.566 38.527-57.984 38.438-92.812v-9.5234c0.042969-31.547-11.285-62.051-31.91-85.922-20.625-23.867-49.164-39.504-80.383-44.035-86.934-13.375-174.75-20.117-262.71-20.176h-112.5v0.09375c-22.5 0-45 0.44922-67.5 1.3516 12.824-30.262 40.414-51.719 72.898-56.703 170.35-26.191 343.7-26.191 514.05 0 22.363 3.1836 42.828 14.332 57.629 31.398s22.938 38.902 22.922 61.492v9.5234c0.0625 24.875-9.8203 48.746-27.449 66.301l-42.055 42.039-0.003906-0.003906c-3.5156 3.5156-5.4922 8.2852-5.4922 13.258v468.75zm300-590.34c0.0625 24.875-9.8203 48.746-27.449 66.301l-42.055 42.039-0.003906-0.003906c-3.5156 3.5156-5.4922 8.2852-5.4922 13.258v450c0 4.9727-1.9766 9.7422-5.4922 13.258-3.5156 3.5156-8.2852 5.4922-13.258 5.4922h-56.25v-460.99l36.562-36.543c24.688-24.566 38.527-57.984 38.438-92.812v-9.5234c0.085938-37.52-15.988-73.258-44.117-98.082 12.883 1.6875 25.801 3.2266 38.645 5.1953l-0.003906-0.003906c22.352 3.1992 42.797 14.355 57.582 31.418 14.785 17.066 22.914 38.895 22.895 61.473z"/>
  <path d="m225 618.75h37.5v37.5h-37.5z"/>
  <path d="m562.5 525h37.5v37.5h-37.5z"/>
  <path d="m562.5 825h37.5v37.5h-37.5z"/>
  <path d="m393.75 750h37.5v37.5h-37.5z"/>
  <path d="m300 937.5h37.5v37.5h-37.5z"/>
  <path d="m337.5 412.5h37.5v37.5h-37.5z"/>
 </g>
</svg>
