<?xml version="1.0" encoding="UTF-8"?>
<svg width="1200pt" height="1200pt" version="1.1" viewBox="0 0 1200 1200" xmlns="http://www.w3.org/2000/svg">
 <g>
  <path d="m592.29 592.26c-4.1055 0-7.7539 1.5859-9.9961 4.3555-3.7188 4.5859-4.7539 14.242-6.3828 32.328-0.12109 1.2734-0.22656 2.5547-0.34766 3.8633-0.49219-0.14453-1.0078-0.30078-1.5859-0.46875-3.8984-1.1523-8.7227-2.5938-12.949-3.875-5.7734-1.7656-11.23-2.9883-16.199-3.6484-4.7891-0.63672-9.0117-0.96094-12.551-0.96094-6.2656 0-8.125 0.98438-8.8672 1.3789-0.42188 0.23828-2.6172 1.5586-4.0664 4.0664-1.5117 2.5938-1.7891 5.7109-0.78125 8.7734 1.5703 4.8359 5.7852 7.8242 14.438 12.324-11.051 2.0391-20.23 6.4805-27.336 13.98-11.605 12.266-17.004 37.586-13.754 64.5 6.4922 53.762 45.48 87.156 101.77 87.156 54.926 0 94.379-33.324 102.96-86.953 2.4844-15.551 0.83984-45.203-8.7109-60.445-1.9336-3.0859-6.4688-8.9297-15.156-13.453-5.6758-2.9648-12.695-4.2969-18.562-4.8945 4.8711-3.0234 6.6953-6.0859 8.0508-10.523 1.1406-3.8164-1.1875-7.3906-2.5781-9.5273l-0.23828-0.37109c-2.125-3.2891-6.7422-4.8945-14.125-4.8945-1.9219 0-3.8984 0.12109-5.7344 0.33594-0.78125 0.097656-1.9922 0.22656-3.5273 0.38281-7.4414 0.78125-21.371 2.2578-32.676 4.7539 0.66016-3.8398 1.4883-7.2344 2.2578-10.379 1.6211-6.6602 2.9023-11.914 1.4766-17.16-1.7305-6.2539-7.8242-10.645-14.832-10.645zm86.977 81.812c7.8125 12.457 9.5039 39.504 7.2852 53.41-7.8477 49.066-42.574 78.359-92.879 78.359-50.699 0-85.812-29.953-91.633-78.168-2.8555-23.664 1.5859-46.262 11.027-56.258 7.2617-7.668 17.449-11.473 30.613-11.977-0.058593 0.070313-0.085937 0.10938-0.14453 0.17969-0.81641 1.0312-1.7891 2.2422-2.8672 3.5742-14.555 18.047-21.289 27.77-20.207 34.234 0.34766 2.0898 1.5 3.8398 3.2383 4.9336 1.8477 1.1523 3.9258 1.7383 6.1797 1.7383 5.4102 0 10.57-3.3711 15.121-6.3477 1.0195-0.67188 2.0156-1.3203 2.9766-1.8945 9.625-5.7969 19.57-11.785 25.633-11.785 2.543 0.011719 3.4336 1.4141 4.7773 11.258 0.57422 4.1523 1.2227 8.8555 2.7461 13.367 2.0156 5.9297 7.0781 11.914 13.859 11.914 0.92578 0 1.8711-0.12109 2.7969-0.34766 3.707-0.92578 10.066-4.2617 11.004-16.199l0.13281-1.7539c0.46875-6.0703 0.94922-12.348 2.0742-15.504 0.86328-2.1016 5.6055-2.3281 7.6094-2.3281 12.109 0 30.07 6.7422 33.551 8.1016 4.5 1.7539 7.8008 2.5312 10.727 2.5312 4.8242 0 8.6055-2.2305 10.934-6.457 4.2461-7.6914-6.4805-15.758-15.938-22.871-1.6562-1.2344-3.3594-2.5312-3.9844-3.1094-0.76953-0.71875-1.7656-1.5-2.9023-2.3398 5.5195 0.40625 12.191 1.4023 17.039 3.9258 6.8125 3.5391 10.125 8.0391 11.23 9.8125zm-42.156-38.219c1.6094-0.16797 2.8789-0.30078 3.6953-0.39453 1.4297-0.17969 2.9766-0.26563 4.5-0.26563 3.3477 0 5.1836 0.44531 5.8672 0.70703 0.30078 0.45703 0.79297 1.2109 1.0547 1.7539-0.80469 2.4727-2.0039 4.1172-11.566 7.7891l-0.63672 0.3125c-0.34766 0.14453-0.81641 0.26563-1.3086 0.40625-2.5078 0.73047-6.6953 1.957-8.1367 5.9297-1.8711 5.1836 3.2031 8.6875 10.859 13.992 2.1133 1.4648 4.5117 3.1328 5.4844 4.043 1.0195 0.96094 2.6992 2.2188 4.8242 3.8164 2.9414 2.2188 10.297 7.7383 12.371 10.715-1.1172 0.66016-3.9375 0.070313-8.2578-1.6094-5.3047-2.0625-23.664-8.7969-37.246-8.7969-11.148 0-15.434 4.7148-17.137 8.8672-1.6797 4.6797-2.1953 11.34-2.7344 18.406l-0.13281 1.7266c-0.19141 2.3867-0.86328 6.4805-3.3008 7.0938-0.12109 0.023438-0.21484 0.046875-0.3125 0.046875-1.2617 0-3.3242-2.4727-4.1875-4.9922-1.2109-3.5898-1.7656-7.5977-2.3047-11.473-1.1641-8.4492-2.7461-20.016-14.941-20.074-8.8438 0-19.535 6.4336-30.875 13.262-1.0312 0.625-2.1367 1.3438-3.2773 2.0898-2.4727 1.6211-5.6758 3.7188-8.0625 4.4297 2.9648-6.2773 13.477-19.32 17.281-24.023 1.0938-1.3555 2.0898-2.5781 2.9141-3.6367 2.8438-3.6016 4.1406-5.4844 5.0898-6.8633 0.30078-0.43359 0.5625-0.82812 0.85156-1.2227l3.5391-4.9062-16.691-8.2188c-9-4.4883-15.434-7.8125-16.094-9.8281-0.097656-0.3125-0.097656-0.46875-0.097656-0.46875 0.023437-0.046875 0.058593-0.085938 0.097656-0.13281 0.58984-0.097657 1.8359-0.23828 4.0078-0.23828 3.0977 0 6.8633 0.28906 11.207 0.875 4.4141 0.58984 9.3242 1.6914 14.566 3.2891 4.2461 1.2969 9.0977 2.7344 13.02 3.8984 3.707 1.1055 6.5625 1.9453 6.9609 2.0625l6.3945 2.7344 0.69531-6.9258c0.34766-3.4453 0.66016-6.8516 0.94922-10.141 0.9375-10.262 2.207-24.312 4.1523-26.82 0.17969-0.22656 0.89844-0.57422 2.0508-0.57422 1.6445 0 4.332 0.83984 4.957 3.1328 0.73047 2.6992-0.27734 6.8281-1.5469 12.047-1.2344 5.0742-2.7852 11.398-3.4453 19.211l-0.64844 7.6094 7.2852-2.3164c10.867-3.4336 30.066-5.4609 38.266-6.3242z"/>
  <path d="m948.21 255.39-0.097656-0.070312v-0.67188l-0.53906 0.21484-7.7539-6.4805c-3.3711-2.832-85.309-69.289-313.01-69.289l-52.977 0.003906c-26.82-47.102-60.984-91.059-101.35-110.05-32.352-15.227-61.391-10.945-80.844 10.691-28.738 32.016-29.531 95.902-27.742 129.09-70.309 17.125-110.29 45.457-112.12 46.789l0.14453 0.19141-0.15625-0.058594v768.45l7.1641 6.8984c4.6172 4.4492 115.58 108.91 341.02 108.91s336.41-104.46 341.02-108.91l7.1641-6.8984v-722.96h0.097657l-0.003907-45.84zm-46.895 552.97c-41.723 17.137-160.43 60.266-298.63 60.266-145.13 0-268.54-47.473-304.11-62.555l0.003907-316.32c52.922 20.734 168.38 58.738 304.11 58.738 131.36 0 243.57-35.566 298.63-56.652zm-516.56-556.32c15.926 13.441 46.488 37.789 83.855 60.875-68.605-10.738-125.93-26.617-157.89-36.516 17.793-8.1836 42.789-17.59 74.039-24.359zm516.56 189.36c-41.723 17.137-160.43 60.266-298.63 60.266-145.13 0-268.54-47.473-304.11-62.555v-117.37c55.453 17.219 176.64 49.367 307.91 49.367 129.13 0 241.75-31.129 294.82-48.613l0.003906 118.91zm-274.49-215.5c156.72 0 237.53 32.879 268.12 49.273-41.746 14.207-141.7 43.969-258.53 48.527-6.625-20.328-19.691-57.516-38.508-97.801zm-200.34-114.9c2.8086-3.1094 5.4102-4.3086 9.3008-4.3086 3.0977 0 8.5078 0.80469 16.777 4.7031 56.855 26.762 106.66 135.88 131.46 204.07-71.652-19.332-149.88-82.801-172.96-102.5-2.5234-35.277 0.42969-85.305 15.418-101.96zm173.46 982.18c-174.74 0-274.84-68.762-301.36-89.773v-146.71c52.922 20.734 168.38 58.738 304.11 58.738 131.36 0 243.57-35.566 298.63-56.652v144.68c-26.367 21.113-125.55 89.715-301.38 89.715z"/>
 </g>
</svg>
