<?xml version="1.0" encoding="UTF-8"?>
<svg width="1200pt" height="1200pt" version="1.1" viewBox="0 0 1200 1200" xmlns="http://www.w3.org/2000/svg">
 <path d="m884.57 340.25c10.875-11.98 20.395-25.121 28.387-39.188 2.6562-4.6406 2.0703-10.453-1.4609-14.469-3.5312-4.0117-9.2227-5.3359-14.164-3.293-24.621 10.504-51.504 14.594-78.137 11.887h-0.5625c-21.527-2.7773-42.73-7.6445-63.312-14.539-28.273-10.375-58.238-15.367-88.348-14.723-22.188-57.738-14.75-106.1 22.773-150.4v-0.003906c2.9023-3.4336 3.7383-8.1602 2.1836-12.379-1.5508-4.2227-5.25-7.2852-9.6836-8.0195-24.703-4.4062-50.156 0.82422-71.121 14.609-20.969 13.785-35.855 35.078-41.605 59.504-8.2227 39.434-10.898 79.824-7.9492 120-31.812-11.664-66.113-5.2383-99.488 1.0391-47.852 9.0234-97.289 18.312-148.54-18.949l0.003906-0.003906c-4.2383-3.0234-9.9102-3.1016-14.23-0.19922-4.3242 2.9023-6.3945 8.1836-5.1953 13.25 4.6016 19.078 13.484 36.859 25.977 52-68.406 57.309-117.57 134.23-140.87 220.37-23.293 86.145-19.59 177.36 10.609 261.33 30.199 83.969 85.441 156.65 158.27 208.22s159.72 79.559 248.95 80.168c89.234 0.61328 176.51-26.172 250.04-76.742 73.523-50.57 129.76-122.48 161.11-206.03 31.348-83.547 36.305-174.71 14.195-261.16s-70.219-164.04-137.83-222.28zm-417.81-25.5c37.074-6.9766 69.324-12.789 97.176 3.25 0.55078 5.5859 1.0742 11.164 1.7734 16.914 0.75391 6.2773 6.0781 11.004 12.402 11.012 0.5 0 1-0.027343 1.5-0.089843 3.293-0.39453 6.293-2.0781 8.3398-4.6836 2.0508-2.6094 2.9805-5.9219 2.5859-9.2148-7.8047-52.23-6.6406-105.41 3.4375-157.25 3.3828-14.441 11.117-27.496 22.152-37.406 11.039-9.9102 24.852-16.191 39.57-18.008-35.648 54.414-35 115.7 1.9609 186.59l0.003906 0.003906c3.1875 6.1211 10.738 8.5 16.859 5.3125 6.125-3.1914 8.5039-10.738 5.3125-16.863-0.67578-1.25-1.25-2.5-1.8867-3.8242 23.945 1.2891 47.578 6.0195 70.176 14.035 35.887 10.801 75.625 22.75 123.48 12.836v0.003906c-22.82 29.285-57.055 47.438-94.102 49.898-16.809 1.3359-32.004 10.516-41 24.777-8.4375 13.344-9.9766 29.918-4.1367 44.586 12.816 27.98 31.395 52.941 54.523 73.25-46.781-3.4062-90.504-24.504-122.29-59-13.734-14.398-31.66-24.098-51.227-27.715-19.57-3.6133-39.777-0.96484-57.75 7.5781-38.242 19.301-66.926 53.41-79.375 94.398-12.445-44.828-7.4453-92.711 14-134 1.918-3.7656 1.8008-8.2422-0.30859-11.906-2.1055-3.6602-5.9219-6.0078-10.141-6.2422-75-4.1875-123.75-24.727-147.81-62.5 48.012 20.613 93.586 12.012 134.77 4.2617zm133.24 766.59c-84.566 0.046874-167.08-26.008-236.29-74.605-69.207-48.602-121.73-117.38-150.39-196.93-28.664-79.559-32.074-166.02-9.7656-247.59 22.309-81.57 69.246-154.27 134.41-208.16 28.5 23.16 69.277 37.324 122.34 42.5-22.5 55.137-20.438 114.65 6.3359 177.19h0.003907c1.9688 4.5938 6.4883 7.5742 11.488 7.5742 0.48828 0 0.97656-0.027343 1.4609-0.089843 5.5-0.64844 9.9141-4.8398 10.852-10.297 10.086-59.039 35-97.5 76.148-117.74 13.184-6.2422 28-8.168 42.34-5.5 14.34 2.6719 27.469 9.7969 37.523 20.363 22.117 23.484 49.211 41.727 79.293 53.383 30.082 11.66 62.391 16.441 94.559 13.992 5.1094-0.23047 9.5625-3.5469 11.246-8.3789 1.6797-4.8281 0.25-10.195-3.6094-13.547-40-34.711-62.988-62.023-72.324-86.023v-0.003906c-2.9531-7.3164-2.1758-15.609 2.0859-22.25 4.8008-7.5312 12.859-12.367 21.762-13.062 31.844-2.1836 62.199-14.301 86.789-34.648 64.062 54.477 109.87 127.3 131.23 208.63 21.359 81.336 17.246 167.27-11.785 246.19-29.031 78.922-81.582 147.04-150.55 195.14-68.973 48.109-151.05 73.895-235.14 73.871z"/>
</svg>
