<?xml version="1.0" encoding="UTF-8"?>
<svg width="1200pt" height="1200pt" version="1.1" viewBox="0 0 1200 1200" xmlns="http://www.w3.org/2000/svg">
 <path d="m913.81 403.03c20.844-29.785 30.648-82.836 30.648-132.56 0-82.285-53.664-147.46-55.957-150.19-3.4219-4.0938-8.4727-6.457-13.801-6.457s-10.391 2.3633-13.801 6.457c-1.6914 2.0156-41.41 50.102-52.883 115.6-1.6914 9.625-2.5312 19.273-2.8203 28.812-39.938-23.219-80.496-27.215-82.645-27.422-5.2422-0.44531-10.547 1.4414-14.328 5.1953-3.7695 3.7695-5.6758 9.0117-5.207 14.328 0.19141 2.1133 4.9453 52.055 35.699 95.93 5.6641 7.9219 11.699 15.109 17.953 21.359 11.867 11.855 24.602 22.645 37.98 32.148 5.7227 3.9961 11.305 7.5 16.727 10.609-27.215 9.8164-52.586 24.359-75.035 43.441 5.3047-38.09-3.6484-77.398-25.477-109.29-5.1719-7.5117-10.957-14.578-17.375-21.191-6.4062-6.4062-13.246-12.289-20.508-17.629-34.094-24.336-77.219-34.078-118.31-26.664-30.887 5.4609-59.16 19.992-81.758 42.035-13.262 12.996-23.988 28.309-31.836 44.93-28.176-12.422-59.543-16.379-90.266-10.859-30.828 5.3633-59.074 19.859-81.707 41.941-52.02 50.82-60.898 131.63-24.238 192.3-9.875 6.0469-19.188 13.094-27.684 21.371-52.152 50.953-60.91 131.75-24.109 192.27-11.41 6.6367-22.055 14.605-31.621 24.168-60.828 60.828-60.828 159.79 0 220.62 30.406 30.406 70.355 45.613 110.3 45.613s79.895-15.203 110.3-45.613c8.7617-8.7734 16.188-18.469 22.512-28.801 24.816 15.086 52.715 22.691 80.629 22.691 39.527 0 78.973-15 109.25-44.566 9.2266-8.9883 17.125-19.176 23.902-30.215 24.66 14.832 52.344 22.297 80.039 22.297 39.527 0 78.949-14.965 109.13-44.438 22.5-21.938 37.656-49.906 43.836-80.809 6.4805-31.715 2.7109-64.223-9.9961-93.047 15.684-7.3672 30.277-17.293 42.793-29.543 22.523-21.984 37.656-49.934 43.738-80.711 8.3867-41.004-0.38281-84.348-24.07-118.89-5.2695-7.7031-11.125-14.797-17.219-20.867-6.168-6.3477-13.055-12.348-20.711-17.988-28.32-20.207-62.941-30.121-97.402-28.691 81.828-62.074 199.2-56.016 273.82 18.613 3.5156 3.5156 8.125 5.2695 12.73 5.2695 4.6094 0 9.2148-1.7539 12.73-5.2695 7.0312-7.0195 7.0312-18.434 0-25.453-41.66-41.715-95.781-66.34-153.96-70.828zm-70.332-160.94c5.7461-32.809 20.219-61.055 31.223-78.828 14.051 22.738 33.77 62.594 33.77 107.21 0 77.652-23.566 119.63-33.625 120.46-0.28906 0.023438-0.5625 0.046875-0.85156 0.097657-5.3047-1.4648-20.184-18.156-28.379-64.68-1.5352-9-2.6992-18.07-3.4688-26.953-0.81641-9.4688-1.2109-18.926-1.2109-28.906 0.011719-9.3164 0.85156-18.855 2.543-28.395zm-61.355 106.54c-4.8594-4.8594-9.6133-10.523-14.027-16.703-12.949-18.469-20.305-38.723-24.406-54 17.844 4.7891 42.492 14.102 63.277 31.738 0.80469 7.5469 1.8594 15.18 3.168 22.824 0.78125 4.4141 1.6445 8.6523 2.5664 12.793 0.28906 1.2969 0.58984 2.5312 0.88672 3.793 0.68359 2.8672 1.3906 5.6758 2.1367 8.3984 0.34766 1.2852 0.69531 2.5664 1.0664 3.8164 0.875 2.9883 1.7891 5.8672 2.7344 8.6641 0.25391 0.73047 0.48047 1.5117 0.73047 2.2305 1.1992 3.4062 2.4727 6.6484 3.8047 9.7578 0.10938 0.25391 0.20312 0.53906 0.3125 0.79297-2.8555-1.7656-5.8672-3.7422-9-5.9297-11.613-8.2695-22.812-17.75-33.25-28.176zm-284.03 4.668c17.375-16.957 39.109-28.129 62.914-32.34 31.645-5.6875 64.812 1.7773 90.863 20.387 5.6055 4.1172 11.051 8.7969 15.984 13.727 4.8359 4.9805 9.3242 10.477 13.332 16.297 18.156 26.508 24.875 59.773 18.406 91.391-4.6797 23.711-16.297 45.168-33.602 62.039l-0.15625 0.15625-0.86328 0.85156c-11.23 10.754-24.109 19.031-38.352 24.684-3.5508-2.4727-7.2109-4.7539-10.934-6.8984-0.97266-0.5625-1.9688-1.043-2.9531-1.5859-3.1445-1.7266-6.3242-3.3594-9.5742-4.8594-1.3789-0.63672-2.7734-1.2344-4.1641-1.8359-3.0977-1.332-6.2266-2.543-9.4062-3.6602-1.2734-0.44531-2.5195-0.92578-3.8047-1.3438-4.4297-1.4414-8.9023-2.7344-13.441-3.7812-0.12109-0.023437-0.25391-0.046875-0.37109-0.070312-4.4023-0.99609-8.8555-1.7656-13.332-2.375-1.3086-0.17969-2.6172-0.30078-3.9375-0.45703-3.4219-0.38281-6.8398-0.66016-10.285-0.81641-1.3906-0.058593-2.7734-0.13281-4.1641-0.15625-0.97266-0.023437-1.9453-0.10938-2.9141-0.10938-1.1289 0-2.2578 0.011719-3.3711 0.035156 0.070313-1.5859 0-3.168 0.035156-4.7539 0.023438-1.6914 0.058594-3.3711 0.035157-5.0625-0.058594-3.4688-0.25391-6.9375-0.53906-10.391-0.10938-1.2852-0.14453-2.5781-0.28906-3.8633-0.50391-4.7148-1.2109-9.4219-2.1484-14.074-0.17969-0.875-0.43359-1.7148-0.625-2.5938-0.82812-3.793-1.7656-7.5469-2.8672-11.27-0.45703-1.5352-0.98438-3.0352-1.4766-4.5586-1.0078-3.0703-2.1016-6.1094-3.3125-9.1211-0.63672-1.5859-1.2734-3.1562-1.957-4.7148-1.332-3.0469-2.7969-6.0469-4.3203-9.0234-0.68359-1.3438-1.332-2.6875-2.0625-4.0078-2.3281-4.2109-4.8008-8.3516-7.5234-12.359-5.3867-7.5703-11.148-14.531-17.125-20.699-2.8086-2.8906-5.832-5.6992-9-8.4727-1.0078-0.875-2.125-1.7266-3.168-2.5938-1.7773-1.4648-3.4688-2.9414-5.3633-4.3906 6.0781-13.855 14.875-26.602 25.832-37.328zm123.09 410.96c-1.5703 1.5352-3.2383 2.9141-4.8711 4.3438-1.1406 1.0078-2.2422 2.0898-3.4062 3.0352-1.0195 0.82812-2.1016 1.5469-3.1445 2.3398-1.8594 1.4141-3.6953 2.8789-5.6172 4.1758-0.085938 0.058594-0.17969 0.10938-0.26562 0.15625-5.9023 3.9609-12.098 7.3672-18.539 10.152-8.4102 3.6484-17.051 6.3008-25.766 7.8945-15.539 2.9023-31.234 2.5664-46.309-0.49219-18.301-3.7422-35.711-11.594-50.688-23.543-3.9961-3.0859-7.668-6.3711-11.184-10.02-2.4961-2.4961-4.8359-5.125-7.1758-8.0508-22.738-27.91-31.656-64.223-24.457-99.77 1.7266-8.8906 4.5859-17.734 8.5547-26.34 4.5-9.9258 10.355-19.094 17.449-27.395 2.3633-2.7734 4.8711-5.4375 7.5234-8.0156 13.547-13.262 30.133-23.184 48.023-28.691 4.5586-1.4297 9.0703-2.543 13.738-3.4062 0.50391-0.046874 0.99609-0.12109 1.4766-0.20312 31.414-5.6758 64.43 1.7656 90.383 20.27 1.7148 1.2617 3.5039 2.6055 5.2695 4.0547 4.2617 3.4219 7.7773 6.6016 10.68 9.6367 2.6172 2.7617 5.2305 5.6641 7.7539 8.832 2.1016 2.5547 4.0547 5.1133 5.7109 7.4297 17.914 26.258 24.742 59.102 18.758 90.133v0.046875l-0.22656 1.2852c-1.0781 5.4258-2.4258 10.332-4.1641 15.277-5.9531 17.75-15.887 33.531-29.508 46.863zm-326.91-334.93c17.398-16.969 39.086-28.117 62.82-32.242 7.1289-1.2734 14.293-1.9062 21.422-1.9062 22.008 0 43.633 6.0234 62.438 17.617 2.3164 1.4414 4.7148 2.9531 7.0195 4.668 6.2031 4.5469 11.438 9.0352 15.984 13.727 4.7031 4.8359 9.2773 10.379 13.391 16.164 2.1367 3.1445 4.0938 6.3945 5.9141 9.7188 0.60156 1.1055 1.1172 2.2578 1.6914 3.3711 1.1406 2.2578 2.2695 4.5117 3.2656 6.8164 0.58984 1.3672 1.1055 2.7617 1.6328 4.1523 0.82812 2.1367 1.6328 4.2734 2.3281 6.457 0.48047 1.4883 0.91016 2.9883 1.332 4.4883 0.60156 2.1367 1.1523 4.2852 1.6445 6.457 0.34766 1.5352 0.66016 3.0859 0.94922 4.6328 0.39453 2.1953 0.71875 4.4023 0.99609 6.625 0.19141 1.5352 0.39453 3.0586 0.52734 4.5977 0.20313 2.3281 0.28906 4.6562 0.35938 6.9961 0.035156 1.4297 0.13281 2.8555 0.12109 4.2852-0.023437 2.6875-0.19141 5.375-0.38281 8.0742-0.085938 1.0781-0.085938 2.1602-0.19141 3.2266-0.011718 0.15625-0.046874 0.30078-0.070312 0.44531-2.2188 0.58984-4.4531 1.2227-6.6836 1.9336-0.035156 0.011719-0.070312 0.011719-0.10938 0.023438-0.023437 0-0.035156 0.011718-0.058593 0.023437h-0.011719c-0.88672 0.27734-1.7266 0.69531-2.6172 0.98438-4.8828 1.6094-9.7422 3.3359-14.461 5.4375-2.6055 1.1641-5.0742 2.6523-7.6211 3.9609-2.8906 1.4883-5.8438 2.8203-8.6406 4.4883-3.0586 1.8242-5.9023 3.9727-8.832 6.0117-2.1133 1.4648-4.3203 2.7617-6.3594 4.332-4.8594 3.7422-9.5156 7.7773-13.906 12.086-13.754 13.379-24.73 28.957-32.566 46.188-2.2812 4.957-4.1875 10.031-5.9141 15.145-0.39453 1.1523-0.78125 2.3047-1.1406 3.457-0.30078 0.96094-0.67188 1.9219-0.94922 2.8789-0.5625 0.046875-1.1289 0.15625-1.6914 0.19141-1.9688 0.12109-3.9258 0.10937-5.8789 0.13281-2.6641 0.035156-5.3164 0.058594-7.957-0.070312-2.0742-0.10938-4.1406-0.32422-6.2031-0.53906-2.5078-0.26562-5.0039-0.5625-7.4766-0.98438-2.0898-0.34766-4.1641-0.76953-6.2266-1.2344-2.4375-0.53906-4.8359-1.1641-7.2344-1.8594-2.0156-0.58984-4.0195-1.1992-6-1.8828-2.3984-0.82813-4.7539-1.7773-7.0938-2.7617-1.8828-0.79297-3.7812-1.5703-5.6172-2.4609-2.3984-1.1641-4.7383-2.4727-7.0664-3.793-1.6797-0.94922-3.3828-1.8477-5.0156-2.8789-2.543-1.6094-4.9805-3.4062-7.4023-5.207-1.3086-0.97266-2.6641-1.8477-3.9258-2.8672-3.6367-2.9414-7.1523-6.0703-10.465-9.457-2.4961-2.4961-4.8359-5.125-7.1875-8.0742-38.902-47.621-34.883-118.59 9.1211-161.57zm-51.949 213.67c7.5-7.2969 15.73-13.5 24.59-18.527 1.0312 1.0547 2.1836 1.957 3.2383 2.9766 2.7734 2.6641 5.543 5.3281 8.4727 7.7656 1.1406 0.94922 2.375 1.7539 3.5273 2.6523 3.0352 2.375 6.0703 4.7383 9.2656 6.875 1.0195 0.68359 2.1016 1.2461 3.1328 1.8945 3.4453 2.1836 6.9102 4.332 10.488 6.2383 0.92578 0.49219 1.8945 0.875 2.8203 1.3438 3.7578 1.9062 7.5586 3.7305 11.449 5.3164 0.96094 0.39453 1.9688 0.68359 2.9414 1.0664 3.8984 1.5 7.8242 2.9141 11.832 4.1055 1.1875 0.34766 2.3984 0.58984 3.5898 0.91016 3.8047 1.0195 7.6211 1.9922 11.496 2.7344 1.5977 0.30078 3.2031 0.46875 4.8008 0.71875 3.4805 0.55078 6.9609 1.0781 10.488 1.3906 2.1133 0.19141 4.2344 0.21484 6.3477 0.3125 2.4492 0.12109 4.8828 0.37109 7.3438 0.37109 0.625 0 1.2461-0.070313 1.8711-0.085937 0.50391 0 0.99609 0.058593 1.4883 0.046874-0.12109 2.3398-0.011719 4.6797-0.023438 7.0078-0.011719 1.8008-0.070312 3.6133-0.023437 5.4102 0.14453 4.5977 0.49219 9.168 1.043 13.715 0.085938 0.68359 0.097657 1.3789 0.17969 2.0625 0.69531 5.1953 1.6914 10.332 2.8906 15.422 0.37109 1.5977 0.875 3.1445 1.3086 4.7148 0.94922 3.5156 1.9805 6.9961 3.1797 10.441 0.64844 1.8359 1.3555 3.6484 2.0625 5.4727 1.2344 3.168 2.5781 6.2773 4.0195 9.3594 0.83984 1.7773 1.6797 3.5508 2.5781 5.293 1.6562 3.2031 3.4688 6.3359 5.3633 9.4336 0.88672 1.4648 1.7148 2.9531 2.6641 4.3906 2.9141 4.4531 6.0234 8.8086 9.4336 12.984 3.0469 3.8281 6.3242 7.5 9.5039 10.668 1.0664 1.1055 2.1602 2.207 3.2773 3.2891-0.38281 0.64844-0.81641 1.2734-1.2227 1.9062-1.8711 2.9766-3.8633 5.8672-6 8.6641-0.79297 1.0312-1.5703 2.0742-2.3984 3.0859-2.832 3.4688-5.8086 6.8516-9.0586 10.008l-0.035156 0.035156c-11.375 11.09-24.336 19.633-38.52 25.414-7.9453 3.2383-16.176 5.5781-24.602 7.0078-38.93 6.8984-78.793-5.9297-106.67-34.379-2.3398-2.3398-4.4648-4.7539-6.457-7.2852-0.12109-0.15625-0.23828-0.27734-0.37109-0.44531-39.297-47.555-35.469-118.63 8.6914-161.78zm114.31 385.82c-46.789 46.777-122.93 46.777-169.71 0-46.789-46.789-46.789-122.91 0-169.71 8.4844-8.4844 17.953-15.492 28.273-20.941 1.1875 1.1992 2.4961 2.2422 3.7188 3.3945 2.6055 2.4844 5.1953 4.9922 7.9453 7.2734 1.2227 1.0078 2.543 1.8828 3.793 2.8555 2.9531 2.3047 5.9141 4.6094 9.0117 6.6719 1.0078 0.67188 2.0898 1.2344 3.1094 1.8828 3.457 2.1953 6.9375 4.3438 10.535 6.2539 0.80469 0.43359 1.6445 0.76953 2.4609 1.1758 3.8984 1.9805 7.8359 3.8633 11.867 5.5078 0.69531 0.27734 1.4023 0.49219 2.1016 0.75781 4.1758 1.6328 8.3984 3.1328 12.707 4.4023 0.79297 0.22656 1.6094 0.38281 2.4102 0.61328 4.1992 1.1641 8.4258 2.207 12.707 3.0234 1.1406 0.21484 2.3047 0.33594 3.457 0.51563 3.9258 0.64844 7.8477 1.2227 11.82 1.5703 1.7383 0.15625 3.4805 0.16797 5.2188 0.26562 2.7344 0.14453 5.4727 0.40625 8.2188 0.40625 0.67188 0 1.3555-0.085937 2.0391-0.085937 0.44531 0 0.875 0.046874 1.3203 0.035156-0.17969 3.6484-0.046875 7.2852 0.023437 10.922 0.023438 1.4297-0.058593 2.8672 0.011719 4.2969 0.28906 5.8906 0.89844 11.734 1.8477 17.531 0.21484 1.3203 0.57422 2.6055 0.82812 3.9258 0.83984 4.4414 1.8125 8.8555 3.0352 13.199 0.5625 1.9922 1.2461 3.9375 1.8945 5.9023 1.1758 3.625 2.4492 7.2227 3.8867 10.754 0.85156 2.0742 1.7539 4.1055 2.6875 6.1445 1.5586 3.3945 3.2539 6.7188 5.0625 9.9961 1.0664 1.9336 2.125 3.875 3.2773 5.7734 2.0898 3.4336 4.3672 6.7578 6.7305 10.043 1.1172 1.5586 2.1484 3.1562 3.3359 4.668 3.6602 4.7031 7.5352 9.2773 11.773 13.598 0.67188 0.67188 1.332 1.3203 2.0039 1.9688-5.2148 9.2031-11.719 17.723-19.398 25.414zm212.71-50.988c-43.824 42.805-112.5 45.961-159.65 7.4531-3.5625-2.9648-6.8984-5.9883-10.105-9.1914-3.3242-3.3828-6.3828-6.9727-9.2383-10.68-0.94922-1.2344-1.7656-2.5547-2.6641-3.8281-1.8008-2.5312-3.5898-5.0742-5.1719-7.7266-0.94922-1.5703-1.7539-3.2148-2.6289-4.8359-1.3203-2.4609-2.6289-4.9336-3.7812-7.4766-0.79297-1.7656-1.4883-3.5742-2.1953-5.3633-0.98438-2.4961-1.9219-5.0039-2.7344-7.5703-0.60156-1.8828-1.1289-3.793-1.6328-5.6992-0.67188-2.5664-1.2734-5.1484-1.7773-7.7539-0.37109-1.9453-0.71875-3.8984-0.99609-5.8672-0.37109-2.6406-0.63672-5.3164-0.83984-7.9805-0.14453-1.9688-0.30078-3.9258-0.34766-5.8906-0.070313-2.7734 0.023437-5.543 0.14453-8.3281 0.085937-1.8945 0.12109-3.793 0.28906-5.6875 0.058593-0.61328 0.19141-1.2227 0.25391-1.8359 0.44531-0.12109 0.86328-0.3125 1.3086-0.43359 5.9883-1.6211 11.914-3.5273 17.699-5.8906 18.504-7.5352 35.34-18.625 50.051-32.965 3.9375-3.8281 7.5586-7.8711 11.027-12.035 1.0938-1.3203 2.1016-2.6992 3.1445-4.0547 2.3164-2.9766 4.5352-6.0234 6.6133-9.1562 0.52734-0.79297 1.1641-1.5117 1.668-2.3164 0.83984 0.50391 1.7266 0.92578 2.5781 1.4023 1.3438 0.75781 2.6875 1.4883 4.043 2.207 2.3164 1.2227 4.668 2.3867 7.043 3.4922 1.332 0.625 2.6523 1.2461 4.0078 1.8242 2.6406 1.1406 5.3164 2.1719 8.0039 3.168 1.1055 0.40625 2.1953 0.85156 3.3125 1.2344 7.7773 2.6641 15.742 4.7031 23.855 6.0977 0.82813 0.14453 1.668 0.22656 2.4961 0.35938 3.1914 0.50391 6.4062 0.92578 9.6367 1.2109 1.2461 0.12109 2.5078 0.17969 3.7578 0.26562 2.7852 0.19141 5.5781 0.3125 8.375 0.34766 0.75781 0.011719 1.5 0.097656 2.2578 0.097656 0.69531 0 1.4023-0.085937 2.1016-0.097656 1.1172-0.011719 2.2188 0.035156 3.3359 0-0.10938 3.4336 0.070312 6.8398 0.17969 10.262 0.046874 1.5234-0.011719 3.0469 0.085937 4.5703 0.35938 5.7969 1.0195 11.543 2.0039 17.23 0.20312 1.1992 0.55078 2.3633 0.79297 3.5625 0.88672 4.4766 1.9062 8.9023 3.168 13.273 0.5625 1.9336 1.2461 3.8164 1.8828 5.7227 1.1875 3.5898 2.4727 7.1406 3.9102 10.633 0.83984 2.0156 1.7383 4.0078 2.6641 5.9883 1.5469 3.3359 3.2266 6.6133 5.0156 9.8281 1.043 1.8828 2.0742 3.7812 3.2031 5.6172 2.0508 3.3594 4.2969 6.6133 6.6016 9.8164 1.0938 1.5234 2.1133 3.0977 3.2773 4.5703 3.5742 4.5977 7.3555 9.0469 11.484 13.246 0.91016 0.94922 1.8359 1.8945 2.7969 2.8203-5.5469 9.8164-12.363 18.625-20.309 26.363zm246.76-114.53c-4.7656 23.832-16.414 45.324-33.695 62.184-43.488 42.48-111.88 45.781-159.16 7.6211-4.0312-3.2148-7.4297-6.2539-10.488-9.457-3.2656-3.3242-6.2773-6.8516-9.0859-10.488-0.9375-1.1992-1.7266-2.4961-2.6055-3.7305-1.7891-2.5078-3.5508-5.0156-5.1367-7.6328-0.92578-1.5352-1.7266-3.1445-2.5938-4.7148-1.3203-2.4375-2.6289-4.8828-3.7812-7.3906-0.79297-1.7148-1.4766-3.4805-2.1836-5.2422-0.99609-2.4727-1.9453-4.9688-2.7734-7.5117-0.60156-1.8359-1.1289-3.6836-1.6328-5.543-0.69531-2.5547-1.3203-5.125-1.8477-7.7148-0.38281-1.8828-0.74219-3.7812-1.0312-5.6875-0.40625-2.6523-0.69531-5.3281-0.9375-8.0156-0.16797-1.8828-0.33594-3.7695-0.42188-5.6641-0.10938-2.7852-0.058593-5.5938 0.023438-8.3984 0.058593-1.8125 0.046875-3.625 0.19141-5.4375 0.046875-0.57422 0.16797-1.1406 0.21484-1.7148 0.85156-0.23828 1.6797-0.53906 2.5312-0.79297 1.0312-0.3125 2.0625-0.64844 3.0977-0.97266 5.0039-1.5977 9.9727-3.3594 14.844-5.4844 17.102-7.3789 32.785-17.965 46.656-31.453 0.011719-0.011719 0.023437-0.023438 0.035156-0.035156 17.734-17.352 30.684-37.945 38.398-60.91 1.0195-2.8672 1.9336-5.7852 2.7617-8.7617 0.3125-0.023438 0.625-0.097657 0.94922-0.12109 1.4414-0.12109 2.8789-0.13281 4.3086-0.20312 2.3516-0.10938 4.7031-0.21484 7.0547-0.19141 1.5703 0.011718 3.1328 0.12109 4.7031 0.20312 2.207 0.10938 4.4141 0.25391 6.625 0.48047 1.6211 0.16797 3.2266 0.39453 4.8477 0.63672 2.125 0.3125 4.2461 0.67188 6.3594 1.1055 1.6211 0.32422 3.2266 0.68359 4.8359 1.0664 2.0898 0.51562 4.1523 1.0938 6.2148 1.7148 1.5586 0.46875 3.1211 0.9375 4.6562 1.4648 2.1133 0.73047 4.1875 1.5586 6.2539 2.4102 1.4141 0.57422 2.8438 1.1289 4.2461 1.7656 2.2578 1.0312 4.4648 2.1836 6.6484 3.3594 1.1406 0.60156 2.3047 1.1523 3.4062 1.7891 3.2773 1.8828 6.4688 3.8984 9.5508 6.0977 6.3008 4.6445 11.566 9.168 16.094 13.824 4.7383 4.8828 9.2656 10.379 13.262 16.031 0.96094 1.4414 1.9219 2.8789 2.7734 4.4297 0.23828 0.40625 0.43359 0.69531 0.68359 1.1641 15.816 25.836 21.191 56.34 15.145 85.922zm28.691-324.78c5.832 4.2969 11.219 8.9883 16.199 14.113 4.7031 4.7031 9.1328 10.066 13.152 15.949 18.215 26.555 24.961 59.855 18.492 91.465-4.6914 23.723-16.309 45.18-33.602 62.051 0 0-0.011719 0.011719-0.023438 0.011719-10.367 10.152-22.5 18.336-35.605 24.07-0.46875-0.625-1.0195-1.1289-1.5-1.7383-3.793-4.8594-7.6914-9.5391-11.809-13.789-5.9297-6.0977-12.648-11.891-20.785-17.891-3.8633-2.7617-7.8711-5.2695-11.965-7.6445-1.2461-0.73047-2.5312-1.3906-3.8164-2.0898-2.9414-1.6094-5.9297-3.1211-8.9648-4.5234-1.4414-0.66016-2.8672-1.3203-4.3203-1.9453-3.2539-1.3906-6.5625-2.6523-9.8984-3.8164-1.1406-0.39453-2.2578-0.85156-3.4062-1.2227-4.4023-1.4297-8.8672-2.6641-13.379-3.6953-1.2227-0.27734-2.4727-0.46875-3.7188-0.71875-3.3828-0.68359-6.793-1.2969-10.211-1.7656-1.668-0.22656-3.3359-0.40625-5.0156-0.57422-3.1914-0.33594-6.3828-0.55078-9.6016-0.69531-1.5859-0.070313-3.1562-0.16797-4.7383-0.17969-0.64844-0.011719-1.2969-0.070312-1.957-0.070312-1.7266 0-3.4688 0.023437-5.207 0.085937 0.046875-1.3906-0.035156-2.7734-0.023438-4.1641 0.011719-1.668 0.011719-3.3242-0.023437-4.9922-0.085938-3.3125-0.30078-6.625-0.58984-9.9258-0.12109-1.4023-0.19141-2.7969-0.35938-4.1992-0.53906-4.6445-1.2461-9.2656-2.1953-13.848-0.10938-0.53906-0.27734-1.0664-0.39453-1.5977-0.88672-4.0547-1.9336-8.0625-3.1328-12.035-0.44531-1.4648-0.96094-2.9023-1.4531-4.3672-1.0195-3.0586-2.125-6.0977-3.3477-9.1094-0.625-1.5469-1.2734-3.0859-1.9453-4.6211-1.332-3.0117-2.7734-5.9648-4.2969-8.8789-0.68359-1.3203-1.332-2.6641-2.0625-3.9727-2.3047-4.1523-4.7539-8.2305-7.4531-12.18-0.3125-0.44531-0.63672-0.875-0.94922-1.3203 5.9023-13.824 14.375-26.305 25.246-37.188l0.98438-0.97266c17.363-16.934 39.098-28.105 62.879-32.305 31.66-5.6914 64.828 1.7617 90.797 20.289z"/>
</svg>
