<?xml version="1.0" encoding="UTF-8"?>
<svg width="1200pt" height="1200pt" version="1.1" viewBox="0 0 1200 1200" xmlns="http://www.w3.org/2000/svg">
 <g>
  <path d="m1057.3 910.67v-28c10.668-16 5.332-34.668 0-46.668v-22.664c10.668-16 5.332-34.668 0-46.668v-22.664c9.332-14.668 5.332-32 0-44v-1.332c0-2.668 0-4-1.332-6.668v-17.332c10.668-16 5.332-34.668 0-46.668v-22.664c10.668-16 5.332-34.668 0-46.668v-22.664c9.332-16 5.332-34.668 0-45.332v-24c10.668-16 5.332-34.668 0-46.668v-21.332c9.332-14.668 6.668-30.668 1.332-42.668v-29.332c6.668-12 6.668-26.668 0-40l-1.332-136c2.668-5.332 4-10.668 4-17.332 0-93.332-308-118.67-470.67-118.67s-470.67 25.332-470.67 118.67c0 9.332 2.668 17.332 8 24v145.34l1.332 2.668v4l-1.332-2.668v18.668c-6.668 8-9.332 17.332-9.332 22.668 0 6.668 1.332 12 4 16 0 6.668 1.332 12 5.332 18.668v9.332c-6.668 8-9.332 17.332-9.332 24 0 4 1.332 8 1.332 10.668v1.332c0 8 2.668 17.332 8 24v8c-6.668 8-9.332 17.332-9.332 22.668 0 4 1.332 9.332 2.668 12 0 8 2.668 14.668 6.668 21.332v10.668c-8 8-9.332 17.332-9.332 24 0 9.332 4 16 6.668 22.668 0 1.332 1.332 4 2.668 5.332v17.332c-6.668 8-9.332 17.332-9.332 24 0 8 2.668 13.332 5.332 18.668 1.332 2.668 2.668 6.668 4 9.332v17.332c-6.668 8-9.332 17.332-9.332 22.668 0 10.668 5.332 18.668 9.332 25.332v20c-8 8-9.332 17.332-9.332 24 0 10.668 5.332 20 9.332 25.332v18.664c-6.6719 15.988-8.0039 25.324-8.0039 30.656 0 10.668 5.332 20 9.332 25.332v20c-6.668 8-9.332 17.332-9.332 22.668 0 10.668 5.332 20 9.332 25.332v129.33 4 6.668 5.332h1.332c9.332 32 56 57.332 140 77.332 84 18.668 197.33 29.332 318.67 29.332 162.67 0 470.67-25.332 470.67-118.67v-4-143.99zm-796-453.34c84 18.668 197.33 29.332 318.67 29.332 126.67 0 338.67-14.668 429.33-65.332 0 2.668 1.332 5.332 2.668 8 0 1.332-1.332 4-1.332 5.332 0 28-153.33 80-433.33 80-229.33 0-368-36-409.33-64-1.332-6.668-2.668-12-5.332-16v-12c23.996 13.336 57.328 25.336 98.66 34.668zm-93.332 190.67c-1.332-2.668-2.668-5.332-4-8v-17.332c24 13.332 56 25.332 100 34.668 84 18.668 197.33 29.332 318.67 29.332 125.33 0 337.33-14.668 428-64 0 5.332 1.332 10.668 4 14.668-6.668 28-158.67 78.668-432 78.668-238.67-1.3359-378.67-38.672-414.67-68.004zm92-57.332c84 18.668 197.33 29.332 318.67 29.332 126.67 0 341.33-14.668 429.33-65.332 0 6.668 2.668 12 5.332 17.332-9.332 28-161.33 77.332-432 77.332-240 0-380-38.668-414.67-68-1.332-4-2.668-6.668-4-9.332v-13.332c24.004 10.664 56.004 22.664 97.336 32zm0-66.668c84 18.668 197.33 29.332 318.67 29.332 126.67 0 342.67-14.668 430.67-66.668 0 4 1.332 8 2.668 12v2.668c0 28-153.33 80-433.33 80-232 0-370.67-36-410.67-65.332-1.332-5.332-2.668-9.332-5.332-13.332v-12c23.996 13.332 55.996 24 97.328 33.332zm-96 165.33c24 13.332 56 24 98.668 33.332 84 18.668 197.33 29.332 318.67 29.332 126.67 0 338.67-14.668 428-65.332 0 8 2.668 16 6.668 21.332-25.332 28-174.67 72-429.33 72-277.33 0-422.67-52-422.67-80v-1.332zm1.332 84v-20c24 14.668 57.332 26.668 102.67 36 84 18.668 197.33 29.332 318.67 29.332 124 0 329.33-14.668 422.67-61.332 0 6.668 2.668 12 5.332 17.332-22.668 28-172 73.332-429.33 73.332-258.67 0.003906-401.34-45.328-420-74.664zm844-416c1.332 2.668 1.332 5.332 2.668 6.668v4c0 28-153.33 80-433.33 80-233.33 0-373.33-37.332-412-65.332-1.332-4-2.668-9.332-4-12v-17.332c24 14.668 57.332 26.668 102.67 36 84 18.668 197.33 29.332 318.67 29.332 125.33 1.332 333.33-13.336 425.33-61.336zm-844 486.67v-21.332s0-1.332 1.332-1.332c24 13.332 57.332 25.332 100 34.668 84 18.668 197.33 29.332 318.67 29.332 124 0 333.33-14.668 425.33-62.668v1.332c0 5.332 1.332 10.668 4 16-18.668 28-169.33 74.668-430.67 74.668-249.33 0-392-41.336-418.66-70.668zm852-542.67 1.332 2.668v1.332s0 1.332-1.332 1.332l-1.332-1.332v2.668c-20 28-169.33 74.668-430.67 74.668-252 0-394.67-42.668-418.67-72-1.332-2.668-1.332-5.332-4-9.332l-1.332-105.33c92 48 300 62.668 424 62.668 126.67 0 340-14.668 429.33-65.332v102.67zm-852 608v-20s0-1.332 1.332-1.332c24 13.332 56 24 97.332 33.332 84 18.668 197.33 29.332 318.67 29.332 125.33 0 338.67-14.668 428-65.332v4c0 5.332 1.332 10.668 2.668 14.668-21.332 28-172 73.332-429.33 73.332-250.67 4-393.33-38.664-418.67-68zm422.67-849.33c280 0 433.33 53.332 433.33 80s-153.33 80-433.33 80-433.33-53.332-433.33-80 153.33-80 433.33-80zm0 1080c-268 0-412-49.332-421.33-77.332v-106.67c24 13.332 56 25.332 100 34.668 84 18.668 197.33 29.332 318.67 29.332 129.33 0 350.67-16 436-69.332v112c-10.668 26.664-162.67 77.332-433.34 77.332z"/>
  <path d="m261.33 176c42.668 20 114.67 20 125.33 20h5.332c56 5.332 122.67 8 190.67 8 94.668 0 182.67-5.332 249.33-14.668 98.668-13.332 118.67-30.668 118.67-52s-20-38.668-118.67-52c-66.668-9.332-156-14.668-249.33-14.668-69.332 0-134.67 2.668-190.67 8h-5.332c-10.668 0-82.668 1.332-125.33 20-37.332 10.668-46.668 24-46.668 38.668 0.003907 14.668 9.3359 28 46.668 38.668zm177.34-20c-9.332-6.668-14.668-13.332-14.668-17.332 0-6.668 8-13.332 14.668-18.668 34.668 4 57.332 12 66.668 18.668-9.3359 5.332-32.004 13.332-66.668 17.332zm-46.668-38.668c-2.668 6.668-5.332 13.332-5.332 20 0 8 1.332 14.668 5.332 21.332-52-5.332-92-10.668-116-17.332-2.668-1.332-4-2.668-6.668-4 1.332-1.332 4-2.668 5.332-4 25.336-5.332 64.004-12 117.34-16zm510.67 20c-40 13.332-154.67 29.332-318.67 29.332h-53.332c9.332-8 14.668-17.332 14.668-28 0-12-5.332-21.332-14.668-28h53.332c164-1.332 278.67 13.336 318.67 26.668z"/>
 </g>
</svg>
