<?xml version="1.0" encoding="UTF-8"?>
<svg width="1200pt" height="1200pt" version="1.1" viewBox="0 0 1200 1200" xmlns="http://www.w3.org/2000/svg">
 <g>
  <path d="m450 1112.5h300c34.477 0 62.5-28.051 62.5-62.5v-750c0-0.22656-0.125-0.42578-0.125-0.67578-0.050781-0.875-0.27344-1.6992-0.52344-2.5508-0.19922-0.75-0.35156-1.4766-0.67578-2.1484-0.32422-0.69922-0.82422-1.2734-1.2734-1.8984-0.52344-0.69922-1-1.3984-1.6484-1.9766-0.17578-0.14844-0.25-0.375-0.44922-0.52344l-108.55-86.852c8.0234-6.875 13.25-16.977 13.25-28.375v-50c0-20.676-16.824-37.5-37.5-37.5h-150c-20.676 0-37.5 16.824-37.5 37.5v50c0 11.398 5.2266 21.5 13.25 28.375l-108.57 86.852c-0.19922 0.14844-0.27344 0.375-0.44922 0.52344-0.64844 0.57422-1.1484 1.2734-1.6484 1.9766-0.44922 0.625-0.92578 1.1992-1.25 1.875-0.32422 0.67578-0.47656 1.4258-0.67578 2.1758-0.22656 0.85156-0.47656 1.6484-0.5 2.5234 0 0.22656-0.125 0.42578-0.125 0.67578v750c-0.027344 34.473 28.023 62.523 62.473 62.523zm62.5-987.5c0-6.8984 5.6016-12.5 12.5-12.5h150c6.875 0 12.5 5.6016 12.5 12.5v50c0 6.8984-5.625 12.5-12.5 12.5h-150c-6.8984 0-12.5-5.6016-12.5-12.5zm16.875 87.5h141.23l93.75 75h-328.7zm-116.88 100h375v175h-375zm0 200h375v375h-375zm0 400h375v137.5c0 20.676-16.824 37.5-37.5 37.5h-300c-20.676 0-37.5-16.824-37.5-37.5z"/>
  <path d="m590.2 567.25c-3.1758 4-77.699 98.852-77.699 157.75 0 55.602 31.898 87.5 87.5 87.5 55.625 0 87.5-31.898 87.5-87.5 0-58.898-74.523-153.75-77.699-157.75-4.7266-6-14.875-6-19.602 0zm9.8008 220.25c-41.477 0-62.5-21.023-62.5-62.5 0-36 38.926-96.949 62.5-129.27 23.574 32.324 62.5 93.227 62.5 129.27 0 41.477-21.023 62.5-62.5 62.5z"/>
 </g>
</svg>
