<?xml version="1.0" encoding="UTF-8"?>
<svg width="1200pt" height="1200pt" version="1.1" viewBox="0 0 1200 1200" xmlns="http://www.w3.org/2000/svg">
 <path d="m1068.6 892.2c-2.7656-1.625-5.9141-2.4805-9.1211-2.4805s-6.3555 0.85547-9.1211 2.4805l-48 30.121c-5.6875-41.391-28.504-78.488-62.879-102.24-43.68-30.359-94.559-26.879-132-24-20.445 1.418-40.98 0.85547-61.32-1.6797-89.789-11.324-172.37-54.996-232.28-122.83-59.906-67.836-93.027-155.18-93.164-245.69-0.007812-24.168 2.3242-48.281 6.9609-72 7.3633-38.797-0.91797-78.934-23.043-111.64-22.121-32.711-56.285-55.344-95.035-62.953h-1.6797l30-48c2.2578-3.6484 3.1406-7.9805 2.4883-12.219s-2.7969-8.1055-6.0469-10.902c-3.25-2.8008-7.3945-4.3438-11.684-4.3594h-91.199c-6.4102 0.039063-12.32 3.4844-15.508 9.0469s-3.1797 12.398 0.027344 17.953l31.078 49.199c-17.684 4.1016-34.473 11.379-49.559 21.48-32.879 22.074-55.562 56.383-63 95.281-23.305 119.15-13.762 242.4 27.605 356.55 41.367 114.15 113 214.89 207.23 291.45 60.75 49.695 129.81 88.25 204 113.88 18.602 6.3594 37.922 12 57.121 16.922v-0.003906c52.52 13.414 106.48 20.383 160.68 20.762h0.83984c26.848 0.070313 53.66-2.0586 80.16-6.3594 33.02-4.4102 63.781-19.203 87.84-42.242 18.066-18.41 31.047-41.191 37.68-66.117l52.68 32.762v-0.003906c2.8438 1.7812 6.125 2.7344 9.4805 2.7617 3.0625-0.046875 6.0664-0.82812 8.7617-2.2812 2.8008-1.5586 5.1328-3.8398 6.7578-6.6016 1.6211-2.7656 2.4805-5.9141 2.4805-9.1172v-91.199c0.011718-3.2109-0.83984-6.3633-2.4648-9.1289s-3.9648-5.043-6.7734-6.5938zm-778.32-752.88-13.199 21.238-13.082-21.238zm644.16 883.08c-18.75 17.77-42.66 29.113-68.281 32.402-24.602 3.9609-49.48 5.9258-74.398 5.8789h-0.72266c-51.25-0.375-102.27-6.9805-151.92-19.68-18.238-4.5586-36-9.9609-54.121-16.078-70.172-24.371-135.5-60.93-192.96-108-57.23-46.539-105.95-102.65-144-165.84-80.352-134.32-108.3-293.58-78.48-447.24 7.8906-39.785 36.402-72.34 74.805-85.402 38.398-13.059 80.848-4.6406 111.36 22.082 30.512 26.723 44.445 67.695 36.559 107.48-4.9922 25.82-7.5234 52.059-7.5625 78.359 0.12891 76.191 21.586 150.82 61.945 215.44 40.359 64.625 98.008 116.65 166.41 150.2 40.398 19.863 83.84 32.805 128.52 38.281 22.637 2.9102 45.512 3.5547 68.277 1.918 42.719-3 77.762-3.4805 108.6 17.879 26.574 18.336 44.043 47.16 48 79.203 3.8984 34.281-7.875 68.492-32.039 93.117zm107.4-55.68-21.238-13.199 21.238-13.199z"/>
</svg>
