<?xml version="1.0" encoding="UTF-8"?>
<svg width="1200pt" height="1200pt" version="1.1" viewBox="0 0 1200 1200" xmlns="http://www.w3.org/2000/svg">
 <g>
  <path d="m949.92 396.6c-0.71875-5.7617 2.3984-11.762 7.5586-21.238 8.0391-14.641 22.922-42 3.1211-71.281-14.398-21.359-33.719-31.801-59.039-31.801-9 0-18.121 1.3203-27.84 2.6406-9 1.3203-19.32 2.7617-31.199 3.3594-1.3203 0.12109-2.6406 0.12109-3.8398 0.12109-19.078 0-36.602-7.1992-56.879-15.719-16.922-6.9609-36.121-15-57.719-18.602-10.32-1.8008-27.238-3.8398-48.84-3.8398-74.039 0-189.12 23.398-316.68 134.88-163.2 142.68-126.6 341.76-121.2 366.24 0.71875 4.1992 1.5586 9.1211 2.6406 14.398 2.3984 12.238 5.7617 29.16 4.8008 39.48-0.48047 5.6406-2.6406 11.398-5.5195 18.84-3.6016 9.7188-7.8008 20.641-9.1211 34.441-2.7617 28.199 7.0781 45.48 15.719 55.078 11.52 12.719 28.441 19.801 47.641 19.801 8.8789 0 18.359-1.5586 27.602-4.4414l3.9609-1.3203c6.3594-2.1602 8.3984-2.7617 11.879-2.7617 19.32 0 73.199 20.52 90.84 27.238 30.719 11.641 65.879 17.879 102 17.879 72.961 0 186.24-24.961 311.04-143.88 156-148.56 122.28-343.56 111.24-407.64-1.0859-5.1523-1.8047-9.2344-2.1641-11.871zm-35.762 4.3203c4.4414 35.879 57.719 240.36-98.398 388.92-156.12 148.68-298.2 147.72-375.36 118.44-99.719-38.039-107.28-31.32-130.68-23.762-18.84 6.1211-47.398 4.4414-43.801-32.641 1.8008-18.602 12.719-32.879 14.641-53.398s-5.2812-47.398-7.8008-63.121c0 0-47.879-195.72 109.44-333.24 157.44-137.41 292.44-129.96 335.76-122.52 43.32 7.4414 78 37.199 126.36 34.68 48.359-2.5195 68.641-16.441 86.398 9.9609 14.641 21.598-21 40.797-16.559 76.68z"/>
  <path d="m334.56 626.4c-9.8398 0-18-8.0391-18-17.879 0-7.3203 1.8008-181.44 242.76-277.44 2.1602-0.83984 4.4414-1.3203 6.6016-1.3203 7.4414 0 14.039 4.4414 16.68 11.281 3.7188 9.2383-0.83984 19.68-10.078 23.398-217.56 86.762-219.96 237.6-219.96 243.96 0 9.9609-8.1602 18-18 18z"/>
 </g>
</svg>
