<?xml version="1.0" encoding="UTF-8"?>
<svg width="1200pt" height="1200pt" version="1.1" viewBox="0 0 1200 1200" xmlns="http://www.w3.org/2000/svg">
 <path d="m1056.5 625.96c-35.062 98.137-121.4 134.16-263.93 110.18-0.46875-0.085937-0.92578-0.12109-1.3906-0.16797-1.668-20.125-6.0703-38.543-12.492-53.734 15.445-17.27 33.66-48.805 38.258-103.74 3.7422-44.711-7.4414-81.371-26.316-109.12 74.82-38.82 180.31-60.227 223.62-30.77 57.68 39.227 64.93 123.93 42.25 187.34m-356.77 245.77c-60.359 58.273-158.36 52.766-171.41 51.742 2.6875-18.168 3.0977-38.027 1.2617-59.578 19.176-11.438 50.113-36.277 61.922-81.875 7.6211-29.496 7.043-56.809-1.5234-80.113 68.855-18.395 138.73-2.6875 149.14-0.14453 25 57.984-4.5195 136.3-39.391 169.97m-279.34 130.44c-38.578 17.137-83.398 9.0586-103.33 3.9727 6.3242-25.188 4.1641-52.68-5.9297-75.59-7.6094-17.293-17.797-31.223-27.625-41.914 32.543-9.6953 73.609-16.477 115.14-18.742 38.93-2.125 69.539-0.39453 87.109 1.2109 5.0664 67.281-15.898 109.12-65.363 131.06m-174.07 29.113c-14.027 6.4688-45.539 9.625-68.195-1.2969-13.645-6.5898-22.078-17.184-25.789-32.375-4.7773-19.57-1.2852-37.188 10.078-50.953 15.359-18.602 44.051-29.305 77.773-29.305 2.6289 0 5.3047 0.058594 8.0039 0.20313 0.58984 0.023437 1.1758 0.023437 1.7656 0.011718 7.2461 7.7266 14.988 18 20.629 30.828 12.418 28.176 5.4922 69.156-24.266 82.887m-118.05-112.84c-0.625 0.75781-1.1992 1.5586-1.8125 2.3281-9.1445-4.5-28.922-20.641-19.922-74.137 8.4609-50.293 44.531-90 92.328-102.25 2.4609 7.6445 5.2305 15.324 8.2578 23.074-8.3984 35.688-7.7656 74.051-4.7891 109.31-30.836 6.3633-56.695 20.656-74.062 41.68m125.59-374.96c30.035-58.777 90.875-102.74 154.74-113.17 1.4766 15.613 3.9258 32.113 7.3906 49.488-41.605 45.926-54.887 105.2-56.941 156.31-18.047 3.8516-36.238 9.2266-54.086 16.523-32.195 13.188-54.938 31.836-70.812 53.746-13.555-57.719-7.0742-110.47 19.711-162.9m273.19-315.6c53.652-38.723 111.36-38.387 147.88-26.699-40.066 47.508-57.539 114-52.992 200.77-42.359 0.51562-89.676 7.9336-133.92 27.121-12.012 5.2188-22.895 11.137-32.855 17.594-14.254-99.137 10.324-174.39 71.895-218.79m37.188 435.49c-12.949-11.891-29.27-20.605-48.434-25.523-29.605-7.6328-69.254-11.879-112.02-8.3281 4.9922-79.812 38.387-132.25 101.87-159.8 65.027-28.199 144.07-27.938 193.55-15.191 56.258 14.52 77.594 72.539 73.609 120.29-4.2852 51.254-22.066 73.754-31.211 82.078-27.336-5.793-103.14-17.867-177.36 6.4805m-61.656 164.96c-14.988-1.8711-53.438-5.5664-106.37-2.6875-27.191 1.4883-95.352 7.3086-151.01 29.27-4.5234-90.133 18.312-137.46 76.535-161.3 37.559-15.371 77.449-21.012 112.78-21.012 27.145 0 51.59 3.3242 70.246 8.125 18.168 4.6914 31.402 13.836 39.289 27.227 9.4805 16.066 11.051 37.836 4.5469 62.965-9.1289 35.352-35.445 52.008-46.02 57.418m273.91-646.73c96.109-40.883 204.35-13.645 269.36 67.789 47.641 59.688 61.609 135.23 39.781 202.09-11.953-19.871-27.574-36.602-46.535-49.488-70.488-47.941-206.68-5.9141-275.95 31.824-1.2969 0.70703-2.4961 1.5234-3.5898 2.4375-15.336-11.953-32.352-20.258-49.309-24.637-12.672-3.2539-27.527-5.9141-43.836-7.6445-7.125-116.63 27.949-187.42 110.08-222.38m331.64 328.19c50.914-90.359 40.297-202.89-27.66-288.02-77.578-97.176-206.72-129.7-321.32-80.902-17.953 7.6445-34.094 16.738-48.516 27.238-25.297-12.758-57.805-19.273-90.742-17.82-42.457 1.8477-83.531 16.262-118.75 41.688-44.965 32.426-92.062 90.91-94.246 193.84-79.285 11.102-155.4 64.992-192.46 137.52-29.137 57.023-37.871 115.8-26.461 178.09-64.848 16.547-113.72 70.152-125.11 137.88-12.492 74.258 19.02 109.54 45.07 121.82-2.9766 14.879-2.5938 30.758 1.3672 46.969 6.8516 28.066 23.988 49.43 49.57 61.777 17.074 8.2305 36.422 11.688 54.781 11.688 19.453 0 37.812-3.875 51.227-10.055 13.105-6.0586 23.809-14.688 32.219-24.949 11.125 3.3828 37.633 10.285 69.395 10.285 22.57 0 47.746-3.4805 71.855-14.195 37.453-16.621 63.551-42.254 78.238-76.621 1.7383 0.66016 3.5508 1.1289 5.4844 1.332 1.3438 0.14453 10.5 1.0781 24.719 1.0781 41.125 0 124.57-7.7891 183.68-64.859 36.637-35.34 54.613-80.281 59.797-122.98 28.32 4.5352 54.996 6.8164 79.859 6.8164 47.902 0 89.281-8.3867 123.6-25.141 49.094-23.941 84.238-64.801 104.47-121.44 15.18-42.457 18.742-88.836 10.043-130.6-0.039063-0.12891-0.074219-0.28516-0.10938-0.44141"/>
</svg>
