<?xml version="1.0" encoding="UTF-8"?>
<svg width="1200pt" height="1200pt" version="1.1" viewBox="0 0 1200 1200" xmlns="http://www.w3.org/2000/svg">
 <path d="m938.04 665.64c0-128.76-86.641-239.28-209.4-285.6-0.76562-0.53906-1.6172-0.94531-2.5195-1.1992-3.2383-0.83984-78.961-20.281-78.961-128.4v-93c-0.019531-4.3281-2.3672-8.3125-6.1445-10.426s-8.3984-2.0273-12.094 0.22266l-70.32 43.199v0.003906c-3.5625 2.168-5.7461 6.0273-5.7617 10.199v49.801c0 108-75.602 127.56-78.961 128.4-0.96875 0.27344-1.8984 0.67969-2.7578 1.1992-123.12 46.441-209.16 156.96-209.16 285.6 0 156 128.16 286.2 293.52 306.24l-14.641 50.762c-1.7773 6.3242 1.8594 12.902 8.1602 14.758 1.1133 0.17578 2.2461 0.17578 3.3594 0 5.5117 0.22266 10.461-3.3438 12-8.6367l15.961-55.199h8.1602v68.16-0.003906c0 6.6289 5.3711 12 12 12 6.625 0 12-5.3711 12-12v-67.32h8.1602l15.359 54.84c1.5391 5.2969 6.4883 8.8594 12 8.6406 1.1133 0.17578 2.2461 0.17578 3.3594 0 6.3008-1.8555 9.9414-8.4336 8.1602-14.758l-15-51.121c165.36-20.16 293.52-149.76 293.52-306.36zm-344.04-284.76v569.64h-6c-26.039-26.52-50.879-136.2-50.879-284.88s24.84-257.64 50.879-284.64zm12 569.64v-569.64h6c26.039 26.52 50.879 136.08 50.879 284.64 0 148.56-24.84 258.48-50.879 284.88zm-33.602-568.68c-30.84 46.078-47.281 168-47.281 283.8s16.441 237.84 47.281 283.8h-4.1992c-62.879-30-110.04-145.44-110.04-283.8s47.16-253.8 110.04-283.56zm55.199 567.6c30.84-45.961 47.281-168 47.281-283.8s-16.438-237.72-47.277-283.8h4.1992c62.879 29.762 110.04 145.56 110.04 283.56s-47.16 254.04-110.04 283.8zm-86.398-564c-55.801 46.559-95.039 154.56-95.039 280.2s39.238 234.36 95.039 279.96c-4.3203-0.83984-8.5195-1.5586-12.719-2.5195-96-37.32-165.6-147.48-165.6-277.44s69.719-240 165.6-277.44zm117.6 560.16c55.801-45.602 95.039-153.6 95.039-279.96s-39.238-233.64-95.039-279.84l12.719 2.3984c96 37.32 165.6 147.6 165.6 277.44s-69.121 240.12-165.12 277.44c-4.6797 0.96094-8.8789 1.6836-13.199 2.5234zm-81.961-695.16v-43.082l46.32-28.441v72.004c-1.9727 40.191 10.832 79.719 36 111.12-19.836-3.25-39.898-4.8945-60-4.918-19.82 0.046875-39.605 1.6914-59.16 4.918 25.434-31.488 38.527-71.16 36.84-111.6zm-290.88 415.2c0-116.16 77.039-216 187.08-260.52-73.078 52.801-122.16 149.88-122.16 260.52s49.078 207.72 122.16 260.64c-110.04-44.402-187.08-144.48-187.08-260.64zm441 260.64c73.078-52.922 122.16-149.88 122.16-260.64s-49.082-207.72-122.16-260.52c110.04 44.281 187.08 144 187.08 260.52s-77.039 216.24-187.08 260.64z"/>
</svg>
