<?xml version="1.0" encoding="UTF-8"?>
<svg width="1200pt" height="1200pt" version="1.1" viewBox="0 0 1200 1200" xmlns="http://www.w3.org/2000/svg">
 <path d="m625 350c-0.16406-11.949 3.957-23.559 11.617-32.73 7.6562-9.1719 18.348-15.301 30.133-17.27l36.75 31.25c22.453 18.832 49.129 31.953 77.75 38.25 14.348 3.3828 29.012 5.2266 43.75 5.5 44.055 0.31641 86.812-14.906 120.75-43l44.75-38c5.5547-4.75 8.75-11.691 8.75-19s-3.1953-14.25-8.75-19l-44-38c-34.508-27.547-77.348-42.547-121.5-42.547s-86.992 15-121.5 42.547l-39 32c-17.539 1.8633-34.27 8.332-48.5 18.75-11.77-34.672-34.117-64.777-63.895-86.082-29.781-21.301-65.492-32.727-102.11-32.668-8.9297 0-17.184 4.7656-21.652 12.5-4.4648 7.7344-4.4648 17.266 0 25 4.4688 7.7344 12.723 12.5 21.652 12.5 33.152 0 64.945 13.168 88.387 36.613 23.445 23.441 36.613 55.234 36.613 88.387v75c-49.102-23.094-104.38-29.59-157.5-18.5l-15.5 3.75-11 2.75-13.75 4.25h-2.5l-7 2.25c-7.5 3-14.75 6-21.75 9.25l-5.25 3c-5.5 2.75-11 5.75-16.25 9l-7.5 5-12.75 8.75c-2 1.75-4.25 3.25-7.5 6.25l-11.25 9.75-7.25 6.75-12.25 13.5c-1.5 1.5-2.75 3.25-4.25 5s-7.75 10.25-12.25 16.75l-2.5 3.5c-4.7188 7.1836-9.0586 14.613-13 22.25l-3 6.25c-2.75 5.75-5.5 11.75-8 18 0 2.25-1.75 4.5-3.25 9s-4 11-5.5 16.75l-3 10.5c0 5.75-2.75 11.5-4 18.5 0 3.25 0 6.5-1.75 9.75s-2 13.25-2.75 20v9.75c0 10.25-1.25 20.5-1.25 31.25-1.5 182.5 116 387 273.5 387 31.387-0.10156 62.43-6.5664 91.25-19 21.496-9.5 46.004-9.5 67.5 0 28.82 12.434 59.863 18.898 91.25 19 157.5 0 275-204.5 275-387.5v-31.25-9.75c0-6.75-1.5-13.5-2.75-19.75s0-6.25-2-11-2.5-11.75-4-17.75-1.75-6.75-2.75-10.25-3.5-11.25-6.25-19l-2.5-6.75c-2.5-6.25-5.25-12.25-9-19.75-0.5625-1.543-1.2305-3.0469-2-4.5-4-7.75-8.25-15-12.75-22l-6-4.75c-3.75-5.5-7.5-10.75-11.5-15.75l-5.75-6.75c-3.5-4-7.25-8-11-11.75l-6.75-6.75c-3.75-3.25-7.5-6.75-11.75-10l-7.5-6-12.5-8.75-2.25-1.5-6-3.5c-5.25-3.25-10.75-6.25-17.5-9.75l-4-2c-7-3.5-14.25-6.5-21.75-9.5l-6.75-2.25h-3l-13.25-4.25-13.5-3.5-5.25-1.25-8.75-1.75c-52.77-10.656-107.57-3.9922-156.25 19zm289-94 22.25 19-22.25 19c-34.188 27.414-79.137 37.477-121.75 27.25-17.355-3.7461-33.77-10.977-48.25-21.25h81c8.9297 0 17.184-4.7656 21.652-12.5 4.4648-7.7344 4.4648-17.266 0-25-4.4688-7.7344-12.723-12.5-21.652-12.5h-80.25c25.145-17.234 55.148-25.949 85.613-24.871 30.465 1.082 59.777 11.898 83.637 30.871zm-287.75 198.5 6-3.25c44.926-25.426 97.855-32.758 148-20.5l6.5 1.5 9.25 2.5 11 3.5 8 2.5c6.5234 2.3906 12.871 5.2305 19 8.5l2.75 1.5c4.5469 2.168 8.9727 4.5898 13.25 7.25l5.75 3.75 10.25 7.25 6 4.75 9 8 5.5 5.25c3 3 5.75 6 8.5 9.25l4.75 5.5c3.25 4 6.25 8.25 9.25 12.25l2.75 4c4.2422 6.2891 8.0039 12.891 11.25 19.75l1.5 3c2.25 4.75 4.5 9.75 6.5 14.75l2.75 7.5c1.5 4.5 3.25 9.25 4.5 14s1.75 5.75 2.5 8.5 2.25 10 3.5 16.5l1.5 7.75c0 5.5 1.5 11.25 2.25 17v8.5 27.25c2 152.75-98 337.5-223 337.5-24.531-0.03125-48.789-5.1367-71.25-15-34.262-15.004-73.238-15.004-107.5 0-22.461 9.8633-46.719 14.969-71.25 15-125 0-225-184.75-225-337.5 0-9.25 0-18.5 1.25-27.25v-8.5c0-5.75 1.25-11.5 2.25-17.25l1.75-9c0-5 2-10 3.25-14.75 0.68359-2.957 1.5195-5.8789 2.5-8.75 1.2344-4.7461 2.7383-9.4219 4.5-14l2.75-7.5c2-5 4.25-10 6.5-14.75l2.5-5c3.207-6.5898 6.8828-12.938 11-19l2-2.5c3-4.25 6-8.5 9.25-12.5l4.5-5.5 8.5-9.25 5.75-5.25 10-9 5-3.75 10-7 6.25-4.25c4-2.5 8.5-4.75 13-7l4-2.25c5.7539-2.9414 11.68-5.5312 17.75-7.75l7.75-2.5 11.25-3.75 9.5-2.25 6.25-1.5c50.137-12.387 103.12-5.0469 148 20.5l6 3.25h2v45.5c-12.254-3.5508-23.484-9.9766-32.75-18.75-4.6484-5.168-11.242-8.168-18.191-8.2812-6.9531-0.10938-13.637 2.6797-18.445 7.6992-4.8125 5.0195-7.3164 11.816-6.9102 18.758 0.40625 6.9414 3.6836 13.398 9.0469 17.824 24.645 24.109 57.773 37.578 92.25 37.5 34.453 0.066406 67.598-13.191 92.5-37 5.3633-4.4258 8.6406-10.883 9.0469-17.824 0.40625-6.9414-2.0977-13.738-6.9102-18.758-4.8086-5.0195-11.492-7.8086-18.445-7.6992-6.9492 0.11328-13.543 3.1133-18.191 8.2812-9.4648 8.5195-20.754 14.762-33 18.25v-45.5z"/>
</svg>
